<?xml version="1.0" standalone="no"?>
<!DOCTYPE svg PUBLIC "-//W3C//DTD SVG 1.1//EN" "http://www.w3.org/Graphics/SVG/1.1/DTD/svg11.dtd" >
<svg>
<metadata>
Created by FontForge 20120731 at Thu Nov 20 11:50:34 2014
 By Orthosie Webhosting
Copyright (c) 2006 by Dino dos Santos _DSType. All rights reserved.
</metadata>
<defs>
<font id="PlexesProBook" horiz-adv-x="500" >
  <font-face 
    font-family="PlexesProBook"
    font-weight="400"
    font-stretch="normal"
    units-per-em="1000"
    panose-1="2 0 5 6 0 0 0 2 0 4"
    ascent="800"
    descent="-200"
    x-height="470"
    cap-height="630"
    bbox="-60 -286 1053 909"
    underline-thickness="50"
    underline-position="-50"
    unicode-range="U+0020-FB06"
  />
<missing-glyph horiz-adv-x="590" 
d="M70 500h450v-500h-450v500zM287 249l-206 236v-469zM304 249l205 -231v465zM93 488l203 -229l202 229h-405zM296 240l-201 -228h401z" />
    <glyph glyph-name="ff" unicode="ff" horiz-adv-x="590" 
d="M363 406h-207v-406h-73v406h-50v64h50v66q0 134 123 134q19 0 38.5 -2t29.5 -4l9 -3v-56l-7 -7q-25 5 -58 5q-63 0 -62 -67v-66h207v66q0 134 123 134q19 0 38.5 -2t29.5 -4l9 -3v-56l-7 -7q-25 5 -58 5q-63 0 -62 -67v-66h107v-64h-107v-406h-73v406z" />
    <glyph glyph-name="fi" unicode="fi" horiz-adv-x="507" 
d="M433 660v-107h-73v42q-54 7 -95 7q-22 0 -37 -1.5t-34 -7.5t-28.5 -20.5t-9.5 -36.5v-66h277v-470h-73v406h-204v-406h-73v406h-50v64h50v66q0 134 158 134q65 0 153 -10h39z" />
    <glyph glyph-name="fl" unicode="fl" horiz-adv-x="507" 
d="M83 470v66q0 43 15.5 71.5t44.5 41t57 17t67 4.5q72 -1 123 -10h43v-660h-73v595q-67 8 -110 8q-94 0 -94 -67v-66h107v-64h-107v-406h-73v406h-50v64h50z" />
    <glyph glyph-name="ffi" unicode="ffi" horiz-adv-x="787" 
d="M363 0v406h-207v-406h-73v406h-50v64h50v66q0 134 123 134q19 0 38.5 -2t29.5 -4l9 -3v-56l-7 -7q-25 5 -58 5q-63 0 -62 -67v-66h207v66q0 134 158 134q65 0 153 -10h39v-107h-73v42q-54 7 -95 7q-22 0 -37 -1.5t-34 -7.5t-28.5 -20.5t-9.5 -36.5v-66h277v-470h-73v406
h-204v-406h-73z" />
    <glyph glyph-name="ffl" unicode="ffl" horiz-adv-x="787" 
d="M363 0v406h-207v-406h-73v406h-50v64h50v66q0 134 123 134q19 0 38.5 -2t29.5 -4l9 -3v-56l-7 -7q-25 5 -58 5q-63 0 -62 -67v-66h207v66q0 43 15.5 71.5t44.5 41t57 17t67 4.5q72 -1 123 -10h43v-660h-73v595q-67 8 -110 8q-94 0 -94 -67v-66h107v-64h-107v-406h-73z
" />
    <glyph glyph-name="T_h" unicode="Th" horiz-adv-x="850" 
d="M20 630h476v-166l-2 -54h4l5 7.5t15.5 16.5t27 21.5t40 17t53.5 7.5q64 0 100.5 -30.5t36.5 -108.5v-341h-73v338q0 43 -21.5 59t-61.5 16q-66 0 -124 -65v-348h-73v560h-167v-560h-73v560h-163v70z" />
    <glyph glyph-name="T_h.caron" unicode="&#x164;h" horiz-adv-x="850" 
d="M20 630h476v-166l-2 -54h4l5 7.5t15.5 16.5t27 21.5t40 17t53.5 7.5q64 0 100.5 -30.5t36.5 -108.5v-341h-73v338q0 43 -21.5 59t-61.5 16q-66 0 -124 -65v-348h-73v560h-167v-560h-73v560h-163v70zM253 680h-65l-108 136h72l69 -85l68 85h72z" />
    <glyph glyph-name="T_h.commaaccent" unicode="&#x162;h" horiz-adv-x="850" 
d="M20 630h476v-166l-2 -54h4l5 7.5t15.5 16.5t27 21.5t40 17t53.5 7.5q64 0 100.5 -30.5t36.5 -108.5v-341h-73v338q0 43 -21.5 59t-61.5 16q-66 0 -124 -65v-348h-73v560h-167v-560h-73v560h-163v70zM260 -40v-83l-10 -130h-36v130h-37v83h83z" />
    <glyph glyph-name="f_f_j" unicode="ffj" horiz-adv-x="787" 
d="M640 -46v452h-204v-406h-73v406h-207v-406h-73v406h-50v64h50v66q0 134 123 134q19 0 38.5 -2t29.5 -4l9 -3v-56l-7 -7q-25 5 -58 5q-63 0 -62 -67v-66h207v66q0 134 158 134q65 0 153 -10h39v-107h-73v42q-54 7 -95 7q-22 0 -37 -1.5t-34 -7.5t-28.5 -20.5t-9.5 -36.5
v-66h277v-516q0 -134 -123 -134q-19 0 -38 2t-28 4l-10 3v56l7 7q24 -5 56 -5q63 0 63 67z" />
    <glyph glyph-name="f_j" unicode="fj" horiz-adv-x="507" 
d="M360 -46v452h-204v-406h-73v406h-50v64h50v66q0 134 158 134q65 0 153 -10h39v-107h-73v42q-54 7 -95 7q-22 0 -37 -1.5t-34 -7.5t-28.5 -20.5t-9.5 -36.5v-66h277v-516q0 -134 -123 -134q-19 0 -38 2t-28 4l-10 3v56l7 7q24 -5 56 -5q63 0 63 67z" />
    <glyph glyph-name=".notdef" horiz-adv-x="590" 
d="M70 500h450v-500h-450v500zM287 249l-206 236v-469zM304 249l205 -231v465zM93 488l203 -229l202 229h-405zM296 240l-201 -228h401z" />
    <glyph glyph-name=".notdef" horiz-adv-x="590" 
d="M70 500h450v-500h-450v500zM287 249l-206 236v-469zM304 249l205 -231v465zM93 488l203 -229l202 229h-405zM296 240l-201 -228h401z" />
    <glyph glyph-name=".null" horiz-adv-x="0" 
 />
    <glyph glyph-name="nonmarkingreturn" horiz-adv-x="333" 
 />
    <glyph glyph-name="space" unicode=" " horiz-adv-x="250" 
 />
    <glyph glyph-name="exclam" unicode="!" horiz-adv-x="210" 
d="M68 350v310h73v-310l-7 -207h-59zM139 83v-83h-69v83h69z" />
    <glyph glyph-name="quotedbl" unicode="&#x22;" horiz-adv-x="370" 
d="M156 660v-84l-10 -130h-36v130h-37v84h83zM296 660v-84l-10 -130h-36v130h-37v84h83z" />
    <glyph glyph-name="numbersign" unicode="#" horiz-adv-x="630" 
d="M556 353v-63h-133v-90h133v-64h-133v-133h-63v133h-90v-133h-64v133h-133v64h133v90h-133v63h133v133h64v-133h90v133h63v-133h133zM270 290v-90h90v90h-90z" />
    <glyph glyph-name="dollar" unicode="$" horiz-adv-x="530" 
d="M291 -120h-63v112l-147 8v62l7 7q112 -10 175 -10q120 0 120 74v74q0 47 -34.5 64t-97.5 17q-178 0 -178 131v89q0 125 155 131v111h63v-112l133 -8v-63l-7 -7q-89 10 -152 10q-119 0 -119 -72v-65q0 -25 10 -41t31.5 -22.5t41.5 -8.5t54 -2q44 0 79.5 -10t64.5 -42.5
t29 -85.5v-94q0 -39 -15 -66.5t-40.5 -42t-52 -20.5t-57.5 -7v-111z" />
    <glyph glyph-name="percent" unicode="%" horiz-adv-x="728" 
d="M205 0h-70l395 630h70zM276 493v43q0 52 -72 52q-73 0 -73 -52v-43q0 -52 73 -52q72 0 72 52zM328 541v-52q0 -99 -124 -99q-55 0 -89.5 23.5t-34.5 75.5v52q0 52 34.5 75.5t89.5 23.5q124 0 124 -99zM596 93v43q0 52 -72 52q-73 0 -73 -52v-43q0 -52 73 -52q72 0 72 52z
M648 141v-52q0 -99 -124 -99q-55 0 -89.5 23.5t-34.5 75.5v52q0 52 34.5 75.5t89.5 23.5q124 0 124 -99z" />
    <glyph glyph-name="ampersand" unicode="&#x26;" horiz-adv-x="669" 
d="M412 212v138h193v-64h-123v-142l146 -144h-99l-62 60q-33 -70 -147 -70h-68q-37 0 -66 5t-56 18.5t-42 41t-15 67.5v58q0 43 12 70.5t38 54.5l47 48l-18 18q-27 27 -38.5 54.5t-11.5 70.5v42q0 132 174 132q37 0 81 -2.5t70 -5.5l26 -2v-63l-7 -7q-89 10 -152 10
q-119 0 -119 -72v-42q0 -39 49 -88zM146 190v-55q0 -45 30 -60.5t81 -15.5h47q30 0 50 3t37.5 16.5t19.5 36.5l-194 191l-27 -28q-44 -44 -44 -88z" />
    <glyph glyph-name="quotesingle" unicode="'" horiz-adv-x="230" 
d="M156 660v-84l-10 -130h-36v130h-37v84h83z" />
    <glyph glyph-name="parenleft" unicode="(" horiz-adv-x="342" 
d="M73 31v567q0 38 13 65.5t31 42t45.5 22.5t49 10t49.5 2l7 -7v-63q-35 0 -58 -4t-43.5 -22.5t-20.5 -52.5v-553q0 -25 10.5 -42t30 -24t38 -9.5t43.5 -2.5v-63l-7 -7q-28 0 -49.5 2t-49 10t-45.5 22t-31 41.5t-13 65.5z" />
    <glyph glyph-name="parenright" unicode=")" horiz-adv-x="342" 
d="M268 598v-567q0 -38 -13 -65.5t-31 -41.5t-45.5 -22t-49 -10t-49.5 -2l-7 7v63q25 0 43.5 2.5t38 9.5t30 24t10.5 42v553q0 34 -20.5 52.5t-43.5 22.5t-58 4v63l7 7q28 0 49.5 -2t49 -10t45.5 -22.5t31 -42t13 -65.5z" />
    <glyph glyph-name="asterisk" unicode="*" horiz-adv-x="408" 
d="M231 643l-12 -102l85 56l27 -50l-96 -38l80 -65l-38 -42l-73 89l-74 -89l-38 43l79 64l-95 38l28 50l81 -55l-11 101h57z" />
    <glyph glyph-name="plus" unicode="+" horiz-adv-x="480" 
d="M271 78h-63v135h-135v63h135v135h63v-135h135v-63h-135v-135z" />
    <glyph glyph-name="comma" unicode="," horiz-adv-x="230" 
d="M156 83v-83l-10 -130h-36v130h-37v83h83z" />
    <glyph glyph-name="hyphen" unicode="-" horiz-adv-x="480" 
d="M73 276h333v-63h-333v63z" />
    <glyph glyph-name="period" unicode="." horiz-adv-x="230" 
d="M156 83v-83h-83v83h83z" />
    <glyph glyph-name="slash" unicode="/" horiz-adv-x="285" 
d="M76 0h-63l195 630h63z" />
    <glyph glyph-name="zero" unicode="0" horiz-adv-x="540" 
d="M231 59h77q85 0 85 91v329q0 90 -86 90h-75q-86 0 -86 -90v-329q0 -91 85 -91zM310 -10h-81q-67 0 -111.5 33.5t-44.5 113.5v355q0 81 44.5 114.5t111.5 33.5h81q67 0 111.5 -33.5t44.5 -114.5v-355q0 -80 -44.5 -113.5t-111.5 -33.5z" />
    <glyph glyph-name="one" unicode="1" horiz-adv-x="390" 
d="M336 66v-66h-283v66h105v497h-105v67h178v-564h105z" />
    <glyph glyph-name="two" unicode="2" horiz-adv-x="530" 
d="M73 0v218q0 131 178 131q63 0 97.5 17t34.5 64v66q0 74 -119 74q-28 0 -71.5 -2.5t-72.5 -5.5l-30 -2l-7 7v63q118 10 201 10q32 0 59.5 -6t54.5 -20t42.5 -42.5t15.5 -68.5v-87q0 -53 -29 -85.5t-64.5 -42.5t-79.5 -10q-34 0 -54 -1.5t-41.5 -8.5t-31.5 -22.5t-10 -40.5
v-136h300v-69h-373z" />
    <glyph glyph-name="three" unicode="3" 
d="M78 290v69h138q25 0 38.5 0.5t35.5 5t34 12.5t21 25t8 41v45q0 82 -122 82q-28 0 -70.5 -2.5t-71.5 -5.5l-29 -2l-7 7v63q115 10 198 10q175 0 175 -136v-67q0 -83 -72 -113q72 -27 72 -112v-87q0 -135 -178 -135q-37 0 -85.5 2.5t-78.5 5.5l-31 2v62l7 7
q105 -10 168 -10q125 0 125 82v65q0 24 -9 41t-20.5 25t-34 12.5t-36 5t-38.5 0.5h-137z" />
    <glyph glyph-name="four" unicode="4" horiz-adv-x="550" 
d="M338 163h-305v61l293 411h85v-402h75v-70h-75v-163h-73v163zM118 233h220v304z" />
    <glyph glyph-name="five" unicode="5" horiz-adv-x="520" 
d="M241 298h-158v332h353v-67h-280v-194h117q44 0 79.5 -9.5t64.5 -41.5t29 -85v-106q0 -40 -15.5 -68.5t-42.5 -42.5t-54.5 -20t-59.5 -6q-37 0 -87 2.5t-82 5.5l-32 2v62l7 7q111 -10 174 -10q119 0 119 74v86q0 47 -34 63t-98 16z" />
    <glyph glyph-name="six" unicode="6" horiz-adv-x="530" 
d="M73 137v367q0 52 29 84.5t65 42t80 9.5q37 0 86.5 -2.5t80.5 -5.5l32 -2v-63l-7 -7q1 0 -32.5 2.5t-77.5 5t-63 2.5q-120 0 -120 -86v-136q33 28 89 28h65q67 0 111.5 -33.5t44.5 -113.5v-92q0 -80 -44.5 -113.5t-111.5 -33.5h-71q-67 0 -111.5 33.5t-44.5 113.5z
M297 306h-65q-86 0 -86 -90v-66q0 -91 85 -91h67q85 0 85 91v66q0 90 -86 90z" />
    <glyph glyph-name="seven" unicode="7" horiz-adv-x="475" 
d="M431 558l-246 -558h-85l248 560h-305v70h388v-72z" />
    <glyph glyph-name="eight" unicode="8" horiz-adv-x="530" 
d="M265 570q-119 0 -119 -82v-45q0 -29 9 -47t27.5 -25.5t34.5 -9.5t43 -2q26 0 42.5 2t34.5 9.5t27 25.5t9 47v45q0 82 -108 82zM281 -10h-54q-69 0 -116.5 31t-47.5 107v84q0 83 75 112q-65 27 -65 113v64q0 76 47.5 107.5t116.5 31.5h45q69 0 116.5 -31.5t47.5 -107.5
v-64q0 -85 -65 -113q75 -29 75 -112v-84q0 -138 -175 -138zM243 59h33q107 0 107 82v65q0 29 -10 47t-30.5 25.5t-37.5 9.5t-45 2q-23 0 -36.5 -1t-32 -5.5t-29 -12.5t-18.5 -24.5t-8 -40.5v-65q0 -82 107 -82z" />
    <glyph glyph-name="nine" unicode="9" horiz-adv-x="530" 
d="M456 492v-367q0 -40 -16 -68t-43 -42t-54.5 -19.5t-59.5 -5.5q-37 0 -87 2.5t-82 5.5l-31 2v62l7 7q-1 0 32.5 -2.5t77.5 -5t63 -2.5q120 0 120 86v136q-33 -28 -89 -28h-65q-67 0 -111.5 33.5t-44.5 113.5v92q0 81 44.5 114.5t111.5 33.5h71q67 0 111.5 -33.5
t44.5 -114.5zM232 323h65q86 0 86 90v66q0 91 -85 91h-67q-85 0 -85 -91v-66q0 -90 86 -90z" />
    <glyph glyph-name="colon" unicode=":" horiz-adv-x="230" 
d="M156 83v-83h-83v83h83zM156 370v-84h-83v84h83z" />
    <glyph glyph-name="semicolon" unicode=";" horiz-adv-x="230" 
d="M156 83v-83l-10 -130h-36v130h-37v83h83zM156 370v-84h-83v84h83z" />
    <glyph glyph-name="less" unicode="&#x3c;" horiz-adv-x="513" 
d="M73 204v77l366 135v-75l-275 -98l275 -99v-75z" />
    <glyph glyph-name="equal" unicode="=" horiz-adv-x="480" 
d="M406 206v-63h-333v63h333zM406 346v-63h-333v63h333z" />
    <glyph glyph-name="greater" unicode="&#x3e;" horiz-adv-x="513" 
d="M439 281v-77l-366 -135v75l275 99l-275 98v75z" />
    <glyph glyph-name="question" unicode="?" 
d="M194 208v-65h-73v82q0 131 135 131q25 0 39 1.5t29.5 8.5t22 22.5t6.5 40.5v99q0 72 -119 72q-28 0 -66.5 -2.5t-63.5 -5.5l-24 -2l-7 7v63q87 10 170 10t133 -28t50 -104v-114q0 -69 -38 -103.5t-92 -34.5q-55 0 -78.5 -14.5t-23.5 -63.5zM193 83v-83h-70v83h70z" />
    <glyph glyph-name="at" unicode="@" horiz-adv-x="880" 
d="M73 -48v568q0 82 44 116t111 34h423q67 0 111 -34t44 -116v-320q0 -82 -44 -116t-111 -34h-101l-7 7l3 53h-4q-2 -3 -5.5 -7.5t-17 -16.5t-29 -21.5t-41 -17t-53.5 -7.5q-65 0 -101.5 29.5t-36.5 107.5v146q0 76 47.5 106.5t116.5 30.5q32 0 76 -2.5t72 -5.5l29 -2l7 -7
v-330h49q88 0 88 93v307q0 93 -92 93h-423q-92 0 -92 -93v-547q0 -82 126 -82q28 0 68 2.5t66 5.5l27 2l7 -7v-57q-95 -10 -178 -10q-179 0 -179 132zM543 166v224q-64 6 -111 6q-51 0 -81 -16.5t-30 -63.5v-136q0 -44 22 -60.5t67 -16.5q73 0 133 63z" />
    <glyph glyph-name="A" unicode="A" horiz-adv-x="510" 
d="M204 635h101l181 -635h-80l-64 227h-176l-63 -227h-80zM255 550l-73 -253h143z" />
    <glyph glyph-name="B" unicode="B" horiz-adv-x="530" 
d="M466 198v-46q0 -84 -45 -118t-112 -34h-236v630h226q67 0 112 -34t45 -118v-26q0 -85 -63 -121q34 -12 53.5 -47t19.5 -86zM146 69h166q35 0 58 22t23 61v51q0 87 -81 87h-166v-221zM146 359h158q35 0 57 22.5t22 63.5v29q0 43 -25.5 64.5t-66.5 21.5h-145v-201z" />
    <glyph glyph-name="C" unicode="C" horiz-adv-x="480" 
d="M436 567l-7 -7q-98 10 -161 10q-35 0 -59 -5t-43.5 -24t-19.5 -53v-347q0 -34 19.5 -53t43.5 -24t59 -5q28 0 68 2.5t66 4.5l27 3l7 -7v-62q-105 -10 -188 -10q-175 0 -175 132v386q0 132 175 132q37 0 84 -2.5t76 -5.5l28 -2v-63z" />
    <glyph glyph-name="D" unicode="D" horiz-adv-x="540" 
d="M393 176v277q0 107 -113 107h-134v-491h134q113 0 113 107zM466 460v-290q0 -170 -180 -170h-213v630h213q180 0 180 -170z" />
    <glyph glyph-name="E" unicode="E" horiz-adv-x="510" 
d="M146 560v-201h240v-69h-240v-221h300v-69h-373v630h373v-70h-300z" />
    <glyph glyph-name="F" unicode="F" horiz-adv-x="490" 
d="M146 560v-201h240v-69h-240v-290h-73v630h373v-70h-300z" />
    <glyph glyph-name="G" unicode="G" horiz-adv-x="520" 
d="M310 321h146v-321q-115 -10 -198 -10q-33 0 -62 5.5t-58.5 18.5t-47 40.5t-17.5 67.5v386q0 132 179 132q37 0 83 -2.5t73 -5.5l28 -2v-63l-7 -7q-95 10 -158 10q-125 0 -125 -82v-347q0 -82 132 -82q57 0 105 5v191h-66l-7 7v59z" />
    <glyph glyph-name="H" unicode="H" horiz-adv-x="540" 
d="M146 630v-271h247v271h73v-630h-73v290h-247v-290h-73v630h73z" />
    <glyph glyph-name="I" unicode="I" horiz-adv-x="220" 
d="M73 630h73v-630h-73v630z" />
    <glyph glyph-name="J" unicode="J" horiz-adv-x="315" 
d="M168 128v502h73v-508q0 -66 -36.5 -99t-97.5 -33q-18 0 -42.5 2t-39.5 4l-15 2v59l7 7q46 -5 79 -5q72 0 72 69z" />
    <glyph glyph-name="K" unicode="K" horiz-adv-x="533" 
d="M146 630v-332l250 332h90l-207 -282l223 -348h-92l-184 288l-80 -98v-190h-73v630h73z" />
    <glyph glyph-name="L" unicode="L" horiz-adv-x="430" 
d="M413 69v-69h-340v630h73v-561h267z" />
    <glyph glyph-name="M" unicode="M" horiz-adv-x="650" 
d="M73 630h93l159 -347l158 347h93v-630h-73v495l-149 -322h-59l-149 322v-495h-73v630z" />
    <glyph glyph-name="N" unicode="N" horiz-adv-x="550" 
d="M403 630h73v-630h-93l-237 485v-485h-73v630h86l244 -503v503z" />
    <glyph glyph-name="O" unicode="O" horiz-adv-x="540" 
d="M231 59h77q85 0 85 91v329q0 90 -86 90h-75q-86 0 -86 -90v-329q0 -91 85 -91zM310 -10h-81q-67 0 -111.5 33.5t-44.5 113.5v355q0 81 44.5 114.5t111.5 33.5h81q67 0 111.5 -33.5t44.5 -114.5v-355q0 -80 -44.5 -113.5t-111.5 -33.5z" />
    <glyph glyph-name="P" unicode="P" horiz-adv-x="520" 
d="M310 251h-164v-251h-73v630h237q67 0 111.5 -34t44.5 -117v-77q0 -83 -44.5 -117t-111.5 -34zM146 321h165q37 0 59.5 20.5t22.5 63.5v71q0 43 -22.5 63.5t-60.5 20.5h-164v-239z" />
    <glyph glyph-name="Q" unicode="Q" horiz-adv-x="540" 
d="M231 59h77q85 0 85 91v329q0 90 -86 90h-75q-86 0 -86 -90v-329q0 -91 85 -91zM310 -10h-12q-5 -38 6 -63t39 -25h82l7 -7v-55q-14 0 -40 -0.5t-39 -0.5q-25 -1 -50 2q-90 11 -61 149h-13q-67 0 -111.5 33.5t-44.5 113.5v355q0 81 44.5 114.5t111.5 33.5h81
q67 0 111.5 -33.5t44.5 -114.5v-355q0 -80 -44.5 -113.5t-111.5 -33.5z" />
    <glyph glyph-name="R" unicode="R" horiz-adv-x="555" 
d="M345 264l146 -264h-88l-143 261h-114v-261h-73v630h237q67 0 111.5 -34t44.5 -117v-64q0 -128 -121 -151zM146 331h165q37 0 59.5 20.5t22.5 63.5v61q0 43 -22.5 63.5t-60.5 20.5h-164v-229z" />
    <glyph glyph-name="S" unicode="S" horiz-adv-x="510" 
d="M373 133v74q5 81 -132 81q-74 0 -126 32.5t-52 108.5v79q0 132 172 132q37 0 81.5 -2.5t71.5 -5.5l26 -2v-63l-7 -7q-89 10 -152 10q-119 0 -119 -72v-65q0 -25 10 -41t31.5 -22.5t41.5 -8.5t54 -2q44 0 79.5 -10t64.5 -42.5t29 -85.5v-94q0 -40 -16 -68.5t-42.5 -42.5
t-54.5 -20t-60 -6q-37 0 -87.5 2.5t-82.5 5.5l-32 2v62l7 7q112 -10 175 -10q120 0 120 74z" />
    <glyph glyph-name="T" unicode="T" horiz-adv-x="440" 
d="M419 560h-163v-560h-73v560h-163v70h399v-70z" />
    <glyph glyph-name="U" unicode="U" horiz-adv-x="540" 
d="M393 630h73v-493q0 -80 -44.5 -113.5t-111.5 -33.5h-81q-67 0 -111.5 33.5t-44.5 113.5v493h73v-480q0 -91 85 -91h77q85 0 85 91v480z" />
    <glyph glyph-name="V" unicode="V" horiz-adv-x="510" 
d="M305 -5h-101l-181 635h80l152 -544l151 544h80z" />
    <glyph glyph-name="W" unicode="W" horiz-adv-x="740" 
d="M373 630h74l-42 -178l89 -349l142 527h80l-176 -635h-92l-79 316l-76 -316h-94l-176 635h80l145 -531z" />
    <glyph glyph-name="X" unicode="X" horiz-adv-x="540" 
d="M501 0h-88l-143 250l-146 -250h-86l182 315l-182 315h88l144 -251l145 251h86l-182 -315z" />
    <glyph glyph-name="Y" unicode="Y" horiz-adv-x="490" 
d="M13 630h84l148 -307l147 307h84l-195 -395v-235h-73v235z" />
    <glyph glyph-name="Z" unicode="Z" horiz-adv-x="490" 
d="M441 630v-72l-311 -490l316 3v-71h-403v71l310 490l-300 -3v72h388z" />
    <glyph glyph-name="bracketleft" unicode="[" horiz-adv-x="310" 
d="M146 670v-710h90v-70h-163v850h163v-70h-90z" />
    <glyph glyph-name="backslash" unicode="\" horiz-adv-x="285" 
d="M271 0h-63l-195 630h63z" />
    <glyph glyph-name="bracketright" unicode="]" horiz-adv-x="310" 
d="M163 -40v710h-90v70h163v-850h-163v70h90z" />
    <glyph glyph-name="asciicircum" unicode="^" horiz-adv-x="488" 
d="M211 676h65l141 -206h-72l-101 148l-102 -148h-72z" />
    <glyph glyph-name="underscore" unicode="_" horiz-adv-x="580" 
d="M73 -23h433v-63h-433v63z" />
    <glyph glyph-name="grave" unicode="`" horiz-adv-x="320" 
d="M246 566l-36 -30l-137 134l55 49z" />
    <glyph glyph-name="a" unicode="a" horiz-adv-x="480" 
d="M406 348v-348h-66l-7 7l2 53h-4l-5 -7.5t-15.5 -16.5t-27 -21.5t-40 -17t-53.5 -7.5q-63 0 -100 30.5t-37 107.5q0 78 48 111.5t119 33.5h113v64q0 76 -102 76q-28 0 -61 -2.5t-52 -4.5l-20 -3l-7 7v60q70 10 153 10q162 0 162 -132zM333 116v94h-85q-62 0 -92 -15.5
t-30 -63.5q0 -75 87 -75q68 0 120 60z" />
    <glyph glyph-name="b" unicode="b" horiz-adv-x="485" 
d="M146 348v-286q40 -4 104 -4q98 4 98 84v196q0 43 -19.5 59t-58.5 16q-66 0 -124 -65zM73 660h73v-186l-3 -64h4l5 7.5t15.5 16.5t27.5 21.5t40.5 17t53.5 7.5q63 0 97.5 -30.5t34.5 -108.5v-210q0 -53 -26.5 -86t-61.5 -44t-80 -11q-56 0 -173 10l-7 7v653z" />
    <glyph glyph-name="c" unicode="c" horiz-adv-x="420" 
d="M376 408l-7 -7q-60 10 -123 10q-51 0 -80.5 -16t-29.5 -65v-191q0 -49 29.5 -65t80.5 -16q28 0 59 2.5t47 5.5l17 2l7 -7v-61q-63 -10 -146 -10q-167 0 -167 135v219q0 136 167 136q37 0 73.5 -2.5t54.5 -5.5l18 -2v-62z" />
    <glyph glyph-name="d" unicode="d" horiz-adv-x="485" 
d="M338 121v286q-39 4 -104 4q-98 -4 -98 -84v-196q-1 -43 19.5 -59t59.5 -16q66 0 123 65zM411 660v-660h-66l-7 7l2 53h-4l-5 -7.5t-15.5 -16.5t-27 -21.5t-40 -17t-53.5 -7.5q-64 0 -98 30t-34 108v210q0 40 14.5 69t40 44.5t53.5 22t60 6.5t107 -5v185h73z" />
    <glyph glyph-name="e" unicode="e" horiz-adv-x="470" 
d="M240 413q-104 0 -104 -83v-57h200q5 30 5 67q-1 73 -101 73zM407 220l-10 -10h-261v-71q0 -49 29.5 -65t80.5 -16q28 0 59.5 2.5t48.5 5.5l18 2l7 -7v-61q-66 -10 -149 -10q-167 0 -167 135v212q0 76 50.5 109.5t126.5 33.5q176 0 176 -143q0 -63 -9 -117z" />
    <glyph glyph-name="f" unicode="f" horiz-adv-x="310" 
d="M263 406h-107v-406h-73v406h-50v64h50v66q0 134 123 134q19 0 38.5 -2t29.5 -4l9 -3v-56l-7 -7q-25 5 -58 5q-63 0 -62 -67v-66h107v-64z" />
    <glyph glyph-name="g" unicode="g" horiz-adv-x="490" 
d="M406 338v-77q0 -141 -176 -141q-25 0 -37 1q-7 -37 1.5 -51t36.5 -14q41 0 64 -1.5t49 -7.5t39 -18t21.5 -34t8.5 -55t-11 -56t-27 -35t-42.5 -19t-47.5 -8.5t-52 -1.5q-37 0 -79.5 2.5t-66.5 5.5l-24 2v58l7 7q87 -10 150 -10q61 0 90.5 11t29.5 44q0 19 -10 31
t-32 16.5t-37 5.5t-45 1h-13q-43 0 -61 20t-16.5 47.5t13.5 72.5q-86 31 -86 127v77q0 75 50.5 108.5t126.5 33.5q78 0 119 -27l117 23l7 -7v-56h-84q17 -32 17 -75zM333 260v71q0 82 -103 82q-104 0 -104 -74v-75q0 -78 104 -78q103 0 103 74z" />
    <glyph glyph-name="h" unicode="h" 
d="M73 660h73v-196l-2 -54h4l5 7.5t15.5 16.5t27 21.5t40 17t53.5 7.5q64 0 100.5 -31t36.5 -108v-341h-73v338q0 75 -81 75q-33 0 -59.5 -13t-66.5 -52v-348h-73v660z" />
    <glyph glyph-name="i" unicode="i" horiz-adv-x="220" 
d="M146 639v-86h-73v86h73zM73 470h73v-470h-73v470z" />
    <glyph glyph-name="j" unicode="j" horiz-adv-x="220" 
d="M146 639v-86h-73v86h73zM73 -46v516h73v-516q0 -134 -123 -134q-19 0 -38 2t-29 4l-9 3v56l7 7q24 -5 56 -5q63 0 63 67z" />
    <glyph glyph-name="k" unicode="k" horiz-adv-x="493" 
d="M146 206v-206h-73v660h73v-387h124q39 0 61 16t22 59v122h73v-120q0 -127 -125 -142l148 -208h-86l-147 206h-70z" />
    <glyph glyph-name="l" unicode="l" horiz-adv-x="220" 
d="M73 660h73v-660h-73v660z" />
    <glyph glyph-name="m" unicode="m" horiz-adv-x="780" 
d="M426 348v-348h-73v338q0 75 -81 75q-33 0 -59.5 -13t-66.5 -52v-348h-73v470h66l7 -7l-2 -53h4l5 7.5t15.5 16.5t27 21.5t40 17t53.5 7.5q105 0 129 -78q54 78 152 78q63 0 99.5 -30.5t36.5 -108.5v-341h-73v338q0 75 -72 75q-39 0 -65 -12t-70 -53z" />
    <glyph glyph-name="n" unicode="n" 
d="M426 341v-341h-73v338q0 43 -21.5 59t-61.5 16q-66 0 -124 -65v-348h-73v470h66l7 -7l-2 -53h4l5 7.5t15.5 16.5t27 21.5t40 17t53.5 7.5q64 0 100.5 -30.5t36.5 -108.5z" />
    <glyph glyph-name="o" unicode="o" horiz-adv-x="480" 
d="M343 138v193q0 82 -103 82q-104 0 -104 -82v-193q0 -82 104 -82q103 0 103 82zM416 338v-207q0 -141 -176 -141q-76 0 -126.5 33t-50.5 108v207q0 75 50.5 108.5t126.5 33.5q176 0 176 -142z" />
    <glyph glyph-name="p" unicode="p" horiz-adv-x="485" 
d="M152 348v-286q41 -4 105 -4q97 0 97 84v196q0 43 -20 59t-58 16q-67 0 -124 -65zM79 -170v640h66l7 -7l-2 -53h4l5 7.5t15.5 16.5t27 21.5t40 17t53.5 7.5q63 0 97.5 -30.5t34.5 -108.5v-210q0 -53 -26.5 -86t-61.5 -44t-80 -11q-32 0 -107 5v-165h-73z" />
    <glyph glyph-name="q" unicode="q" horiz-adv-x="485" 
d="M337 121v286q-40 4 -104 4q-98 -4 -98 -84v-196q0 -44 19.5 -59.5t59.5 -15.5q65 0 123 65zM410 -170h-73v175l3 55h-4l-5 -7.5t-15.5 -16.5t-27.5 -21.5t-40 -17t-54 -7.5q-64 0 -98 30t-34 108v210q0 40 14.5 69t40 44.5t53.5 22t60 6.5q38 0 81 -2.5t67 -5.5l25 -2
l7 -7v-633z" />
    <glyph glyph-name="r" unicode="r" horiz-adv-x="350" 
d="M303 413l-7 -7q-29 0 -46 -2t-47 -16t-57 -42v-346h-73v470h66l7 -7l-2 -53h4q-1 0 5 8t18.5 19t30.5 21.5t45 17t56 4.5v-67z" />
    <glyph glyph-name="s" unicode="s" horiz-adv-x="450" 
d="M60 61l7 7q73 -10 136 -10q28 0 46.5 2t37.5 9t28.5 22.5t9.5 39.5q0 21 -6 35t-14.5 21.5t-25 11.5t-30.5 5t-38 1q-81 0 -119.5 30t-38.5 108q0 137 156 137q37 0 77 -2.5t62 -5.5l21 -2v-62l-7 -7q-69 10 -132 10q-54 0 -79 -13t-25 -56q0 -20 6 -33.5t13.5 -20.5
t26 -10.5t32 -4t42.5 -0.5q75 0 112.5 -31t37.5 -111q0 -45 -14 -74.5t-40.5 -43t-52 -18.5t-60.5 -5q-37 0 -79 2.5t-66 5.5l-24 2v61z" />
    <glyph glyph-name="t" unicode="t" horiz-adv-x="330" 
d="M83 123v283h-50v64h50v100h73v-100h117v-64h-117v-283q0 -67 62 -67l58 5l7 -7v-55q-34 -9 -77 -9q-58 0 -90.5 33.5t-32.5 99.5z" />
    <glyph glyph-name="u" unicode="u" 
d="M73 128v342h73v-339q0 -43 21.5 -59t62.5 -16q65 0 123 65v349h73v-470h-66l-7 7l2 53h-4l-5 -7.5t-15.5 -16.5t-27 -21.5t-40 -17t-53.5 -7.5q-64 0 -100.5 30t-36.5 108z" />
    <glyph glyph-name="v" unicode="v" horiz-adv-x="470" 
d="M280 -5h-91l-159 475h81l124 -387l123 387h81z" />
    <glyph glyph-name="w" unicode="w" horiz-adv-x="700" 
d="M275 -5h-91l-154 475h81l120 -393l124 393h81l-49 -147l79 -246l122 393h81l-158 -475h-90l-73 220z" />
    <glyph glyph-name="x" unicode="x" horiz-adv-x="480" 
d="M441 0h-89l-112 174l-113 -174h-89l155 236l-153 234h89l111 -174l110 174h89l-153 -234z" />
    <glyph glyph-name="y" unicode="y" 
d="M426 470v-511q0 -40 -14.5 -68.5t-39.5 -43t-52.5 -21t-60.5 -6.5q-37 0 -76.5 2.5t-60.5 5.5l-22 2v62l7 7q73 -10 136 -10q50 0 80 17.5t30 66.5v38l2 49h-4l-5 -7.5t-15.5 -16.5t-27 -21.5t-40 -17t-53.5 -7.5q-64 0 -100.5 30t-36.5 108v342h73v-339q0 -75 83 -75
q31 0 58 13.5t66 51.5v349h73z" />
    <glyph glyph-name="z" unicode="z" horiz-adv-x="440" 
d="M381 470v-77l-258 -327h273v-66h-353v76l257 327h-247v67h328z" />
    <glyph glyph-name="braceleft" unicode="{" horiz-adv-x="386" 
d="M230 588v-214q0 -32 -17 -51.5t-41 -26.5q58 -19 58 -77v-178q0 -49 20 -65t62 -16v-63l-7 -7q-29 0 -50.5 3.5t-46 15t-38 38.5t-13.5 68v197q0 52 -84 52v64q84 0 84 52v234q0 41 13.5 68.5t38 39t46 15t50.5 3.5l7 -7v-63q-42 0 -62 -16t-20 -66z" />
    <glyph glyph-name="bar" unicode="|" horiz-adv-x="210" 
d="M73 780h63v-930h-63v930z" />
    <glyph glyph-name="braceright" unicode="}" horiz-adv-x="386" 
d="M155 374v214q0 50 -20 66t-62 16v63l7 7q29 0 50.5 -3.5t46 -15t38 -39t13.5 -68.5v-234q0 -52 84 -52v-64q-84 0 -84 -52v-197q0 -41 -13.5 -68t-38 -38.5t-46 -15t-50.5 -3.5l-7 7v63q42 0 62 16t20 65v178q0 58 58 77q-24 7 -41 26.5t-17 51.5z" />
    <glyph glyph-name="asciitilde" unicode="~" horiz-adv-x="508" 
d="M255 211q-43 19 -70 22.5t-41 -3.5t-35 -27l-36 37q60 95 192 40q32 -14 53 -19t36.5 1.5t22.5 12.5t22 23l35 -37q-63 -99 -179 -50z" />
    <glyph glyph-name="exclamdown" unicode="&#xa1;" horiz-adv-x="210" 
d="M68 -170v290l7 207h59l7 -207v-290h-73zM139 470v-83h-69v83h69z" />
    <glyph glyph-name="cent" unicode="&#xa2;" 
d="M73 125v223q0 126 158 132v110h63v-112l132 -8v-63l-7 -7q-91 10 -154 10q-55 0 -87 -16.5t-32 -65.5v-183q0 -86 119 -86q28 0 66.5 2.5t62.5 4.5l25 3l7 -7v-62q-55 -5 -125 -8v-112h-63v110q-165 4 -165 135z" />
    <glyph glyph-name="sterling" unicode="&#xa3;" horiz-adv-x="570" 
d="M206 346h200v-63h-200v-137q0 -47 -24 -77h314v-69h-423v69h10q25 0 37.5 18t12.5 45v151h-60v63h60v162q0 132 175 132q37 0 84 -2.5t76 -5.5l28 -2v-63l-7 -7q-98 10 -161 10q-35 0 -59 -5t-43.5 -24t-19.5 -53v-142z" />
    <glyph glyph-name="currency" unicode="&#xa4;" horiz-adv-x="513" 
d="M100 249q0 68 48 114l-78 90l8 8l79 -90q44 36 100 36q55 0 99 -36l78 90l9 -8l-78 -89q50 -47 50 -115t-49 -114l76 -86l-9 -9l-77 87q-43 -35 -99 -35q-57 0 -100 35l-76 -87l-9 9l76 86q-48 46 -48 114zM112 249q0 -59 43 -102t102 -43t102.5 43t43.5 102t-43.5 102.5
t-102.5 43.5t-102 -43.5t-43 -102.5z" />
    <glyph glyph-name="yen" unicode="&#xa5;" horiz-adv-x="490" 
d="M296 266h118v-63h-133v-203h-73v203h-133v63h117l-179 364h84l148 -307l147 307h84z" />
    <glyph glyph-name="brokenbar" unicode="&#xa6;" horiz-adv-x="210" 
d="M73 780h63v-400h-63v400zM73 250h63v-400h-63v400z" />
    <glyph glyph-name="section" unicode="&#xa7;" horiz-adv-x="530" 
d="M456 318v-251q0 -40 -16 -68.5t-42.5 -42.5t-54.5 -20t-60 -6q-37 0 -87 2.5t-82 5.5l-31 2v62l7 7q110 -9 173 -9q120 0 120 73v67q0 48 -34.5 64.5t-97.5 16.5q-178 0 -178 132v245q0 132 172 132q37 0 82 -2.5t72 -5.5l27 -2v-63l-7 -7q-91 10 -154 10
q-119 0 -119 -72v-59q0 -25 10 -40.5t31.5 -22.5t41.5 -8.5t54 -1.5q44 0 79.5 -10t64.5 -42.5t29 -85.5zM251 385q-66 0 -105 20v-39q0 -24 9.5 -39.5t29.5 -22.5t38.5 -9t49.5 -2q70 0 110 -23v19q0 55 -34 76.5t-98 19.5z" />
    <glyph glyph-name="dieresis" unicode="&#xa8;" horiz-adv-x="420" 
d="M161 648v-88h-88v88h88zM346 648v-88h-88v88h88z" />
    <glyph glyph-name="copyright" unicode="&#xa9;" horiz-adv-x="800" 
d="M216 49h368q40 0 66.5 24.5t26.5 73.5v345q0 49 -26.5 73.5t-66.5 24.5h-368q-40 0 -67 -24.5t-27 -73.5v-345q0 -49 27 -73.5t67 -24.5zM571 0h-343q-67 0 -111 34t-44 116v340q0 82 44 116t111 34h343q67 0 111 -34t44 -116v-340q0 -82 -44 -116t-111 -34zM533 458
l-5 -5q-79 7 -127 7q-93 0 -93 -61v-151q0 -61 93 -61l127 7l5 -5v-41q-81 -8 -143 -8q-132 0 -132 99v170q0 99 132 99q28 0 63.5 -2t57.5 -4l22 -2v-42z" />
    <glyph glyph-name="ordfeminine" unicode="&#xaa;" horiz-adv-x="405" 
d="M335 541v-261h-50l-5 5l1 40h-3q-1 -2 -3.5 -5.5t-12 -13t-20.5 -16.5t-29.5 -12.5t-39.5 -5.5q-103 0 -103 104q0 58 36 83.5t89 25.5h85v48q0 57 -77 57q-21 0 -45.5 -2t-39.5 -4l-14 -2l-6 6v45q53 7 115 7q122 0 122 -99zM280 367v71h-64q-46 0 -68.5 -12t-22.5 -48
q0 -56 65 -56q51 0 90 45z" />
    <glyph glyph-name="guillemotleft" unicode="&#xab;" horiz-adv-x="503" 
d="M70 211v64l266 184v-84l-187 -132l187 -133v-84zM263 211v64l169 111v-85l-93 -58l93 -59v-85z" />
    <glyph glyph-name="logicalnot" unicode="&#xac;" horiz-adv-x="595" 
d="M521 276v-198h-63v135h-385v63h448z" />
    <glyph glyph-name="uni00AD" unicode="&#xad;" horiz-adv-x="480" 
d="M73 276h333v-63h-333v63z" />
    <glyph glyph-name="registered" unicode="&#xae;" horiz-adv-x="800" 
d="M216 49h368q40 0 66.5 24.5t26.5 73.5v345q0 49 -26.5 73.5t-66.5 24.5h-368q-40 0 -67 -24.5t-27 -73.5v-345q0 -49 27 -73.5t67 -24.5zM571 0h-343q-67 0 -111 34t-44 116v340q0 82 44 116t111 34h343q67 0 111 -34t44 -116v-340q0 -82 -44 -116t-111 -34zM399 279h-91
v-131h-50v352h178q120 0 120 -99v-19q0 -91 -99 -99l118 -135h-62zM308 326h117q38 0 59 10.5t21 43.5v19q0 32 -21 43t-59 11h-117v-127z" />
    <glyph glyph-name="macron" unicode="&#xaf;" horiz-adv-x="440" 
d="M360 633v-63h-280v63h280z" />
    <glyph glyph-name="degree" unicode="&#xb0;" horiz-adv-x="357" 
d="M80 591q0 41 28.5 70t69.5 29t70 -29t29 -70t-29 -69.5t-70 -28.5t-69.5 28.5t-28.5 69.5zM123 591q0 -23 16 -39t39 -16q24 0 40.5 16t16.5 39q0 24 -16.5 40.5t-40.5 16.5q-23 0 -39 -16.5t-16 -40.5z" />
    <glyph glyph-name="plusminus" unicode="&#xb1;" horiz-adv-x="480" 
d="M73 103h135v110h-135v63h135v135h63v-135h135v-63h-135v-110h135v-63h-333v63z" />
    <glyph glyph-name="twosuperior" unicode="&#xb2;" horiz-adv-x="353" 
d="M50 410v144q0 86 118 86q41 0 64 11t23 43v43q0 49 -79 49l-114 -6l-5 4v42q78 6 133 6q47 0 80 -20t33 -70v-57q0 -51 -34 -71.5t-80 -20.5q-24 0 -36.5 -1t-27 -5t-21 -14.5t-6.5 -27.5v-89h198v-46h-246z" />
    <glyph glyph-name="threesuperior" unicode="&#xb3;" horiz-adv-x="346" 
d="M66 601v46h91q21 0 32.5 1t27.5 5.5t23.5 17t7.5 31.5v30q0 54 -81 54l-113 -6l-4 4v42q75 6 130 6q116 0 116 -89v-45q0 -54 -48 -74q48 -19 48 -74v-57q0 -90 -118 -90l-128 7v41l4 5q70 -7 111 -7q83 0 83 54v43q0 16 -6 27t-14 16.5t-22.5 8t-23.5 3t-25 0.5h-91z
" />
    <glyph glyph-name="acute" unicode="&#xb4;" horiz-adv-x="320" 
d="M73 566l118 153l55 -49l-137 -134z" />
    <glyph glyph-name="mu" unicode="&#xb5;" 
d="M73 -46v516h73v-339q0 -75 84 -75q65 0 123 65v349h73v-470h-66l-7 7l2 53h-4l-5 -7.5t-15.5 -16.5t-27 -21.5t-40 -17t-53.5 -7.5q-39 0 -64 13v-49q1 -73 -36.5 -103.5t-104.5 -30.5q-14 0 -28.5 2t-22.5 4l-7 3v56l7 7q24 -5 56 -5q63 0 63 67z" />
    <glyph glyph-name="paragraph" unicode="&#xb6;" horiz-adv-x="570" 
d="M290 260h-62q-67 0 -111 34t-44 116v70q0 82 44 116t111 34h132v-630h-70v260zM426 630h70v-630h-70v630z" />
    <glyph glyph-name="periodcentered" unicode="&#xb7;" horiz-adv-x="260" 
d="M186 296v-113h-113v113h113z" />
    <glyph glyph-name="cedilla" unicode="&#xb8;" horiz-adv-x="320" 
d="M123 -135l6 6q24 -3 51 -3q28 0 28 27q0 30 -45 30v75h55v-45q58 -10 58 -63q0 -78 -86 -78l-67 5v46z" />
    <glyph glyph-name="onesuperior" unicode="&#xb9;" horiz-adv-x="353" 
d="M303 454v-44h-253v44h103v328h-83v44h131v-372h102z" />
    <glyph glyph-name="ordmasculine" unicode="&#xba;" horiz-adv-x="405" 
d="M280 384v144q0 62 -77 62q-78 0 -78 -62v-144q0 -62 78 -62q77 0 77 62zM335 534v-156q0 -106 -132 -106q-57 0 -95 25t-38 81v156q0 56 38 81t95 25q132 0 132 -106z" />
    <glyph glyph-name="guillemotright" unicode="&#xbb;" horiz-adv-x="503" 
d="M432 275v-64l-266 -185v84l187 133l-187 132v84zM239 275v-64l-169 -112v85l93 59l-93 58v85z" />
    <glyph glyph-name="onequarter" unicode="&#xbc;" horiz-adv-x="1000" 
d="M323 254v-44h-253v44h103v328h-83v44h131v-372h102zM416 0h-53l295 630h53zM832 108h-201v40l194 271h56v-265h49v-46h-49v-108h-49v108zM687 154h145v200z" />
    <glyph glyph-name="onehalf" unicode="&#xbd;" horiz-adv-x="1000" 
d="M323 254v-44h-253v44h103v328h-83v44h131v-372h102zM396 0h-53l295 630h53zM677 0v144q0 86 118 86q41 0 64 11t23 43v43q0 49 -79 49l-114 -6l-5 4v42q78 6 133 6q47 0 80 -20t33 -70v-57q0 -51 -34 -71.5t-80 -20.5q-24 0 -36.5 -1t-27 -5t-21 -14.5t-6.5 -27.5v-89
h198v-46h-246z" />
    <glyph glyph-name="threequarters" unicode="&#xbe;" horiz-adv-x="1000" 
d="M401 0h-53l295 630h53zM832 108h-201v40l194 271h56v-265h49v-46h-49v-108h-49v108zM687 154h145v200zM86 401v46h91q21 0 32.5 1t27.5 5.5t23.5 17t7.5 31.5v30q0 54 -81 54l-113 -6l-4 4v42q75 6 130 6q116 0 116 -89v-45q0 -54 -48 -74q48 -19 48 -74v-57
q0 -90 -118 -90l-128 7v41l4 5q70 -7 111 -7q83 0 83 54v43q0 16 -6 27t-14 16.5t-22.5 8t-23.5 3t-25 0.5h-91z" />
    <glyph glyph-name="questiondown" unicode="&#xbf;" 
d="M306 262v65h73v-82q0 -131 -135 -131q-25 0 -39 -1.5t-29.5 -8.5t-22 -22.5t-6.5 -40.5v-79q0 -72 119 -72q28 0 66.5 2.5t63.5 5.5l24 2l7 -7v-63q-87 -10 -170 -10t-133 28t-50 104v94q0 69 38 103.5t92 34.5q55 0 78.5 14.5t23.5 63.5zM307 387v83h70v-83h-70z" />
    <glyph glyph-name="Agrave" unicode="&#xc0;" horiz-adv-x="510" 
d="M274 716l-36 -30l-137 134l55 49zM204 635h101l181 -635h-80l-64 227h-176l-63 -227h-80zM255 550l-73 -253h143z" />
    <glyph glyph-name="Aacute" unicode="&#xc1;" horiz-adv-x="510" 
d="M232 716l118 153l55 -49l-137 -134zM204 635h101l181 -635h-80l-64 227h-176l-63 -227h-80zM255 550l-73 -253h143z" />
    <glyph glyph-name="Acircumflex" unicode="&#xc2;" horiz-adv-x="510" 
d="M221 826h65l108 -136h-72l-68 84l-69 -84h-72zM204 635h101l181 -635h-80l-64 227h-176l-63 -227h-80zM255 550l-73 -253h143z" />
    <glyph glyph-name="Atilde" unicode="&#xc3;" horiz-adv-x="510" 
d="M255 718q-27 15 -43 21t-29 2t-19.5 -9.5t-20.5 -21.5l-42 30q27 51 74 59.5t88 -16.5q15 -8 25.5 -12.5t19.5 -5t14 -1.5t12 4.5t9.5 7.5t10.5 11.5t11 13.5l38 -33q-52 -99 -148 -50zM204 635h101l181 -635h-80l-64 227h-176l-63 -227h-80zM255 550l-73 -253h143z" />
    <glyph glyph-name="Adieresis" unicode="&#xc4;" horiz-adv-x="510" 
d="M204 798v-88h-88v88h88zM389 798v-88h-88v88h88zM204 635h101l181 -635h-80l-64 227h-176l-63 -227h-80zM255 550l-73 -253h143z" />
    <glyph glyph-name="Aring" unicode="&#xc5;" horiz-adv-x="510" 
d="M265 690h-21q-85 0 -85 71v42q0 71 85 71h21q85 0 85 -71v-42q0 -71 -85 -71zM202 799v-35q0 -35 42 -35h21q18 -1 30 8t12 27v35q0 34 -43 34h-20q-42 0 -42 -34zM204 635h101l181 -635h-80l-64 227h-176l-63 -227h-80zM255 550l-73 -253h143z" />
    <glyph glyph-name="AE" unicode="&#xc6;" horiz-adv-x="800" 
d="M204 630h532v-70h-300v-201h240v-69h-240v-221h300v-69h-373v290h-179l-81 -290h-80zM258 560l-58 -201h163v201h-105z" />
    <glyph glyph-name="Ccedilla" unicode="&#xc7;" horiz-adv-x="480" 
d="M193 -135l6 6q24 -3 51 -3q17 0 22.5 7t5.5 20q0 30 -45 30v66q-160 4 -160 131v386q0 132 175 132q37 0 84 -2.5t76 -5.5l28 -2v-63l-7 -7q-98 10 -161 10q-35 0 -59 -5t-43.5 -24t-19.5 -53v-347q0 -34 19.5 -53t43.5 -24t59 -5q28 0 68 2.5t66 4.5l27 3l7 -7v-62
q-75 -6 -148 -9v-36q58 -10 58 -63q0 -78 -86 -78l-67 5v46z" />
    <glyph glyph-name="Egrave" unicode="&#xc8;" horiz-adv-x="510" 
d="M296 716l-36 -30l-137 134l55 49zM146 560v-201h240v-69h-240v-221h300v-69h-373v630h373v-70h-300z" />
    <glyph glyph-name="Eacute" unicode="&#xc9;" horiz-adv-x="510" 
d="M214 716l118 153l55 -49l-137 -134zM146 560v-201h240v-69h-240v-221h300v-69h-373v630h373v-70h-300z" />
    <glyph glyph-name="Ecircumflex" unicode="&#xca;" horiz-adv-x="510" 
d="M231 826h65l108 -136h-72l-68 84l-69 -84h-72zM146 560v-201h240v-69h-240v-221h300v-69h-373v630h373v-70h-300z" />
    <glyph glyph-name="Edieresis" unicode="&#xcb;" horiz-adv-x="510" 
d="M210 798v-88h-88v88h88zM395 798v-88h-88v88h88zM146 560v-201h240v-69h-240v-221h300v-69h-373v630h373v-70h-300z" />
    <glyph glyph-name="Igrave" unicode="&#xcc;" horiz-adv-x="213" 
d="M136 716l-36 -30l-137 134l55 49zM71 630h73v-630h-73v630z" />
    <glyph glyph-name="Iacute" unicode="&#xcd;" horiz-adv-x="216" 
d="M79 716l118 153l55 -49l-137 -134zM68 630h73v-630h-73v630z" />
    <glyph glyph-name="Icircumflex" unicode="&#xce;" horiz-adv-x="228" 
d="M81 826h65l108 -136h-72l-68 84l-69 -84h-72zM79 630h73v-630h-73v630z" />
    <glyph glyph-name="Idieresis" unicode="&#xcf;" horiz-adv-x="226" 
d="M64 798v-88h-88v88h88zM249 798v-88h-88v88h88zM78 630h73v-630h-73v630z" />
    <glyph glyph-name="Eth" unicode="&#xd0;" horiz-adv-x="540" 
d="M466 460v-290q0 -170 -180 -170h-213v293h-53v63h53v274h213q180 0 180 -170zM146 356h114v-63h-114v-224h134q52 -1 82.5 26.5t30.5 80.5v277q0 107 -113 107h-134v-204z" />
    <glyph glyph-name="Ntilde" unicode="&#xd1;" horiz-adv-x="550" 
d="M274 718q-27 15 -43 21t-29 2t-19.5 -9.5t-20.5 -21.5l-42 30q27 51 74 59.5t88 -16.5q15 -8 25.5 -12.5t19.5 -5t14 -1.5t12 4.5t9.5 7.5t10.5 11.5t11 13.5l38 -33q-52 -99 -148 -50zM403 630h73v-630h-93l-237 485v-485h-73v630h86l244 -503v503z" />
    <glyph glyph-name="Ograve" unicode="&#xd2;" horiz-adv-x="540" 
d="M296 716l-36 -30l-137 134l55 49zM231 59h77q85 0 85 91v329q0 90 -86 90h-75q-86 0 -86 -90v-329q0 -91 85 -91zM310 -10h-81q-67 0 -111.5 33.5t-44.5 113.5v355q0 81 44.5 114.5t111.5 33.5h81q67 0 111.5 -33.5t44.5 -114.5v-355q0 -80 -44.5 -113.5t-111.5 -33.5z
" />
    <glyph glyph-name="Oacute" unicode="&#xd3;" horiz-adv-x="540" 
d="M246 716l118 153l55 -49l-137 -134zM231 59h77q85 0 85 91v329q0 90 -86 90h-75q-86 0 -86 -90v-329q0 -91 85 -91zM310 -10h-81q-67 0 -111.5 33.5t-44.5 113.5v355q0 81 44.5 114.5t111.5 33.5h81q67 0 111.5 -33.5t44.5 -114.5v-355q0 -80 -44.5 -113.5t-111.5 -33.5z
" />
    <glyph glyph-name="Ocircumflex" unicode="&#xd4;" horiz-adv-x="540" 
d="M233 826h65l108 -136h-72l-68 84l-69 -84h-72zM231 59h77q85 0 85 91v329q0 90 -86 90h-75q-86 0 -86 -90v-329q0 -91 85 -91zM310 -10h-81q-67 0 -111.5 33.5t-44.5 113.5v355q0 81 44.5 114.5t111.5 33.5h81q67 0 111.5 -33.5t44.5 -114.5v-355q0 -80 -44.5 -113.5
t-111.5 -33.5z" />
    <glyph glyph-name="Otilde" unicode="&#xd5;" horiz-adv-x="540" 
d="M270 718q-27 15 -43 21t-29 2t-19.5 -9.5t-20.5 -21.5l-42 30q27 51 74 59.5t88 -16.5q15 -8 25.5 -12.5t19.5 -5t14 -1.5t12 4.5t9.5 7.5t10.5 11.5t11 13.5l38 -33q-52 -99 -148 -50zM231 59h77q85 0 85 91v329q0 90 -86 90h-75q-86 0 -86 -90v-329q0 -91 85 -91z
M310 -10h-81q-67 0 -111.5 33.5t-44.5 113.5v355q0 81 44.5 114.5t111.5 33.5h81q67 0 111.5 -33.5t44.5 -114.5v-355q0 -80 -44.5 -113.5t-111.5 -33.5z" />
    <glyph glyph-name="Odieresis" unicode="&#xd6;" horiz-adv-x="540" 
d="M219 798v-88h-88v88h88zM404 798v-88h-88v88h88zM231 59h77q85 0 85 91v329q0 90 -86 90h-75q-86 0 -86 -90v-329q0 -91 85 -91zM310 -10h-81q-67 0 -111.5 33.5t-44.5 113.5v355q0 81 44.5 114.5t111.5 33.5h81q67 0 111.5 -33.5t44.5 -114.5v-355q0 -80 -44.5 -113.5
t-111.5 -33.5z" />
    <glyph glyph-name="multiply" unicode="&#xd7;" horiz-adv-x="506" 
d="M119 67l-44 44l133 134l-133 133l44 44l134 -133l133 133l44 -44l-133 -133l133 -134l-44 -44l-133 133z" />
    <glyph glyph-name="Oslash" unicode="&#xd8;" horiz-adv-x="540" 
d="M310 -10h-81q-67 0 -111.5 33.5t-44.5 113.5v355q0 81 44.5 114.5t111.5 33.5h81q67 0 111.5 -33.5t44.5 -114.5v-355q0 -80 -44.5 -113.5t-111.5 -33.5zM231 59h77q85 0 85 91v140h-247v-140q0 -91 85 -91zM393 353v126q0 90 -86 90h-75q-86 0 -86 -90v-126h247z" />
    <glyph glyph-name="Ugrave" unicode="&#xd9;" horiz-adv-x="540" 
d="M321 716l-36 -30l-137 134l55 49zM393 630h73v-493q0 -80 -44.5 -113.5t-111.5 -33.5h-81q-67 0 -111.5 33.5t-44.5 113.5v493h73v-480q0 -91 85 -91h77q85 0 85 91v480z" />
    <glyph glyph-name="Uacute" unicode="&#xda;" horiz-adv-x="540" 
d="M248 716l118 153l55 -49l-137 -134zM393 630h73v-493q0 -80 -44.5 -113.5t-111.5 -33.5h-81q-67 0 -111.5 33.5t-44.5 113.5v493h73v-480q0 -91 85 -91h77q85 0 85 91v480z" />
    <glyph glyph-name="Ucircumflex" unicode="&#xdb;" horiz-adv-x="540" 
d="M245 826h65l108 -136h-72l-68 84l-69 -84h-72zM393 630h73v-493q0 -80 -44.5 -113.5t-111.5 -33.5h-81q-67 0 -111.5 33.5t-44.5 113.5v493h73v-480q0 -91 85 -91h77q85 0 85 91v480z" />
    <glyph glyph-name="Udieresis" unicode="&#xdc;" horiz-adv-x="540" 
d="M223 798v-88h-88v88h88zM408 798v-88h-88v88h88zM393 630h73v-493q0 -80 -44.5 -113.5t-111.5 -33.5h-81q-67 0 -111.5 33.5t-44.5 113.5v493h73v-480q0 -91 85 -91h77q85 0 85 91v480z" />
    <glyph glyph-name="Yacute" unicode="&#xdd;" horiz-adv-x="490" 
d="M224 716l118 153l55 -49l-137 -134zM13 630h84l148 -307l147 307h84l-195 -395v-235h-73v235z" />
    <glyph glyph-name="Thorn" unicode="&#xde;" horiz-adv-x="520" 
d="M73 630h73v-127h164q67 0 111.5 -34t44.5 -117v-77q0 -82 -44.5 -116t-111.5 -34h-164v-125h-73v630zM146 194h165q82 0 82 85v70q0 84 -83 84h-164v-239z" />
    <glyph glyph-name="germandbls" unicode="&#xdf;" horiz-adv-x="510" 
d="M146 -170h-73v668q0 75 50.5 108.5t126.5 33.5q176 0 176 -142v-56q0 -85 -63 -121q34 -12 53.5 -47t19.5 -86v-65q0 -133 -123 -133q-19 0 -38.5 2t-28.5 4l-10 3v55l7 7q25 -5 58 -5q63 0 62 67v70q0 39 -21 63t-60 24h-136v-450zM146 491v-142h120q40 0 63.5 21.5
t23.5 64.5v56q0 82 -103 82q-104 0 -104 -82z" />
    <glyph glyph-name="agrave" unicode="&#xe0;" horiz-adv-x="480" 
d="M406 348v-348h-66l-7 7l2 53h-4l-5 -7.5t-15.5 -16.5t-27 -21.5t-40 -17t-53.5 -7.5q-63 0 -100 30.5t-37 107.5q0 78 48 111.5t119 33.5h113v64q0 76 -102 76q-28 0 -61 -2.5t-52 -4.5l-20 -3l-7 7v60q70 10 153 10q162 0 162 -132zM333 116v94h-85q-62 0 -92 -15.5
t-30 -63.5q0 -75 87 -75q68 0 120 60zM285 566l-36 -30l-137 134l55 49z" />
    <glyph glyph-name="aacute" unicode="&#xe1;" horiz-adv-x="480" 
d="M406 348v-348h-66l-7 7l2 53h-4l-5 -7.5t-15.5 -16.5t-27 -21.5t-40 -17t-53.5 -7.5q-63 0 -100 30.5t-37 107.5q0 78 48 111.5t119 33.5h113v64q0 76 -102 76q-28 0 -61 -2.5t-52 -4.5l-20 -3l-7 7v60q70 10 153 10q162 0 162 -132zM333 116v94h-85q-62 0 -92 -15.5
t-30 -63.5q0 -75 87 -75q68 0 120 60zM217 566l118 153l55 -49l-137 -134z" />
    <glyph glyph-name="acircumflex" unicode="&#xe2;" horiz-adv-x="480" 
d="M406 348v-348h-66l-7 7l2 53h-4l-5 -7.5t-15.5 -16.5t-27 -21.5t-40 -17t-53.5 -7.5q-63 0 -100 30.5t-37 107.5q0 78 48 111.5t119 33.5h113v64q0 76 -102 76q-28 0 -61 -2.5t-52 -4.5l-20 -3l-7 7v60q70 10 153 10q162 0 162 -132zM333 116v94h-85q-62 0 -92 -15.5
t-30 -63.5q0 -75 87 -75q68 0 120 60zM219 676h65l108 -136h-72l-68 84l-69 -84h-72z" />
    <glyph glyph-name="atilde" unicode="&#xe3;" horiz-adv-x="480" 
d="M406 348v-348h-66l-7 7l2 53h-4l-5 -7.5t-15.5 -16.5t-27 -21.5t-40 -17t-53.5 -7.5q-63 0 -100 30.5t-37 107.5q0 78 48 111.5t119 33.5h113v64q0 76 -102 76q-28 0 -61 -2.5t-52 -4.5l-20 -3l-7 7v60q70 10 153 10q162 0 162 -132zM333 116v94h-85q-62 0 -92 -15.5
t-30 -63.5q0 -75 87 -75q68 0 120 60zM253 568q-27 15 -43 21t-29 2t-19.5 -9.5t-20.5 -21.5l-42 30q27 51 74 59.5t88 -16.5q15 -8 25.5 -12.5t19.5 -5t14 -1.5t12 4.5t9.5 7.5t10.5 11.5t11 13.5l38 -33q-52 -99 -148 -50z" />
    <glyph glyph-name="adieresis" unicode="&#xe4;" horiz-adv-x="480" 
d="M406 348v-348h-66l-7 7l2 53h-4l-5 -7.5t-15.5 -16.5t-27 -21.5t-40 -17t-53.5 -7.5q-63 0 -100 30.5t-37 107.5q0 78 48 111.5t119 33.5h113v64q0 76 -102 76q-28 0 -61 -2.5t-52 -4.5l-20 -3l-7 7v60q70 10 153 10q162 0 162 -132zM333 116v94h-85q-62 0 -92 -15.5
t-30 -63.5q0 -75 87 -75q68 0 120 60zM205 648v-88h-88v88h88zM390 648v-88h-88v88h88z" />
    <glyph glyph-name="aring" unicode="&#xe5;" horiz-adv-x="480" 
d="M406 348v-348h-66l-7 7l2 53h-4l-5 -7.5t-15.5 -16.5t-27 -21.5t-40 -17t-53.5 -7.5q-63 0 -100 30.5t-37 107.5q0 78 48 111.5t119 33.5h113v64q0 76 -102 76q-28 0 -61 -2.5t-52 -4.5l-20 -3l-7 7v60q70 10 153 10q162 0 162 -132zM333 116v94h-85q-62 0 -92 -15.5
t-30 -63.5q0 -75 87 -75q68 0 120 60zM264 540h-21q-85 0 -85 71v42q0 71 85 71h21q85 0 85 -71v-42q0 -71 -85 -71zM201 649v-35q0 -35 42 -35h21q18 -1 30 8t12 27v35q0 34 -43 34h-20q-42 0 -42 -34z" />
    <glyph glyph-name="ae" unicode="&#xe6;" horiz-adv-x="740" 
d="M677 220l-10 -10h-261v-71q0 -49 29.5 -65t81.5 -16q28 0 59.5 2.5t49.5 5.5l17 2l7 -7v-61q-67 -10 -150 -10q-122 0 -154 73q-62 -73 -156 -73q-63 0 -100 30.5t-37 107.5q0 145 177 145h103v64q0 44 -29.5 59.5t-79.5 15.5q-30 0 -61.5 -2t-48.5 -4l-16 -3l-7 7v60
l7 1q88 9 143 9q94 0 131 -46q43 46 148 46q73 0 119.5 -33.5t46.5 -109.5q0 -63 -9 -117zM333 116v94h-85q-62 0 -92 -15.5t-30 -63.5q0 -75 87 -75q68 0 120 60zM510 413q-51 0 -77.5 -21t-26.5 -57v-62h200q5 30 5 67q-1 73 -101 73z" />
    <glyph glyph-name="ccedilla" unicode="&#xe7;" horiz-adv-x="420" 
d="M153 -135l6 6q24 -3 51 -3q17 0 22.5 7t5.5 20q0 30 -45 30v68q-130 13 -130 132v219q0 136 167 136q37 0 73.5 -2.5t54.5 -5.5l18 -2v-62l-7 -7q-60 10 -123 10q-51 0 -80.5 -16t-29.5 -65v-191q0 -49 29.5 -65t80.5 -16q28 0 59 2.5t47 5.5l17 2l7 -7v-61
q-55 -8 -128 -10v-35q58 -10 58 -63q0 -78 -86 -78l-67 5v46z" />
    <glyph glyph-name="egrave" unicode="&#xe8;" horiz-adv-x="470" 
d="M240 413q-104 0 -104 -83v-57h200q5 30 5 67q-1 73 -101 73zM407 220l-10 -10h-261v-71q0 -49 29.5 -65t80.5 -16q28 0 59.5 2.5t48.5 5.5l18 2l7 -7v-61q-66 -10 -149 -10q-167 0 -167 135v212q0 76 50.5 109.5t126.5 33.5q176 0 176 -143q0 -63 -9 -117zM275 566
l-36 -30l-137 134l55 49z" />
    <glyph glyph-name="eacute" unicode="&#xe9;" horiz-adv-x="470" 
d="M240 413q-104 0 -104 -83v-57h200q5 30 5 67q-1 73 -101 73zM407 220l-10 -10h-261v-71q0 -49 29.5 -65t80.5 -16q28 0 59.5 2.5t48.5 5.5l18 2l7 -7v-61q-66 -10 -149 -10q-167 0 -167 135v212q0 76 50.5 109.5t126.5 33.5q176 0 176 -143q0 -63 -9 -117zM207 566
l118 153l55 -49l-137 -134z" />
    <glyph glyph-name="ecircumflex" unicode="&#xea;" horiz-adv-x="470" 
d="M240 413q-104 0 -104 -83v-57h200q5 30 5 67q-1 73 -101 73zM407 220l-10 -10h-261v-71q0 -49 29.5 -65t80.5 -16q28 0 59.5 2.5t48.5 5.5l18 2l7 -7v-61q-66 -10 -149 -10q-167 0 -167 135v212q0 76 50.5 109.5t126.5 33.5q176 0 176 -143q0 -63 -9 -117zM214 676h65
l108 -136h-72l-68 84l-69 -84h-72z" />
    <glyph glyph-name="edieresis" unicode="&#xeb;" horiz-adv-x="470" 
d="M240 413q-104 0 -104 -83v-57h200q5 30 5 67q-1 73 -101 73zM407 220l-10 -10h-261v-71q0 -49 29.5 -65t80.5 -16q28 0 59.5 2.5t48.5 5.5l18 2l7 -7v-61q-66 -10 -149 -10q-167 0 -167 135v212q0 76 50.5 109.5t126.5 33.5q176 0 176 -143q0 -63 -9 -117zM198 648v-88
h-88v88h88zM383 648v-88h-88v88h88z" />
    <glyph glyph-name="igrave" unicode="&#xec;" horiz-adv-x="231" 
d="M84 470h73v-470h-73v470zM141 566l-36 -30l-137 134l55 49z" />
    <glyph glyph-name="iacute" unicode="&#xed;" horiz-adv-x="221" 
d="M73 470h73v-470h-73v470zM84 566l118 153l55 -49l-137 -134z" />
    <glyph glyph-name="icircumflex" unicode="&#xee;" horiz-adv-x="228" 
d="M81 676h65l108 -136h-72l-68 84l-69 -84h-72zM78 470h73v-470h-73v470z" />
    <glyph glyph-name="idieresis" unicode="&#xef;" horiz-adv-x="230" 
d="M80 470h73v-470h-73v470zM66 648v-88h-88v88h88zM251 648v-88h-88v88h88z" />
    <glyph glyph-name="eth" unicode="&#xf0;" 
d="M204 516v82l-124 -8l-7 7v63q63 6 131 8v102h64v-101q66 -3 112 -33.5t46 -101.5v-397q0 -80 -44.5 -113.5t-111.5 -33.5h-51q-67 0 -111.5 33.5t-44.5 113.5v145q0 81 44.5 114.5t111.5 33.5h45q54 0 89 -29v113q0 75 -85 84v-82h-64zM267 359h-45q-86 0 -86 -90v-119
q0 -91 85 -91h47q85 0 85 91v119q0 90 -86 90z" />
    <glyph glyph-name="ntilde" unicode="&#xf1;" 
d="M426 341v-341h-73v338q0 43 -21.5 59t-61.5 16q-66 0 -124 -65v-348h-73v470h66l7 -7l-2 -53h4l5 7.5t15.5 16.5t27 21.5t40 17t53.5 7.5q64 0 100.5 -30.5t36.5 -108.5zM257 568q-27 15 -43 21t-29 2t-19.5 -9.5t-20.5 -21.5l-42 30q27 51 74 59.5t88 -16.5
q15 -8 25.5 -12.5t19.5 -5t14 -1.5t12 4.5t9.5 7.5t10.5 11.5t11 13.5l38 -33q-52 -99 -148 -50z" />
    <glyph glyph-name="ograve" unicode="&#xf2;" horiz-adv-x="480" 
d="M343 138v193q0 82 -103 82q-104 0 -104 -82v-193q0 -82 104 -82q103 0 103 82zM416 338v-207q0 -141 -176 -141q-76 0 -126.5 33t-50.5 108v207q0 75 50.5 108.5t126.5 33.5q176 0 176 -142zM274 566l-36 -30l-137 134l55 49z" />
    <glyph glyph-name="oacute" unicode="&#xf3;" horiz-adv-x="480" 
d="M343 138v193q0 82 -103 82q-104 0 -104 -82v-193q0 -82 104 -82q103 0 103 82zM416 338v-207q0 -141 -176 -141q-76 0 -126.5 33t-50.5 108v207q0 75 50.5 108.5t126.5 33.5q176 0 176 -142zM207 566l118 153l55 -49l-137 -134z" />
    <glyph glyph-name="ocircumflex" unicode="&#xf4;" horiz-adv-x="480" 
d="M343 138v193q0 82 -103 82q-104 0 -104 -82v-193q0 -82 104 -82q103 0 103 82zM416 338v-207q0 -141 -176 -141q-76 0 -126.5 33t-50.5 108v207q0 75 50.5 108.5t126.5 33.5q176 0 176 -142zM212 676h65l108 -136h-72l-68 84l-69 -84h-72z" />
    <glyph glyph-name="otilde" unicode="&#xf5;" horiz-adv-x="480" 
d="M343 138v193q0 82 -103 82q-104 0 -104 -82v-193q0 -82 104 -82q103 0 103 82zM416 338v-207q0 -141 -176 -141q-76 0 -126.5 33t-50.5 108v207q0 75 50.5 108.5t126.5 33.5q176 0 176 -142zM247 568q-27 15 -43 21t-29 2t-19.5 -9.5t-20.5 -21.5l-42 30q27 51 74 59.5
t88 -16.5q15 -8 25.5 -12.5t19.5 -5t14 -1.5t12 4.5t9.5 7.5t10.5 11.5t11 13.5l38 -33q-52 -99 -148 -50z" />
    <glyph glyph-name="odieresis" unicode="&#xf6;" horiz-adv-x="480" 
d="M343 138v193q0 82 -103 82q-104 0 -104 -82v-193q0 -82 104 -82q103 0 103 82zM416 338v-207q0 -141 -176 -141q-76 0 -126.5 33t-50.5 108v207q0 75 50.5 108.5t126.5 33.5q176 0 176 -142zM194 648v-88h-88v88h88zM379 648v-88h-88v88h88z" />
    <glyph glyph-name="divide" unicode="&#xf7;" horiz-adv-x="480" 
d="M73 276h333v-63h-333v63zM281 136v-83h-83v83h83zM281 436v-83h-83v83h83z" />
    <glyph glyph-name="oslash" unicode="&#xf8;" horiz-adv-x="480" 
d="M416 338v-207q0 -141 -176 -141q-76 0 -126.5 33t-50.5 108v207q0 75 50.5 108.5t126.5 33.5q176 0 176 -142zM240 56q103 0 103 82v68h-207v-68q0 -82 104 -82zM343 269v62q0 82 -103 82q-104 0 -104 -82v-62h207z" />
    <glyph glyph-name="ugrave" unicode="&#xf9;" 
d="M73 128v342h73v-339q0 -43 21.5 -59t62.5 -16q65 0 123 65v349h73v-470h-66l-7 7l2 53h-4l-5 -7.5t-15.5 -16.5t-27 -21.5t-40 -17t-53.5 -7.5q-64 0 -100.5 30t-36.5 108zM274 566l-36 -30l-137 134l55 49z" />
    <glyph glyph-name="uacute" unicode="&#xfa;" 
d="M73 128v342h73v-339q0 -43 21.5 -59t62.5 -16q65 0 123 65v349h73v-470h-66l-7 7l2 53h-4l-5 -7.5t-15.5 -16.5t-27 -21.5t-40 -17t-53.5 -7.5q-64 0 -100.5 30t-36.5 108zM217 566l118 153l55 -49l-137 -134z" />
    <glyph glyph-name="ucircumflex" unicode="&#xfb;" 
d="M73 128v342h73v-339q0 -43 21.5 -59t62.5 -16q65 0 123 65v349h73v-470h-66l-7 7l2 53h-4l-5 -7.5t-15.5 -16.5t-27 -21.5t-40 -17t-53.5 -7.5q-64 0 -100.5 30t-36.5 108zM214 676h65l108 -136h-72l-68 84l-69 -84h-72z" />
    <glyph glyph-name="udieresis" unicode="&#xfc;" 
d="M73 128v342h73v-339q0 -43 21.5 -59t62.5 -16q65 0 123 65v349h73v-470h-66l-7 7l2 53h-4l-5 -7.5t-15.5 -16.5t-27 -21.5t-40 -17t-53.5 -7.5q-64 0 -100.5 30t-36.5 108zM200 648v-88h-88v88h88zM385 648v-88h-88v88h88z" />
    <glyph glyph-name="yacute" unicode="&#xfd;" 
d="M426 470v-511q0 -40 -14.5 -68.5t-39.5 -43t-52.5 -21t-60.5 -6.5q-37 0 -76.5 2.5t-60.5 5.5l-22 2v62l7 7q73 -10 136 -10q50 0 80 17.5t30 66.5v38l2 49h-4l-5 -7.5t-15.5 -16.5t-27 -21.5t-40 -17t-53.5 -7.5q-64 0 -100.5 30t-36.5 108v342h73v-339q0 -75 83 -75
q31 0 58 13.5t66 51.5v349h73zM214 566l118 153l55 -49l-137 -134z" />
    <glyph glyph-name="thorn" unicode="&#xfe;" horiz-adv-x="485" 
d="M146 348v-286q40 -4 104 -4q98 4 98 84v196q1 43 -19.5 59t-58.5 16q-67 0 -124 -65zM73 -170v830h73v-197l-2 -53h4l5 7.5t15.5 16.5t27 21.5t40 17t53.5 7.5q63 0 97.5 -30.5t34.5 -108.5v-210q0 -53 -26.5 -86t-61.5 -44t-80 -11q-32 0 -107 5v-165h-73z" />
    <glyph glyph-name="ydieresis" unicode="&#xff;" 
d="M426 470v-511q0 -40 -14.5 -68.5t-39.5 -43t-52.5 -21t-60.5 -6.5q-37 0 -76.5 2.5t-60.5 5.5l-22 2v62l7 7q73 -10 136 -10q50 0 80 17.5t30 66.5v38l2 49h-4l-5 -7.5t-15.5 -16.5t-27 -21.5t-40 -17t-53.5 -7.5q-64 0 -100.5 30t-36.5 108v342h73v-339q0 -75 83 -75
q31 0 58 13.5t66 51.5v349h73zM197 648v-88h-88v88h88zM382 648v-88h-88v88h88z" />
    <glyph glyph-name="Amacron" unicode="&#x100;" horiz-adv-x="510" 
d="M394 783v-63h-280v63h280zM204 635h101l181 -635h-80l-64 227h-176l-63 -227h-80zM255 550l-73 -253h143z" />
    <glyph glyph-name="amacron" unicode="&#x101;" horiz-adv-x="480" 
d="M406 348v-348h-66l-7 7l2 53h-4l-5 -7.5t-15.5 -16.5t-27 -21.5t-40 -17t-53.5 -7.5q-63 0 -100 30.5t-37 107.5q0 78 48 111.5t119 33.5h113v64q0 76 -102 76q-28 0 -61 -2.5t-52 -4.5l-20 -3l-7 7v60q70 10 153 10q162 0 162 -132zM333 116v94h-85q-62 0 -92 -15.5
t-30 -63.5q0 -75 87 -75q68 0 120 60zM397 633v-63h-280v63h280z" />
    <glyph glyph-name="Abreve" unicode="&#x102;" horiz-adv-x="510" 
d="M316 813h64q0 -57 -33 -86.5t-82 -29.5h-23q-49 0 -82 29.5t-33 86.5h64q0 -31 17 -47t42 -16h9q25 0 41 16t16 47zM204 635h101l181 -635h-80l-64 227h-176l-63 -227h-80zM255 550l-73 -253h143z" />
    <glyph glyph-name="abreve" unicode="&#x103;" horiz-adv-x="480" 
d="M406 348v-348h-66l-7 7l2 53h-4l-5 -7.5t-15.5 -16.5t-27 -21.5t-40 -17t-53.5 -7.5q-63 0 -100 30.5t-37 107.5q0 78 48 111.5t119 33.5h113v64q0 76 -102 76q-28 0 -61 -2.5t-52 -4.5l-20 -3l-7 7v60q70 10 153 10q162 0 162 -132zM333 116v94h-85q-62 0 -92 -15.5
t-30 -63.5q0 -75 87 -75q68 0 120 60zM313 663h64q0 -57 -33 -86.5t-82 -29.5h-23q-49 0 -82 29.5t-33 86.5h64q0 -31 17 -47t42 -16h9q26 0 41.5 16t15.5 47z" />
    <glyph glyph-name="Aogonek" unicode="&#x104;" horiz-adv-x="510" 
d="M427 0h-21l-64 227h-176l-63 -227h-80l181 635h101l181 -635h-23q-16 -40 -16 -70.5t19 -37.5q15 -5 30.5 -4.5t26.5 3.5l11 3q0 -1 2 -2.5t2 -2.5l-4 -51q-5 -1 -13.5 -3t-33 -4.5t-38.5 1.5q-30 6 -43 26t-10 47t11 51t20 44zM255 550l-73 -253h143z" />
    <glyph glyph-name="aogonek" unicode="&#x105;" horiz-adv-x="480" 
d="M356 0h-16l-7 7l2 53h-4l-5 -7.5t-15.5 -16.5t-27 -21.5t-40 -17t-53.5 -7.5q-63 0 -100 30.5t-37 107.5q0 78 48 111.5t119 33.5h113v64q0 76 -102 76q-28 0 -61 -2.5t-52 -4.5l-20 -3l-7 7v60q70 10 153 10q162 0 162 -132v-348h-15q-16 -40 -16 -70.5t19 -37.5
q15 -5 30.5 -4.5t26.5 3.5l11 3q0 -1 2 -2.5t2 -2.5l-4 -51q-5 -1 -13.5 -3t-32.5 -4.5t-38 1.5q-30 6 -43 26t-10 47t11 51t20 44zM333 116v94h-85q-62 0 -92 -15.5t-30 -63.5q0 -75 87 -75q68 0 120 60z" />
    <glyph glyph-name="Cacute" unicode="&#x106;" horiz-adv-x="480" 
d="M231 716l118 153l55 -49l-137 -134zM436 567l-7 -7q-98 10 -161 10q-35 0 -59 -5t-43.5 -24t-19.5 -53v-347q0 -34 19.5 -53t43.5 -24t59 -5q28 0 68 2.5t66 4.5l27 3l7 -7v-62q-105 -10 -188 -10q-175 0 -175 132v386q0 132 175 132q37 0 84 -2.5t76 -5.5l28 -2v-63z
" />
    <glyph glyph-name="cacute" unicode="&#x107;" horiz-adv-x="420" 
d="M376 408l-7 -7q-60 10 -123 10q-51 0 -80.5 -16t-29.5 -65v-191q0 -49 29.5 -65t80.5 -16q28 0 59 2.5t47 5.5l17 2l7 -7v-61q-63 -10 -146 -10q-167 0 -167 135v219q0 136 167 136q37 0 73.5 -2.5t54.5 -5.5l18 -2v-62zM196 566l118 153l55 -49l-137 -134z" />
    <glyph glyph-name="Ccircumflex" unicode="&#x108;" horiz-adv-x="480" 
d="M242 826h65l108 -136h-72l-68 84l-69 -84h-72zM436 567l-7 -7q-98 10 -161 10q-35 0 -59 -5t-43.5 -24t-19.5 -53v-347q0 -34 19.5 -53t43.5 -24t59 -5q28 0 68 2.5t66 4.5l27 3l7 -7v-62q-105 -10 -188 -10q-175 0 -175 132v386q0 132 175 132q37 0 84 -2.5t76 -5.5
l28 -2v-63z" />
    <glyph glyph-name="ccircumflex" unicode="&#x109;" horiz-adv-x="420" 
d="M376 408l-7 -7q-60 10 -123 10q-51 0 -80.5 -16t-29.5 -65v-191q0 -49 29.5 -65t80.5 -16q28 0 59 2.5t47 5.5l17 2l7 -7v-61q-63 -10 -146 -10q-167 0 -167 135v219q0 136 167 136q37 0 73.5 -2.5t54.5 -5.5l18 -2v-62zM197 676h65l108 -136h-72l-68 84l-69 -84h-72z
" />
    <glyph glyph-name="Cdotaccent" unicode="&#x10a;" horiz-adv-x="480" 
d="M322 803v-93h-93v93h93zM436 567l-7 -7q-98 10 -161 10q-35 0 -59 -5t-43.5 -24t-19.5 -53v-347q0 -34 19.5 -53t43.5 -24t59 -5q28 0 68 2.5t66 4.5l27 3l7 -7v-62q-105 -10 -188 -10q-175 0 -175 132v386q0 132 175 132q37 0 84 -2.5t76 -5.5l28 -2v-63z" />
    <glyph glyph-name="cdotaccent" unicode="&#x10b;" horiz-adv-x="420" 
d="M376 408l-7 -7q-60 10 -123 10q-51 0 -80.5 -16t-29.5 -65v-191q0 -49 29.5 -65t80.5 -16q28 0 59 2.5t47 5.5l17 2l7 -7v-61q-63 -10 -146 -10q-167 0 -167 135v219q0 136 167 136q37 0 73.5 -2.5t54.5 -5.5l18 -2v-62zM289 653v-93h-93v93h93z" />
    <glyph glyph-name="Ccaron" unicode="&#x10c;" horiz-adv-x="480" 
d="M304 680h-65l-108 136h72l69 -85l68 85h72zM436 567l-7 -7q-98 10 -161 10q-35 0 -59 -5t-43.5 -24t-19.5 -53v-347q0 -34 19.5 -53t43.5 -24t59 -5q28 0 68 2.5t66 4.5l27 3l7 -7v-62q-105 -10 -188 -10q-175 0 -175 132v386q0 132 175 132q37 0 84 -2.5t76 -5.5l28 -2
v-63z" />
    <glyph glyph-name="ccaron" unicode="&#x10d;" horiz-adv-x="427" 
d="M376 408l-7 -7q-60 10 -123 10q-51 0 -80.5 -16t-29.5 -65v-191q0 -49 29.5 -65t80.5 -16q28 0 59 2.5t47 5.5l17 2l7 -7v-61q-63 -10 -146 -10q-167 0 -167 135v219q0 136 167 136q37 0 73.5 -2.5t54.5 -5.5l18 -2v-62zM275 530h-65l-108 136h72l69 -85l68 85h72z" />
    <glyph glyph-name="Dcaron" unicode="&#x10e;" horiz-adv-x="540" 
d="M299 680h-65l-108 136h72l69 -85l68 85h72zM393 176v277q0 107 -113 107h-134v-491h134q113 0 113 107zM466 460v-290q0 -170 -180 -170h-213v630h213q180 0 180 -170z" />
    <glyph glyph-name="dcaron" unicode="&#x10f;" 
d="M338 121v286q-39 4 -104 4q-98 -4 -98 -84v-196q-1 -43 19.5 -59t59.5 -16q66 0 123 65zM411 660v-660h-66l-7 7l2 53h-4l-5 -7.5t-15.5 -16.5t-27 -21.5t-40 -17t-53.5 -7.5q-64 0 -98 30t-34 108v210q0 40 14.5 69t40 44.5t53.5 22t60 6.5t107 -5v185h73zM566 660v-83
l-10 -130h-36v130h-37v83h83z" />
    <glyph glyph-name="Dcroat" unicode="&#x110;" horiz-adv-x="540" 
d="M466 460v-290q0 -170 -180 -170h-213v293h-53v63h53v274h213q180 0 180 -170zM146 356h114v-63h-114v-224h134q52 -1 82.5 26.5t30.5 80.5v277q0 107 -113 107h-134v-204z" />
    <glyph glyph-name="dcroat" unicode="&#x111;" horiz-adv-x="485" 
d="M411 540v-540h-66l-7 7l2 53h-4l-5 -7.5t-15.5 -16.5t-27 -21.5t-40 -17t-53.5 -7.5q-64 0 -98 30t-34 108v210q0 40 14.5 69t40 44.5t53.5 22t60 6.5t107 -5v65h-53v56h53v64h73v-64h54v-56h-54zM338 121v286q-39 4 -104 4q-98 -4 -98 -84v-196q-1 -43 19.5 -59
t59.5 -16q66 0 123 65z" />
    <glyph glyph-name="Emacron" unicode="&#x112;" horiz-adv-x="510" 
d="M401 783v-63h-280v63h280zM146 560v-201h240v-69h-240v-221h300v-69h-373v630h373v-70h-300z" />
    <glyph glyph-name="emacron" unicode="&#x113;" horiz-adv-x="470" 
d="M240 413q-104 0 -104 -83v-57h200q5 30 5 67q-1 73 -101 73zM407 220l-10 -10h-261v-71q0 -49 29.5 -65t80.5 -16q28 0 59.5 2.5t48.5 5.5l18 2l7 -7v-61q-66 -10 -149 -10q-167 0 -167 135v212q0 76 50.5 109.5t126.5 33.5q176 0 176 -143q0 -63 -9 -117zM384 633v-63
h-280v63h280z" />
    <glyph glyph-name="Ebreve" unicode="&#x114;" horiz-adv-x="510" 
d="M320 813h64q0 -57 -33 -86.5t-82 -29.5h-23q-49 0 -82 29.5t-33 86.5h64q0 -31 17 -47t42 -16h9q25 0 41 16t16 47zM146 560v-201h240v-69h-240v-221h300v-69h-373v630h373v-70h-300z" />
    <glyph glyph-name="ebreve" unicode="&#x115;" horiz-adv-x="470" 
d="M240 413q-104 0 -104 -83v-57h200q5 30 5 67q-1 73 -101 73zM407 220l-10 -10h-261v-71q0 -49 29.5 -65t80.5 -16q28 0 59.5 2.5t48.5 5.5l18 2l7 -7v-61q-66 -10 -149 -10q-167 0 -167 135v212q0 76 50.5 109.5t126.5 33.5q176 0 176 -143q0 -63 -9 -117zM303 663h64
q0 -57 -33 -86.5t-82 -29.5h-23q-49 0 -82 29.5t-33 86.5h64q0 -31 17 -47t42 -16h9q26 0 41.5 16t15.5 47z" />
    <glyph glyph-name="Edotaccent" unicode="&#x116;" horiz-adv-x="510" 
d="M308 803v-93h-93v93h93zM146 560v-201h240v-69h-240v-221h300v-69h-373v630h373v-70h-300z" />
    <glyph glyph-name="edotaccent" unicode="&#x117;" horiz-adv-x="470" 
d="M240 413q-104 0 -104 -83v-57h200q5 30 5 67q-1 73 -101 73zM407 220l-10 -10h-261v-71q0 -49 29.5 -65t80.5 -16q28 0 59.5 2.5t48.5 5.5l18 2l7 -7v-61q-66 -10 -149 -10q-167 0 -167 135v212q0 76 50.5 109.5t126.5 33.5q176 0 176 -143q0 -63 -9 -117zM286 653v-93
h-93v93h93z" />
    <glyph glyph-name="Eogonek" unicode="&#x118;" horiz-adv-x="510" 
d="M446 0h-173q-17 -40 -17 -70.5t20 -37.5q15 -5 30.5 -4.5t26.5 3.5l11 3q0 -1 2 -2.5t2 -2.5l-4 -51q-5 -1 -13.5 -3t-33 -4.5t-38.5 1.5q-30 6 -43 26t-10 47t11 51t20 44h-164v630h373v-70h-300v-201h240v-69h-240v-221h300v-69z" />
    <glyph glyph-name="eogonek" unicode="&#x119;" horiz-adv-x="470" 
d="M407 220l-10 -10h-261v-71q0 -49 29.5 -65t80.5 -16q28 0 59.5 2.5t48.5 5.5l18 2l7 -7v-61q-57 -8 -132 -10q-30 -83 7 -98q15 -5 30.5 -4.5t26.5 3.5l11 3q0 -1 2 -2.5t2 -2.5l-4 -51q-5 -1 -13.5 -3t-32.5 -4.5t-38 1.5q-28 5 -41 23.5t-12 43.5t8 48t18 44
q-148 6 -148 134v212q0 76 50.5 109.5t126.5 33.5q176 0 176 -143q0 -63 -9 -117zM240 413q-104 0 -104 -83v-57h200q5 30 5 67q-1 73 -101 73z" />
    <glyph glyph-name="Ecaron" unicode="&#x11a;" horiz-adv-x="510" 
d="M302 680h-65l-108 136h72l69 -85l68 85h72zM146 560v-201h240v-69h-240v-221h300v-69h-373v630h373v-70h-300z" />
    <glyph glyph-name="ecaron" unicode="&#x11b;" horiz-adv-x="470" 
d="M240 413q-104 0 -104 -83v-57h200q5 30 5 67q-1 73 -101 73zM407 220l-10 -10h-261v-71q0 -49 29.5 -65t80.5 -16q28 0 59.5 2.5t48.5 5.5l18 2l7 -7v-61q-66 -10 -149 -10q-167 0 -167 135v212q0 76 50.5 109.5t126.5 33.5q176 0 176 -143q0 -63 -9 -117zM273 530h-65
l-108 136h72l69 -85l68 85h72z" />
    <glyph glyph-name="Gcircumflex" unicode="&#x11c;" horiz-adv-x="520" 
d="M243 826h65l108 -136h-72l-68 84l-69 -84h-72zM310 321h146v-321q-115 -10 -198 -10q-33 0 -62 5.5t-58.5 18.5t-47 40.5t-17.5 67.5v386q0 132 179 132q37 0 83 -2.5t73 -5.5l28 -2v-63l-7 -7q-95 10 -158 10q-125 0 -125 -82v-347q0 -82 132 -82q57 0 105 5v191h-66
l-7 7v59z" />
    <glyph glyph-name="gcircumflex" unicode="&#x11d;" horiz-adv-x="490" 
d="M406 338v-77q0 -141 -176 -141q-25 0 -37 1q-7 -37 1.5 -51t36.5 -14q41 0 64 -1.5t49 -7.5t39 -18t21.5 -34t8.5 -55t-11 -56t-27 -35t-42.5 -19t-47.5 -8.5t-52 -1.5q-37 0 -79.5 2.5t-66.5 5.5l-24 2v58l7 7q87 -10 150 -10q61 0 90.5 11t29.5 44q0 19 -10 31
t-32 16.5t-37 5.5t-45 1h-13q-43 0 -61 20t-16.5 47.5t13.5 72.5q-86 31 -86 127v77q0 75 50.5 108.5t126.5 33.5q78 0 119 -27l117 23l7 -7v-56h-84q17 -32 17 -75zM333 260v71q0 82 -103 82q-104 0 -104 -74v-75q0 -78 104 -78q103 0 103 74zM201 676h65l108 -136h-72
l-68 84l-69 -84h-72z" />
    <glyph glyph-name="Gbreve" unicode="&#x11e;" horiz-adv-x="520" 
d="M333 813h64q0 -57 -33 -86.5t-82 -29.5h-23q-49 0 -82 29.5t-33 86.5h64q0 -31 17 -47t42 -16h9q26 0 41.5 16t15.5 47zM310 321h146v-321q-115 -10 -198 -10q-33 0 -62 5.5t-58.5 18.5t-47 40.5t-17.5 67.5v386q0 132 179 132q37 0 83 -2.5t73 -5.5l28 -2v-63l-7 -7
q-95 10 -158 10q-125 0 -125 -82v-347q0 -82 132 -82q57 0 105 5v191h-66l-7 7v59z" />
    <glyph glyph-name="gbreve" unicode="&#x11f;" horiz-adv-x="490" 
d="M406 338v-77q0 -141 -176 -141q-25 0 -37 1q-7 -37 1.5 -51t36.5 -14q41 0 64 -1.5t49 -7.5t39 -18t21.5 -34t8.5 -55t-11 -56t-27 -35t-42.5 -19t-47.5 -8.5t-52 -1.5q-37 0 -79.5 2.5t-66.5 5.5l-24 2v58l7 7q87 -10 150 -10q61 0 90.5 11t29.5 44q0 19 -10 31
t-32 16.5t-37 5.5t-45 1h-13q-43 0 -61 20t-16.5 47.5t13.5 72.5q-86 31 -86 127v77q0 75 50.5 108.5t126.5 33.5q78 0 119 -27l117 23l7 -7v-56h-84q17 -32 17 -75zM333 260v71q0 82 -103 82q-104 0 -104 -74v-75q0 -78 104 -78q103 0 103 74zM301 663h64q0 -57 -33 -86.5
t-82 -29.5h-23q-49 0 -82 29.5t-33 86.5h64q0 -31 17 -47t42 -16h9q26 0 41.5 16t15.5 47z" />
    <glyph glyph-name="Gdotaccent" unicode="&#x120;" horiz-adv-x="520" 
d="M317 803v-93h-93v93h93zM310 321h146v-321q-115 -10 -198 -10q-33 0 -62 5.5t-58.5 18.5t-47 40.5t-17.5 67.5v386q0 132 179 132q37 0 83 -2.5t73 -5.5l28 -2v-63l-7 -7q-95 10 -158 10q-125 0 -125 -82v-347q0 -82 132 -82q57 0 105 5v191h-66l-7 7v59z" />
    <glyph glyph-name="gdotaccent" unicode="&#x121;" horiz-adv-x="490" 
d="M406 338v-77q0 -141 -176 -141q-25 0 -37 1q-7 -37 1.5 -51t36.5 -14q41 0 64 -1.5t49 -7.5t39 -18t21.5 -34t8.5 -55t-11 -56t-27 -35t-42.5 -19t-47.5 -8.5t-52 -1.5q-37 0 -79.5 2.5t-66.5 5.5l-24 2v58l7 7q87 -10 150 -10q61 0 90.5 11t29.5 44q0 19 -10 31
t-32 16.5t-37 5.5t-45 1h-13q-43 0 -61 20t-16.5 47.5t13.5 72.5q-86 31 -86 127v77q0 75 50.5 108.5t126.5 33.5q78 0 119 -27l117 23l7 -7v-56h-84q17 -32 17 -75zM333 260v71q0 82 -103 82q-104 0 -104 -74v-75q0 -78 104 -78q103 0 103 74zM274 653v-93h-93v93h93z" />
    <glyph glyph-name="Gcommaaccent" unicode="&#x122;" horiz-adv-x="520" 
d="M308 -40v-83l-10 -130h-36v130h-37v83h83zM310 321h146v-321q-115 -10 -198 -10q-33 0 -62 5.5t-58.5 18.5t-47 40.5t-17.5 67.5v386q0 132 179 132q37 0 83 -2.5t73 -5.5l28 -2v-63l-7 -7q-95 10 -158 10q-125 0 -125 -82v-347q0 -82 132 -82q57 0 105 5v191h-66l-7 7
v59z" />
    <glyph glyph-name="gcommaaccent" unicode="&#x123;" horiz-adv-x="490" 
d="M406 338v-77q0 -141 -176 -141q-25 0 -37 1q-7 -37 1.5 -51t36.5 -14q41 0 64 -1.5t49 -7.5t39 -18t21.5 -34t8.5 -55t-11 -56t-27 -35t-42.5 -19t-47.5 -8.5t-52 -1.5q-37 0 -79.5 2.5t-66.5 5.5l-24 2v58l7 7q87 -10 150 -10q61 0 90.5 11t29.5 44q0 19 -10 31
t-32 16.5t-37 5.5t-45 1h-13q-43 0 -61 20t-16.5 47.5t13.5 72.5q-86 31 -86 127v77q0 75 50.5 108.5t126.5 33.5q78 0 119 -27l117 23l7 -7v-56h-84q17 -32 17 -75zM333 260v71q0 82 -103 82q-104 0 -104 -74v-75q0 -78 104 -78q103 0 103 74zM269 760v-83l-10 -130h-36
v130h-37v83h83z" />
    <glyph glyph-name="Hcircumflex" unicode="&#x124;" horiz-adv-x="540" 
d="M234 826h65l108 -136h-72l-68 84l-69 -84h-72zM146 630v-271h247v271h73v-630h-73v290h-247v-290h-73v630h73z" />
    <glyph glyph-name="hcircumflex" unicode="&#x125;" horiz-adv-x="506" 
d="M79 660h73v-196l-2 -54h4l5 7.5t15.5 16.5t27 21.5t40 17t53.5 7.5q64 0 100.5 -31t36.5 -108v-341h-73v338q0 75 -81 75q-33 0 -59.5 -13t-66.5 -52v-348h-73v660zM84 856h65l108 -136h-72l-68 84l-69 -84h-72z" />
    <glyph glyph-name="Hbar" unicode="&#x126;" horiz-adv-x="540" 
d="M20 506h53v124h73v-124h247v124h73v-124h54v-56h-54v-450h-73v290h-247v-290h-73v450h-53v56zM146 359h247v91h-247v-91z" />
    <glyph glyph-name="hbar" unicode="&#x127;" 
d="M73 660h73v-66h50v-54h-50v-76l-2 -54h4l5 7.5t15.5 16.5t27 21.5t40 17t53.5 7.5q64 0 100.5 -31t36.5 -108v-341h-73v338q0 75 -81 75q-33 0 -59.5 -13t-66.5 -52v-348h-73v540h-53v54h53v66z" />
    <glyph glyph-name="Itilde" unicode="&#x128;" horiz-adv-x="236" 
d="M119 718q-27 15 -43 21t-29 2t-19.5 -9.5t-20.5 -21.5l-42 30q27 51 74 59.5t88 -16.5q15 -8 25.5 -12.5t19.5 -5t14 -1.5t12 4.5t9.5 7.5t10.5 11.5t11 13.5l38 -33q-52 -99 -148 -50zM81 630h73v-630h-73v630z" />
    <glyph glyph-name="itilde" unicode="&#x129;" horiz-adv-x="218" 
d="M74 470h73v-470h-73v470zM114 568q-27 15 -43 21t-29 2t-19.5 -9.5t-20.5 -21.5l-42 30q27 51 74 59.5t88 -16.5q15 -8 25.5 -12.5t19.5 -5t14 -1.5t12 4.5t9.5 7.5t10.5 11.5t11 13.5l38 -33q-52 -99 -148 -50z" />
    <glyph glyph-name="Imacron" unicode="&#x12a;" horiz-adv-x="230" 
d="M255 783v-63h-280v63h280zM78 630h73v-630h-73v630z" />
    <glyph glyph-name="imacron" unicode="&#x12b;" horiz-adv-x="206" 
d="M72 470h73v-470h-73v470zM249 633v-63h-280v63h280z" />
    <glyph glyph-name="Ibreve" unicode="&#x12c;" horiz-adv-x="220" 
d="M172 813h64q0 -57 -33 -86.5t-82 -29.5h-23q-49 0 -82 29.5t-33 86.5h64q0 -31 17 -47t42 -16h9q25 0 41 16t16 47zM73 630h73v-630h-73v630z" />
    <glyph glyph-name="ibreve" unicode="&#x12d;" horiz-adv-x="214" 
d="M73 470h73v-470h-73v470zM171 663h64q0 -57 -33 -86.5t-82 -29.5h-23q-49 0 -82 29.5t-33 86.5h64q0 -31 17 -47t42 -16h9q26 0 41.5 16t15.5 47z" />
    <glyph glyph-name="Iogonek" unicode="&#x12e;" horiz-adv-x="218" 
d="M92 0h-19v630h73v-630h-19q-16 -40 -16 -70.5t19 -37.5q15 -5 30.5 -4.5t26.5 3.5l11 3q0 -1 2 -2.5t2 -2.5l-4 -51q-5 -1 -13.5 -3t-32.5 -4.5t-38 1.5q-30 6 -43 26t-10 47t11 51t20 44z" />
    <glyph glyph-name="iogonek" unicode="&#x12f;" horiz-adv-x="207" 
d="M90 0h-15v470h66v-470h-16q-18 -41 -18.5 -71t19.5 -39q15 -5 30.5 -4.5t26.5 3.5l11 3q0 -1 2 -2.5t2 -2.5l-4 -48q-5 -1 -13 -3t-31.5 -4.5t-37.5 1.5q-30 6 -43 26t-10 46.5t11 50.5t20 44zM141 636v-81h-66v81h66z" />
    <glyph glyph-name="Idotaccent" unicode="&#x130;" horiz-adv-x="220" 
d="M156 803v-93h-93v93h93zM73 630h73v-630h-73v630z" />
    <glyph glyph-name="dotlessi" unicode="&#x131;" horiz-adv-x="220" 
d="M73 470h73v-470h-73v470z" />
    <glyph glyph-name="IJ" unicode="&#x132;" horiz-adv-x="528" 
d="M73 630h73v-630h-73v630zM381 128v502h73v-508q0 -66 -36 -99t-97 -33q-19 0 -43.5 2t-39.5 4l-15 2v59l7 7q46 -5 79 -5q72 0 72 69z" />
    <glyph glyph-name="ij" unicode="&#x133;" horiz-adv-x="431" 
d="M146 639v-86h-73v86h73zM73 470h73v-470h-73v470zM357 639v-86h-73v86h73zM284 -46v516h73v-516q0 -134 -123 -134q-19 0 -38 2t-28 4l-10 3v56l7 7q24 -5 56 -5q63 0 63 67z" />
    <glyph glyph-name="Jcircumflex" unicode="&#x134;" horiz-adv-x="329" 
d="M182 826h65l108 -136h-72l-68 84l-69 -84h-72zM178 128v502h73v-508q0 -66 -36.5 -99t-97.5 -33q-18 0 -42.5 2t-39.5 4l-15 2v59l7 7q46 -5 79 -5q72 0 72 69z" />
    <glyph glyph-name="jcircumflex" unicode="&#x135;" horiz-adv-x="216" 
d="M73 -46v516h73v-516q0 -134 -123 -134q-19 0 -38 2t-29 4l-9 3v56l7 7q24 -5 56 -5q63 0 63 67zM87 676h65l108 -136h-72l-68 84l-69 -84h-72z" />
    <glyph glyph-name="Kcommaaccent" unicode="&#x136;" horiz-adv-x="533" 
d="M300 -33v-83l-10 -130h-36v130h-37v83h83zM146 630v-332l250 332h90l-207 -282l223 -348h-92l-184 288l-80 -98v-190h-73v630h73z" />
    <glyph glyph-name="kcommaaccent" unicode="&#x137;" horiz-adv-x="493" 
d="M146 206v-206h-73v660h73v-387h124q39 0 61 16t22 59v122h73v-120q0 -127 -125 -142l148 -208h-86l-147 206h-70zM289 -40v-83l-10 -130h-36v130h-37v83h83z" />
    <glyph glyph-name="kgreenlandic" unicode="&#x138;" horiz-adv-x="493" 
d="M146 206v-206h-73v470h73v-197h124q39 0 61 16t22 59v122h73v-120q0 -127 -125 -142l148 -208h-86l-147 206h-70z" />
    <glyph glyph-name="Lacute" unicode="&#x139;" horiz-adv-x="430" 
d="M81 716l118 153l55 -49l-137 -134zM413 69v-69h-340v630h73v-561h267z" />
    <glyph glyph-name="lacute" unicode="&#x13a;" horiz-adv-x="214" 
d="M73 660h73v-660h-73v660zM77 756l118 153l55 -49l-137 -134z" />
    <glyph glyph-name="Lcommaaccent" unicode="&#x13b;" horiz-adv-x="430" 
d="M272 -32v-83l-10 -130h-36v130h-37v83h83zM413 69v-69h-340v630h73v-561h267z" />
    <glyph glyph-name="lcommaaccent" unicode="&#x13c;" horiz-adv-x="240" 
d="M73 660h73v-660h-73v660zM150 -40v-83l-10 -130h-36v130h-37v83h83z" />
    <glyph glyph-name="Lcaron" unicode="&#x13d;" horiz-adv-x="430" 
d="M353 630v-83l-10 -130h-36v130h-37v83h83zM413 69v-69h-340v630h73v-561h267z" />
    <glyph glyph-name="lcaron" unicode="&#x13e;" horiz-adv-x="241" 
d="M73 660h73v-660h-73v660zM327 659v-83l-10 -130h-36v130h-37v83h83z" />
    <glyph glyph-name="Ldot" unicode="&#x13f;" horiz-adv-x="430" 
d="M350 384v-89h-90v89h90zM413 69v-69h-340v630h73v-561h267z" />
    <glyph glyph-name="ldot" unicode="&#x140;" horiz-adv-x="290" 
d="M73 660h73v-660h-73v660zM333 379v-89h-90v89h90z" />
    <glyph glyph-name="Lslash" unicode="&#x141;" horiz-adv-x="430" 
d="M20 356h53v274h73v-274h114v-63h-114v-224h267v-69h-340v293h-53v63z" />
    <glyph glyph-name="lslash" unicode="&#x142;" horiz-adv-x="240" 
d="M20 356h53v304h73v-304h53v-63h-53v-293h-73v293h-53v63z" />
    <glyph glyph-name="Nacute" unicode="&#x143;" horiz-adv-x="550" 
d="M235 716l118 153l55 -49l-137 -134zM403 630h73v-630h-93l-237 485v-485h-73v630h86l244 -503v503z" />
    <glyph glyph-name="nacute" unicode="&#x144;" 
d="M426 341v-341h-73v338q0 43 -21.5 59t-61.5 16q-66 0 -124 -65v-348h-73v470h66l7 -7l-2 -53h4l5 7.5t15.5 16.5t27 21.5t40 17t53.5 7.5q64 0 100.5 -30.5t36.5 -108.5zM211 566l118 153l55 -49l-137 -134z" />
    <glyph glyph-name="Ncommaaccent" unicode="&#x145;" horiz-adv-x="550" 
d="M312 -40v-83l-10 -130h-36v130h-37v83h83zM403 630h73v-630h-93l-237 485v-485h-73v630h86l244 -503v503z" />
    <glyph glyph-name="ncommaaccent" unicode="&#x146;" 
d="M426 341v-341h-73v338q0 43 -21.5 59t-61.5 16q-66 0 -124 -65v-348h-73v470h66l7 -7l-2 -53h4l5 7.5t15.5 16.5t27 21.5t40 17t53.5 7.5q64 0 100.5 -30.5t36.5 -108.5zM297 -40v-83l-10 -130h-36v130h-37v83h83z" />
    <glyph glyph-name="Ncaron" unicode="&#x147;" horiz-adv-x="550" 
d="M308 680h-65l-108 136h72l69 -85l68 85h72zM403 630h73v-630h-93l-237 485v-485h-73v630h86l244 -503v503z" />
    <glyph glyph-name="ncaron" unicode="&#x148;" 
d="M426 341v-341h-73v338q0 43 -21.5 59t-61.5 16q-66 0 -124 -65v-348h-73v470h66l7 -7l-2 -53h4l5 7.5t15.5 16.5t27 21.5t40 17t53.5 7.5q64 0 100.5 -30.5t36.5 -108.5zM287 530h-65l-108 136h72l69 -85l68 85h72z" />
    <glyph glyph-name="napostrophe" unicode="&#x149;" 
d="M426 341v-341h-73v338q0 43 -21.5 59t-61.5 16q-66 0 -124 -65v-348h-73v470h66l7 -7l-2 -53h4l5 7.5t15.5 16.5t27 21.5t40 17t53.5 7.5q64 0 100.5 -30.5t36.5 -108.5zM156 770v-83l-10 -130h-36v130h-37v83h83z" />
    <glyph glyph-name="Eng" unicode="&#x14a;" horiz-adv-x="550" 
d="M403 -34l-257 519v-485h-73v630h86l244 -503v503h73v-680q0 -133 -123 -133q-19 0 -38.5 2.5t-28.5 4.5l-10 2v55l7 7q25 -4 58 -4q29 0 45.5 14t16.5 52v16z" />
    <glyph glyph-name="eng" unicode="&#x14b;" 
d="M426 341v-387q0 -134 -123 -134q-19 0 -38.5 2t-28.5 4l-10 3v56l7 7q25 -5 58 -5q62 0 62 67v384q0 75 -83 75q-66 0 -124 -65v-348h-73v470h66l7 -7l-2 -53h4l5 7.5t15.5 16.5t27 21.5t40 17t53.5 7.5q64 0 100.5 -30.5t36.5 -108.5z" />
    <glyph glyph-name="Omacron" unicode="&#x14c;" horiz-adv-x="540" 
d="M409 783v-63h-280v63h280zM231 59h77q85 0 85 91v329q0 90 -86 90h-75q-86 0 -86 -90v-329q0 -91 85 -91zM310 -10h-81q-67 0 -111.5 33.5t-44.5 113.5v355q0 81 44.5 114.5t111.5 33.5h81q67 0 111.5 -33.5t44.5 -114.5v-355q0 -80 -44.5 -113.5t-111.5 -33.5z" />
    <glyph glyph-name="omacron" unicode="&#x14d;" horiz-adv-x="480" 
d="M343 138v193q0 82 -103 82q-104 0 -104 -82v-193q0 -82 104 -82q103 0 103 82zM416 338v-207q0 -141 -176 -141q-76 0 -126.5 33t-50.5 108v207q0 75 50.5 108.5t126.5 33.5q176 0 176 -142zM379 633v-63h-280v63h280z" />
    <glyph glyph-name="Obreve" unicode="&#x14e;" horiz-adv-x="540" 
d="M334 813h64q0 -57 -33 -86.5t-82 -29.5h-23q-49 0 -82 29.5t-33 86.5h64q0 -31 17 -47t42 -16h9q25 0 41 16t16 47zM231 59h77q85 0 85 91v329q0 90 -86 90h-75q-86 0 -86 -90v-329q0 -91 85 -91zM310 -10h-81q-67 0 -111.5 33.5t-44.5 113.5v355q0 81 44.5 114.5
t111.5 33.5h81q67 0 111.5 -33.5t44.5 -114.5v-355q0 -80 -44.5 -113.5t-111.5 -33.5z" />
    <glyph glyph-name="obreve" unicode="&#x14f;" horiz-adv-x="480" 
d="M343 138v193q0 82 -103 82q-104 0 -104 -82v-193q0 -82 104 -82q103 0 103 82zM416 338v-207q0 -141 -176 -141q-76 0 -126.5 33t-50.5 108v207q0 75 50.5 108.5t126.5 33.5q176 0 176 -142zM303 663h64q0 -57 -33 -86.5t-82 -29.5h-23q-49 0 -82 29.5t-33 86.5h64
q0 -31 17 -47t42 -16h9q26 0 41.5 16t15.5 47z" />
    <glyph glyph-name="Ohungarumlaut" unicode="&#x150;" horiz-adv-x="540" 
d="M177 710l86 141l57 -31l-103 -130zM314 710l86 141l56 -31l-103 -130zM231 59h77q85 0 85 91v329q0 90 -86 90h-75q-86 0 -86 -90v-329q0 -91 85 -91zM310 -10h-81q-67 0 -111.5 33.5t-44.5 113.5v355q0 81 44.5 114.5t111.5 33.5h81q67 0 111.5 -33.5t44.5 -114.5v-355
q0 -80 -44.5 -113.5t-111.5 -33.5z" />
    <glyph glyph-name="ohungarumlaut" unicode="&#x151;" horiz-adv-x="480" 
d="M343 138v193q0 82 -103 82q-104 0 -104 -82v-193q0 -82 104 -82q103 0 103 82zM416 338v-207q0 -141 -176 -141q-76 0 -126.5 33t-50.5 108v207q0 75 50.5 108.5t126.5 33.5q176 0 176 -142zM128 560l86 141l57 -31l-103 -130zM265 560l86 141l56 -31l-103 -130z" />
    <glyph glyph-name="OE" unicode="&#x152;" horiz-adv-x="810" 
d="M466 560v-201h240v-69h-240v-221h300v-69h-373v19q-38 -29 -105 -29h-59q-67 0 -111.5 33.5t-44.5 113.5v355q0 81 44.5 114.5t111.5 33.5h59q67 0 105 -29v19h373v-70h-300zM231 59h77q85 0 85 91v329q0 90 -86 90h-75q-86 0 -86 -90v-329q0 -91 85 -91z" />
    <glyph glyph-name="oe" unicode="&#x153;" horiz-adv-x="730" 
d="M687 220l-10 -10h-261v-71q0 -49 29.5 -65t81.5 -16q28 0 59.5 2.5t49.5 5.5l17 2l7 -7v-61q-67 -10 -150 -10q-89 0 -132 48q-43 -48 -138 -48q-76 0 -126.5 33t-50.5 108v207q0 75 50.5 108.5t126.5 33.5q98 0 141 -53q49 53 139 53q176 0 176 -143q0 -63 -9 -117z
M343 136v198q0 79 -103 79q-104 0 -104 -82v-193q0 -82 104 -82q103 0 103 80zM520 413q-104 0 -104 -74v-66h200q5 30 5 67q-1 73 -101 73z" />
    <glyph glyph-name="Racute" unicode="&#x154;" horiz-adv-x="555" 
d="M216 716l118 153l55 -49l-137 -134zM345 264l146 -264h-88l-143 261h-114v-261h-73v630h237q67 0 111.5 -34t44.5 -117v-64q0 -128 -121 -151zM146 331h165q37 0 59.5 20.5t22.5 63.5v61q0 43 -22.5 63.5t-60.5 20.5h-164v-229z" />
    <glyph glyph-name="racute" unicode="&#x155;" horiz-adv-x="350" 
d="M303 413l-7 -7q-29 0 -46 -2t-47 -16t-57 -42v-346h-73v470h66l7 -7l-2 -53h4q-1 0 5 8t18.5 19t30.5 21.5t45 17t56 4.5v-67zM86 566l118 153l55 -49l-137 -134z" />
    <glyph glyph-name="Rcommaaccent" unicode="&#x156;" horiz-adv-x="555" 
d="M307 -34v-83l-10 -130h-36v130h-37v83h83zM345 264l146 -264h-88l-143 261h-114v-261h-73v630h237q67 0 111.5 -34t44.5 -117v-64q0 -128 -121 -151zM146 331h165q37 0 59.5 20.5t22.5 63.5v61q0 43 -22.5 63.5t-60.5 20.5h-164v-229z" />
    <glyph glyph-name="rcommaaccent" unicode="&#x157;" horiz-adv-x="352" 
d="M305 413l-7 -7q-29 0 -46 -2t-47 -16t-57 -42v-346h-73v470h66l7 -7l-2 -53h4q-1 0 5 8t18.5 19t30.5 21.5t45 17t56 4.5v-67zM151 -40v-83l-10 -130h-36v130h-37v83h83z" />
    <glyph glyph-name="Rcaron" unicode="&#x158;" horiz-adv-x="555" 
d="M295 680h-65l-108 136h72l69 -85l68 85h72zM345 264l146 -264h-88l-143 261h-114v-261h-73v630h237q67 0 111.5 -34t44.5 -117v-64q0 -128 -121 -151zM146 331h165q37 0 59.5 20.5t22.5 63.5v61q0 43 -22.5 63.5t-60.5 20.5h-164v-229z" />
    <glyph glyph-name="rcaron" unicode="&#x159;" horiz-adv-x="353" 
d="M301 413l-7 -7q-29 0 -46 -2t-47 -16t-57 -42v-346h-73v470h66l7 -7l-2 -53h4q-1 0 5 8t18.5 19t30.5 21.5t45 17t56 4.5v-67zM211 530h-65l-108 136h72l69 -85l68 85h72z" />
    <glyph glyph-name="Sacute" unicode="&#x15a;" horiz-adv-x="510" 
d="M216 716l118 153l55 -49l-137 -134zM373 133v74q5 81 -132 81q-74 0 -126 32.5t-52 108.5v79q0 132 172 132q37 0 81.5 -2.5t71.5 -5.5l26 -2v-63l-7 -7q-89 10 -152 10q-119 0 -119 -72v-65q0 -25 10 -41t31.5 -22.5t41.5 -8.5t54 -2q44 0 79.5 -10t64.5 -42.5t29 -85.5
v-94q0 -40 -16 -68.5t-42.5 -42.5t-54.5 -20t-60 -6q-37 0 -87.5 2.5t-82.5 5.5l-32 2v62l7 7q112 -10 175 -10q120 0 120 74z" />
    <glyph glyph-name="sacute" unicode="&#x15b;" horiz-adv-x="450" 
d="M60 61l7 7q73 -10 136 -10q28 0 46.5 2t37.5 9t28.5 22.5t9.5 39.5q0 21 -6 35t-14.5 21.5t-25 11.5t-30.5 5t-38 1q-81 0 -119.5 30t-38.5 108q0 137 156 137q37 0 77 -2.5t62 -5.5l21 -2v-62l-7 -7q-69 10 -132 10q-54 0 -79 -13t-25 -56q0 -20 6 -33.5t13.5 -20.5
t26 -10.5t32 -4t42.5 -0.5q75 0 112.5 -31t37.5 -111q0 -45 -14 -74.5t-40.5 -43t-52 -18.5t-60.5 -5q-37 0 -79 2.5t-66 5.5l-24 2v61zM187 566l118 153l55 -49l-137 -134z" />
    <glyph glyph-name="Scircumflex" unicode="&#x15c;" horiz-adv-x="510" 
d="M227 826h65l108 -136h-72l-68 84l-69 -84h-72zM373 133v74q5 81 -132 81q-74 0 -126 32.5t-52 108.5v79q0 132 172 132q37 0 81.5 -2.5t71.5 -5.5l26 -2v-63l-7 -7q-89 10 -152 10q-119 0 -119 -72v-65q0 -25 10 -41t31.5 -22.5t41.5 -8.5t54 -2q44 0 79.5 -10
t64.5 -42.5t29 -85.5v-94q0 -40 -16 -68.5t-42.5 -42.5t-54.5 -20t-60 -6q-37 0 -87.5 2.5t-82.5 5.5l-32 2v62l7 7q112 -10 175 -10q120 0 120 74z" />
    <glyph glyph-name="scircumflex" unicode="&#x15d;" horiz-adv-x="450" 
d="M60 61l7 7q73 -10 136 -10q28 0 46.5 2t37.5 9t28.5 22.5t9.5 39.5q0 21 -6 35t-14.5 21.5t-25 11.5t-30.5 5t-38 1q-81 0 -119.5 30t-38.5 108q0 137 156 137q37 0 77 -2.5t62 -5.5l21 -2v-62l-7 -7q-69 10 -132 10q-54 0 -79 -13t-25 -56q0 -20 6 -33.5t13.5 -20.5
t26 -10.5t32 -4t42.5 -0.5q75 0 112.5 -31t37.5 -111q0 -45 -14 -74.5t-40.5 -43t-52 -18.5t-60.5 -5q-37 0 -79 2.5t-66 5.5l-24 2v61zM193 676h65l108 -136h-72l-68 84l-69 -84h-72z" />
    <glyph glyph-name="Scedilla" unicode="&#x15e;" horiz-adv-x="510" 
d="M173 -135l6 6q37 -5 53 -3q28 2 28 27q0 30 -47 30v67l-142 8v62l7 7q112 -10 175 -10q120 0 120 74v74q0 47 -34.5 64t-97.5 17q-178 0 -178 131v89q0 132 172 132q37 0 81.5 -2.5t71.5 -5.5l26 -2v-63l-7 -7l-139 10h-13q-119 0 -119 -72v-65q0 -25 10 -41t31.5 -22.5
t41.5 -8.5t54 -2q44 0 81 -13t64.5 -47.5t27.5 -86.5v-85q0 -135 -178 -137v-35q58 -10 58 -63q0 -78 -86 -78l-67 5v46z" />
    <glyph glyph-name="scedilla" unicode="&#x15f;" horiz-adv-x="450" 
d="M143 -135l6 6q37 -5 54 -3q27 2 27 27q0 30 -47 30v66l-123 9v61l7 7q-2 -1 29 -3.5t68 -4.5t53 -2q34 1 54 4.5t37 20.5t17 48q0 21 -6 35t-14.5 21.5t-25 11.5t-30.5 5t-38 1q-81 0 -119.5 30t-38.5 108q0 137 156 137q37 0 77 -2.5t62 -5.5l21 -2v-62l-7 -7
q-69 10 -132 10q-56 0 -80.5 -12.5t-24.5 -53.5q0 -21 6 -34.5t14 -21t25.5 -11t32.5 -4.5t43 -1q75 0 112.5 -31t37.5 -111q0 -35 -9.5 -61t-24 -40.5t-36 -23.5t-42 -12t-46.5 -3v-36q58 -10 58 -63q0 -78 -86 -78l-67 5v46z" />
    <glyph glyph-name="Scaron" unicode="&#x160;" horiz-adv-x="510" 
d="M291 680h-65l-108 136h72l69 -85l68 85h72zM373 133v74q5 81 -132 81q-74 0 -126 32.5t-52 108.5v79q0 132 172 132q37 0 81.5 -2.5t71.5 -5.5l26 -2v-63l-7 -7q-89 10 -152 10q-119 0 -119 -72v-65q0 -25 10 -41t31.5 -22.5t41.5 -8.5t54 -2q44 0 79.5 -10t64.5 -42.5
t29 -85.5v-94q0 -40 -16 -68.5t-42.5 -42.5t-54.5 -20t-60 -6q-37 0 -87.5 2.5t-82.5 5.5l-32 2v62l7 7q112 -10 175 -10q120 0 120 74z" />
    <glyph glyph-name="scaron" unicode="&#x161;" horiz-adv-x="470" 
d="M70 61l7 7q73 -10 136 -10q28 0 46.5 2t37.5 9t28.5 22.5t9.5 39.5q0 21 -6 35t-14.5 21.5t-25 11.5t-30.5 5t-38 1q-81 0 -119.5 30t-38.5 108q0 137 156 137q37 0 77 -2.5t62 -5.5l21 -2v-62l-7 -7q-69 10 -132 10q-54 0 -79 -13t-25 -56q0 -20 6 -33.5t13.5 -20.5
t26 -10.5t32 -4t42.5 -0.5q75 0 112.5 -31t37.5 -111q0 -45 -14 -74.5t-40.5 -43t-52 -18.5t-60.5 -5q-37 0 -79 2.5t-66 5.5l-24 2v61zM269 530h-65l-108 136h72l69 -85l68 85h72z" />
    <glyph glyph-name="Tcommaaccent" unicode="&#x162;" horiz-adv-x="440" 
d="M261 -40v-83l-10 -130h-36v130h-37v83h83zM419 560h-163v-560h-73v560h-163v70h399v-70z" />
    <glyph glyph-name="tcommaaccent" unicode="&#x163;" horiz-adv-x="330" 
d="M83 123v283h-50v64h50v100h73v-100h117v-64h-117v-283q0 -67 62 -67l58 5l7 -7v-55q-34 -9 -77 -9q-58 0 -90.5 33.5t-32.5 99.5zM213 -40v-83l-10 -130h-36v130h-37v83h83z" />
    <glyph glyph-name="Tcaron" unicode="&#x164;" horiz-adv-x="440" 
d="M252 680h-65l-108 136h72l69 -85l68 85h72zM419 560h-163v-560h-73v560h-163v70h399v-70z" />
    <glyph glyph-name="tcaron" unicode="&#x165;" horiz-adv-x="330" 
d="M83 123v283h-50v64h50v100h73v-100h117v-64h-117v-283q0 -67 62 -67l58 5l7 -7v-55q-34 -9 -77 -9q-58 0 -90.5 33.5t-32.5 99.5zM295 770v-83l-10 -130h-36v130h-37v83h83z" />
    <glyph glyph-name="Tbar" unicode="&#x166;" horiz-adv-x="440" 
d="M95 356h88v204h-163v70h399v-70h-163v-204h89v-63h-89v-293h-73v293h-88v63z" />
    <glyph glyph-name="tbar" unicode="&#x167;" horiz-adv-x="330" 
d="M83 211h-53v57h53v138h-50v64h50v100h73v-100h117v-64h-117v-138h53v-57h-53v-88q0 -42 18 -54.5t55 -12.5l47 5l7 -7v-55q-34 -9 -77 -9q-123 0 -123 130v91z" />
    <glyph glyph-name="Utilde" unicode="&#x168;" horiz-adv-x="540" 
d="M274 718q-27 15 -43 21t-29 2t-19.5 -9.5t-20.5 -21.5l-42 30q27 51 74 59.5t88 -16.5q15 -8 25.5 -12.5t19.5 -5t14 -1.5t12 4.5t9.5 7.5t10.5 11.5t11 13.5l38 -33q-52 -99 -148 -50zM393 630h73v-493q0 -80 -44.5 -113.5t-111.5 -33.5h-81q-67 0 -111.5 33.5
t-44.5 113.5v493h73v-480q0 -91 85 -91h77q85 0 85 91v480z" />
    <glyph glyph-name="utilde" unicode="&#x169;" 
d="M73 128v342h73v-339q0 -43 21.5 -59t62.5 -16q65 0 123 65v349h73v-470h-66l-7 7l2 53h-4l-5 -7.5t-15.5 -16.5t-27 -21.5t-40 -17t-53.5 -7.5q-64 0 -100.5 30t-36.5 108zM250 568q-27 15 -43 21t-29 2t-19.5 -9.5t-20.5 -21.5l-42 30q27 51 74 59.5t88 -16.5
q15 -8 25.5 -12.5t19.5 -5t14 -1.5t12 4.5t9.5 7.5t10.5 11.5t11 13.5l38 -33q-52 -99 -148 -50z" />
    <glyph glyph-name="Umacron" unicode="&#x16a;" horiz-adv-x="540" 
d="M411 783v-63h-280v63h280zM393 630h73v-493q0 -80 -44.5 -113.5t-111.5 -33.5h-81q-67 0 -111.5 33.5t-44.5 113.5v493h73v-480q0 -91 85 -91h77q85 0 85 91v480z" />
    <glyph glyph-name="umacron" unicode="&#x16b;" 
d="M73 128v342h73v-339q0 -43 21.5 -59t62.5 -16q65 0 123 65v349h73v-470h-66l-7 7l2 53h-4l-5 -7.5t-15.5 -16.5t-27 -21.5t-40 -17t-53.5 -7.5q-64 0 -100.5 30t-36.5 108zM386 633v-63h-280v63h280z" />
    <glyph glyph-name="Ubreve" unicode="&#x16c;" horiz-adv-x="540" 
d="M330 813h64q0 -57 -33 -86.5t-82 -29.5h-23q-49 0 -82 29.5t-33 86.5h64q0 -31 17 -47t42 -16h9q25 0 41 16t16 47zM393 630h73v-493q0 -80 -44.5 -113.5t-111.5 -33.5h-81q-67 0 -111.5 33.5t-44.5 113.5v493h73v-480q0 -91 85 -91h77q85 0 85 91v480z" />
    <glyph glyph-name="ubreve" unicode="&#x16d;" 
d="M73 128v342h73v-339q0 -43 21.5 -59t62.5 -16q65 0 123 65v349h73v-470h-66l-7 7l2 53h-4l-5 -7.5t-15.5 -16.5t-27 -21.5t-40 -17t-53.5 -7.5q-64 0 -100.5 30t-36.5 108zM313 663h64q0 -57 -33 -86.5t-82 -29.5h-23q-49 0 -82 29.5t-33 86.5h64q0 -31 17 -47t42 -16h9
q26 0 41.5 16t15.5 47z" />
    <glyph glyph-name="Uring" unicode="&#x16e;" horiz-adv-x="540" 
d="M281 690h-21q-85 0 -85 71v42q0 71 85 71h21q85 0 85 -71v-42q0 -71 -85 -71zM218 799v-35q0 -35 42 -35h21q18 -1 30 8t12 27v35q0 34 -43 34h-20q-42 0 -42 -34zM393 630h73v-493q0 -80 -44.5 -113.5t-111.5 -33.5h-81q-67 0 -111.5 33.5t-44.5 113.5v493h73v-480
q0 -91 85 -91h77q85 0 85 91v480z" />
    <glyph glyph-name="uring" unicode="&#x16f;" 
d="M73 128v342h73v-339q0 -43 21.5 -59t62.5 -16q65 0 123 65v349h73v-470h-66l-7 7l2 53h-4l-5 -7.5t-15.5 -16.5t-27 -21.5t-40 -17t-53.5 -7.5q-64 0 -100.5 30t-36.5 108zM264 540h-21q-85 0 -85 71v42q0 71 85 71h21q85 0 85 -71v-42q0 -71 -85 -71zM201 649v-35
q0 -35 42 -35h21q18 -1 30 8t12 27v35q0 34 -43 34h-20q-42 0 -42 -34z" />
    <glyph glyph-name="Uhungarumlaut" unicode="&#x170;" horiz-adv-x="540" 
d="M177 710l86 141l57 -31l-103 -130zM314 710l86 141l56 -31l-103 -130zM393 630h73v-493q0 -80 -44.5 -113.5t-111.5 -33.5h-81q-67 0 -111.5 33.5t-44.5 113.5v493h73v-480q0 -91 85 -91h77q85 0 85 91v480z" />
    <glyph glyph-name="uhungarumlaut" unicode="&#x171;" 
d="M73 128v342h73v-339q0 -43 21.5 -59t62.5 -16q65 0 123 65v349h73v-470h-66l-7 7l2 53h-4l-5 -7.5t-15.5 -16.5t-27 -21.5t-40 -17t-53.5 -7.5q-64 0 -100.5 30t-36.5 108zM139 560l86 141l57 -31l-103 -130zM276 560l86 141l56 -31l-103 -130z" />
    <glyph glyph-name="Uogonek" unicode="&#x172;" horiz-adv-x="540" 
d="M393 630h73v-493q0 -80 -44.5 -113.5t-111.5 -33.5h-21q-14 -36 -12.5 -63.5t19.5 -34.5q15 -5 30.5 -4.5t26.5 3.5l11 3q0 -1 2 -2.5t2 -2.5l-4 -51q-5 -1 -13.5 -3t-32.5 -4.5t-38 1.5q-28 5 -41 23.5t-12 43t7.5 47.5t17.5 44h-23q-67 0 -111.5 33.5t-44.5 113.5v493
h73v-480q0 -91 85 -91h77q44 0 64.5 25.5t20.5 65.5v480z" />
    <glyph glyph-name="uogonek" unicode="&#x173;" 
d="M376 0h-16l-7 7l2 53h-4l-5 -7.5t-15.5 -16.5t-27 -21.5t-40 -17t-53.5 -7.5q-64 0 -100.5 30t-36.5 108v342h73v-339q0 -75 84 -75q65 0 123 65v349h73v-470h-15q-16 -40 -16 -70.5t19 -37.5q15 -5 30.5 -4.5t26.5 3.5l11 3q0 -1 2 -2.5t2 -2.5l-4 -51q-5 -1 -13.5 -3
t-32.5 -4.5t-38 1.5q-30 6 -43 26t-10 47t11 51t20 44z" />
    <glyph glyph-name="Wcircumflex" unicode="&#x174;" horiz-adv-x="740" 
d="M345 826h65l108 -136h-72l-68 84l-69 -84h-72zM373 630h74l-42 -178l89 -349l142 527h80l-176 -635h-92l-79 316l-76 -316h-94l-176 635h80l145 -531z" />
    <glyph glyph-name="wcircumflex" unicode="&#x175;" horiz-adv-x="680" 
d="M265 -5h-91l-154 475h81l120 -393l124 393h81l-49 -147l79 -246l122 393h81l-158 -475h-90l-73 220zM307 676h65l108 -136h-72l-68 84l-69 -84h-72z" />
    <glyph glyph-name="Ycircumflex" unicode="&#x176;" horiz-adv-x="490" 
d="M212 826h65l108 -136h-72l-68 84l-69 -84h-72zM13 630h84l148 -307l147 307h84l-195 -395v-235h-73v235z" />
    <glyph glyph-name="ycircumflex" unicode="&#x177;" 
d="M426 470v-511q0 -40 -14.5 -68.5t-39.5 -43t-52.5 -21t-60.5 -6.5q-37 0 -76.5 2.5t-60.5 5.5l-22 2v62l7 7q73 -10 136 -10q50 0 80 17.5t30 66.5v38l2 49h-4l-5 -7.5t-15.5 -16.5t-27 -21.5t-40 -17t-53.5 -7.5q-64 0 -100.5 30t-36.5 108v342h73v-339q0 -75 83 -75
q31 0 58 13.5t66 51.5v349h73zM219 676h65l108 -136h-72l-68 84l-69 -84h-72z" />
    <glyph glyph-name="Ydieresis" unicode="&#x178;" horiz-adv-x="490" 
d="M196 798v-88h-88v88h88zM381 798v-88h-88v88h88zM13 630h84l148 -307l147 307h84l-195 -395v-235h-73v235z" />
    <glyph glyph-name="Zacute" unicode="&#x179;" horiz-adv-x="490" 
d="M212 716l118 153l55 -49l-137 -134zM441 630v-72l-311 -490l316 3v-71h-403v71l310 490l-300 -3v72h388z" />
    <glyph glyph-name="zacute" unicode="&#x17a;" horiz-adv-x="440" 
d="M381 470v-77l-258 -327h273v-66h-353v76l257 327h-247v67h328zM176 566l118 153l55 -49l-137 -134z" />
    <glyph glyph-name="Zdotaccent" unicode="&#x17b;" horiz-adv-x="490" 
d="M290 803v-93h-93v93h93zM441 630v-72l-311 -490l316 3v-71h-403v71l310 490l-300 -3v72h388z" />
    <glyph glyph-name="zdotaccent" unicode="&#x17c;" horiz-adv-x="440" 
d="M381 470v-77l-258 -327h273v-66h-353v76l257 327h-247v67h328zM278 653v-93h-93v93h93z" />
    <glyph glyph-name="Zcaron" unicode="&#x17d;" horiz-adv-x="490" 
d="M287 680h-65l-108 136h72l69 -85l68 85h72zM441 630v-72l-311 -490l316 3v-71h-403v71l310 490l-300 -3v72h388z" />
    <glyph glyph-name="zcaron" unicode="&#x17e;" horiz-adv-x="440" 
d="M381 470v-77l-258 -327h273v-66h-353v76l257 327h-247v67h328zM252 530h-65l-108 136h72l69 -85l68 85h72z" />
    <glyph glyph-name="longs" unicode="&#x17f;" horiz-adv-x="300" 
d="M90 -46v566q0 77 27 113.5t97 36.5q19 0 38 -2t28 -4l10 -3v-56l-7 -7q-24 5 -57 5q-63 0 -63 -67v-576q0 -75 -26 -107.5t-97 -32.5q-19 0 -38 2t-28 4l-10 3v56l7 7q24 -5 57 -5q62 0 62 67z" />
    <glyph glyph-name="florin" unicode="&#x192;" horiz-adv-x="300" 
d="M96 -46v452h-50v64h50v66q0 134 129 134q20 0 37.5 -2t25.5 -4l8 -3v-56l-7 -7q-24 5 -57 5q-31 0 -47 -15t-16 -52v-66h107v-64h-107v-456q0 -69 -29 -98t-93 -32q-22 0 -41 2.5t-27 4.5l-8 2v56l7 7q24 -5 57 -5q30 0 45.5 14.5t15.5 52.5z" />
    <glyph glyph-name="AEacute" unicode="&#x1fc;" horiz-adv-x="800" 
d="M395 716l118 153l55 -49l-137 -134zM204 630h532v-70h-300v-201h240v-69h-240v-221h300v-69h-373v290h-179l-81 -290h-80zM258 560l-58 -201h163v201h-105z" />
    <glyph glyph-name="aeacute" unicode="&#x1fd;" horiz-adv-x="740" 
d="M349 566l118 153l55 -49l-137 -134zM677 220l-10 -10h-261v-71q0 -49 29.5 -65t81.5 -16q28 0 59.5 2.5t49.5 5.5l17 2l7 -7v-61q-67 -10 -150 -10q-122 0 -154 73q-62 -73 -156 -73q-63 0 -100 30.5t-37 107.5q0 145 177 145h103v64q0 44 -29.5 59.5t-79.5 15.5
q-30 0 -61.5 -2t-48.5 -4l-16 -3l-7 7v60l7 1q88 9 143 9q94 0 131 -46q43 46 148 46q73 0 119.5 -33.5t46.5 -109.5q0 -63 -9 -117zM333 116v94h-85q-62 0 -92 -15.5t-30 -63.5q0 -75 87 -75q68 0 120 60zM510 413q-51 0 -77.5 -21t-26.5 -57v-62h200q5 30 5 67
q-1 73 -101 73z" />
    <glyph glyph-name="Oslashacute" unicode="&#x1fe;" horiz-adv-x="540" 
d="M227 716l118 153l55 -49l-137 -134zM310 -10h-81q-67 0 -111.5 33.5t-44.5 113.5v355q0 81 44.5 114.5t111.5 33.5h81q67 0 111.5 -33.5t44.5 -114.5v-355q0 -80 -44.5 -113.5t-111.5 -33.5zM231 59h77q85 0 85 91v140h-247v-140q0 -91 85 -91zM393 353v126q0 90 -86 90
h-75q-86 0 -86 -90v-126h247z" />
    <glyph glyph-name="oslashacute" unicode="&#x1ff;" horiz-adv-x="480" 
d="M211 566l118 153l55 -49l-137 -134zM416 338v-207q0 -141 -176 -141q-76 0 -126.5 33t-50.5 108v207q0 75 50.5 108.5t126.5 33.5q176 0 176 -142zM240 56q103 0 103 82v68h-207v-68q0 -82 104 -82zM343 269v62q0 82 -103 82q-104 0 -104 -82v-62h207z" />
    <glyph glyph-name="Scommaaccent" unicode="&#x218;" horiz-adv-x="510" 
d="M296 -40v-83l-10 -130h-36v130h-37v83h83zM373 133v74q5 81 -132 81q-74 0 -126 32.5t-52 108.5v79q0 132 172 132q37 0 81.5 -2.5t71.5 -5.5l26 -2v-63l-7 -7q-89 10 -152 10q-119 0 -119 -72v-65q0 -25 10 -41t31.5 -22.5t41.5 -8.5t54 -2q44 0 79.5 -10t64.5 -42.5
t29 -85.5v-94q0 -40 -16 -68.5t-42.5 -42.5t-54.5 -20t-60 -6q-37 0 -87.5 2.5t-82.5 5.5l-32 2v62l7 7q112 -10 175 -10q120 0 120 74z" />
    <glyph glyph-name="scommaaccent" unicode="&#x219;" horiz-adv-x="450" 
d="M60 61l7 7q73 -10 136 -10q28 0 46.5 2t37.5 9t28.5 22.5t9.5 39.5q0 21 -6 35t-14.5 21.5t-25 11.5t-30.5 5t-38 1q-81 0 -119.5 30t-38.5 108q0 137 156 137q37 0 77 -2.5t62 -5.5l21 -2v-62l-7 -7q-69 10 -132 10q-54 0 -79 -13t-25 -56q0 -20 6 -33.5t13.5 -20.5
t26 -10.5t32 -4t42.5 -0.5q75 0 112.5 -31t37.5 -111q0 -45 -14 -74.5t-40.5 -43t-52 -18.5t-60.5 -5q-37 0 -79 2.5t-66 5.5l-24 2v61zM252 -40v-83l-10 -130h-36v130h-37v83h83z" />
    <glyph glyph-name="uni021A" unicode="&#x21a;" horiz-adv-x="440" 
d="M260 -37v-83l-10 -130h-36v130h-37v83h83zM419 560h-163v-560h-73v560h-163v70h399v-70z" />
    <glyph glyph-name="uni021B" unicode="&#x21b;" horiz-adv-x="330" 
d="M83 123v283h-50v64h50v100h73v-100h117v-64h-117v-283q0 -67 62 -67l58 5l7 -7v-55q-34 -9 -77 -9q-58 0 -90.5 33.5t-32.5 99.5zM213 -42v-83l-10 -130h-36v130h-37v83h83z" />
    <glyph glyph-name="dotlessj" unicode="&#x237;" horiz-adv-x="220" 
d="M73 -46v516h73v-516q0 -134 -123 -134q-19 0 -38 2t-29 4l-9 3v56l7 7q24 -5 56 -5q63 0 63 67z" />
    <glyph glyph-name="circumflex" unicode="&#x2c6;" horiz-adv-x="428" 
d="M181 676h65l108 -136h-72l-68 84l-69 -84h-72z" />
    <glyph glyph-name="caron" unicode="&#x2c7;" horiz-adv-x="428" 
d="M246 530h-65l-108 136h72l69 -85l68 85h72z" />
    <glyph glyph-name="uni02C9" unicode="&#x2c9;" horiz-adv-x="440" 
d="M360 633v-63h-280v63h280z" />
    <glyph glyph-name="breve" unicode="&#x2d8;" horiz-adv-x="400" 
d="M262 663h64q0 -57 -33 -86.5t-82 -29.5h-23q-49 0 -82 29.5t-33 86.5h64q0 -31 17 -47t42 -16h9q25 0 41 16t16 47z" />
    <glyph glyph-name="dotaccent" unicode="&#x2d9;" horiz-adv-x="230" 
d="M166 653v-93h-93v93h93z" />
    <glyph glyph-name="ring" unicode="&#x2da;" horiz-adv-x="344" 
d="M182 540h-21q-85 0 -85 71v42q0 71 85 71h21q85 0 85 -71v-42q0 -71 -85 -71zM119 649v-35q0 -35 42 -35h21q18 -1 30 8t12 27v35q0 34 -43 34h-20q-42 0 -42 -34z" />
    <glyph glyph-name="ogonek" unicode="&#x2db;" horiz-adv-x="293" 
d="M109 0h35q-16 -40 -16 -70.5t19 -37.5q15 -5 30.5 -4.5t26.5 3.5l11 3q1 -1 2 -2.5t2 -2.5l-4 -51q-5 -1 -13.5 -3t-32.5 -4.5t-38 1.5q-30 6 -43 26t-10 47t11 51t20 44z" />
    <glyph glyph-name="tilde" unicode="&#x2dc;" horiz-adv-x="446" 
d="M224 568q-27 15 -43 21t-29 2t-19.5 -9.5t-20.5 -21.5l-42 30q27 51 74 59.5t88 -16.5q15 -8 25.5 -12.5t19.5 -5t14 -1.5t12 4.5t9.5 7.5t10.5 11.5t11 13.5l38 -33q-52 -99 -148 -50z" />
    <glyph glyph-name="hungarumlaut" unicode="&#x2dd;" horiz-adv-x="426" 
d="M73 560l86 141l57 -31l-103 -130zM210 560l86 141l56 -31l-103 -130z" />
    <glyph glyph-name="uni037E" unicode="&#x37e;" horiz-adv-x="300" 
d="M220 310v-140h-140v140h140z" />
    <glyph glyph-name="tonos" unicode="&#x384;" horiz-adv-x="258" 
d="M117 450h-44l35 180h76z" />
    <glyph glyph-name="dieresistonos" unicode="&#x385;" horiz-adv-x="480" 
d="M158 648v-88h-85v88h85zM406 648v-88h-85v88h85zM192 575l63 183l71 -21l-93 -177z" />
    <glyph glyph-name="Alphatonos" unicode="&#x386;" horiz-adv-x="510" 
d="M204 635h101l181 -635h-80l-64 227h-176l-63 -227h-80zM255 550l-73 -253h143zM37 455h-44l35 180h76z" />
    <glyph glyph-name="anoteleia" unicode="&#x387;" horiz-adv-x="420" 
d="M161 648v-88h-88v88h88zM346 648v-88h-88v88h88z" />
    <glyph glyph-name="Epsilontonos" unicode="&#x388;" horiz-adv-x="593" 
d="M229 560v-201h240v-69h-240v-221h300v-69h-373v630h373v-70h-300zM37 450h-44l35 180h76z" />
    <glyph glyph-name="Etatonos" unicode="&#x389;" horiz-adv-x="628" 
d="M37 450h-44l35 180h76zM234 630v-271h247v271h73v-630h-73v290h-247v-290h-73v630h73z" />
    <glyph glyph-name="Iotatonos" unicode="&#x38a;" horiz-adv-x="301" 
d="M154 630h73v-630h-73v630zM37 450h-44l35 180h76z" />
    <glyph glyph-name="Omicrontonos" unicode="&#x38c;" horiz-adv-x="590" 
d="M281 59h77q85 0 85 91v329q0 90 -86 90h-75q-86 0 -86 -90v-329q0 -91 85 -91zM360 -10h-81q-67 0 -111.5 33.5t-44.5 113.5v355q0 81 44.5 114.5t111.5 33.5h81q67 0 111.5 -33.5t44.5 -114.5v-355q0 -80 -44.5 -113.5t-111.5 -33.5zM37 455h-44l35 180h76z" />
    <glyph glyph-name="Upsilontonos" unicode="&#x38e;" horiz-adv-x="626" 
d="M149 630h84l148 -307l147 307h84l-195 -395v-235h-73v235zM37 450h-44l35 180h76z" />
    <glyph glyph-name="Omegatonos" unicode="&#x38f;" horiz-adv-x="590" 
d="M37 455h-44l35 180h76zM443 190v289q0 90 -86 90h-75q-86 0 -86 -90v-289q0 -50 25.5 -83t68.5 -41v-66h-217v66h115v2q-4 0 -18.5 16t-30.5 56t-16 88v264q0 81 44.5 114.5t111.5 33.5h81q67 0 111.5 -33.5t44.5 -114.5v-264q0 -48 -16 -88t-30.5 -56t-18.5 -16v-2h115
v-66h-216v66q41 5 67 41t26 83z" />
    <glyph glyph-name="iotadieresistonos" unicode="&#x390;" horiz-adv-x="214" 
d="M69 470h73v-470h-73v470zM25 628v-88h-85v88h85zM273 628v-88h-85v88h85zM59 555l63 183l71 -21l-93 -177z" />
    <glyph glyph-name="Alpha" unicode="&#x391;" horiz-adv-x="510" 
d="M204 635h101l181 -635h-80l-64 227h-176l-63 -227h-80zM255 550l-73 -253h143z" />
    <glyph glyph-name="Beta" unicode="&#x392;" horiz-adv-x="530" 
d="M466 198v-46q0 -84 -45 -118t-112 -34h-236v630h226q67 0 112 -34t45 -118v-26q0 -85 -63 -121q34 -12 53.5 -47t19.5 -86zM146 69h166q35 0 58 22t23 61v51q0 87 -81 87h-166v-221zM146 359h158q35 0 57 22.5t22 63.5v29q0 43 -25.5 64.5t-66.5 21.5h-145v-201z" />
    <glyph glyph-name="Gamma" unicode="&#x393;" horiz-adv-x="490" 
d="M446 560h-300v-560h-73v630h373v-70z" />
    <glyph glyph-name="Epsilon" unicode="&#x395;" horiz-adv-x="510" 
d="M146 560v-201h240v-69h-240v-221h300v-69h-373v630h373v-70h-300z" />
    <glyph glyph-name="Zeta" unicode="&#x396;" horiz-adv-x="490" 
d="M441 630v-72l-311 -490l316 3v-71h-403v71l310 490l-300 -3v72h388z" />
    <glyph glyph-name="Eta" unicode="&#x397;" horiz-adv-x="540" 
d="M146 630v-271h247v271h73v-630h-73v290h-247v-290h-73v630h73z" />
    <glyph glyph-name="Theta" unicode="&#x398;" horiz-adv-x="540" 
d="M231 59h77q85 0 85 91v329q0 90 -86 90h-75q-86 0 -86 -90v-329q0 -91 85 -91zM310 -10h-81q-67 0 -111.5 33.5t-44.5 113.5v355q0 81 44.5 114.5t111.5 33.5h81q67 0 111.5 -33.5t44.5 -114.5v-355q0 -80 -44.5 -113.5t-111.5 -33.5zM186 346h167v-63h-167v63z" />
    <glyph glyph-name="Iota" unicode="&#x399;" horiz-adv-x="220" 
d="M73 630h73v-630h-73v630z" />
    <glyph glyph-name="Kappa" unicode="&#x39a;" horiz-adv-x="533" 
d="M146 630v-332l250 332h90l-207 -282l223 -348h-92l-184 288l-80 -98v-190h-73v630h73z" />
    <glyph glyph-name="Lambda" unicode="&#x39b;" horiz-adv-x="510" 
d="M255 543l-152 -543h-80l181 635h101l181 -635h-80z" />
    <glyph glyph-name="Mu" unicode="&#x39c;" horiz-adv-x="650" 
d="M73 630h93l159 -347l158 347h93v-630h-73v495l-149 -322h-59l-149 322v-495h-73v630z" />
    <glyph glyph-name="Nu" unicode="&#x39d;" horiz-adv-x="550" 
d="M403 630h73v-630h-93l-237 485v-485h-73v630h86l244 -503v503z" />
    <glyph glyph-name="Xi" unicode="&#x39e;" horiz-adv-x="450" 
d="M426 560h-403v70h403v-70zM426 0h-403v69h403v-69zM78 359h293v-69h-293v69z" />
    <glyph glyph-name="Omicron" unicode="&#x39f;" horiz-adv-x="540" 
d="M231 59h77q85 0 85 91v329q0 90 -86 90h-75q-86 0 -86 -90v-329q0 -91 85 -91zM310 -10h-81q-67 0 -111.5 33.5t-44.5 113.5v355q0 81 44.5 114.5t111.5 33.5h81q67 0 111.5 -33.5t44.5 -114.5v-355q0 -80 -44.5 -113.5t-111.5 -33.5z" />
    <glyph glyph-name="Pi" unicode="&#x3a0;" horiz-adv-x="540" 
d="M73 630h393v-630h-73v560h-247v-560h-73v630z" />
    <glyph glyph-name="Rho" unicode="&#x3a1;" horiz-adv-x="520" 
d="M310 251h-164v-251h-73v630h237q67 0 111.5 -34t44.5 -117v-77q0 -83 -44.5 -117t-111.5 -34zM146 321h165q37 0 59.5 20.5t22.5 63.5v71q0 43 -22.5 63.5t-60.5 20.5h-164v-239z" />
    <glyph glyph-name="Sigma" unicode="&#x3a3;" horiz-adv-x="490" 
d="M134 561l154 -244l-158 -249l316 3v-71h-403v71l156 246l-153 241v72h393v-72z" />
    <glyph glyph-name="Tau" unicode="&#x3a4;" horiz-adv-x="440" 
d="M419 560h-163v-560h-73v560h-163v70h399v-70z" />
    <glyph glyph-name="Upsilon" unicode="&#x3a5;" horiz-adv-x="490" 
d="M13 630h84l148 -307l147 307h84l-195 -395v-235h-73v235z" />
    <glyph glyph-name="Phi" unicode="&#x3a6;" horiz-adv-x="590" 
d="M258 630h73v-90h49q67 0 111.5 -33.5t44.5 -114.5v-155q0 -80 -44.5 -113.5t-111.5 -33.5h-49v-90h-73v90h-49q-67 0 -111.5 33.5t-44.5 113.5v155q0 81 44.5 114.5t111.5 33.5h49v90zM331 159h47q85 0 85 91v129q0 44 -21.5 67t-55.5 23h-55v-310zM126 379v-129
q0 -91 85 -91h47v310h-46q-86 0 -86 -90z" />
    <glyph glyph-name="Chi" unicode="&#x3a7;" horiz-adv-x="540" 
d="M501 0h-88l-143 250l-146 -250h-86l182 315l-182 315h88l144 -251l145 251h86l-182 -315z" />
    <glyph glyph-name="Psi" unicode="&#x3a8;" horiz-adv-x="590" 
d="M258 630h73v-301h33q86 0 86 91v210h73v-223q0 -80 -44.5 -113.5t-111.5 -33.5h-36v-260h-73v260h-36q-67 0 -111.5 33.5t-44.5 113.5v223h73v-210q0 -91 86 -91h33v301z" />
    <glyph glyph-name="Iotadieresis" unicode="&#x3aa;" horiz-adv-x="220" 
d="M72 630h73v-630h-73v630zM71 798v-88h-88v88h88zM256 798v-88h-88v88h88z" />
    <glyph glyph-name="Upsilondieresis" unicode="&#x3ab;" horiz-adv-x="490" 
d="M13 630h84l148 -307l147 307h84l-195 -395v-235h-73v235zM195 797v-88h-88v88h88zM380 797v-88h-88v88h88z" />
    <glyph glyph-name="alphatonos" unicode="&#x3ac;" horiz-adv-x="485" 
d="M338 121v286q-39 4 -104 4q-98 -4 -98 -84v-196q0 -44 19.5 -59.5t59.5 -15.5q65 0 123 65zM411 0h-66l-7 7l3 53h-4l-5 -7.5t-15.5 -16.5t-27.5 -21.5t-40.5 -17t-53.5 -7.5q-64 0 -98 30t-34 108v210q0 40 14.5 69t40 44.5t53.5 22t60 6.5q38 0 81 -2.5t68 -5.5l24 -2
l7 -7v-463zM266 539h-44l35 180h76z" />
    <glyph glyph-name="epsilontonos" unicode="&#x3ad;" horiz-adv-x="420" 
d="M361 268v-67h-134q-44 0 -67.5 -14t-23.5 -49v-11q0 -39 27.5 -53.5t77.5 -14.5q28 0 60 2.5t50 4.5l18 3l7 -7v-62q-66 -10 -149 -10q-33 0 -58.5 4.5t-51.5 17t-40 40t-14 68.5v13q0 41 21 67.5t56 35.5q-34 10 -54 37t-20 67v9q0 41 14 68.5t40 40.5t51.5 17.5
t58.5 4.5q37 0 73.5 -2.5t54.5 -5.5l18 -2v-63l-7 -7q-65 10 -128 10q-102 0 -102 -68v-11q0 -39 23 -51t67 -12h132zM265 540h-44l35 180h76z" />
    <glyph glyph-name="etatonos" unicode="&#x3ae;" 
d="M426 341v-511h-73v508q0 43 -21.5 59t-61.5 16q-66 0 -124 -65v-348h-73v470h66l7 -7l-2 -53h4l5 7.5t15.5 16.5t27 21.5t40 17t53.5 7.5q64 0 100.5 -30.5t36.5 -108.5zM269 540h-44l35 180h76z" />
    <glyph glyph-name="iotatonos" unicode="&#x3af;" horiz-adv-x="218" 
d="M73 470h73v-470h-73v470zM142 540h-44l35 180h76z" />
    <glyph glyph-name="upsilondieresistonos" unicode="&#x3b0;" horiz-adv-x="490" 
d="M146 470v-325q0 -50 25.5 -69.5t78.5 -19.5t78 19.5t25 69.5v201q1 67 -62 67l-51 -5l-7 7v56q27 9 70 9q123 0 123 -134v-215q0 -141 -176 -141q-76 0 -126.5 33t-50.5 108v339h73zM166 626v-88h-85v88h85zM414 626v-88h-85v88h85zM200 553l63 183l71 -21l-93 -177z" />
    <glyph glyph-name="alpha" unicode="&#x3b1;" horiz-adv-x="485" 
d="M338 121v286q-39 4 -104 4q-98 -4 -98 -84v-196q0 -44 19.5 -59.5t59.5 -15.5q65 0 123 65zM411 0h-66l-7 7l3 53h-4l-5 -7.5t-15.5 -16.5t-27.5 -21.5t-40.5 -17t-53.5 -7.5q-64 0 -98 30t-34 108v210q0 40 14.5 69t40 44.5t53.5 22t60 6.5q38 0 81 -2.5t68 -5.5l24 -2
l7 -7v-463z" />
    <glyph glyph-name="beta" unicode="&#x3b2;" horiz-adv-x="520" 
d="M146 -170h-73v668q0 75 50.5 108.5t126.5 33.5q176 0 176 -142v-56q0 -85 -63 -121q34 -12 53.5 -47t19.5 -86v-65q0 -133 -123 -133q-19 0 -38.5 2t-28.5 4l-10 3v55l7 7q25 -5 58 -5q63 0 62 67v70q0 39 -21 63t-60 24h-136v-450zM146 491v-142h120q40 0 63.5 21.5
t23.5 64.5v56q0 82 -103 82q-104 0 -104 -82z" />
    <glyph glyph-name="gamma" unicode="&#x3b3;" horiz-adv-x="450" 
d="M20 470h81l124 -374l123 374h81l-168 -462v-178h-73v178z" />
    <glyph glyph-name="delta" unicode="&#x3b4;" horiz-adv-x="495" 
d="M424 137q0 -80 -44 -113.5t-111 -33.5h-44q-67 0 -111 33.5t-44 113.5v128q0 81 44 114.5t111 33.5h37q54 0 89 -28v129q0 86 -115 86q-28 0 -65 -2.5t-61 -5.5l-23 -2l-7 7v63q88 10 171 10q32 0 59.5 -6t54.5 -20t43 -42t16 -68v-397zM266 343h-37q-86 0 -86 -91v-102
q0 -91 85 -91h38q85 0 85 91v102q0 91 -85 91z" />
    <glyph glyph-name="epsilon" unicode="&#x3b5;" horiz-adv-x="420" 
d="M361 268v-67h-134q-44 0 -67.5 -14t-23.5 -49v-11q0 -39 27.5 -53.5t77.5 -14.5q28 0 60 2.5t50 4.5l18 3l7 -7v-62q-66 -10 -149 -10q-33 0 -58.5 4.5t-51.5 17t-40 40t-14 68.5v13q0 41 21 67.5t56 35.5q-34 10 -54 37t-20 67v9q0 41 14 68.5t40 40.5t51.5 17.5
t58.5 4.5q37 0 73.5 -2.5t54.5 -5.5l18 -2v-63l-7 -7q-65 10 -128 10q-102 0 -102 -68v-11q0 -39 23 -51t67 -12h132z" />
    <glyph glyph-name="zeta" unicode="&#x3b6;" horiz-adv-x="410" 
d="M191 158q-74 0 -116 29t-42 107q0 88 58.5 166t166.5 130h-215v70h308v-84q-40 -22 -66.5 -38t-63.5 -44t-59.5 -54.5t-39 -63t-16.5 -75.5q0 -22 6 -37t13 -22.5t26 -11t32 -4t43 -0.5q76 0 113 -33t37 -106q0 -72 -47.5 -143t-128.5 -124l-40 48v11q127 88 139 185
q9 55 -17 76.5t-91 17.5z" />
    <glyph glyph-name="eta" unicode="&#x3b7;" 
d="M426 341v-511h-73v508q0 43 -21.5 59t-61.5 16q-66 0 -124 -65v-348h-73v470h66l7 -7l-2 -53h4l5 7.5t15.5 16.5t27 21.5t40 17t53.5 7.5q64 0 100.5 -30.5t36.5 -108.5z" />
    <glyph glyph-name="theta" unicode="&#x3b8;" 
d="M179 366h141v-63h-141v63zM353 138v383q0 82 -103 82q-104 0 -104 -82v-383q0 -82 104 -82q103 0 103 82zM426 528v-397q0 -141 -176 -141q-76 0 -126.5 33t-50.5 108v397q0 75 50.5 108.5t126.5 33.5q176 0 176 -142z" />
    <glyph glyph-name="iota" unicode="&#x3b9;" horiz-adv-x="220" 
d="M73 470h73v-470h-73v470z" />
    <glyph glyph-name="kappa" unicode="&#x3ba;" horiz-adv-x="493" 
d="M146 206v-206h-73v470h73v-197h124q39 0 61 16t22 59v122h73v-120q0 -127 -125 -142l148 -208h-86l-147 206h-70z" />
    <glyph glyph-name="lambda" unicode="&#x3bb;" horiz-adv-x="450" 
d="M129 665h75l225 -665h-81l-123 387l-124 -387h-81l169 482z" />
    <glyph glyph-name="uni03BC" unicode="&#x3bc;" 
d="M73 -46v516h73v-339q0 -75 84 -75q65 0 123 65v349h73v-470h-66l-7 7l2 53h-4l-5 -7.5t-15.5 -16.5t-27 -21.5t-40 -17t-53.5 -7.5q-39 0 -64 13v-49q1 -73 -36.5 -103.5t-104.5 -30.5q-14 0 -28.5 2t-22.5 4l-7 3v56l7 7q24 -5 56 -5q63 0 63 67z" />
    <glyph glyph-name="nu" unicode="&#x3bd;" horiz-adv-x="470" 
d="M280 -5h-91l-159 475h81l124 -387l123 387h81z" />
    <glyph glyph-name="xi" unicode="&#x3be;" horiz-adv-x="410" 
d="M33 290v19q0 42 21.5 70.5t55.5 37.5q-34 10 -54 37t-20 66v19q0 131 164 131q37 0 73.5 -2.5t54.5 -5.5l18 -2v-63l-7 -7q-65 10 -128 10q-102 0 -102 -70v-17q0 -39 24.5 -52t65.5 -13h132v-67h-134q-44 0 -67.5 -14t-23.5 -49v-17q0 -20 7 -34t17 -22t26.5 -12.5
t31 -5.5t35.5 -1q88 0 122.5 -31.5t34.5 -107.5q0 -72 -47.5 -143t-128.5 -124l-40 48v11q28 20 48.5 37t45 43.5t38 58t13.5 66.5q0 49 -25 61.5t-89 12.5q-162 0 -162 132z" />
    <glyph glyph-name="omicron" unicode="&#x3bf;" horiz-adv-x="480" 
d="M343 138v193q0 82 -103 82q-104 0 -104 -82v-193q0 -82 104 -82q103 0 103 82zM416 338v-207q0 -141 -176 -141q-76 0 -126.5 33t-50.5 108v207q0 75 50.5 108.5t126.5 33.5q176 0 176 -142z" />
    <glyph glyph-name="pi" unicode="&#x3c0;" 
d="M73 470h353v-470h-73v400h-207v-400h-73v470z" />
    <glyph glyph-name="rho" unicode="&#x3c1;" horiz-adv-x="485" 
d="M421 338v-207q0 -53 -26.5 -86t-61.5 -44t-80 -11q-32 0 -107 5v-165h-73v508q0 76 49 109t125 33q174 0 174 -142zM348 142v189q0 82 -101 82t-101 -82v-269q40 -4 104 -4q98 0 98 84z" />
    <glyph glyph-name="uni03C2" unicode="&#x3c2;" horiz-adv-x="410" 
d="M160 -132v11q28 20 48.5 37t45 43.5t38 58t13.5 66.5q0 46 -26 60t-88 14q-74 0 -116 29t-42 107v50q0 136 160 136q37 0 75 -2.5t58 -5.5l20 -2v-62l-7 -7q-66 10 -129 10q-54 0 -79 -14.5t-25 -59.5v-1v-35q0 -22 6 -37t13 -22.5t26 -11t32 -4t43 -0.5q76 0 113 -33
t37 -106q0 -72 -47.5 -143t-128.5 -124z" />
    <glyph glyph-name="sigma" unicode="&#x3c3;" horiz-adv-x="525" 
d="M397 413q19 -30 19 -75v-207q0 -141 -176 -141q-76 0 -126.5 33t-50.5 108v207q0 75 50.5 108.5t126.5 33.5h146q41 0 62.5 16.5t21.5 57.5v26h67v-20q0 -147 -140 -147zM343 138v193q0 82 -103 82q-104 0 -104 -82v-193q0 -82 104 -82q103 0 103 82z" />
    <glyph glyph-name="tau" unicode="&#x3c4;" horiz-adv-x="450" 
d="M200 396h-44q-67 0 -67 -62l5 -51l-7 -7h-55q-9 27 -9 70q0 124 133 124h263v-74h-146v-273q0 -37 16 -52t46 -15l57 5l7 -7v-55q-26 -9 -75 -9q-124 0 -124 133v273z" />
    <glyph glyph-name="upsilon" unicode="&#x3c5;" horiz-adv-x="490" 
d="M146 470v-325q0 -50 25.5 -69.5t78.5 -19.5t78 19.5t25 69.5v201q1 67 -62 67l-51 -5l-7 7v56q27 9 70 9q123 0 123 -134v-215q0 -141 -176 -141q-76 0 -126.5 33t-50.5 108v339h73z" />
    <glyph glyph-name="phi" unicode="&#x3c6;" horiz-adv-x="680" 
d="M298 640h73v-170h89q67 0 111.5 -33.5t44.5 -114.5v-175q0 -80 -44.5 -113.5t-111.5 -33.5h-89v-170h-73v170h-89q-67 0 -111.5 33.5t-44.5 113.5v175q0 81 44.5 114.5t111.5 33.5h89v170zM371 69h87q85 0 85 91v149q0 44 -21.5 67t-55.5 23h-95v-330zM126 309v-149
q0 -91 85 -91h87v330h-86q-86 0 -86 -90z" />
    <glyph glyph-name="chi" unicode="&#x3c7;" horiz-adv-x="470" 
d="M26 470h86l123 -257l123 257h85l-167 -323l167 -317h-86l-122 250l-124 -250h-85l166 317z" />
    <glyph glyph-name="psi" unicode="&#x3c8;" horiz-adv-x="770" 
d="M348 470h73v-414h109q53 0 78 19.5t25 69.5v201q1 67 -62 67l-51 -5l-7 7v56q27 9 70 9q123 0 123 -134v-215q0 -141 -176 -141h-109v-160h-73v160h-98q-76 0 -126.5 33t-50.5 108v339h73v-325q0 -50 25.5 -69.5t78.5 -19.5h98v414z" />
    <glyph glyph-name="omega" unicode="&#x3c9;" horiz-adv-x="770" 
d="M348 145v325h73v-325q0 -50 27.5 -69.5t81.5 -19.5q53 0 78 19.5t25 69.5v201q1 67 -62 67l-51 -5l-7 7v56q27 9 70 9q123 0 123 -134v-215q0 -141 -176 -141q-103 0 -146 57q-42 -57 -145 -57q-176 0 -176 141v215q0 134 123 134q19 0 36.5 -2t25.5 -4l8 -3v-56l-7 -7
q-18 5 -51 5q-63 0 -62 -67v-201q0 -50 25 -69.5t78 -19.5q54 0 81.5 19.5t27.5 69.5z" />
    <glyph glyph-name="iotadieresis" unicode="&#x3ca;" horiz-adv-x="214" 
d="M70 470h73v-470h-73v470zM58 628v-88h-88v88h88zM243 628v-88h-88v88h88z" />
    <glyph glyph-name="upsilondieresis" unicode="&#x3cb;" horiz-adv-x="490" 
d="M146 470v-325q0 -50 25.5 -69.5t78.5 -19.5t78 19.5t25 69.5v201q1 67 -62 67l-51 -5l-7 7v56q27 9 70 9q123 0 123 -134v-215q0 -141 -176 -141q-76 0 -126.5 33t-50.5 108v339h73zM203 628v-88h-88v88h88zM388 628v-88h-88v88h88z" />
    <glyph glyph-name="omicrontonos" unicode="&#x3cc;" horiz-adv-x="480" 
d="M343 138v193q0 82 -103 82q-104 0 -104 -82v-193q0 -82 104 -82q103 0 103 82zM416 338v-207q0 -141 -176 -141q-76 0 -126.5 33t-50.5 108v207q0 75 50.5 108.5t126.5 33.5q176 0 176 -142zM255 540h-44l35 180h76z" />
    <glyph glyph-name="upsilontonos" unicode="&#x3cd;" horiz-adv-x="490" 
d="M146 470v-325q0 -50 25.5 -69.5t78.5 -19.5t78 19.5t25 69.5v201q1 67 -62 67l-51 -5l-7 7v56q27 9 70 9q123 0 123 -134v-215q0 -141 -176 -141q-76 0 -126.5 33t-50.5 108v339h73zM262 540h-44l35 180h76z" />
    <glyph glyph-name="omegatonos" unicode="&#x3ce;" horiz-adv-x="770" 
d="M348 145v325h73v-325q0 -50 27.5 -69.5t81.5 -19.5q53 0 78 19.5t25 69.5v201q1 67 -62 67l-51 -5l-7 7v56q27 9 70 9q123 0 123 -134v-215q0 -141 -176 -141q-103 0 -146 57q-42 -57 -145 -57q-176 0 -176 141v215q0 134 123 134q19 0 36.5 -2t25.5 -4l8 -3v-56l-7 -7
q-18 5 -51 5q-63 0 -62 -67v-201q0 -50 25 -69.5t78 -19.5q54 0 81.5 19.5t27.5 69.5zM405 540h-44l35 180h76z" />
    <glyph glyph-name="uni03D0" unicode="&#x3d0;" horiz-adv-x="510" 
d="M146 521v-152h128q36 0 57.5 22.5t21.5 63.5v66q0 82 -103 82q-104 0 -104 -82zM363 138v75q0 87 -81 87h-136v-162q0 -82 104 -82q50 0 81.5 19.5t31.5 62.5zM436 208v-77q0 -141 -186 -141q-76 0 -126.5 33t-50.5 108v397q0 75 50.5 108.5t126.5 33.5q176 0 176 -142
v-66q0 -85 -63 -121q34 -12 53.5 -47t19.5 -86z" />
    <glyph glyph-name="uni03D1" unicode="&#x3d1;" horiz-adv-x="540" 
d="M284 363h37q38 0 61.5 21.5t23.5 68.5v56q0 91 -85 91h-38q-85 0 -85 -91v-56q0 -90 86 -90zM123 131v24q0 38 -16.5 50.5t-46.5 12.5l-57 -5q-1 1 -3 3.5t-3 3.5v56q33 9 69 9q130 0 130 -127v-24q0 -78 105 -78t105 82v183q-33 -28 -89 -28h-37q-67 0 -111 33.5
t-44 113.5v82q1 45 15 75.5t39 45.5t52.5 21t62.5 6h30q67 0 111 -33.5t44 -114.5v-391q0 -141 -178 -141q-77 0 -127.5 33t-50.5 108z" />
    <glyph glyph-name="Wgrave" unicode="&#x1e80;" horiz-adv-x="740" 
d="M413 716l-36 -30l-137 134l55 49zM373 630h74l-42 -178l89 -349l142 527h80l-176 -635h-92l-79 316l-76 -316h-94l-176 635h80l145 -531z" />
    <glyph glyph-name="wgrave" unicode="&#x1e81;" horiz-adv-x="680" 
d="M265 -5h-91l-154 475h81l120 -393l124 393h81l-49 -147l79 -246l122 393h81l-158 -475h-90l-73 220zM377 566l-36 -30l-137 134l55 49z" />
    <glyph glyph-name="Wacute" unicode="&#x1e82;" horiz-adv-x="740" 
d="M353 716l118 153l55 -49l-137 -134zM373 630h74l-42 -178l89 -349l142 527h80l-176 -635h-92l-79 316l-76 -316h-94l-176 635h80l145 -531z" />
    <glyph glyph-name="wacute" unicode="&#x1e83;" horiz-adv-x="680" 
d="M265 -5h-91l-154 475h81l120 -393l124 393h81l-49 -147l79 -246l122 393h81l-158 -475h-90l-73 220zM316 566l118 153l55 -49l-137 -134z" />
    <glyph glyph-name="Wdieresis" unicode="&#x1e84;" horiz-adv-x="740" 
d="M341 798v-88h-88v88h88zM526 798v-88h-88v88h88zM373 630h74l-42 -178l89 -349l142 527h80l-176 -635h-92l-79 316l-76 -316h-94l-176 635h80l145 -531z" />
    <glyph glyph-name="wdieresis" unicode="&#x1e85;" horiz-adv-x="680" 
d="M265 -5h-91l-154 475h81l120 -393l124 393h81l-49 -147l79 -246l122 393h81l-158 -475h-90l-73 220zM296 648v-88h-88v88h88zM481 648v-88h-88v88h88z" />
    <glyph glyph-name="Ygrave" unicode="&#x1ef2;" horiz-adv-x="490" 
d="M265 716l-36 -30l-137 134l55 49zM13 630h84l148 -307l147 307h84l-195 -395v-235h-73v235z" />
    <glyph glyph-name="ygrave" unicode="&#x1ef3;" 
d="M426 470v-511q0 -40 -14.5 -68.5t-39.5 -43t-52.5 -21t-60.5 -6.5q-37 0 -76.5 2.5t-60.5 5.5l-22 2v62l7 7q73 -10 136 -10q50 0 80 17.5t30 66.5v38l2 49h-4l-5 -7.5t-15.5 -16.5t-27 -21.5t-40 -17t-53.5 -7.5q-64 0 -100.5 30t-36.5 108v342h73v-339q0 -75 83 -75
q31 0 58 13.5t66 51.5v349h73zM275 566l-36 -30l-137 134l55 49z" />
    <glyph glyph-name="figuredash" unicode="&#x2012;" 
d="M73 276h353v-63h-353v63z" />
    <glyph glyph-name="endash" unicode="&#x2013;" 
d="M73 276h353v-63h-353v63z" />
    <glyph glyph-name="emdash" unicode="&#x2014;" horiz-adv-x="790" 
d="M73 276h643v-63h-643v63z" />
    <glyph glyph-name="quoteleft" unicode="&#x2018;" horiz-adv-x="230" 
d="M73 446v84l10 130h37v-130h36v-84h-83z" />
    <glyph glyph-name="quoteright" unicode="&#x2019;" horiz-adv-x="230" 
d="M156 660v-84l-10 -130h-36v130h-37v84h83z" />
    <glyph glyph-name="quotesinglbase" unicode="&#x201a;" horiz-adv-x="230" 
d="M156 83v-83l-10 -130h-36v130h-37v83h83z" />
    <glyph glyph-name="quotedblleft" unicode="&#x201c;" horiz-adv-x="370" 
d="M213 446v84l10 130h37v-130h36v-84h-83zM73 446v84l10 130h37v-130h36v-84h-83z" />
    <glyph glyph-name="quotedblright" unicode="&#x201d;" horiz-adv-x="370" 
d="M156 660v-84l-10 -130h-36v130h-37v84h83zM296 660v-84l-10 -130h-36v130h-37v84h83z" />
    <glyph glyph-name="quotedblbase" unicode="&#x201e;" horiz-adv-x="370" 
d="M156 83v-83l-10 -130h-36v130h-37v83h83zM296 83v-83l-10 -130h-36v130h-37v83h83z" />
    <glyph glyph-name="dagger" unicode="&#x2020;" horiz-adv-x="520" 
d="M291 468v-468h-63v468h-155v63h155v129h63v-129h155v-63h-155z" />
    <glyph glyph-name="daggerdbl" unicode="&#x2021;" horiz-adv-x="520" 
d="M291 0h-63v128h-155v63h155v277h-155v63h155v129h63v-129h155v-63h-155v-277h155v-63h-155v-128z" />
    <glyph glyph-name="bullet" unicode="&#x2022;" horiz-adv-x="300" 
d="M226 316v-153h-153v153h153z" />
    <glyph glyph-name="onedotenleader" unicode="&#x2024;" horiz-adv-x="230" 
d="M156 83v-83h-83v83h83z" />
    <glyph glyph-name="twodotenleader" unicode="&#x2025;" horiz-adv-x="440" 
d="M156 83v-83h-83v83h83zM366 83v-83h-83v83h83z" />
    <glyph glyph-name="ellipsis" unicode="&#x2026;" horiz-adv-x="650" 
d="M156 83v-83h-83v83h83zM366 83v-83h-83v83h83zM576 83v-83h-83v83h83z" />
    <glyph glyph-name="perthousand" unicode="&#x2030;" horiz-adv-x="1058" 
d="M205 0h-70l395 630h70zM276 493v43q0 52 -72 52q-73 0 -73 -52v-43q0 -52 73 -52q72 0 72 52zM328 541v-52q0 -99 -124 -99q-55 0 -89.5 23.5t-34.5 75.5v52q0 52 34.5 75.5t89.5 23.5q124 0 124 -99zM596 93v43q0 52 -72 52q-73 0 -73 -52v-43q0 -52 73 -52q72 0 72 52z
M648 141v-52q0 -99 -124 -99q-55 0 -89.5 23.5t-34.5 75.5v52q0 52 34.5 75.5t89.5 23.5q124 0 124 -99zM926 93v43q0 52 -72 52q-73 0 -73 -52v-43q0 -52 73 -52q72 0 72 52zM978 141v-52q0 -99 -124 -99q-55 0 -89.5 23.5t-34.5 75.5v52q0 52 34.5 75.5t89.5 23.5
q124 0 124 -99z" />
    <glyph glyph-name="guilsinglleft" unicode="&#x2039;" horiz-adv-x="413" 
d="M73 211v64l266 184v-84l-187 -132l187 -133v-84z" />
    <glyph glyph-name="guilsinglright" unicode="&#x203a;" horiz-adv-x="413" 
d="M339 275v-64l-266 -185v84l187 133l-187 132v84z" />
    <glyph glyph-name="exclamdbl" unicode="&#x203c;" horiz-adv-x="420" 
d="M68 350v310h73v-310l-7 -207h-59zM139 83v-83h-69v83h69zM278 350v310h73v-310l-7 -207h-59zM349 83v-83h-69v83h69z" />
    <glyph glyph-name="fraction" unicode="&#x2044;" horiz-adv-x="285" 
d="M76 0h-63l195 630h63z" />
    <glyph glyph-name="zerosuperior" unicode="&#x2070;" horiz-adv-x="359" 
d="M154 449h51q56 0 56 60v217q0 60 -57 60h-49q-57 0 -57 -60v-217q0 -60 56 -60zM206 403h-53q-103 0 -103 97v235q0 97 103 97h53q103 0 103 -97v-235q0 -97 -103 -97z" />
    <glyph glyph-name="foursuperior" unicode="&#x2074;" horiz-adv-x="399" 
d="M251 518h-201v40l194 271h56v-265h49v-46h-49v-108h-49v108zM106 564h145v200z" />
    <glyph glyph-name="fivesuperior" unicode="&#x2075;" horiz-adv-x="346" 
d="M160 607h-104v219h233v-44h-185v-128h78q46 0 80 -20t34 -70v-70q0 -50 -34 -70.5t-80 -20.5l-132 7v41l4 5q73 -7 115 -7q79 0 79 49v57q0 31 -23 41.5t-65 10.5z" />
    <glyph glyph-name="sixsuperior" unicode="&#x2076;" horiz-adv-x="353" 
d="M50 500v243q0 89 115 89l131 -6v-42l-4 -4l-22 2q-21 1 -50.5 2.5t-41.5 1.5q-80 0 -80 -57v-89q22 18 59 18h43q103 0 103 -97v-61q0 -97 -103 -97h-47q-103 0 -103 97zM198 612h-43q-57 0 -57 -59v-44q0 -60 57 -60h44q56 0 56 60v44q0 59 -57 59z" />
    <glyph glyph-name="sevensuperior" unicode="&#x2077;" horiz-adv-x="356" 
d="M306 778l-162 -368h-56l163 370h-201v46h256v-48z" />
    <glyph glyph-name="eightsuperior" unicode="&#x2078;" horiz-adv-x="359" 
d="M183 786q-78 0 -78 -54v-30q0 -25 12 -37.5t25.5 -15t37.5 -2.5q17 0 28 1.5t23 6.5t18 16.5t6 30.5v30q0 54 -72 54zM194 403h-36q-45 0 -76.5 20.5t-31.5 70.5v56q0 54 49 74q-42 17 -42 74v43q0 91 108 91h30q108 0 108 -91v-43q0 -56 -43 -74q49 -19 49 -74v-56
q0 -91 -115 -91zM169 449h22q70 0 70 54v43q0 19 -6.5 31t-20 16.5t-24.5 6t-30 1.5t-30 -1t-25 -6t-20.5 -17t-6.5 -31v-43q0 -54 71 -54z" />
    <glyph glyph-name="ninesuperior" unicode="&#x2079;" horiz-adv-x="353" 
d="M303 735v-242q0 -50 -33.5 -70t-80.5 -20l-132 7v41l5 5h4q5 -1 13 -1.5t18 -1.5t21.5 -1.5t22 -1t20 -1t15.5 -0.5q79 0 79 57v89q-24 -18 -59 -18h-43q-103 0 -103 97v61q0 97 103 97h47q103 0 103 -97zM155 623h43q57 0 57 60v43q0 60 -56 60h-44q-57 0 -57 -60v-43
q0 -60 57 -60z" />
    <glyph glyph-name="parenleftsuperior" unicode="&#x207d;" horiz-adv-x="342" 
d="M48 430v375q0 31 11.5 51t32.5 28.5t38.5 11t41.5 2.5l5 -4v-42q-23 0 -38.5 -2.5t-29 -15t-13.5 -34.5v-365q0 -22 13.5 -34t29 -14.5t38.5 -2.5v-42l-5 -5q-24 0 -41.5 2.5t-38.5 11t-32.5 28.5t-11.5 51z" />
    <glyph glyph-name="parenrightsuperior" unicode="&#x207e;" horiz-adv-x="342" 
d="M177 805v-375q0 -31 -11.5 -51t-32.5 -28.5t-38.5 -11t-41.5 -2.5l-5 5v42q23 0 38.5 2.5t29 14.5t13.5 34v365q0 22 -13.5 34.5t-29 15t-38.5 2.5v42l5 4q24 0 41.5 -2.5t38.5 -11t32.5 -28.5t11.5 -51z" />
    <glyph glyph-name="nsuperior" unicode="&#x207f;" horiz-adv-x="333" 
d="M283 635v-225h-48v223q0 50 -55 50q-44 0 -82 -43v-230h-48v310h44l4 -4l-1 -35h3q3 5 9 12.5t30 20.5t54 13q42 0 66 -20t24 -72z" />
    <glyph glyph-name="zeroinferior" unicode="&#x2080;" horiz-adv-x="359" 
d="M154 -161h51q56 0 56 60v217q0 60 -57 60h-49q-57 0 -57 -60v-217q0 -60 56 -60zM206 -207h-53q-103 0 -103 97v235q0 97 103 97h53q103 0 103 -97v-235q0 -97 -103 -97z" />
    <glyph glyph-name="oneinferior" unicode="&#x2081;" horiz-adv-x="353" 
d="M303 -156v-44h-253v44h103v328h-83v44h131v-372h102z" />
    <glyph glyph-name="twoinferior" unicode="&#x2082;" horiz-adv-x="353" 
d="M50 -200v144q0 86 118 86q41 0 64 11t23 43v43q0 49 -79 49l-114 -6l-5 4v42q78 6 133 6q47 0 80 -20t33 -70v-57q0 -51 -34 -71.5t-80 -20.5q-24 0 -36.5 -1t-27 -5t-21 -14.5t-6.5 -27.5v-89h198v-46h-246z" />
    <glyph glyph-name="threeinferior" unicode="&#x2083;" horiz-adv-x="346" 
d="M66 -9v46h91q21 0 32.5 1t27.5 5.5t23.5 17t7.5 31.5v30q0 54 -81 54l-113 -6l-4 4v42q75 6 130 6q116 0 116 -89v-45q0 -54 -48 -74q48 -19 48 -74v-57q0 -90 -118 -90l-128 7v41l4 5q70 -7 111 -7q83 0 83 54v43q0 16 -6 27t-14 16.5t-22.5 8t-23.5 3t-25 0.5h-91z" />
    <glyph glyph-name="fourinferior" unicode="&#x2084;" horiz-adv-x="399" 
d="M251 -92h-201v40l194 271h56v-265h49v-46h-49v-108h-49v108zM106 -46h145v200z" />
    <glyph glyph-name="fiveinferior" unicode="&#x2085;" horiz-adv-x="346" 
d="M160 -3h-104v219h233v-44h-185v-128h78q46 0 80 -20t34 -70v-70q0 -50 -34 -70.5t-80 -20.5l-132 7v41l4 5q73 -7 115 -7q79 0 79 49v57q0 31 -23 41.5t-65 10.5z" />
    <glyph glyph-name="sixinferior" unicode="&#x2086;" horiz-adv-x="353" 
d="M50 -110v243q0 89 115 89l131 -6v-42l-4 -4l-22 2q-21 1 -50.5 2.5t-41.5 1.5q-80 0 -80 -57v-89q22 18 59 18h43q103 0 103 -97v-61q0 -97 -103 -97h-47q-103 0 -103 97zM198 2h-43q-57 0 -57 -59v-44q0 -60 57 -60h44q56 0 56 60v44q0 59 -57 59z" />
    <glyph glyph-name="seveninferior" unicode="&#x2087;" horiz-adv-x="356" 
d="M306 168l-162 -368h-56l163 370h-201v46h256v-48z" />
    <glyph glyph-name="eightinferior" unicode="&#x2088;" horiz-adv-x="359" 
d="M183 176q-78 0 -78 -54v-30q0 -25 12 -37.5t25.5 -15t37.5 -2.5q17 0 28 1.5t23 6.5t18 16.5t6 30.5v30q0 54 -72 54zM194 -207h-36q-45 0 -76.5 20.5t-31.5 70.5v56q0 54 49 74q-42 17 -42 74v43q0 91 108 91h30q108 0 108 -91v-43q0 -56 -43 -74q49 -19 49 -74v-56
q0 -91 -115 -91zM169 -161h22q70 0 70 54v43q0 19 -6.5 31t-20 16.5t-24.5 6t-30 1.5t-30 -1t-25 -6t-20.5 -17t-6.5 -31v-43q0 -54 71 -54z" />
    <glyph glyph-name="nineinferior" unicode="&#x2089;" horiz-adv-x="353" 
d="M303 125v-242q0 -50 -33.5 -70t-80.5 -20l-132 7v41l5 5h4q5 -1 13 -1.5t18 -1.5t21.5 -1.5t22 -1t20 -1t15.5 -0.5q79 0 79 57v89q-24 -18 -59 -18h-43q-103 0 -103 97v61q0 97 103 97h47q103 0 103 -97zM155 13h43q57 0 57 60v43q0 60 -56 60h-44q-57 0 -57 -60v-43
q0 -60 57 -60z" />
    <glyph glyph-name="parenleftinferior" unicode="&#x208d;" horiz-adv-x="342" 
d="M48 -180v375q0 31 11.5 51t32.5 28.5t38.5 11t41.5 2.5l5 -4v-42q-23 0 -38.5 -2.5t-29 -15t-13.5 -34.5v-365q0 -22 13.5 -34t29 -14.5t38.5 -2.5v-42l-5 -5q-24 0 -41.5 2.5t-38.5 11t-32.5 28.5t-11.5 51z" />
    <glyph glyph-name="parenrightinferior" unicode="&#x208e;" horiz-adv-x="342" 
d="M177 195v-375q0 -31 -11.5 -51t-32.5 -28.5t-38.5 -11t-41.5 -2.5l-5 5v42q23 0 38.5 2.5t29 14.5t13.5 34v365q0 22 -13.5 34.5t-29 15t-38.5 2.5v42l5 4q24 0 41.5 -2.5t38.5 -11t32.5 -28.5t11.5 -51z" />
    <glyph glyph-name="colonmonetary" unicode="&#x20a1;" horiz-adv-x="510" 
d="M283 740h63v-103l90 -7v-63l-7 -7q-98 10 -161 10q-35 0 -59 -5t-43.5 -24t-19.5 -53v-347q0 -34 19.5 -53t43.5 -24t59 -5q28 0 68 2.5t66 4.5l27 3l7 -7v-62q-41 -4 -90 -7v-103h-63v101q-12 -1 -35 -1h-12v-100h-63v109q-100 24 -100 123v386q0 99 100 123v109h63
v-100h12q23 0 35 -1v101z" />
    <glyph glyph-name="franc" unicode="&#x20a3;" horiz-adv-x="580" 
d="M206 176h120v-63h-120v-113h-73v113h-60v63h60v454h373v-70h-300v-201h240v-69h-240v-114z" />
    <glyph glyph-name="lira" unicode="&#x20a4;" horiz-adv-x="570" 
d="M206 406h200v-63h-200v-57h200v-63h-200v-67q0 -58 -24 -87h314v-69h-423v69h10q50 0 50 75v79h-60v63h60v57h-60v63h60v102q0 132 175 132q37 0 84 -2.5t76 -5.5l28 -2v-63l-7 -7q-98 10 -161 10q-35 0 -59 -5t-43.5 -24t-19.5 -53v-82z" />
    <glyph glyph-name="peseta" unicode="&#x20a7;" horiz-adv-x="659" 
d="M526 472h60v-63h-60v-7q0 -83 -44.5 -117t-111.5 -34h-164v-251h-73v409h-60v63h60v158h237q67 0 111.5 -34t44.5 -117v-7zM206 321h165q37 0 59.5 20.5t22.5 63.5v4h-247v-88zM453 472v4q0 43 -22.5 63.5t-60.5 20.5h-164v-88h247z" />
    <glyph glyph-name="Euro" unicode="&#x20ac;" horiz-adv-x="570" 
d="M406 406v-63h-200v-57h200v-63h-200v-82q0 -34 19.5 -53t43.5 -24t59 -5q28 0 68 2.5t66 4.5l27 3l7 -7v-62q-105 -10 -188 -10q-175 0 -175 132v101h-60v63h60v57h-60v63h60v102q0 132 175 132q37 0 84 -2.5t76 -5.5l28 -2v-63l-7 -7q-98 10 -161 10q-35 0 -59 -5
t-43.5 -24t-19.5 -53v-82h200z" />
    <glyph glyph-name="litre" unicode="&#x2113;" horiz-adv-x="489" 
d="M62 156l-12 11l94 99v243q0 102 40 151q42 50 100 50q44 0 70 -27t26 -72q0 -51 -31 -112q-31 -63 -129 -176v-168q0 -75 23 -106q22 -29 60 -29q35 0 64 29q32 29 54 103h18q-21 -83 -68 -127q-37 -35 -89 -35q-43 0 -77.5 24.5t-49.5 65.5q-11 33 -11 107v52zM220 543
v-193q134 155 134 242q0 41 -19 65t-48 24t-48 -28t-19 -110z" />
    <glyph glyph-name="afii61352" unicode="&#x2116;" horiz-adv-x="915" 
d="M657 390h91q23 0 38.5 14.5t15.5 42.5v72q0 28 -15.5 42.5t-38.5 14.5h-91q-23 0 -38 -14.5t-15 -42.5v-72q0 -28 15 -42.5t38 -14.5zM666 335q-116 0 -116 113v70q0 112 116 112h73q116 0 116 -112v-70q0 -113 -116 -113h-73zM403 630h73v-630h-93l-237 485v-485h-73
v630h86l244 -503v503z" />
    <glyph glyph-name="trademark" unicode="&#x2122;" horiz-adv-x="899" 
d="M379 612h-128v-347h-50v347h-128v48h306v-48zM444 660h66l125 -272l124 272h66v-395h-51v311l-115 -253h-49l-115 253v-311h-51v395z" />
    <glyph glyph-name="Omega" unicode="&#x2126;" horiz-adv-x="540" 
d="M393 190v289q0 90 -86 90h-75q-86 0 -86 -90v-289q0 -50 25.5 -83t68.5 -41v-66h-217v66h115v2q-4 0 -18.5 16t-30.5 56t-16 88v264q0 81 44.5 114.5t111.5 33.5h81q67 0 111.5 -33.5t44.5 -114.5v-264q0 -48 -16 -88t-30.5 -56t-18.5 -16v-2h115v-66h-216v66q41 5 67 41
t26 83z" />
    <glyph glyph-name="estimated" unicode="&#x212e;" horiz-adv-x="776" 
d="M726 349h-528v-235q81 -78 190 -78q163 0 252 157l46 -26q-64 -91 -130 -134q-67 -43 -168 -43q-153 0 -244 103q-94 100 -94 256q0 158 94 259q94 102 244 102q135 0 234 -91q98 -94 104 -270zM198 397h380v189q-82 77 -191 77q-110 0 -189 -77v-189z" />
    <glyph glyph-name="onethird" unicode="&#x2153;" horiz-adv-x="1000" 
d="M700 191v46h91q21 0 32.5 1t27.5 5.5t23.5 17t7.5 31.5v30q0 54 -81 54l-113 -6l-4 4v42q75 6 130 6q116 0 116 -89v-45q0 -54 -48 -74q48 -19 48 -74v-57q0 -90 -118 -90l-128 7v41l4 5q70 -7 111 -7q83 0 83 54v43q0 16 -6 27t-14 16.5t-22.5 8t-23.5 3t-25 0.5h-91z
M323 254v-44h-253v44h103v328h-83v44h131v-372h102zM396 0h-53l295 630h53z" />
    <glyph glyph-name="twothirds" unicode="&#x2154;" horiz-adv-x="1000" 
d="M700 191v46h91q21 0 32.5 1t27.5 5.5t23.5 17t7.5 31.5v30q0 54 -81 54l-113 -6l-4 4v42q75 6 130 6q116 0 116 -89v-45q0 -54 -48 -74q48 -19 48 -74v-57q0 -90 -118 -90l-128 7v41l4 5q70 -7 111 -7q83 0 83 54v43q0 16 -6 27t-14 16.5t-22.5 8t-23.5 3t-25 0.5h-91z
M396 0h-53l295 630h53zM70 210v144q0 86 118 86q41 0 64 11t23 43v43q0 49 -79 49l-114 -6l-5 4v42q78 6 133 6q47 0 80 -20t33 -70v-57q0 -51 -34 -71.5t-80 -20.5q-24 0 -36.5 -1t-27 -5t-21 -14.5t-6.5 -27.5v-89h198v-46h-246z" />
    <glyph glyph-name="oneeighth" unicode="&#x215b;" horiz-adv-x="1000" 
d="M323 254v-44h-253v44h103v328h-83v44h131v-372h102zM396 0h-53l295 630h53zM804 376q-78 0 -78 -54v-30q0 -25 12 -37.5t25.5 -15t37.5 -2.5q17 0 28 1.5t23 6.5t18 16.5t6 30.5v30q0 54 -72 54zM815 -7h-36q-45 0 -76.5 20.5t-31.5 70.5v56q0 54 49 74q-42 17 -42 74v43
q0 91 108 91h30q108 0 108 -91v-43q0 -56 -43 -74q49 -19 49 -74v-56q0 -91 -115 -91zM790 39h22q70 0 70 54v43q0 19 -6.5 31t-20 16.5t-24.5 6t-30 1.5t-30 -1t-25 -6t-20.5 -17t-6.5 -31v-43q0 -54 71 -54z" />
    <glyph glyph-name="threeeighths" unicode="&#x215c;" horiz-adv-x="1000" 
d="M396 0h-53l295 630h53zM804 376q-78 0 -78 -54v-30q0 -25 12 -37.5t25.5 -15t37.5 -2.5q17 0 28 1.5t23 6.5t18 16.5t6 30.5v30q0 54 -72 54zM815 -7h-36q-45 0 -76.5 20.5t-31.5 70.5v56q0 54 49 74q-42 17 -42 74v43q0 91 108 91h30q108 0 108 -91v-43q0 -56 -43 -74
q49 -19 49 -74v-56q0 -91 -115 -91zM790 39h22q70 0 70 54v43q0 19 -6.5 31t-20 16.5t-24.5 6t-30 1.5t-30 -1t-25 -6t-20.5 -17t-6.5 -31v-43q0 -54 71 -54zM86 401v46h91q21 0 32.5 1t27.5 5.5t23.5 17t7.5 31.5v30q0 54 -81 54l-113 -6l-4 4v42q75 6 130 6q116 0 116 -89
v-45q0 -54 -48 -74q48 -19 48 -74v-57q0 -90 -118 -90l-128 7v41l4 5q70 -7 111 -7q83 0 83 54v43q0 16 -6 27t-14 16.5t-22.5 8t-23.5 3t-25 0.5h-91z" />
    <glyph glyph-name="fiveeighths" unicode="&#x215d;" horiz-adv-x="1000" 
d="M386 0h-53l295 630h53zM804 376q-78 0 -78 -54v-30q0 -25 12 -37.5t25.5 -15t37.5 -2.5q17 0 28 1.5t23 6.5t18 16.5t6 30.5v30q0 54 -72 54zM815 -7h-36q-45 0 -76.5 20.5t-31.5 70.5v56q0 54 49 74q-42 17 -42 74v43q0 91 108 91h30q108 0 108 -91v-43q0 -56 -43 -74
q49 -19 49 -74v-56q0 -91 -115 -91zM790 39h22q70 0 70 54v43q0 19 -6.5 31t-20 16.5t-24.5 6t-30 1.5t-30 -1t-25 -6t-20.5 -17t-6.5 -31v-43q0 -54 71 -54zM180 407h-104v219h233v-44h-185v-128h78q46 0 80 -20t34 -70v-70q0 -50 -34 -70.5t-80 -20.5l-132 7v41l4 5
q73 -7 115 -7q79 0 79 49v57q0 31 -23 41.5t-65 10.5z" />
    <glyph glyph-name="seveneighths" unicode="&#x215e;" horiz-adv-x="1000" 
d="M326 0h-53l295 630h53zM804 376q-78 0 -78 -54v-30q0 -25 12 -37.5t25.5 -15t37.5 -2.5q17 0 28 1.5t23 6.5t18 16.5t6 30.5v30q0 54 -72 54zM815 -7h-36q-45 0 -76.5 20.5t-31.5 70.5v56q0 54 49 74q-42 17 -42 74v43q0 91 108 91h30q108 0 108 -91v-43q0 -56 -43 -74
q49 -19 49 -74v-56q0 -91 -115 -91zM790 39h22q70 0 70 54v43q0 19 -6.5 31t-20 16.5t-24.5 6t-30 1.5t-30 -1t-25 -6t-20.5 -17t-6.5 -31v-43q0 -54 71 -54zM326 578l-162 -368h-56l163 370h-201v46h256v-48z" />
    <glyph glyph-name="partialdiff" unicode="&#x2202;" horiz-adv-x="510" 
d="M514 534l-56 -397q-12 -80 -60.5 -113.5t-115.5 -33.5h-59q-67 0 -107 33.5t-28 113.5l21 145q12 81 60.5 114.5t115.5 33.5h52q55 0 85 -29l16 113q7 49 -24 67.5t-84 18.5q-28 0 -68 -2.5t-66 -5.5l-27 -2q-1 1 -3 3.5t-3 3.5l9 63q104 10 187 10q32 0 59 -6t52.5 -20
t37.5 -42t6 -68zM331 359h-52q-86 0 -99 -90l-17 -119q-13 -91 73 -91h53q85 0 98 91l17 119q13 90 -73 90z" />
    <glyph glyph-name="Delta" unicode="&#x2206;" horiz-adv-x="570" 
d="M53 0l193 635h77l193 -635h-463zM285 551l-152 -493h302z" />
    <glyph glyph-name="product" unicode="&#x220f;" horiz-adv-x="540" 
d="M73 630h393v-630h-73v560h-247v-560h-73v630z" />
    <glyph glyph-name="summation" unicode="&#x2211;" horiz-adv-x="490" 
d="M134 561l154 -244l-158 -249l316 3v-71h-403v71l156 246l-153 241v72h393v-72z" />
    <glyph glyph-name="minus" unicode="&#x2212;" horiz-adv-x="480" 
d="M73 276h333v-63h-333v63z" />
    <glyph glyph-name="uni2215" unicode="&#x2215;" horiz-adv-x="285" 
d="M76 0h-63l195 630h63z" />
    <glyph glyph-name="uni2219" unicode="&#x2219;" horiz-adv-x="260" 
d="M186 376v-113h-113v113h113z" />
    <glyph glyph-name="radical" unicode="&#x221a;" horiz-adv-x="730" 
d="M660 670h36l-265 -675h-55l-156 388h-187v37h271l130 -330z" />
    <glyph glyph-name="infinity" unicode="&#x221e;" horiz-adv-x="949" 
d="M268 130q62 0 114.5 41t73.5 84q-21 47 -75 81t-111 34q-79 0 -119.5 -33t-40.5 -82q0 -50 39.5 -87.5t118.5 -37.5zM681 370q-62 0 -114.5 -41t-73.5 -84q21 -47 75 -81t111 -34q79 0 119.5 33t40.5 82q0 50 -39.5 87.5t-118.5 37.5zM270 400q69 0 124 -37t83 -88
q83 125 212 125q81 0 130.5 -44t49.5 -111q0 -65 -51 -105t-139 -40q-69 0 -125 37t-83 86q-82 -123 -211 -123q-81 0 -130.5 44t-49.5 111q0 65 51 105t139 40z" />
    <glyph glyph-name="integral" unicode="&#x222b;" horiz-adv-x="300" 
d="M97 -46v566q0 77 27 113.5t97 36.5q19 0 38 -2t29 -4l9 -3v-56l-7 -7q-24 5 -57 5q-63 0 -63 -67v-576q0 -75 -26 -107.5t-97 -32.5q-19 0 -38 2t-29 4l-9 3v56l7 7q24 -5 57 -5q62 0 62 67z" />
    <glyph glyph-name="approxequal" unicode="&#x2248;" horiz-adv-x="508" 
d="M255 138q-43 19 -70 22.5t-41 -3.5t-35 -27l-36 37q60 95 192 40q32 -14 53 -19t36.5 1.5t22.5 12.5t22 23l35 -37q-63 -99 -179 -50zM255 284q-43 19 -70 22.5t-41 -3.5t-35 -27l-36 37q60 95 192 40q32 -14 53 -19t36.5 1.5t22.5 12.5t22 23l35 -37q-63 -99 -179 -50z
" />
    <glyph glyph-name="notequal" unicode="&#x2260;" horiz-adv-x="540" 
d="M466 346v-63h-154l-24 -77h178v-63h-197l-63 -203h-63l63 203h-133v63h152l24 77h-176v63h196l69 224h63l-69 -224h134z" />
    <glyph glyph-name="lessequal" unicode="&#x2264;" horiz-adv-x="520" 
d="M78 204v77l366 135v-75l-275 -98l275 -99v-111h-371v63h294z" />
    <glyph glyph-name="greaterequal" unicode="&#x2265;" horiz-adv-x="520" 
d="M441 281v-77l-289 -108h294v-63h-371v111l275 99l-275 98v75z" />
    <glyph glyph-name="lozenge" unicode="&#x25ca;" horiz-adv-x="572" 
d="M286 -50l-206 394l207 396l205 -396zM286 40l156 304l-156 303l-158 -303z" />
    <glyph glyph-name="undercommaaccent" unicode="&#xf005;" horiz-adv-x="230" 
d="M156 -40v-83l-10 -130h-36v130h-37v83h83z" />
    <glyph glyph-name="Abreve.small" unicode="&#xf66d;" horiz-adv-x="510" 
d="M317 663h64q0 -57 -33 -86.5t-82 -29.5h-23q-49 0 -82 29.5t-33 86.5h64q0 -31 17 -47t42 -16h9q26 0 41.5 16t15.5 47zM198 475h100l175 -475h-86l-47 131h-186l-46 -131h-85zM248 403l-73 -202h145z" />
    <glyph glyph-name="Amacron.small" unicode="&#xf66e;" horiz-adv-x="510" 
d="M394 633v-63h-280v63h280zM198 475h100l175 -475h-86l-47 131h-186l-46 -131h-85zM248 403l-73 -202h145z" />
    <glyph glyph-name="AEacute.small" unicode="&#xf670;" horiz-adv-x="790" 
d="M426 400v-124h240v-70h-240v-137h300v-69h-373v206h-172l-73 -206h-85l173 470h530v-70h-300zM202 276h151v124h-107zM423 536l-36 30l118 153l55 -49z" />
    <glyph glyph-name="Cacute.small" unicode="&#xf671;" horiz-adv-x="480" 
d="M436 407l-7 -7q-98 10 -161 10q-35 0 -59 -5t-43.5 -24t-19.5 -53v-187q0 -34 19.5 -53t43.5 -24t59 -5q28 0 68 2.5t66 4.5l27 3l7 -7v-62q-105 -10 -188 -10q-175 0 -175 132v226q0 132 175 132q37 0 84 -2.5t76 -5.5l28 -2v-63zM291 536l-36 30l118 153l55 -49z" />
    <glyph glyph-name="Ccaron.small" unicode="&#xf672;" horiz-adv-x="480" 
d="M436 407l-7 -7q-98 10 -161 10q-35 0 -59 -5t-43.5 -24t-19.5 -53v-187q0 -34 19.5 -53t43.5 -24t59 -5q28 0 68 2.5t66 4.5l27 3l7 -7v-62q-105 -10 -188 -10q-175 0 -175 132v226q0 132 175 132q37 0 84 -2.5t76 -5.5l28 -2v-63zM317 530h-65l-108 136h72l69 -85l68 85
h72z" />
    <glyph glyph-name="Ccircumflex.small" unicode="&#xf673;" horiz-adv-x="480" 
d="M436 407l-7 -7q-98 10 -161 10q-35 0 -59 -5t-43.5 -24t-19.5 -53v-187q0 -34 19.5 -53t43.5 -24t59 -5q28 0 68 2.5t66 4.5l27 3l7 -7v-62q-105 -10 -188 -10q-175 0 -175 132v226q0 132 175 132q37 0 84 -2.5t76 -5.5l28 -2v-63zM243 676h65l108 -136h-72l-68 84
l-69 -84h-72z" />
    <glyph glyph-name="Cdotaccent.small" unicode="&#xf674;" horiz-adv-x="480" 
d="M436 407l-7 -7q-98 10 -161 10q-35 0 -59 -5t-43.5 -24t-19.5 -53v-187q0 -34 19.5 -53t43.5 -24t59 -5q28 0 68 2.5t66 4.5l27 3l7 -7v-62q-105 -10 -188 -10q-175 0 -175 132v226q0 132 175 132q37 0 84 -2.5t76 -5.5l28 -2v-63zM330 653v-93h-93v93h93z" />
    <glyph glyph-name="Dcaron.small" unicode="&#xf675;" horiz-adv-x="540" 
d="M393 176v117q0 53 -31 80t-82 27h-134v-331h134q113 0 113 107zM466 300v-130q0 -170 -180 -170h-213v470h213q180 0 180 -170zM285 530h-65l-108 136h72l69 -85l68 85h72z" />
    <glyph glyph-name="Ebreve.small" unicode="&#xf677;" horiz-adv-x="510" 
d="M146 400v-124h240v-70h-240v-137h300v-69h-373v470h373v-70h-300zM318 663h64q0 -57 -33 -86.5t-82 -29.5h-23q-49 0 -82 29.5t-33 86.5h64q0 -31 17 -47t42 -16h9q25 0 41 16t16 47z" />
    <glyph glyph-name="Ecaron.small" unicode="&#xf678;" horiz-adv-x="510" 
d="M146 400v-124h240v-70h-240v-137h300v-69h-373v470h373v-70h-300zM293 530h-65l-108 136h72l69 -85l68 85h72z" />
    <glyph glyph-name="Edotaccent.small" unicode="&#xf679;" horiz-adv-x="510" 
d="M146 400v-124h240v-70h-240v-137h300v-69h-373v470h373v-70h-300zM309 653v-93h-93v93h93z" />
    <glyph glyph-name="Emacron.small" unicode="&#xf67a;" horiz-adv-x="510" 
d="M146 400v-124h240v-70h-240v-137h300v-69h-373v470h373v-70h-300zM399 633v-63h-280v63h280z" />
    <glyph glyph-name="Gbreve.small" unicode="&#xf67d;" horiz-adv-x="520" 
d="M296 268h160v-268q-115 -10 -198 -10q-33 0 -62 5.5t-58.5 18.5t-47 40.5t-17.5 67.5v226q0 132 179 132q37 0 83 -2.5t73 -5.5l28 -2v-63l-7 -7q-95 10 -158 10q-125 0 -125 -82v-187q0 -82 132 -82q57 0 105 5v137h-80l-7 7v60zM337 663h64q0 -57 -33 -86.5t-82 -29.5
h-23q-49 0 -82 29.5t-33 86.5h64q0 -31 17 -47t42 -16h9q26 0 41.5 16t15.5 47z" />
    <glyph glyph-name="Gcircumflex.small" unicode="&#xf67e;" horiz-adv-x="520" 
d="M296 268h160v-268q-115 -10 -198 -10q-33 0 -62 5.5t-58.5 18.5t-47 40.5t-17.5 67.5v226q0 132 179 132q37 0 83 -2.5t73 -5.5l28 -2v-63l-7 -7q-95 10 -158 10q-125 0 -125 -82v-187q0 -82 132 -82q57 0 105 5v137h-80l-7 7v60zM235 676h65l108 -136h-72l-68 84
l-69 -84h-72z" />
    <glyph glyph-name="Gcommaaccent.small" unicode="&#xf67f;" horiz-adv-x="520" 
d="M296 268h160v-268q-115 -10 -198 -10q-33 0 -62 5.5t-58.5 18.5t-47 40.5t-17.5 67.5v226q0 132 179 132q37 0 83 -2.5t73 -5.5l28 -2v-63l-7 -7q-95 10 -158 10q-125 0 -125 -82v-187q0 -82 132 -82q57 0 105 5v137h-80l-7 7v60zM314 -40v-83l-10 -130h-36v130h-37v83
h83z" />
    <glyph glyph-name="Gdotaccent.small" unicode="&#xf680;" horiz-adv-x="520" 
d="M296 268h160v-268q-115 -10 -198 -10q-33 0 -62 5.5t-58.5 18.5t-47 40.5t-17.5 67.5v226q0 132 179 132q37 0 83 -2.5t73 -5.5l28 -2v-63l-7 -7q-95 10 -158 10q-125 0 -125 -82v-187q0 -82 132 -82q57 0 105 5v137h-80l-7 7v60zM322 653v-93h-93v93h93z" />
    <glyph glyph-name="Hcircumflex.small" unicode="&#xf682;" horiz-adv-x="540" 
d="M146 470v-191h247v191h73v-470h-73v210h-247v-210h-73v470h73zM234 676h65l108 -136h-72l-68 84l-69 -84h-72z" />
    <glyph glyph-name="Ibreve.small" unicode="&#xf683;" horiz-adv-x="215" 
d="M73 470h73v-470h-73v470zM173 663h64q0 -57 -33 -86.5t-82 -29.5h-23q-49 0 -82 29.5t-33 86.5h64q0 -31 17 -47t42 -16h9q26 0 41.5 16t15.5 47z" />
    <glyph glyph-name="Imacron.small" unicode="&#xf685;" horiz-adv-x="225" 
d="M80 470h73v-470h-73v470zM258 633v-63h-280v63h280z" />
    <glyph glyph-name="Itilde.small" unicode="&#xf687;" horiz-adv-x="220" 
d="M73 470h73v-470h-73v470zM112 568q-27 15 -43 21t-29 2t-19.5 -9.5t-20.5 -21.5l-42 30q27 51 74 59.5t88 -16.5q15 -8 25.5 -12.5t19.5 -5t14 -1.5t12 4.5t9.5 7.5t10.5 11.5t11 13.5l38 -33q-52 -99 -148 -50z" />
    <glyph glyph-name="Jcircumflex.small" unicode="&#xf688;" horiz-adv-x="320" 
d="M175 128v342h73v-348q0 -66 -36.5 -99t-97.5 -33l-98 8v59l7 7q47 -5 80 -5q72 0 72 69zM182 676h65l108 -136h-72l-68 84l-69 -84h-72z" />
    <glyph glyph-name="Kcommaaccent.small" unicode="&#xf689;" horiz-adv-x="533" 
d="M146 470v-239l244 239h96l-201 -202l217 -268h-99l-175 218l-82 -78v-140h-73v470h73zM307 -40v-83l-10 -130h-36v130h-37v83h83z" />
    <glyph glyph-name="Lacute.small" unicode="&#xf68a;" horiz-adv-x="430" 
d="M413 69v-69h-340v470h73v-401h267zM120 536l-36 30l118 153l55 -49z" />
    <glyph glyph-name="Lcaron.small" unicode="&#xf68b;" horiz-adv-x="430" 
d="M413 69v-69h-340v470h73v-401h267zM352 470v-83l-10 -130h-36v130h-37v83h83z" />
    <glyph glyph-name="Lcommaaccent.small" unicode="&#xf68c;" horiz-adv-x="430" 
d="M413 69v-69h-340v470h73v-401h267zM276 -40v-83l-10 -130h-36v130h-37v83h83z" />
    <glyph glyph-name="Ldot.small" unicode="&#xf68d;" horiz-adv-x="430" 
d="M413 69v-69h-340v470h73v-401h267zM360 315v-93h-93v93h93z" />
    <glyph glyph-name="Nacute.small" unicode="&#xf68e;" horiz-adv-x="550" 
d="M403 470h73v-470h-93l-237 358v-358h-73v470h86l244 -369v369zM276 536l-36 30l118 153l55 -49z" />
    <glyph glyph-name="Ncaron.small" unicode="&#xf68f;" horiz-adv-x="550" 
d="M403 470h73v-470h-93l-237 358v-358h-73v470h86l244 -369v369zM311 530h-65l-108 136h72l69 -85l68 85h72z" />
    <glyph glyph-name="Ncommaaccent.small" unicode="&#xf690;" horiz-adv-x="550" 
d="M403 470h73v-470h-93l-237 358v-358h-73v470h86l244 -369v369zM311 -40v-83l-10 -130h-36v130h-37v83h83z" />
    <glyph glyph-name="Obreve.small" unicode="&#xf691;" horiz-adv-x="540" 
d="M231 59h77q85 0 85 91v169q0 90 -86 90h-75q-86 0 -86 -90v-169q0 -91 85 -91zM310 -10h-81q-67 0 -111.5 33.5t-44.5 113.5v195q0 81 44.5 114.5t111.5 33.5h81q67 0 111.5 -33.5t44.5 -114.5v-195q0 -80 -44.5 -113.5t-111.5 -33.5zM335 663h64q0 -57 -33 -86.5
t-82 -29.5h-23q-49 0 -82 29.5t-33 86.5h64q0 -31 17 -47t42 -16h9q26 0 41.5 16t15.5 47z" />
    <glyph glyph-name="Ohungarumlaut.small" unicode="&#xf692;" horiz-adv-x="540" 
d="M231 59h77q85 0 85 91v169q0 90 -86 90h-75q-86 0 -86 -90v-169q0 -91 85 -91zM310 -10h-81q-67 0 -111.5 33.5t-44.5 113.5v195q0 81 44.5 114.5t111.5 33.5h81q67 0 111.5 -33.5t44.5 -114.5v-195q0 -80 -44.5 -113.5t-111.5 -33.5zM208 540l-40 20l86 141l57 -31z
M344 540l-39 20l86 141l56 -31z" />
    <glyph glyph-name="Omacron.small" unicode="&#xf693;" horiz-adv-x="540" 
d="M231 59h77q85 0 85 91v169q0 90 -86 90h-75q-86 0 -86 -90v-169q0 -91 85 -91zM310 -10h-81q-67 0 -111.5 33.5t-44.5 113.5v195q0 81 44.5 114.5t111.5 33.5h81q67 0 111.5 -33.5t44.5 -114.5v-195q0 -80 -44.5 -113.5t-111.5 -33.5zM419 633v-63h-280v63h280z" />
    <glyph glyph-name="Oslashacute.small" unicode="&#xf694;" horiz-adv-x="540" 
d="M282 536l-36 30l118 153l55 -49zM310 -10h-81q-67 0 -111.5 33.5t-44.5 113.5v195q0 81 44.5 114.5t111.5 33.5h81q67 0 111.5 -33.5t44.5 -114.5v-195q0 -80 -44.5 -113.5t-111.5 -33.5zM231 59h77q85 0 85 91v60h-247v-60q0 -91 85 -91zM393 273v46q0 90 -86 90h-75
q-86 0 -86 -90v-46h247z" />
    <glyph glyph-name="Racute.small" unicode="&#xf695;" horiz-adv-x="555" 
d="M260 536l-36 30l118 153l55 -49zM258 165h-112v-165h-73v470h234q70 0 114.5 -33.5t44.5 -111.5v-15q0 -123 -118 -141l143 -169h-98zM146 234h157q44 0 67 15t23 58v21q0 43 -24.5 57.5t-66.5 14.5h-156v-166z" />
    <glyph glyph-name="Rcaron.small" unicode="&#xf696;" horiz-adv-x="555" 
d="M293 530h-65l-108 136h72l69 -85l68 85h72zM258 165h-112v-165h-73v470h234q70 0 114.5 -33.5t44.5 -111.5v-15q0 -123 -118 -141l143 -169h-98zM146 234h157q44 0 67 15t23 58v21q0 43 -24.5 57.5t-66.5 14.5h-156v-166z" />
    <glyph glyph-name="Rcommaaccent.small" unicode="&#xf697;" horiz-adv-x="555" 
d="M292 -40v-83l-10 -130h-36v130h-37v83h83zM258 165h-112v-165h-73v470h234q70 0 114.5 -33.5t44.5 -111.5v-15q0 -123 -118 -141l143 -169h-98zM146 234h157q44 0 67 15t23 58v21q0 43 -24.5 57.5t-66.5 14.5h-156v-166z" />
    <glyph glyph-name="Sacute.small" unicode="&#xf698;" horiz-adv-x="510" 
d="M71 62l7 7q105 -10 168 -10q26 0 44.5 2t39.5 8.5t32 22.5t11 40q0 21 -7.5 35.5t-17.5 22t-30.5 11t-34.5 4t-42 0.5q-36 0 -63.5 5t-55.5 18t-43.5 42.5t-15.5 72.5q0 137 172 137q37 0 81.5 -2.5t71.5 -5.5l26 -2v-63l-7 -7q-89 10 -152 10q-57 0 -88 -13t-31 -54
q0 -20 7.5 -33t16.5 -19.5t30 -10t36 -4t47 -0.5q84 0 128.5 -30.5t44.5 -111.5q0 -144 -180 -144q-37 0 -85.5 2.5t-78.5 5.5l-31 2v62zM248 536l-36 30l118 153l55 -49z" />
    <glyph glyph-name="Scircumflex.small" unicode="&#xf69a;" horiz-adv-x="510" 
d="M71 62l7 7q105 -10 168 -10q26 0 44.5 2t39.5 8.5t32 22.5t11 40q0 21 -7.5 35.5t-17.5 22t-30.5 11t-34.5 4t-42 0.5q-36 0 -63.5 5t-55.5 18t-43.5 42.5t-15.5 72.5q0 137 172 137q37 0 81.5 -2.5t71.5 -5.5l26 -2v-63l-7 -7q-89 10 -152 10q-57 0 -88 -13t-31 -54
q0 -20 7.5 -33t16.5 -19.5t30 -10t36 -4t47 -0.5q84 0 128.5 -30.5t44.5 -111.5q0 -144 -180 -144q-37 0 -85.5 2.5t-78.5 5.5l-31 2v62zM222 676h65l108 -136h-72l-68 84l-69 -84h-72z" />
    <glyph glyph-name="Scommaaccent.small" unicode="&#xf69b;" horiz-adv-x="510" 
d="M71 62l7 7q105 -10 168 -10q26 0 44.5 2t39.5 8.5t32 22.5t11 40q0 21 -7.5 35.5t-17.5 22t-30.5 11t-34.5 4t-42 0.5q-36 0 -63.5 5t-55.5 18t-43.5 42.5t-15.5 72.5q0 137 172 137q37 0 81.5 -2.5t71.5 -5.5l26 -2v-63l-7 -7q-89 10 -152 10q-57 0 -88 -13t-31 -54
q0 -20 7.5 -33t16.5 -19.5t30 -10t36 -4t47 -0.5q84 0 128.5 -30.5t44.5 -111.5q0 -144 -180 -144q-37 0 -85.5 2.5t-78.5 5.5l-31 2v62zM293 -40v-83l-10 -130h-36v130h-37v83h83z" />
    <glyph glyph-name="Tcaron.small" unicode="&#xf69d;" horiz-adv-x="440" 
d="M419 400h-163v-400h-73v400h-163v70h399v-70zM250 530h-65l-108 136h72l69 -85l68 85h72z" />
    <glyph glyph-name="Tcommaaccent.small" unicode="&#xf69e;" horiz-adv-x="440" 
d="M419 400h-163v-400h-73v400h-163v70h399v-70zM262 -40v-83l-10 -130h-36v130h-37v83h83z" />
    <glyph glyph-name="Ubreve.small" unicode="&#xf69f;" horiz-adv-x="540" 
d="M393 470h73v-333q0 -80 -44.5 -113.5t-111.5 -33.5h-81q-67 0 -111.5 33.5t-44.5 113.5v333h73v-320q0 -91 85 -91h77q85 0 85 91v320zM333 663h64q0 -57 -33 -86.5t-82 -29.5h-23q-49 0 -82 29.5t-33 86.5h64q0 -31 17 -47t42 -16h9q26 0 41.5 16t15.5 47z" />
    <glyph glyph-name="Uhungarumlaut.small" unicode="&#xf6a0;" horiz-adv-x="540" 
d="M393 470h73v-333q0 -80 -44.5 -113.5t-111.5 -33.5h-81q-67 0 -111.5 33.5t-44.5 113.5v333h73v-320q0 -91 85 -91h77q85 0 85 91v320zM203 540l-40 20l86 141l57 -31zM339 540l-39 20l86 141l56 -31z" />
    <glyph glyph-name="Umacron.small" unicode="&#xf6a1;" horiz-adv-x="540" 
d="M393 470h73v-333q0 -80 -44.5 -113.5t-111.5 -33.5h-81q-67 0 -111.5 33.5t-44.5 113.5v333h73v-320q0 -91 85 -91h77q85 0 85 91v320zM408 633v-63h-280v63h280z" />
    <glyph glyph-name="Uring.small" unicode="&#xf6a3;" horiz-adv-x="540" 
d="M393 470h73v-333q0 -80 -44.5 -113.5t-111.5 -33.5h-81q-67 0 -111.5 33.5t-44.5 113.5v333h73v-320q0 -91 85 -91h77q85 0 85 91v320zM277 540h-21q-85 0 -85 71v42q0 71 85 71h21q85 0 85 -71v-42q0 -71 -85 -71zM214 649v-35q0 -35 42 -35h21q18 -1 30 8t12 27v35
q0 34 -43 34h-20q-42 0 -42 -34z" />
    <glyph glyph-name="Utilde.small" unicode="&#xf6a4;" horiz-adv-x="540" 
d="M393 470h73v-333q0 -80 -44.5 -113.5t-111.5 -33.5h-81q-67 0 -111.5 33.5t-44.5 113.5v333h73v-320q0 -91 85 -91h77q85 0 85 91v320zM271 568q-27 15 -43 21t-29 2t-19.5 -9.5t-20.5 -21.5l-42 30q27 51 74 59.5t88 -16.5q15 -8 25.5 -12.5t19.5 -5t14 -1.5t12 4.5
t9.5 7.5t10.5 11.5t11 13.5l38 -33q-52 -99 -148 -50z" />
    <glyph glyph-name="Wacute.small" unicode="&#xf6a5;" horiz-adv-x="720" 
d="M266 -5h-90l-153 475h83l119 -384l138 384h81l-54 -143l104 -241l119 384h83l-156 -475h-89l-97 233zM389 536l-36 30l118 153l55 -49z" />
    <glyph glyph-name="Wcircumflex.small" unicode="&#xf6a6;" horiz-adv-x="720" 
d="M266 -5h-90l-153 475h83l119 -384l138 384h81l-54 -143l104 -241l119 384h83l-156 -475h-89l-97 233zM327 676h65l108 -136h-72l-68 84l-69 -84h-72z" />
    <glyph glyph-name="Wdieresis.small" unicode="&#xf6a7;" horiz-adv-x="720" 
d="M266 -5h-90l-153 475h83l119 -384l138 384h81l-54 -143l104 -241l119 384h83l-156 -475h-89l-97 233zM311 648v-88h-88v88h88zM496 648v-88h-88v88h88z" />
    <glyph glyph-name="Wgrave.small" unicode="&#xf6a8;" horiz-adv-x="720" 
d="M266 -5h-90l-153 475h83l119 -384l138 384h81l-54 -143l104 -241l119 384h83l-156 -475h-89l-97 233zM400 566l-36 -30l-137 134l55 49z" />
    <glyph glyph-name="Ycircumflex.small" unicode="&#xf6a9;" horiz-adv-x="470" 
d="M13 470h84l138 -231l137 231h84l-185 -308v-162h-73v162zM200 676h65l108 -136h-72l-68 84l-69 -84h-72z" />
    <glyph glyph-name="Ygrave.small" unicode="&#xf6aa;" horiz-adv-x="470" 
d="M13 470h84l138 -231l137 231h84l-185 -308v-162h-73v162zM270 566l-36 -30l-137 134l55 49z" />
    <glyph glyph-name="Zacute.small" unicode="&#xf6ab;" horiz-adv-x="490" 
d="M434 470v-69l-292 -332l304 1v-70h-403v68l292 332l-282 -1v71h381zM242 536l-36 30l118 153l55 -49z" />
    <glyph glyph-name="Zdotaccent.small" unicode="&#xf6ac;" horiz-adv-x="490" 
d="M434 470v-69l-292 -332l304 1v-70h-403v68l292 332l-282 -1v71h381zM304 653v-93h-93v93h93z" />
    <glyph glyph-name="Idotaccent.small" unicode="&#xf6ad;" horiz-adv-x="219" 
d="M73 470h73v-470h-73v470zM156 653v-93h-93v93h93z" />
    <glyph glyph-name="commaaccent" unicode="&#xf6c3;" horiz-adv-x="230" 
d="M156 -40v-83l-10 -130h-36v130h-37v83h83z" />
    <glyph glyph-name="Acute" unicode="&#xf6c9;" horiz-adv-x="320" 
d="M73 716l118 153l55 -49l-137 -134z" />
    <glyph glyph-name="Caron" unicode="&#xf6ca;" horiz-adv-x="428" 
d="M246 680h-65l-108 136h72l69 -85l68 85h72z" />
    <glyph glyph-name="Dieresis" unicode="&#xf6cb;" horiz-adv-x="420" 
d="M161 798v-88h-88v88h88zM346 798v-88h-88v88h88z" />
    <glyph glyph-name="DieresisAcute" unicode="&#xf6cc;" horiz-adv-x="480" 
d="M158 798v-88h-85v88h85zM406 798v-88h-85v88h85zM192 725l63 183l71 -21l-93 -177z" />
    <glyph glyph-name="DieresisGrave" unicode="&#xf6cd;" horiz-adv-x="480" 
d="M321 710v88h85v-88h-85zM73 710v88h85v-88h-85zM287 725l-41 -15l-93 177l71 21z" />
    <glyph glyph-name="Grave" unicode="&#xf6ce;" horiz-adv-x="320" 
d="M246 716l-36 -30l-137 134l55 49z" />
    <glyph glyph-name="Hungarumlaut" unicode="&#xf6cf;" horiz-adv-x="426" 
d="M73 710l86 141l57 -31l-103 -130zM210 710l86 141l56 -31l-103 -130z" />
    <glyph glyph-name="Macron" unicode="&#xf6d0;" horiz-adv-x="440" 
d="M360 783v-63h-280v63h280z" />
    <glyph glyph-name="cyrBreve" unicode="&#xf6d1;" horiz-adv-x="400" 
d="M262 813h64q0 -57 -33 -86.5t-82 -29.5h-23q-49 0 -82 29.5t-33 86.5h64q0 -31 17 -47t42 -16h9q25 0 41 16t16 47z" />
    <glyph glyph-name="cyrFlex" unicode="&#xf6d2;" horiz-adv-x="428" 
d="M181 826h65l108 -136h-72l-68 84l-69 -84h-72z" />
    <glyph glyph-name="dblGrave" unicode="&#xf6d3;" horiz-adv-x="426" 
d="M352 710l-39 -20l-103 133l56 31zM216 710l-40 -20l-103 133l57 31z" />
    <glyph glyph-name="cyrbreve" unicode="&#xf6d4;" horiz-adv-x="400" 
d="M262 663h64q0 -57 -33 -86.5t-82 -29.5h-23q-49 0 -82 29.5t-33 86.5h64q0 -31 17 -47t42 -16h9q25 0 41 16t16 47z" />
    <glyph glyph-name="cyrflex" unicode="&#xf6d5;" horiz-adv-x="428" 
d="M181 676h65l108 -136h-72l-68 84l-69 -84h-72z" />
    <glyph glyph-name="dblgrave" unicode="&#xf6d6;" horiz-adv-x="426" 
d="M352 560l-39 -20l-103 133l56 31zM216 560l-40 -20l-103 133l57 31z" />
    <glyph glyph-name="dieresisacute" unicode="&#xf6d7;" horiz-adv-x="480" 
d="M158 648v-88h-85v88h85zM406 648v-88h-85v88h85zM192 575l63 183l71 -21l-93 -177z" />
    <glyph glyph-name="dieresisgrave" unicode="&#xf6d8;" horiz-adv-x="480" 
d="M321 560v88h85v-88h-85zM73 560v88h85v-88h-85zM287 575l-41 -15l-93 177l71 21z" />
    <glyph glyph-name="rupiah" unicode="&#xf6dd;" horiz-adv-x="975" 
d="M553 60v410h66l7 -7l-2 -53h4l5 7.5t15.5 16.5t27 21.5t40 17t53.5 7.5q63 0 97.5 -30.5t34.5 -108.5v-210q0 -40 -13.5 -67.5t-38.5 -40.5t-52.5 -18t-63.5 -5h-107v-170h-73v170h-150l-143 261h-114v-261h-73v630h237q67 0 111.5 -34t44.5 -117v-64q0 -128 -121 -151
l115 -204h93zM626 348v-288h105q97 0 97 82v196q0 43 -20 59t-58 16q-67 0 -124 -65zM146 331h165q37 0 59.5 20.5t22.5 63.5v61q0 43 -22.5 63.5t-60.5 20.5h-164v-229z" />
    <glyph glyph-name="threequartersemdash" unicode="&#xf6de;" horiz-adv-x="790" 
d="M73 276h643v-63h-643v63z" />
    <glyph glyph-name="centinferior" unicode="&#xf6df;" horiz-adv-x="340" 
d="M50 -117v252q0 83 104 87v73h42v-74l94 -5v-42l-5 -4q-67 6 -108 6q-37 0 -58 -10.5t-21 -43.5v-226q0 -57 79 -57l108 7l5 -5v-41q-43 -3 -89 -5v-74h-42v72q-109 4 -109 90z" />
    <glyph glyph-name="centsuperior" unicode="&#xf6e0;" horiz-adv-x="340" 
d="M50 493v252q0 83 104 87v73h42v-74l94 -5v-42l-5 -4q-67 6 -108 6q-37 0 -58 -10.5t-21 -43.5v-226q0 -57 79 -57l108 7l5 -5v-41q-43 -3 -89 -5v-74h-42v72q-109 4 -109 90z" />
    <glyph glyph-name="commainferior" unicode="&#xf6e1;" horiz-adv-x="230" 
d="M103 -145v-55l-7 -86h-23v86h-25v55h55z" />
    <glyph glyph-name="commasuperior" unicode="&#xf6e2;" horiz-adv-x="230" 
d="M103 465v-55l-7 -86h-23v86h-25v55h55z" />
    <glyph glyph-name="dollarinferior" unicode="&#xf6e3;" horiz-adv-x="353" 
d="M194 -279h-42v74l-97 5v41l5 5q74 -7 116 -7q79 0 79 49v49q0 31 -23 42t-64 11q-118 0 -118 87v58q0 83 102 87v73h42v-74l88 -5v-42l-5 -4q-59 6 -100 6q-79 0 -79 -47v-43q0 -31 22.5 -40t68.5 -9t80 -20.5t34 -70.5v-62q0 -88 -109 -90v-73z" />
    <glyph glyph-name="dollarsuperior" unicode="&#xf6e4;" horiz-adv-x="353" 
d="M194 331h-42v74l-97 5v41l5 5q74 -7 116 -7q79 0 79 49v49q0 31 -23 42t-64 11q-118 0 -118 87v58q0 83 102 87v73h42v-74l88 -5v-42l-5 -4q-59 6 -100 6q-79 0 -79 -47v-43q0 -31 22.5 -40t68.5 -9t80 -20.5t34 -70.5v-62q0 -88 -109 -90v-73z" />
    <glyph glyph-name="hypheninferior" unicode="&#xf6e5;" horiz-adv-x="480" 
d="M48 -18h220v-41h-220v41z" />
    <glyph glyph-name="hyphensuperior" unicode="&#xf6e6;" horiz-adv-x="480" 
d="M48 592h220v-41h-220v41z" />
    <glyph glyph-name="periodinferior" unicode="&#xf6e7;" horiz-adv-x="230" 
d="M103 -145v-55h-55v55h55z" />
    <glyph glyph-name="periodsuperior" unicode="&#xf6e8;" horiz-adv-x="230" 
d="M103 465v-55h-55v55h55z" />
    <glyph glyph-name="asuperior" unicode="&#xf6e9;" horiz-adv-x="333" 
d="M283 640v-230h-44l-4 5l1 35h-3q-3 -5 -9 -13t-30 -21t-54 -13q-90 0 -90 91q0 52 31.5 74t78.5 22h75v42q0 51 -68 51l-87 -7l-5 5v39q46 7 101 7q107 0 107 -87zM235 487v62h-56q-41 0 -61 -10.5t-20 -42.5q0 -49 58 -49q44 0 79 40z" />
    <glyph glyph-name="bsuperior" unicode="&#xf6ea;" horiz-adv-x="330" 
d="M98 640v-189q30 -3 69 -3q65 4 65 56v129q0 29 -13 39.5t-39 10.5q-44 0 -82 -43zM50 846h48v-123l-2 -42h3q3 5 9.5 12.5t30.5 20.5t54 13q42 0 64.5 -20t22.5 -72v-139q0 -50 -32 -71.5t-79 -21.5q-33 0 -114 7l-5 5v431z" />
    <glyph glyph-name="dsuperior" unicode="&#xf6eb;" horiz-adv-x="329" 
d="M231 490v189q-19 2 -69 2q-64 -2 -64 -55v-130q-1 -28 13 -38.5t39 -10.5q44 0 81 43zM279 846v-436h-43l-5 5l1 35h-2q-3 -5 -9.5 -13t-30.5 -21t-53 -13q-42 0 -64.5 20t-22.5 71v139q0 51 32 72.5t78 21.5q11 0 71 -3v122h48z" />
    <glyph glyph-name="esuperior" unicode="&#xf6ec;" horiz-adv-x="333" 
d="M166 683q-68 0 -68 -55v-38h132q0 1 1 8t1.5 17t0.5 19q-1 49 -67 49zM277 555l-7 -6h-172v-47q0 -33 19 -43.5t53 -10.5q19 0 40 2t32 4l12 1l4 -5v-40q-43 -7 -98 -7q-110 0 -110 90v139q0 50 33 72.5t83 22.5q117 0 117 -95q0 -29 -6 -77z" />
    <glyph glyph-name="isuperior" unicode="&#xf6ed;" horiz-adv-x="148" 
d="M98 832v-57h-48v57h48zM50 720h48v-310h-48v310z" />
    <glyph glyph-name="lsuperior" unicode="&#xf6ee;" horiz-adv-x="148" 
d="M50 846h48v-436h-48v436z" />
    <glyph glyph-name="msuperior" unicode="&#xf6ef;" horiz-adv-x="518" 
d="M283 640v-230h-48v223q0 50 -53 50q-39 0 -84 -43v-230h-48v310h44l4 -4l-1 -35h3q3 5 9 12.5t30 20.5t54 13q69 0 85 -52q33 52 100 52q42 0 66 -20t24 -72v-225h-48v223q0 50 -48 50q-26 0 -43 -8t-46 -35z" />
    <glyph glyph-name="osuperior" unicode="&#xf6f0;" horiz-adv-x="333" 
d="M234 501v127q0 55 -68 55t-68 -55v-127q0 -54 68 -54t68 54zM283 633v-137q0 -93 -117 -93q-50 0 -83 22t-33 71v137q0 50 33 72t83 22q117 0 117 -94z" />
    <glyph glyph-name="rsuperior" unicode="&#xf6f1;" horiz-adv-x="252" 
d="M202 683l-5 -5q-19 0 -30 -1.5t-31 -10.5t-38 -28v-228h-48v310h44l4 -4l-1 -35h3q-3 0 8.5 12.5t37 24t56.5 9.5v-44z" />
    <glyph glyph-name="ssuperior" unicode="&#xf6f2;" horiz-adv-x="326" 
d="M55 450l4 5q48 -7 90 -7q39 0 60 9t21 39q0 22 -11 33.5t-24.5 13.5t-40.5 2q-53 0 -78.5 20t-25.5 71q0 91 103 91q24 0 50.5 -1.5t40.5 -3.5l15 -2v-41l-5 -4q-46 6 -87 6q-36 0 -52.5 -8.5t-16.5 -36.5q0 -17 4.5 -26.5t17 -13.5t23 -5t34.5 -1q50 0 74.5 -20.5
t24.5 -73.5q0 -55 -30 -74t-80 -19q-24 0 -52 1.5t-44 3.5l-15 2v40z" />
    <glyph glyph-name="tsuperior" unicode="&#xf6f3;" horiz-adv-x="265" 
d="M83 491v187h-33v42h33v66h48v-66h77v-42h-77v-187q0 -44 41 -44l38 3l5 -4v-37q-23 -6 -51 -6q-38 0 -59.5 22.5t-21.5 65.5z" />
    <glyph glyph-name="Brevesmall" unicode="&#xf6f4;" horiz-adv-x="400" 
d="M262 663h64q0 -57 -33 -86.5t-82 -29.5h-23q-49 0 -82 29.5t-33 86.5h64q0 -31 17 -47t42 -16h9q25 0 41 16t16 47z" />
    <glyph glyph-name="Caronsmall" unicode="&#xf6f5;" horiz-adv-x="428" 
d="M246 530h-65l-108 136h72l69 -85l68 85h72z" />
    <glyph glyph-name="Circumflexsmall" unicode="&#xf6f6;" horiz-adv-x="428" 
d="M181 676h65l108 -136h-72l-68 84l-69 -84h-72z" />
    <glyph glyph-name="Dotaccentsmall" unicode="&#xf6f7;" horiz-adv-x="230" 
d="M166 653v-93h-93v93h93z" />
    <glyph glyph-name="Hungarumlautsmall" unicode="&#xf6f8;" horiz-adv-x="426" 
d="M113 540l-40 20l86 141l57 -31zM249 540l-39 20l86 141l56 -31z" />
    <glyph glyph-name="Lslashsmall" unicode="&#xf6f9;" horiz-adv-x="430" 
d="M20 276h53v194h73v-194h114v-63h-114v-144h267v-69h-340v213h-53v63z" />
    <glyph glyph-name="OEsmall" unicode="&#xf6fa;" horiz-adv-x="810" 
d="M466 400v-124h240v-70h-240v-137h300v-69h-366v19q-38 -29 -105 -29h-66q-67 0 -111.5 33.5t-44.5 113.5v195q0 81 44.5 114.5t111.5 33.5h66q67 0 105 -29v19h366v-70h-300zM231 59h77q85 0 85 91v169q0 90 -86 90h-75q-86 0 -86 -90v-169q0 -91 85 -91z" />
    <glyph glyph-name="Ogoneksmall" unicode="&#xf6fb;" horiz-adv-x="293" 
d="M109 0h35q-16 -40 -16 -70.5t19 -37.5q15 -5 30.5 -4.5t26.5 3.5l11 3q1 -1 2 -2.5t2 -2.5l-4 -51q-5 -1 -13.5 -3t-32.5 -4.5t-38 1.5q-30 6 -43 26t-10 47t11 51t20 44z" />
    <glyph glyph-name="Ringsmall" unicode="&#xf6fc;" horiz-adv-x="344" 
d="M182 540h-21q-85 0 -85 71v42q0 71 85 71h21q85 0 85 -71v-42q0 -71 -85 -71zM119 649v-35q0 -35 42 -35h21q18 -1 30 8t12 27v35q0 34 -43 34h-20q-42 0 -42 -34z" />
    <glyph glyph-name="Scaronsmall" unicode="&#xf6fd;" horiz-adv-x="510" 
d="M71 62l7 7q105 -10 168 -10q26 0 44.5 2t39.5 8.5t32 22.5t11 40q0 21 -7.5 35.5t-17.5 22t-30.5 11t-34.5 4t-42 0.5q-36 0 -63.5 5t-55.5 18t-43.5 42.5t-15.5 72.5q0 137 172 137q37 0 81.5 -2.5t71.5 -5.5l26 -2v-63l-7 -7q-89 10 -152 10q-57 0 -88 -13t-31 -54
q0 -20 7.5 -33t16.5 -19.5t30 -10t36 -4t47 -0.5q84 0 128.5 -30.5t44.5 -111.5q0 -144 -180 -144q-37 0 -85.5 2.5t-78.5 5.5l-31 2v62zM293 530h-65l-108 136h72l69 -85l68 85h72z" />
    <glyph glyph-name="Tildesmall" unicode="&#xf6fe;" horiz-adv-x="446" 
d="M224 568q-27 15 -43 21t-29 2t-19.5 -9.5t-20.5 -21.5l-42 30q27 51 74 59.5t88 -16.5q15 -8 25.5 -12.5t19.5 -5t14 -1.5t12 4.5t9.5 7.5t10.5 11.5t11 13.5l38 -33q-52 -99 -148 -50z" />
    <glyph glyph-name="Zcaronsmall" unicode="&#xf6ff;" horiz-adv-x="490" 
d="M434 470v-69l-292 -332l304 1v-70h-403v68l292 332l-282 -1v71h381zM283 530h-65l-108 136h72l69 -85l68 85h72z" />
    <glyph glyph-name="exclamsmall" unicode="&#xf721;" horiz-adv-x="210" 
d="M68 270v200h73v-200l-7 -152h-59zM139 83v-83h-69v83h69z" />
    <glyph glyph-name="dollaroldstyle" unicode="&#xf724;" horiz-adv-x="530" 
d="M81 62l7 7q105 -10 168 -10q26 0 44.5 2t39.5 8.5t32 22.5t11 40q0 21 -8.5 35.5t-19.5 22t-32.5 11t-34.5 4t-39 0.5h-9q-167 0 -167 138q0 130 153 136v111h63v-111l135 -9v-63l-7 -7q-89 10 -152 10q-57 0 -88 -13t-31 -54q0 -20 7.5 -33t16.5 -19.5t30 -10t36 -4
t47 -0.5q84 0 128.5 -30.5t44.5 -111.5q0 -136 -160 -143v-111h-63v111l-152 9v62z" />
    <glyph glyph-name="ampersandsmall" unicode="&#xf726;" horiz-adv-x="770" 
d="M470 203h-255q-30 0 -49.5 -16.5t-19.5 -48.5v-11q0 -68 115 -68q28 0 68.5 2.5t66.5 4.5l27 3l7 -7v-62q-100 -10 -183 -10q-174 0 -174 130v13q0 79 77 105q-67 26 -67 102v9q0 131 177 131q96 0 176 -10v-63l-7 -7q-98 10 -161 10q-43 0 -77.5 -15.5t-34.5 -52.5v-11
q0 -65 63 -65h251v94h73v-94h116v-63h-116v-80q0 -39 16 -53t46 -14l57 5l7 -7v-55q-33 -9 -76 -9q-56 0 -89.5 29.5t-33.5 90.5v93z" />
    <glyph glyph-name="zerooldstyle" unicode="&#xf730;" horiz-adv-x="540" 
d="M231 59h77q85 0 85 91v169q0 90 -86 90h-75q-86 0 -86 -90v-169q0 -91 85 -91zM310 -10h-81q-67 0 -111.5 33.5t-44.5 113.5v195q0 81 44.5 114.5t111.5 33.5h81q67 0 111.5 -33.5t44.5 -114.5v-195q0 -80 -44.5 -113.5t-111.5 -33.5z" />
    <glyph glyph-name="oneoldstyle" unicode="&#xf731;" horiz-adv-x="390" 
d="M336 66v-66h-283v66h105v337h-105v67h178v-404h105z" />
    <glyph glyph-name="twooldstyle" unicode="&#xf732;" horiz-adv-x="530" 
d="M73 0v128q0 131 178 131q65 0 98.5 14.5t33.5 61.5v6q0 41 -32 55t-87 14q-28 0 -71.5 -2.5t-72.5 -5.5l-30 -2l-7 7v63q118 10 201 10q32 0 59.5 -6t54.5 -20t42.5 -42.5t15.5 -68.5v-17q0 -53 -29 -85.5t-64.5 -42.5t-79.5 -10q-34 0 -54 -1.5t-41.5 -8.5t-31.5 -22.5
t-10 -40.5v-46h300v-69h-373z" />
    <glyph glyph-name="threeoldstyle" unicode="&#xf733;" 
d="M78 130v69h138q25 0 38.5 0.5t35.5 5t34 12.5t21 25t8 41v45q0 82 -122 82q-28 0 -70.5 -2.5t-71.5 -5.5l-29 -2l-7 7v63q115 10 198 10q175 0 175 -136v-67q0 -83 -72 -113q72 -27 72 -112v-97q0 -135 -178 -135q-37 0 -85.5 2.5t-78.5 5.5l-31 2v62l7 7
q105 -10 168 -10q125 0 125 82v75q0 24 -9 41t-20.5 25t-34 12.5t-36 5t-38.5 0.5h-137z" />
    <glyph glyph-name="fouroldstyle" unicode="&#xf734;" horiz-adv-x="550" 
d="M338 0h-305v61l293 414h85v-405h75v-70h-75v-170h-73v170zM118 70h220v307z" />
    <glyph glyph-name="fiveoldstyle" unicode="&#xf735;" horiz-adv-x="520" 
d="M241 138h-158v332h353v-67h-280v-194h117q44 0 79.5 -9.5t64.5 -41.5t29 -85v-116q0 -40 -15.5 -68.5t-42.5 -42.5t-54.5 -20t-59.5 -6q-37 0 -87 2.5t-82 5.5l-32 2v62l7 7q111 -10 174 -10q119 0 119 74v96q0 47 -34 63t-98 16z" />
    <glyph glyph-name="sixoldstyle" unicode="&#xf736;" horiz-adv-x="530" 
d="M73 137v397q0 52 29 84.5t65 42t80 9.5q37 0 86.5 -2.5t80.5 -5.5l32 -2v-63l-7 -7q1 0 -32.5 2.5t-77.5 5t-63 2.5q-120 0 -120 -86v-136q33 28 89 28h65q67 0 111.5 -33.5t44.5 -113.5v-122q0 -80 -44.5 -113.5t-111.5 -33.5h-71q-67 0 -111.5 33.5t-44.5 113.5z
M297 336h-65q-86 0 -86 -90v-96q0 -91 85 -91h67q85 0 85 91v96q0 90 -86 90z" />
    <glyph glyph-name="sevenoldstyle" unicode="&#xf737;" horiz-adv-x="475" 
d="M431 398l-246 -568h-85l248 570h-305v70h388v-72z" />
    <glyph glyph-name="eightoldstyle" unicode="&#xf738;" horiz-adv-x="530" 
d="M265 600q-119 0 -119 -82v-55q0 -29 9 -47t27.5 -25.5t34.5 -9.5t43 -2q26 0 42.5 2t34.5 9.5t27 25.5t9 47v55q0 82 -108 82zM281 -10h-54q-69 0 -116.5 31t-47.5 107v104q0 83 75 112q-65 27 -65 113v74q0 76 47.5 107.5t116.5 31.5h45q69 0 116.5 -31.5t47.5 -107.5
v-74q0 -85 -65 -113q75 -29 75 -112v-104q0 -138 -175 -138zM243 59h33q107 0 107 82v85q0 29 -10 47t-30.5 25.5t-37.5 9.5t-45 2q-23 0 -36.5 -1t-32 -5.5t-29 -12.5t-18.5 -24.5t-8 -40.5v-85q0 -82 107 -82z" />
    <glyph glyph-name="nineoldstyle" unicode="&#xf739;" horiz-adv-x="530" 
d="M456 332v-377q0 -40 -16 -68t-43 -42t-54.5 -19.5t-59.5 -5.5q-37 0 -87 2.5t-82 5.5l-31 2v62l7 7q-1 0 32.5 -2.5t77.5 -5t63 -2.5q120 0 120 86v136q-33 -28 -89 -28h-65q-67 0 -111.5 33.5t-44.5 113.5v102q0 81 44.5 114.5t111.5 33.5h71q67 0 111.5 -33.5
t44.5 -114.5zM232 153h65q86 0 86 90v76q0 91 -85 91h-67q-85 0 -85 -91v-76q0 -90 86 -90z" />
    <glyph glyph-name="questionsmall" unicode="&#xf73f;" 
d="M195 133v-15h-73v15q0 80 34.5 111.5t100.5 31.5q58 0 77.5 16t19.5 55q0 63 -119 63q-28 0 -66.5 -2.5t-62.5 -5.5l-25 -2l-7 7v63q87 10 170 10q182 0 182 -120v-19q0 -40 -12 -68t-32.5 -41t-40.5 -18.5t-44 -5.5q-56 0 -79 -13.5t-23 -61.5zM194 83v-83h-70v83h70z
" />
    <glyph glyph-name="Gravesmall" unicode="&#xf760;" horiz-adv-x="320" 
d="M246 566l-36 -30l-137 134l55 49z" />
    <glyph glyph-name="Asmall" unicode="&#xf761;" horiz-adv-x="510" 
d="M198 475h100l175 -475h-86l-47 131h-186l-46 -131h-85zM248 403l-73 -202h145z" />
    <glyph glyph-name="Bsmall" unicode="&#xf762;" horiz-adv-x="530" 
d="M466 133v-6q0 -41 -14.5 -68.5t-41 -39t-51.5 -15.5t-59 -4h-227v470h217q34 0 59 -4t51.5 -16t41 -39t14.5 -68v-6q0 -73 -67 -99q77 -26 77 -105zM301 200h-155v-131h152q21 0 34 1.5t29 7t24 19t8 34.5v5q0 28 -15 43t-32 18t-45 3zM146 269h150q44 0 65.5 12t21.5 51
v5q0 28 -16 43t-33 17.5t-46 2.5h-142v-131z" />
    <glyph glyph-name="Csmall" unicode="&#xf763;" horiz-adv-x="480" 
d="M436 407l-7 -7q-98 10 -161 10q-35 0 -59 -5t-43.5 -24t-19.5 -53v-187q0 -34 19.5 -53t43.5 -24t59 -5q28 0 68 2.5t66 4.5l27 3l7 -7v-62q-105 -10 -188 -10q-175 0 -175 132v226q0 132 175 132q37 0 84 -2.5t76 -5.5l28 -2v-63z" />
    <glyph glyph-name="Dsmall" unicode="&#xf764;" horiz-adv-x="540" 
d="M393 176v117q0 53 -31 80t-82 27h-134v-331h134q113 0 113 107zM466 300v-130q0 -170 -180 -170h-213v470h213q180 0 180 -170z" />
    <glyph glyph-name="Esmall" unicode="&#xf765;" horiz-adv-x="510" 
d="M146 400v-124h240v-70h-240v-137h300v-69h-373v470h373v-70h-300z" />
    <glyph glyph-name="Fsmall" unicode="&#xf766;" horiz-adv-x="470" 
d="M146 400v-130h240v-70h-240v-200h-73v470h373v-70h-300z" />
    <glyph glyph-name="Gsmall" unicode="&#xf767;" horiz-adv-x="520" 
d="M296 268h160v-268q-115 -10 -198 -10q-33 0 -62 5.5t-58.5 18.5t-47 40.5t-17.5 67.5v226q0 132 179 132q37 0 83 -2.5t73 -5.5l28 -2v-63l-7 -7q-95 10 -158 10q-125 0 -125 -82v-187q0 -82 132 -82q57 0 105 5v137h-80l-7 7v60z" />
    <glyph glyph-name="Hsmall" unicode="&#xf768;" horiz-adv-x="540" 
d="M146 470v-191h247v191h73v-470h-73v210h-247v-210h-73v470h73z" />
    <glyph glyph-name="Ismall" unicode="&#xf769;" horiz-adv-x="220" 
d="M73 470h73v-470h-73v470z" />
    <glyph glyph-name="Jsmall" unicode="&#xf76a;" horiz-adv-x="320" 
d="M175 128v342h73v-348q0 -66 -36.5 -99t-97.5 -33l-98 8v59l7 7q47 -5 80 -5q72 0 72 69z" />
    <glyph glyph-name="Ksmall" unicode="&#xf76b;" horiz-adv-x="533" 
d="M146 470v-239l244 239h96l-201 -202l217 -268h-99l-175 218l-82 -78v-140h-73v470h73z" />
    <glyph glyph-name="Lsmall" unicode="&#xf76c;" horiz-adv-x="430" 
d="M413 69v-69h-340v470h73v-401h267z" />
    <glyph glyph-name="Msmall" unicode="&#xf76d;" horiz-adv-x="650" 
d="M73 470h93l159 -344l158 344h93v-470h-73v345l-144 -315h-69l-144 315v-345h-73v470z" />
    <glyph glyph-name="Nsmall" unicode="&#xf76e;" horiz-adv-x="550" 
d="M403 470h73v-470h-93l-237 358v-358h-73v470h86l244 -369v369z" />
    <glyph glyph-name="Osmall" unicode="&#xf76f;" horiz-adv-x="540" 
d="M231 59h77q85 0 85 91v169q0 90 -86 90h-75q-86 0 -86 -90v-169q0 -91 85 -91zM310 -10h-81q-67 0 -111.5 33.5t-44.5 113.5v195q0 81 44.5 114.5t111.5 33.5h81q67 0 111.5 -33.5t44.5 -114.5v-195q0 -80 -44.5 -113.5t-111.5 -33.5z" />
    <glyph glyph-name="Psmall" unicode="&#xf770;" horiz-adv-x="520" 
d="M307 165h-161v-165h-73v470h234q159 0 159 -139v-28q0 -138 -159 -138zM146 234h157q44 0 67 15t23 58v21q0 43 -24.5 57.5t-66.5 14.5h-156v-166z" />
    <glyph glyph-name="Qsmall" unicode="&#xf771;" horiz-adv-x="540" 
d="M242 -10h-13q-67 0 -111.5 33.5t-44.5 113.5v195q0 81 44.5 114.5t111.5 33.5h81q67 0 111.5 -33.5t44.5 -114.5v-195q-1 -147 -168 -147q-5 -38 6 -63t39 -25h82l7 -7v-55h-126q-37 0 -55 26t-16 59t7 65zM231 59h77q85 0 85 91v169q0 90 -86 90h-75q-86 0 -86 -90v-169
q0 -91 85 -91z" />
    <glyph glyph-name="Rsmall" unicode="&#xf772;" horiz-adv-x="555" 
d="M258 165h-112v-165h-73v470h234q70 0 114.5 -33.5t44.5 -111.5v-15q0 -123 -118 -141l143 -169h-98zM146 234h157q44 0 67 15t23 58v21q0 43 -24.5 57.5t-66.5 14.5h-156v-166z" />
    <glyph glyph-name="Ssmall" unicode="&#xf773;" horiz-adv-x="510" 
d="M71 62l7 7q105 -10 168 -10q26 0 44.5 2t39.5 8.5t32 22.5t11 40q0 21 -7.5 35.5t-17.5 22t-30.5 11t-34.5 4t-42 0.5q-36 0 -63.5 5t-55.5 18t-43.5 42.5t-15.5 72.5q0 137 172 137q37 0 81.5 -2.5t71.5 -5.5l26 -2v-63l-7 -7q-89 10 -152 10q-57 0 -88 -13t-31 -54
q0 -20 7.5 -33t16.5 -19.5t30 -10t36 -4t47 -0.5q84 0 128.5 -30.5t44.5 -111.5q0 -144 -180 -144q-37 0 -85.5 2.5t-78.5 5.5l-31 2v62z" />
    <glyph glyph-name="Tsmall" unicode="&#xf774;" horiz-adv-x="440" 
d="M419 400h-163v-400h-73v400h-163v70h399v-70z" />
    <glyph glyph-name="Usmall" unicode="&#xf775;" horiz-adv-x="540" 
d="M393 470h73v-333q0 -80 -44.5 -113.5t-111.5 -33.5h-81q-67 0 -111.5 33.5t-44.5 113.5v333h73v-320q0 -91 85 -91h77q85 0 85 91v320z" />
    <glyph glyph-name="Vsmall" unicode="&#xf776;" horiz-adv-x="490" 
d="M295 -5h-101l-171 475h83l139 -397l138 397h83z" />
    <glyph glyph-name="Wsmall" unicode="&#xf777;" horiz-adv-x="720" 
d="M266 -5h-90l-153 475h83l119 -384l138 384h81l-54 -143l104 -241l119 384h83l-156 -475h-89l-97 233z" />
    <glyph glyph-name="Xsmall" unicode="&#xf778;" horiz-adv-x="520" 
d="M488 0h-93l-132 174l-133 -174h-92l177 235l-177 235h92l133 -175l133 175h92l-177 -235z" />
    <glyph glyph-name="Ysmall" unicode="&#xf779;" horiz-adv-x="470" 
d="M13 470h84l138 -231l137 231h84l-185 -308v-162h-73v162z" />
    <glyph glyph-name="Zsmall" unicode="&#xf77a;" horiz-adv-x="490" 
d="M434 470v-69l-292 -332l304 1v-70h-403v68l292 332l-282 -1v71h381z" />
    <glyph glyph-name="exclamdownsmall" unicode="&#xf7a1;" horiz-adv-x="210" 
d="M68 0v200l7 151h59l7 -151v-200h-73zM139 470v-84h-69v84h69z" />
    <glyph glyph-name="centoldstyle" unicode="&#xf7a2;" 
d="M73 125v223q0 126 158 132v110h63v-112l132 -8v-63l-7 -7q-91 10 -154 10q-55 0 -87 -16.5t-32 -65.5v-183q0 -86 119 -86q28 0 66.5 2.5t62.5 4.5l25 3l7 -7v-62q-55 -5 -125 -8v-112h-63v110q-165 4 -165 135z" />
    <glyph glyph-name="Dieresissmall" unicode="&#xf7a8;" horiz-adv-x="420" 
d="M161 648v-88h-88v88h88zM346 648v-88h-88v88h88z" />
    <glyph glyph-name="Macronsmall" unicode="&#xf7af;" horiz-adv-x="440" 
d="M360 633v-63h-280v63h280z" />
    <glyph glyph-name="Acutesmall" unicode="&#xf7b4;" horiz-adv-x="320" 
d="M109 536l-36 30l118 153l55 -49z" />
    <glyph glyph-name="Cedillasmall" unicode="&#xf7b8;" horiz-adv-x="320" 
d="M123 -135l6 6q24 -3 51 -3q28 0 28 27q0 30 -45 30v75h55v-45q58 -10 58 -63q0 -78 -86 -78l-67 5v46z" />
    <glyph glyph-name="questiondownsmall" unicode="&#xf7bf;" 
d="M305 337v15h73v-15q0 -80 -34.5 -111.5t-100.5 -31.5q-58 0 -77.5 -16t-19.5 -55q0 -63 119 -63q28 0 66.5 2.5t62.5 5.5l25 2l7 -7v-63q-87 -10 -170 -10q-182 0 -182 120v19q0 40 12 68t32.5 41t40.5 18.5t44 5.5q56 0 79 13.5t23 61.5zM306 387v83h70v-83h-70z" />
    <glyph glyph-name="Agravesmall" unicode="&#xf7e0;" horiz-adv-x="510" 
d="M280 566l-36 -30l-137 134l55 49zM198 475h100l175 -475h-86l-47 131h-186l-46 -131h-85zM248 403l-73 -202h145z" />
    <glyph glyph-name="Aacutesmall" unicode="&#xf7e1;" horiz-adv-x="510" 
d="M262 536l-36 30l118 153l55 -49zM198 475h100l175 -475h-86l-47 131h-186l-46 -131h-85zM248 403l-73 -202h145z" />
    <glyph glyph-name="Acircumflexsmall" unicode="&#xf7e2;" horiz-adv-x="510" 
d="M221 676h65l108 -136h-72l-68 84l-69 -84h-72zM198 475h100l175 -475h-86l-47 131h-186l-46 -131h-85zM248 403l-73 -202h145z" />
    <glyph glyph-name="Atildesmall" unicode="&#xf7e3;" horiz-adv-x="510" 
d="M261 568q-27 15 -43 21t-29 2t-19.5 -9.5t-20.5 -21.5l-42 30q27 51 74 59.5t88 -16.5q15 -8 25.5 -12.5t19.5 -5t14 -1.5t12 4.5t9.5 7.5t10.5 11.5t11 13.5l38 -33q-52 -99 -148 -50zM198 475h100l175 -475h-86l-47 131h-186l-46 -131h-85zM248 403l-73 -202h145z" />
    <glyph glyph-name="Adieresissmall" unicode="&#xf7e4;" horiz-adv-x="510" 
d="M205 648v-88h-88v88h88zM390 648v-88h-88v88h88zM198 475h100l175 -475h-86l-47 131h-186l-46 -131h-85zM248 403l-73 -202h145z" />
    <glyph glyph-name="Aringsmall" unicode="&#xf7e5;" horiz-adv-x="510" 
d="M265 540h-21q-85 0 -85 71v42q0 71 85 71h21q85 0 85 -71v-42q0 -71 -85 -71zM202 649v-35q0 -35 42 -35h21q18 -1 30 8t12 27v35q0 34 -43 34h-20q-42 0 -42 -34zM198 475h100l175 -475h-86l-47 131h-186l-46 -131h-85zM248 403l-73 -202h145z" />
    <glyph glyph-name="AEsmall" unicode="&#xf7e6;" horiz-adv-x="790" 
d="M426 400v-124h240v-70h-240v-137h300v-69h-373v206h-172l-73 -206h-85l173 470h530v-70h-300zM202 276h151v124h-107z" />
    <glyph glyph-name="Ccedillasmall" unicode="&#xf7e7;" horiz-adv-x="480" 
d="M193 -135l6 6q37 -5 54 -3q27 2 27 27q0 30 -47 30v66q-160 4 -160 131v226q0 132 175 132q37 0 84 -2.5t76 -5.5l28 -2v-63l-7 -7q-98 10 -161 10q-35 0 -59 -5t-43.5 -24t-19.5 -53v-187q0 -34 19.5 -53t43.5 -24t59 -5q28 0 68 2.5t66 4.5l27 3l7 -7v-62
q-75 -6 -148 -9v-36q58 -10 58 -63q0 -78 -86 -78l-67 5v46z" />
    <glyph glyph-name="Egravesmall" unicode="&#xf7e8;" horiz-adv-x="510" 
d="M146 400v-124h240v-70h-240v-137h300v-69h-373v470h373v-70h-300zM292 566l-36 -30l-137 134l55 49z" />
    <glyph glyph-name="Eacutesmall" unicode="&#xf7e9;" horiz-adv-x="510" 
d="M146 400v-124h240v-70h-240v-137h300v-69h-373v470h373v-70h-300zM253 536l-36 30l118 153l55 -49z" />
    <glyph glyph-name="Ecircumflexsmall" unicode="&#xf7ea;" horiz-adv-x="510" 
d="M146 400v-124h240v-70h-240v-137h300v-69h-373v470h373v-70h-300zM233 676h65l108 -136h-72l-68 84l-69 -84h-72z" />
    <glyph glyph-name="Edieresissmall" unicode="&#xf7eb;" horiz-adv-x="510" 
d="M146 400v-124h240v-70h-240v-137h300v-69h-373v470h373v-70h-300zM215 648v-88h-88v88h88zM400 648v-88h-88v88h88z" />
    <glyph glyph-name="Igravesmall" unicode="&#xf7ec;" horiz-adv-x="219" 
d="M72 470h73v-470h-73v470zM127 566l-36 -30l-137 134l55 49z" />
    <glyph glyph-name="Iacutesmall" unicode="&#xf7ed;" horiz-adv-x="219" 
d="M73 470h73v-470h-73v470zM118 536l-36 30l118 153l55 -49z" />
    <glyph glyph-name="Icircumflexsmall" unicode="&#xf7ee;" horiz-adv-x="212" 
d="M71 470h73v-470h-73v470zM75 676h65l108 -136h-72l-68 84l-69 -84h-72z" />
    <glyph glyph-name="Idieresissmall" unicode="&#xf7ef;" horiz-adv-x="206" 
d="M69 470h73v-470h-73v470zM53 648v-88h-88v88h88zM238 648v-88h-88v88h88z" />
    <glyph glyph-name="Ethsmall" unicode="&#xf7f0;" horiz-adv-x="540" 
d="M466 300v-130q0 -170 -180 -170h-213v213h-53v63h53v194h213q180 0 180 -170zM146 276h114v-63h-114v-144h134q113 0 113 107v117q0 107 -113 107h-134v-124z" />
    <glyph glyph-name="Ntildesmall" unicode="&#xf7f1;" horiz-adv-x="550" 
d="M403 470h73v-470h-93l-237 358v-358h-73v470h86l244 -369v369zM278 568q-27 15 -43 21t-29 2t-19.5 -9.5t-20.5 -21.5l-42 30q27 51 74 59.5t88 -16.5q15 -8 25.5 -12.5t19.5 -5t14 -1.5t12 4.5t9.5 7.5t10.5 11.5t11 13.5l38 -33q-52 -99 -148 -50z" />
    <glyph glyph-name="Ogravesmall" unicode="&#xf7f2;" horiz-adv-x="540" 
d="M231 59h77q85 0 85 91v169q0 90 -86 90h-75q-86 0 -86 -90v-169q0 -91 85 -91zM310 -10h-81q-67 0 -111.5 33.5t-44.5 113.5v195q0 81 44.5 114.5t111.5 33.5h81q67 0 111.5 -33.5t44.5 -114.5v-195q0 -80 -44.5 -113.5t-111.5 -33.5zM294 566l-36 -30l-137 134l55 49z
" />
    <glyph glyph-name="Oacutesmall" unicode="&#xf7f3;" horiz-adv-x="540" 
d="M231 59h77q85 0 85 91v169q0 90 -86 90h-75q-86 0 -86 -90v-169q0 -91 85 -91zM310 -10h-81q-67 0 -111.5 33.5t-44.5 113.5v195q0 81 44.5 114.5t111.5 33.5h81q67 0 111.5 -33.5t44.5 -114.5v-195q0 -80 -44.5 -113.5t-111.5 -33.5zM279 536l-36 30l118 153l55 -49z
" />
    <glyph glyph-name="Ocircumflexsmall" unicode="&#xf7f4;" horiz-adv-x="540" 
d="M231 59h77q85 0 85 91v169q0 90 -86 90h-75q-86 0 -86 -90v-169q0 -91 85 -91zM310 -10h-81q-67 0 -111.5 33.5t-44.5 113.5v195q0 81 44.5 114.5t111.5 33.5h81q67 0 111.5 -33.5t44.5 -114.5v-195q0 -80 -44.5 -113.5t-111.5 -33.5zM247 676h65l108 -136h-72l-68 84
l-69 -84h-72z" />
    <glyph glyph-name="Otildesmall" unicode="&#xf7f5;" horiz-adv-x="540" 
d="M231 59h77q85 0 85 91v169q0 90 -86 90h-75q-86 0 -86 -90v-169q0 -91 85 -91zM310 -10h-81q-67 0 -111.5 33.5t-44.5 113.5v195q0 81 44.5 114.5t111.5 33.5h81q67 0 111.5 -33.5t44.5 -114.5v-195q0 -80 -44.5 -113.5t-111.5 -33.5zM272 568q-27 15 -43 21t-29 2
t-19.5 -9.5t-20.5 -21.5l-42 30q27 51 74 59.5t88 -16.5q15 -8 25.5 -12.5t19.5 -5t14 -1.5t12 4.5t9.5 7.5t10.5 11.5t11 13.5l38 -33q-52 -99 -148 -50z" />
    <glyph glyph-name="Odieresissmall" unicode="&#xf7f6;" horiz-adv-x="540" 
d="M231 59h77q85 0 85 91v169q0 90 -86 90h-75q-86 0 -86 -90v-169q0 -91 85 -91zM310 -10h-81q-67 0 -111.5 33.5t-44.5 113.5v195q0 81 44.5 114.5t111.5 33.5h81q67 0 111.5 -33.5t44.5 -114.5v-195q0 -80 -44.5 -113.5t-111.5 -33.5zM229 648v-88h-88v88h88zM414 648
v-88h-88v88h88z" />
    <glyph glyph-name="Oslashsmall" unicode="&#xf7f8;" horiz-adv-x="540" 
d="M310 -10h-81q-67 0 -111.5 33.5t-44.5 113.5v195q0 81 44.5 114.5t111.5 33.5h81q67 0 111.5 -33.5t44.5 -114.5v-195q0 -80 -44.5 -113.5t-111.5 -33.5zM231 59h77q85 0 85 91v60h-247v-60q0 -91 85 -91zM393 273v46q0 90 -86 90h-75q-86 0 -86 -90v-46h247z" />
    <glyph glyph-name="Ugravesmall" unicode="&#xf7f9;" horiz-adv-x="540" 
d="M393 470h73v-333q0 -80 -44.5 -113.5t-111.5 -33.5h-81q-67 0 -111.5 33.5t-44.5 113.5v333h73v-320q0 -91 85 -91h77q85 0 85 91v320zM297 566l-36 -30l-137 134l55 49z" />
    <glyph glyph-name="Uacutesmall" unicode="&#xf7fa;" horiz-adv-x="540" 
d="M393 470h73v-333q0 -80 -44.5 -113.5t-111.5 -33.5h-81q-67 0 -111.5 33.5t-44.5 113.5v333h73v-320q0 -91 85 -91h77q85 0 85 91v320zM275 527l-36 30l118 153l55 -49z" />
    <glyph glyph-name="Ucircumflexsmall" unicode="&#xf7fb;" horiz-adv-x="540" 
d="M393 470h73v-333q0 -80 -44.5 -113.5t-111.5 -33.5h-81q-67 0 -111.5 33.5t-44.5 113.5v333h73v-320q0 -91 85 -91h77q85 0 85 91v320zM237 676h65l108 -136h-72l-68 84l-69 -84h-72z" />
    <glyph glyph-name="Udieresissmall" unicode="&#xf7fc;" horiz-adv-x="540" 
d="M393 470h73v-333q0 -80 -44.5 -113.5t-111.5 -33.5h-81q-67 0 -111.5 33.5t-44.5 113.5v333h73v-320q0 -91 85 -91h77q85 0 85 91v320zM219 648v-88h-88v88h88zM404 648v-88h-88v88h88z" />
    <glyph glyph-name="Yacutesmall" unicode="&#xf7fd;" horiz-adv-x="470" 
d="M13 470h84l138 -231l137 231h84l-185 -308v-162h-73v162zM252 536l-36 30l118 153l55 -49z" />
    <glyph glyph-name="Thornsmall" unicode="&#xf7fe;" horiz-adv-x="520" 
d="M466 235q0 -82 -44.5 -116t-111.5 -34h-164v-85h-73v470h73v-84h164q67 0 111.5 -34t44.5 -117zM393 235q0 81 -83 81h-164v-162h165q82 0 82 81z" />
    <glyph glyph-name="Ydieresissmall" unicode="&#xf7ff;" horiz-adv-x="470" 
d="M13 470h84l138 -231l137 231h84l-185 -308v-162h-73v162zM188 648v-88h-88v88h88zM373 648v-88h-88v88h88z" />
    <glyph glyph-name="longs_t" unicode="&#xfb05;" horiz-adv-x="601" 
d="M354 470v125q-67 8 -110 8q-94 0 -94 -67v-576q0 -75 -26 -107.5t-97 -32.5q-19 0 -38 2t-29 4l-9 3v56l7 7q24 -5 57 -5q62 0 62 67v582q0 43 15.5 71.5t44.5 41t57 17t67 4.5q72 -1 123 -10h43v-190h117v-64h-117v-283q0 -67 62 -67l58 5l7 -7v-55q-34 -9 -77 -9
q-58 0 -90.5 33.5t-32.5 99.5v283h-50v64h50z" />
    <glyph glyph-name="s_t" unicode="&#xfb06;" horiz-adv-x="786" 
d="M66 61l7 7l103 -9q21 -1 33 -1q28 0 46.5 2t37.5 9t28.5 22.5t9.5 39.5q0 21 -6.5 35.5t-16 22t-26.5 11.5t-29.5 4.5t-34.5 0.5q-81 0 -119.5 29.5t-38.5 108.5q0 39 12 66.5t34 41.5t46.5 20.5t57.5 8.5v10q0 65 29.5 102.5t107.5 37.5h266v-160h116v-64h-116v-283
q-1 -67 62 -67l57 5l7 -7v-55q-33 -9 -76 -9q-123 0 -123 133v283h-50v64h50v96h-191q-42 0 -57.5 -18.5t-15.5 -57.5v-12l100 -8v-62l-7 -7q-70 10 -133 10q-53 0 -78 -13t-25 -56q0 -20 6 -33.5t13.5 -20.5t26 -10.5t32 -4t42.5 -0.5q75 0 112.5 -31t37.5 -111
q0 -45 -14 -74.5t-40.5 -43t-52 -18.5t-60.5 -5q-37 0 -79.5 2.5t-66.5 5.5l-24 2v61z" />
    <glyph glyph-name="Breve" horiz-adv-x="400" 
d="M262 813h64q0 -57 -33 -86.5t-82 -29.5h-23q-49 0 -82 29.5t-33 86.5h64q0 -31 17 -47t42 -16h9q25 0 41 16t16 47z" />
    <glyph glyph-name="Cedilla" horiz-adv-x="320" 
d="M123 -135l6 6q24 -3 51 -3q28 0 28 27q0 30 -45 30v75h55v-45q58 -10 58 -63q0 -78 -86 -78l-67 5v46z" />
    <glyph glyph-name="Circumflex" horiz-adv-x="428" 
d="M181 826h65l108 -136h-72l-68 84l-69 -84h-72z" />
    <glyph glyph-name="commaaccent.cap" horiz-adv-x="230" 
d="M156 -40v-83l-10 -130h-36v130h-37v83h83z" />
    <glyph glyph-name="Dotaccent" horiz-adv-x="230" 
d="M166 803v-93h-93v93h93z" />
    <glyph glyph-name="Ogonek" horiz-adv-x="293" 
d="M109 0h35q-16 -40 -16 -70.5t19 -37.5q15 -5 30.5 -4.5t26.5 3.5l11 3q1 -1 2 -2.5t2 -2.5l-4 -51q-5 -1 -13.5 -3t-32.5 -4.5t-38 1.5q-30 6 -43 26t-10 47t11 51t20 44z" />
    <glyph glyph-name="Ring" horiz-adv-x="344" 
d="M182 690h-21q-85 0 -85 71v42q0 71 85 71h21q85 0 85 -71v-42q0 -71 -85 -71zM119 799v-35q0 -35 42 -35h21q18 -1 30 8t12 27v35q0 34 -43 34h-20q-42 0 -42 -34z" />
    <glyph glyph-name="Tilde" horiz-adv-x="446" 
d="M224 718q-27 15 -43 21t-29 2t-19.5 -9.5t-20.5 -21.5l-42 30q27 51 74 59.5t88 -16.5q15 -8 25.5 -12.5t19.5 -5t14 -1.5t12 4.5t9.5 7.5t10.5 11.5t11 13.5l38 -33q-52 -99 -148 -50z" />
    <glyph glyph-name="commaaccent.small" horiz-adv-x="230" 
d="M156 -40v-83l-10 -130h-36v130h-37v83h83z" />
    <glyph glyph-name="DieresisAcute.small" horiz-adv-x="480" 
d="M158 648v-88h-85v88h85zM406 648v-88h-85v88h85zM233 560l-41 15l63 183l71 -21z" />
    <glyph glyph-name="DieresisGrave.small" horiz-adv-x="480" 
d="M321 560v88h85v-88h-85zM73 560v88h85v-88h-85zM287 575l-41 -15l-93 177l71 21z" />
    <glyph glyph-name="dblGrave.small" horiz-adv-x="426" 
d="M352 560l-39 -20l-103 133l56 31zM216 560l-40 -20l-103 133l57 31z" />
    <glyph glyph-name="middot" horiz-adv-x="230" 
d="M163 284v-89h-90v89h90z" />
    <glyph glyph-name="Aogonek.small" horiz-adv-x="510" 
d="M413 0h-26l-47 131h-186l-46 -131h-85l175 475h100l175 -475h-25q-16 -40 -16 -70.5t19 -37.5q15 -5 30.5 -4.5t26.5 3.5l11 3q1 -1 2 -2.5t2 -2.5l-4 -51q-5 -1 -13.5 -3t-32.5 -4.5t-38 1.5q-30 6 -43 26t-10 47t11 51t20 44zM248 403l-73 -202h145z" />
    <glyph glyph-name="Dcroat.small" horiz-adv-x="540" 
d="M466 300v-130q0 -170 -180 -170h-213v213h-53v63h53v194h213q180 0 180 -170zM146 276h114v-63h-114v-144h134q113 0 113 107v117q0 107 -113 107h-134v-124z" />
    <glyph glyph-name="Eogonek.small" horiz-adv-x="510" 
d="M446 0h-172q-16 -40 -16 -70.5t19 -37.5q15 -5 30.5 -4.5t26.5 3.5l11 3q1 -1 2 -2.5t2 -2.5l-4 -51q-5 -1 -13.5 -3t-32.5 -4.5t-38 1.5q-30 6 -43 26t-10 47t11 51t20 44h-166v470h373v-70h-300v-124h240v-70h-240v-137h300v-69z" />
    <glyph glyph-name="Hbar.small" horiz-adv-x="540" 
d="M20 396h53v74h73v-74h247v74h73v-74h54v-56h-54v-340h-73v210h-247v-210h-73v340h-53v56zM146 279h247v61h-247v-61z" />
    <glyph glyph-name="Iogonek.small" horiz-adv-x="220" 
d="M92 0h-19v470h73v-470h-19q-16 -40 -16 -70.5t19 -37.5q15 -5 30.5 -4.5t26.5 3.5l11 3q0 -1 2 -2.5t2 -2.5l-4 -51q-5 -1 -13.5 -3t-32.5 -4.5t-38 1.5q-30 6 -43 26t-10 47t11 51t20 44z" />
    <glyph glyph-name="IJ.small" horiz-adv-x="561" 
d="M73 470h73v-470h-73v470zM416 128v342h73v-348q0 -66 -36.5 -99t-97.5 -33l-98 8v59l7 7q47 -5 80 -5q72 0 72 69z" />
    <glyph glyph-name="Scedilla.small" horiz-adv-x="510" 
d="M71 62l7 7q105 -10 168 -10q26 0 44.5 2t39.5 8.5t32 22.5t11 40q0 21 -7.5 35.5t-17.5 22t-30.5 11t-34.5 4t-42 0.5q-36 0 -63.5 5t-55.5 18t-43.5 42.5t-15.5 72.5q0 137 172 137q37 0 81.5 -2.5t71.5 -5.5l26 -2v-63l-7 -7q-89 10 -152 10q-57 0 -88 -13t-31 -54
q0 -20 7.5 -33t16.5 -19.5t30 -10t36 -4t47 -0.5q84 0 128.5 -30.5t44.5 -111.5q0 -45 -16 -75.5t-45.5 -44.5t-56 -19t-60.5 -5v-35q58 -10 58 -63q0 -78 -86 -78l-67 5v46l6 6q37 -5 54 -3q27 2 27 27q0 30 -47 30v66l-142 9v62z" />
    <glyph glyph-name="Tbar.small" horiz-adv-x="440" 
d="M95 266h88v134h-163v70h399v-70h-163v-134h89v-63h-89v-203h-73v203h-88v63z" />
    <glyph glyph-name="Uogonek.small" horiz-adv-x="540" 
d="M393 470h73v-333q0 -80 -44.5 -113.5t-111.5 -33.5h-26q-29 -83 8 -98q15 -5 30.5 -4.5t26.5 3.5l11 3q0 -1 2 -2.5t2 -2.5l-4 -51q-5 -1 -13.5 -3t-33 -4.5t-38.5 1.5q-28 5 -41 23.5t-12 43t7.5 47.5t17.5 44h-18q-67 0 -111.5 33.5t-44.5 113.5v333h73v-320
q0 -91 85 -91h77q85 0 85 91v320z" />
    <glyph glyph-name="a.end" horiz-adv-x="750" 
d="M340 0l-7 7l2 53h-4l-5 -7.5t-15.5 -16.5t-27 -21.5t-40 -17t-53.5 -7.5q-63 0 -100 30.5t-37 107.5q0 78 48 111.5t119 33.5h113v64q0 76 -102 76q-28 0 -61 -2.5t-52 -4.5l-20 -3l-7 7v60q70 10 153 10q162 0 162 -132v-289h194q38 0 61 18t22 57v81h67v-78
q0 -73 -36 -105t-109 -32h-265zM333 116v94h-85q-62 0 -92 -15.5t-30 -63.5q0 -75 87 -75q68 0 120 60z" />
    <glyph glyph-name="aacute.end" horiz-adv-x="750" 
d="M340 0l-7 7l2 53h-4l-5 -7.5t-15.5 -16.5t-27 -21.5t-40 -17t-53.5 -7.5q-63 0 -100 30.5t-37 107.5q0 78 48 111.5t119 33.5h113v64q0 76 -102 76q-28 0 -61 -2.5t-52 -4.5l-20 -3l-7 7v60q70 10 153 10q162 0 162 -132v-289h194q38 0 61 18t22 57v81h67v-78
q0 -73 -36 -105t-109 -32h-265zM333 116v94h-85q-62 0 -92 -15.5t-30 -63.5q0 -75 87 -75q68 0 120 60zM211 566l118 153l55 -49l-137 -134z" />
    <glyph glyph-name="abreve.end" horiz-adv-x="750" 
d="M340 0l-7 7l2 53h-4l-5 -7.5t-15.5 -16.5t-27 -21.5t-40 -17t-53.5 -7.5q-63 0 -100 30.5t-37 107.5q0 78 48 111.5t119 33.5h113v64q0 76 -102 76q-28 0 -61 -2.5t-52 -4.5l-20 -3l-7 7v60q70 10 153 10q162 0 162 -132v-289h194q38 0 61 18t22 57v81h67v-78
q0 -73 -36 -105t-109 -32h-265zM333 116v94h-85q-62 0 -92 -15.5t-30 -63.5q0 -75 87 -75q68 0 120 60zM323 663h64q0 -57 -33 -86.5t-82 -29.5h-23q-49 0 -82 29.5t-33 86.5h64q0 -31 17 -47t42 -16h9q26 0 41.5 16t15.5 47z" />
    <glyph glyph-name="acircumflex.end" horiz-adv-x="750" 
d="M340 0l-7 7l2 53h-4l-5 -7.5t-15.5 -16.5t-27 -21.5t-40 -17t-53.5 -7.5q-63 0 -100 30.5t-37 107.5q0 78 48 111.5t119 33.5h113v64q0 76 -102 76q-28 0 -61 -2.5t-52 -4.5l-20 -3l-7 7v60q70 10 153 10q162 0 162 -132v-289h194q38 0 61 18t22 57v81h67v-78
q0 -73 -36 -105t-109 -32h-265zM333 116v94h-85q-62 0 -92 -15.5t-30 -63.5q0 -75 87 -75q68 0 120 60zM226 676h65l108 -136h-72l-68 84l-69 -84h-72z" />
    <glyph glyph-name="adieresis.end" horiz-adv-x="750" 
d="M340 0l-7 7l2 53h-4l-5 -7.5t-15.5 -16.5t-27 -21.5t-40 -17t-53.5 -7.5q-63 0 -100 30.5t-37 107.5q0 78 48 111.5t119 33.5h113v64q0 76 -102 76q-28 0 -61 -2.5t-52 -4.5l-20 -3l-7 7v60q70 10 153 10q162 0 162 -132v-289h194q38 0 61 18t22 57v81h67v-78
q0 -73 -36 -105t-109 -32h-265zM333 116v94h-85q-62 0 -92 -15.5t-30 -63.5q0 -75 87 -75q68 0 120 60zM201 648v-88h-88v88h88zM386 648v-88h-88v88h88z" />
    <glyph glyph-name="agrave.end" horiz-adv-x="750" 
d="M340 0l-7 7l2 53h-4l-5 -7.5t-15.5 -16.5t-27 -21.5t-40 -17t-53.5 -7.5q-63 0 -100 30.5t-37 107.5q0 78 48 111.5t119 33.5h113v64q0 76 -102 76q-28 0 -61 -2.5t-52 -4.5l-20 -3l-7 7v60q70 10 153 10q162 0 162 -132v-289h194q38 0 61 18t22 57v81h67v-78
q0 -73 -36 -105t-109 -32h-265zM333 116v94h-85q-62 0 -92 -15.5t-30 -63.5q0 -75 87 -75q68 0 120 60zM291 566l-36 -30l-137 134l55 49z" />
    <glyph glyph-name="amacron.end" horiz-adv-x="750" 
d="M340 0l-7 7l2 53h-4l-5 -7.5t-15.5 -16.5t-27 -21.5t-40 -17t-53.5 -7.5q-63 0 -100 30.5t-37 107.5q0 78 48 111.5t119 33.5h113v64q0 76 -102 76q-28 0 -61 -2.5t-52 -4.5l-20 -3l-7 7v60q70 10 153 10q162 0 162 -132v-289h194q38 0 61 18t22 57v81h67v-78
q0 -73 -36 -105t-109 -32h-265zM333 116v94h-85q-62 0 -92 -15.5t-30 -63.5q0 -75 87 -75q68 0 120 60zM390 613v-63h-280v63h280z" />
    <glyph glyph-name="aogonek.end" horiz-adv-x="750" 
d="M340 0l-7 7l2 53h-4l-5 -7.5t-15.5 -16.5t-27 -21.5t-40 -17t-53.5 -7.5q-63 0 -100 30.5t-37 107.5q0 78 48 111.5t119 33.5h113v64q0 76 -102 76q-28 0 -61 -2.5t-52 -4.5l-20 -3l-7 7v60q70 10 153 10q162 0 162 -132v-289h194q38 0 61 18t22 57v81h67v-78
q0 -73 -36 -105t-109 -32h-207q-16 -40 -16 -70.5t19 -37.5q15 -5 30.5 -4.5t26.5 3.5l11 3q1 -1 2 -2.5t2 -2.5l-4 -51q-5 -1 -13.5 -3t-32.5 -4.5t-38 1.5q-30 6 -43 26t-10 47t11 51t20 44h-23zM333 116v94h-85q-62 0 -92 -15.5t-30 -63.5q0 -75 87 -75q68 0 120 60z" />
    <glyph glyph-name="aring.end" horiz-adv-x="750" 
d="M340 0l-7 7l2 53h-4l-5 -7.5t-15.5 -16.5t-27 -21.5t-40 -17t-53.5 -7.5q-63 0 -100 30.5t-37 107.5q0 78 48 111.5t119 33.5h113v64q0 76 -102 76q-28 0 -61 -2.5t-52 -4.5l-20 -3l-7 7v60q70 10 153 10q162 0 162 -132v-289h194q38 0 61 18t22 57v81h67v-78
q0 -73 -36 -105t-109 -32h-265zM333 116v94h-85q-62 0 -92 -15.5t-30 -63.5q0 -75 87 -75q68 0 120 60zM263 540h-21q-85 0 -85 71v42q0 71 85 71h21q85 0 85 -71v-42q0 -71 -85 -71zM200 649v-35q0 -35 42 -35h21q18 -1 30 8t12 27v35q0 34 -43 34h-20q-42 0 -42 -34z" />
    <glyph glyph-name="atilde.end" horiz-adv-x="750" 
d="M340 0l-7 7l2 53h-4l-5 -7.5t-15.5 -16.5t-27 -21.5t-40 -17t-53.5 -7.5q-63 0 -100 30.5t-37 107.5q0 78 48 111.5t119 33.5h113v64q0 76 -102 76q-28 0 -61 -2.5t-52 -4.5l-20 -3l-7 7v60q70 10 153 10q162 0 162 -132v-289h194q38 0 61 18t22 57v81h67v-78
q0 -73 -36 -105t-109 -32h-265zM333 116v94h-85q-62 0 -92 -15.5t-30 -63.5q0 -75 87 -75q68 0 120 60zM251 568q-27 15 -43 21t-29 2t-19.5 -9.5t-20.5 -21.5l-42 30q27 51 74 59.5t88 -16.5q15 -8 25.5 -12.5t19.5 -5t14 -1.5t12 4.5t9.5 7.5t10.5 11.5t11 13.5l38 -33
q-52 -99 -148 -50z" />
    <glyph glyph-name="c_t" horiz-adv-x="750" 
d="M376 408l-7 -7q5 2 -59 7q-44 3 -64 3q-51 0 -80.5 -16t-29.5 -65v-191q0 -49 29.5 -65t80.5 -16q28 0 59 2.5t47 5.5l17 2l7 -7v-61q-63 -10 -146 -10q-167 0 -167 135v219q0 131 154 135v11q0 65 29.5 102.5t107.5 37.5h222v-160h117v-64h-117v-283q-1 -67 62 -67l58 5
l7 -7v-55q-34 -9 -77 -9q-123 0 -123 133v283h-50v64h50v96h-148q-41 0 -56.5 -22t-15.5 -64v-2l93 -8v-62z" />
    <glyph glyph-name="d.end" horiz-adv-x="755" 
d="M338 475v185h73v-601h194q38 0 61 18t22 57v81h67v-78q0 -73 -36 -105t-109 -32h-265l-7 7l2 53h-4l-5 -7.5t-15.5 -16.5t-27 -21.5t-40 -17t-53.5 -7.5q-64 0 -98 30t-34 108v210q0 40 14.5 69t40 44.5t53.5 22t60 6.5t107 -5zM338 121v286q-39 4 -104 4q-98 -4 -98 -84
v-196q-1 -43 19.5 -59t59.5 -16q66 0 123 65z" />
    <glyph glyph-name="dcaron.end" horiz-adv-x="755" 
d="M338 475v185h73v-601h194q38 0 61 18t22 57v81h67v-78q0 -73 -36 -105t-109 -32h-265l-7 7l2 53h-4l-5 -7.5t-15.5 -16.5t-27 -21.5t-40 -17t-53.5 -7.5q-64 0 -98 30t-34 108v210q0 40 14.5 69t40 44.5t53.5 22t60 6.5t107 -5zM338 121v286q-39 4 -104 4q-98 -4 -98 -84
v-196q-1 -43 19.5 -59t59.5 -16q66 0 123 65zM547 660v-84l-10 -130h-36v130h-37v84h83z" />
    <glyph glyph-name="dcroat.end" horiz-adv-x="755" 
d="M411 59h194q38 0 61 18t22 57v81h67v-78q0 -73 -36 -105t-109 -32h-265l-7 7l2 53h-4l-5 -7.5t-15.5 -16.5t-27 -21.5t-40 -17t-53.5 -7.5q-64 0 -98 30t-34 108v210q0 40 14.5 69t40 44.5t53.5 22t60 6.5t107 -5v65h-53v56h53v64h73v-64h54v-56h-54v-481zM338 121v286
q-39 4 -104 4q-98 -4 -98 -84v-196q-1 -43 19.5 -59t59.5 -16q66 0 123 65z" />
    <glyph glyph-name="e.end" horiz-adv-x="620" 
d="M240 413q-104 0 -104 -73v-67h200q5 30 5 67q-1 73 -101 73zM407 220l-10 -10h-261v-71q0 -49 29.5 -65t80.5 -16q59 0 115 17.5t94 42.5t68 50t44 42l14 18l39 -53q-5 -8 -15.5 -20t-46.5 -44t-77.5 -56.5t-109.5 -44.5t-141 -20q-167 0 -167 135v212q0 76 50.5 109.5
t126.5 33.5q176 0 176 -143q0 -63 -9 -117z" />
    <glyph glyph-name="eacute.end" horiz-adv-x="620" 
d="M240 413q-104 0 -104 -73v-67h200q5 30 5 67q-1 73 -101 73zM407 220l-10 -10h-261v-71q0 -49 29.5 -65t80.5 -16q59 0 115 17.5t94 42.5t68 50t44 42l14 18l39 -53q-5 -8 -15.5 -20t-46.5 -44t-77.5 -56.5t-109.5 -44.5t-141 -20q-167 0 -167 135v212q0 76 50.5 109.5
t126.5 33.5q176 0 176 -143q0 -63 -9 -117zM209 566l118 153l55 -49l-137 -134z" />
    <glyph glyph-name="ebreve.end" horiz-adv-x="620" 
d="M240 413q-104 0 -104 -73v-67h200q5 30 5 67q-1 73 -101 73zM407 220l-10 -10h-261v-71q0 -49 29.5 -65t80.5 -16q59 0 115 17.5t94 42.5t68 50t44 42l14 18l39 -53q-5 -8 -15.5 -20t-46.5 -44t-77.5 -56.5t-109.5 -44.5t-141 -20q-167 0 -167 135v212q0 76 50.5 109.5
t126.5 33.5q176 0 176 -143q0 -63 -9 -117zM304 663h64q0 -57 -33 -86.5t-82 -29.5h-23q-49 0 -82 29.5t-33 86.5h64q0 -31 17 -47t42 -16h9q25 0 41 16t16 47z" />
    <glyph glyph-name="ecaron.end" horiz-adv-x="620" 
d="M240 413q-104 0 -104 -73v-67h200q5 30 5 67q-1 73 -101 73zM407 220l-10 -10h-261v-71q0 -49 29.5 -65t80.5 -16q59 0 115 17.5t94 42.5t68 50t44 42l14 18l39 -53q-5 -8 -15.5 -20t-46.5 -44t-77.5 -56.5t-109.5 -44.5t-141 -20q-167 0 -167 135v212q0 76 50.5 109.5
t126.5 33.5q176 0 176 -143q0 -63 -9 -117zM271 530h-65l-108 136h72l69 -85l68 85h72z" />
    <glyph glyph-name="ecircumflex.end" horiz-adv-x="620" 
d="M240 413q-104 0 -104 -73v-67h200q5 30 5 67q-1 73 -101 73zM407 220l-10 -10h-261v-71q0 -49 29.5 -65t80.5 -16q59 0 115 17.5t94 42.5t68 50t44 42l14 18l39 -53q-5 -8 -15.5 -20t-46.5 -44t-77.5 -56.5t-109.5 -44.5t-141 -20q-167 0 -167 135v212q0 76 50.5 109.5
t126.5 33.5q176 0 176 -143q0 -63 -9 -117zM208 676h65l108 -136h-72l-68 84l-69 -84h-72z" />
    <glyph glyph-name="edieresis.end" horiz-adv-x="620" 
d="M240 413q-104 0 -104 -73v-67h200q5 30 5 67q-1 73 -101 73zM407 220l-10 -10h-261v-71q0 -49 29.5 -65t80.5 -16q59 0 115 17.5t94 42.5t68 50t44 42l14 18l39 -53q-5 -8 -15.5 -20t-46.5 -44t-77.5 -56.5t-109.5 -44.5t-141 -20q-167 0 -167 135v212q0 76 50.5 109.5
t126.5 33.5q176 0 176 -143q0 -63 -9 -117zM193 648v-88h-88v88h88zM378 648v-88h-88v88h88z" />
    <glyph glyph-name="edotaccent.end" horiz-adv-x="620" 
d="M240 413q-104 0 -104 -73v-67h200q5 30 5 67q-1 73 -101 73zM407 220l-10 -10h-261v-71q0 -49 29.5 -65t80.5 -16q59 0 115 17.5t94 42.5t68 50t44 42l14 18l39 -53q-5 -8 -15.5 -20t-46.5 -44t-77.5 -56.5t-109.5 -44.5t-141 -20q-167 0 -167 135v212q0 76 50.5 109.5
t126.5 33.5q176 0 176 -143q0 -63 -9 -117zM289 653v-93h-93v93h93z" />
    <glyph glyph-name="emacron.end" horiz-adv-x="620" 
d="M240 413q-104 0 -104 -73v-67h200q5 30 5 67q-1 73 -101 73zM407 220l-10 -10h-261v-71q0 -49 29.5 -65t80.5 -16q59 0 115 17.5t94 42.5t68 50t44 42l14 18l39 -53q-5 -8 -15.5 -20t-46.5 -44t-77.5 -56.5t-109.5 -44.5t-141 -20q-167 0 -167 135v212q0 76 50.5 109.5
t126.5 33.5q176 0 176 -143q0 -63 -9 -117zM383 633v-63h-280v63h280z" />
    <glyph glyph-name="egrave.end" horiz-adv-x="620" 
d="M240 413q-104 0 -104 -73v-67h200q5 30 5 67q-1 73 -101 73zM407 220l-10 -10h-261v-71q0 -49 29.5 -65t80.5 -16q59 0 115 17.5t94 42.5t68 50t44 42l14 18l39 -53q-5 -8 -15.5 -20t-46.5 -44t-77.5 -56.5t-109.5 -44.5t-141 -20q-167 0 -167 135v212q0 76 50.5 109.5
t126.5 33.5q176 0 176 -143q0 -63 -9 -117zM262 566l-36 -30l-137 134l55 49z" />
    <glyph glyph-name="eogonek.end" horiz-adv-x="620" 
d="M407 220l-10 -10h-261v-71q0 -49 29.5 -65t80.5 -16q59 0 115 17.5t94 42.5t68 50t44 42l14 18l39 -53q-5 -7 -15 -19t-44.5 -43t-74.5 -55t-105 -44.5t-135 -22.5q-29 -84 7 -99q15 -5 30.5 -4.5t26.5 3.5l11 3q1 -1 2 -2.5t2 -2.5l-4 -51q-5 -1 -13.5 -3t-32.5 -4.5
t-38 1.5q-28 5 -41 23.5t-12 43.5t8 48t18 44q-147 8 -147 134v212q0 76 50.5 109.5t126.5 33.5q176 0 176 -143q0 -63 -9 -117zM240 413q-104 0 -104 -73v-67h200q5 30 5 67q-1 73 -101 73z" />
    <glyph glyph-name="h.end" horiz-adv-x="770" 
d="M426 59h194q38 0 61 18t22 57v81h67v-78q0 -73 -36 -105t-109 -32h-272v338q0 75 -81 75q-33 0 -59.5 -13t-66.5 -52v-348h-73v660h73v-196l-2 -54h4l5 7.5t15.5 16.5t27 21.5t40 17t53.5 7.5q64 0 100.5 -31t36.5 -108v-282z" />
    <glyph glyph-name="hbar.end" horiz-adv-x="770" 
d="M73 540h-53v54h53v66h73v-66h50v-54h-50v-76l-2 -54h4l5 7.5t15.5 16.5t27 21.5t40 17t53.5 7.5q64 0 100.5 -31t36.5 -108v-282h194q38 0 61 18t22 57v81h67v-78q0 -73 -36 -105t-109 -32h-272v338q0 75 -81 75q-33 0 -59.5 -13t-66.5 -52v-348h-73v540z" />
    <glyph glyph-name="hcircumflex.end" horiz-adv-x="767" 
d="M423 59h194q38 0 61 18t22 57v81h67v-78q0 -73 -36 -105t-109 -32h-272v338q0 75 -81 75q-33 0 -59.5 -13t-66.5 -52v-348h-73v660h73v-196l-2 -54h4l5 7.5t15.5 16.5t27 21.5t40 17t53.5 7.5q64 0 100.5 -31t36.5 -108v-282zM84 846h65l108 -136h-72l-68 84l-69 -84h-72
z" />
    <glyph glyph-name="l.end" horiz-adv-x="510" 
d="M146 59h214q38 0 61 18t22 57v81h67v-78q0 -73 -36 -105t-109 -32h-292v660h73v-601z" />
    <glyph glyph-name="lacute.end" horiz-adv-x="510" 
d="M146 59h214q38 0 61 18t22 57v81h67v-78q0 -73 -36 -105t-109 -32h-292v660h73v-601zM82 732l118 153l55 -49l-137 -134z" />
    <glyph glyph-name="lcaron.end" horiz-adv-x="510" 
d="M146 59h214q38 0 61 18t22 57v81h67v-78q0 -73 -36 -105t-109 -32h-292v660h73v-601zM330 660v-84l-10 -130h-36v130h-37v84h83z" />
    <glyph glyph-name="lcommaaccent.end" horiz-adv-x="510" 
d="M146 59h214q38 0 61 18t22 57v81h67v-78q0 -73 -36 -105t-109 -32h-292v660h73v-601zM163 -40v-83l-10 -130h-36v130h-37v83h83z" />
    <glyph glyph-name="lslash.end" horiz-adv-x="510" 
d="M73 293h-53v63h53v304h73v-304h53v-63h-53v-234h214q38 0 61 18t22 57v81h67v-78q0 -73 -36 -105t-109 -32h-292v293z" />
    <glyph glyph-name="m.end" horiz-adv-x="1050" 
d="M706 59h194q38 0 61 18t22 57v81h67v-78q0 -73 -36 -105t-109 -32h-272v338q0 75 -72 75q-39 0 -65 -12t-70 -53v-348h-73v338q0 75 -81 75q-33 0 -59.5 -13t-66.5 -52v-348h-73v470h66l7 -7l-2 -53h4l5 7.5t15.5 16.5t27 21.5t40 17t53.5 7.5q105 0 129 -78
q54 78 152 78q63 0 99.5 -30.5t36.5 -108.5v-282z" />
    <glyph glyph-name="n.end" horiz-adv-x="770" 
d="M426 59h194q38 0 61 18t22 57v81h67v-78q0 -73 -36 -105t-109 -32h-272v338q0 43 -21.5 59t-61.5 16q-66 0 -124 -65v-348h-73v470h66l7 -7l-2 -53h4l5 7.5t15.5 16.5t27 21.5t40 17t53.5 7.5q64 0 100.5 -30.5t36.5 -108.5v-282z" />
    <glyph glyph-name="nacute.end" horiz-adv-x="770" 
d="M426 59h194q38 0 61 18t22 57v81h67v-78q0 -73 -36 -105t-109 -32h-272v338q0 43 -21.5 59t-61.5 16q-66 0 -124 -65v-348h-73v470h66l7 -7l-2 -53h4l5 7.5t15.5 16.5t27 21.5t40 17t53.5 7.5q64 0 100.5 -30.5t36.5 -108.5v-282zM221 566l118 153l55 -49l-137 -134z" />
    <glyph glyph-name="ncaron.end" horiz-adv-x="770" 
d="M426 59h194q38 0 61 18t22 57v81h67v-78q0 -73 -36 -105t-109 -32h-272v338q0 43 -21.5 59t-61.5 16q-66 0 -124 -65v-348h-73v470h66l7 -7l-2 -53h4l5 7.5t15.5 16.5t27 21.5t40 17t53.5 7.5q64 0 100.5 -30.5t36.5 -108.5v-282zM291 530h-65l-108 136h72l69 -85l68 85
h72z" />
    <glyph glyph-name="ncommaaccent.end" horiz-adv-x="770" 
d="M426 59h194q38 0 61 18t22 57v81h67v-78q0 -73 -36 -105t-109 -32h-272v338q0 43 -21.5 59t-61.5 16q-66 0 -124 -65v-348h-73v470h66l7 -7l-2 -53h4l5 7.5t15.5 16.5t27 21.5t40 17t53.5 7.5q64 0 100.5 -30.5t36.5 -108.5v-282zM289 -40v-83l-10 -130h-36v130h-37v83
h83z" />
    <glyph glyph-name="ntilde.end" horiz-adv-x="770" 
d="M426 59h194q38 0 61 18t22 57v81h67v-78q0 -73 -36 -105t-109 -32h-272v338q0 43 -21.5 59t-61.5 16q-66 0 -124 -65v-348h-73v470h66l7 -7l-2 -53h4l5 7.5t15.5 16.5t27 21.5t40 17t53.5 7.5q64 0 100.5 -30.5t36.5 -108.5v-282zM252 568q-27 15 -43 21t-29 2
t-19.5 -9.5t-20.5 -21.5l-42 30q27 51 74 59.5t88 -16.5q15 -8 25.5 -12.5t19.5 -5t14 -1.5t12 4.5t9.5 7.5t10.5 11.5t11 13.5l38 -33q-52 -99 -148 -50z" />
    <glyph glyph-name="o.end" horiz-adv-x="597" 
d="M240 480h206q41 0 62.5 16.5t21.5 57.5v101h67v-95q0 -147 -140 -147h-60q19 -30 19 -75v-207q0 -141 -176 -141q-76 0 -126.5 33t-50.5 108v207q0 75 50.5 108.5t126.5 33.5zM343 138v193q0 82 -103 82q-104 0 -104 -82v-193q0 -82 104 -82q103 0 103 82z" />
    <glyph glyph-name="oacute.end" horiz-adv-x="597" 
d="M240 480h206q41 0 62.5 16.5t21.5 57.5v101h67v-95q0 -147 -140 -147h-60q19 -30 19 -75v-207q0 -141 -176 -141q-76 0 -126.5 33t-50.5 108v207q0 75 50.5 108.5t126.5 33.5zM343 138v193q0 82 -103 82q-104 0 -104 -82v-193q0 -82 104 -82q103 0 103 82zM232 566
l118 153l55 -49l-137 -134z" />
    <glyph glyph-name="obreve.end" horiz-adv-x="597" 
d="M240 480h206q41 0 62.5 16.5t21.5 57.5v101h67v-95q0 -147 -140 -147h-60q19 -30 19 -75v-207q0 -141 -176 -141q-76 0 -126.5 33t-50.5 108v207q0 75 50.5 108.5t126.5 33.5zM343 138v193q0 82 -103 82q-104 0 -104 -82v-193q0 -82 104 -82q103 0 103 82zM307 663h64
q0 -57 -33 -86.5t-82 -29.5h-23q-49 0 -82 29.5t-33 86.5h64q0 -31 17 -47t42 -16h9q26 0 41.5 16t15.5 47z" />
    <glyph glyph-name="ocircumflex.end" horiz-adv-x="597" 
d="M240 480h206q41 0 62.5 16.5t21.5 57.5v101h67v-95q0 -147 -140 -147h-60q19 -30 19 -75v-207q0 -141 -176 -141q-76 0 -126.5 33t-50.5 108v207q0 75 50.5 108.5t126.5 33.5zM343 138v193q0 82 -103 82q-104 0 -104 -82v-193q0 -82 104 -82q103 0 103 82zM206 676h65
l108 -136h-72l-68 84l-69 -84h-72z" />
    <glyph glyph-name="odieresis.end" horiz-adv-x="597" 
d="M240 480h206q41 0 62.5 16.5t21.5 57.5v101h67v-95q0 -147 -140 -147h-60q19 -30 19 -75v-207q0 -141 -176 -141q-76 0 -126.5 33t-50.5 108v207q0 75 50.5 108.5t126.5 33.5zM343 138v193q0 82 -103 82q-104 0 -104 -82v-193q0 -82 104 -82q103 0 103 82zM191 648v-88
h-88v88h88zM376 648v-88h-88v88h88z" />
    <glyph glyph-name="ograve.end" horiz-adv-x="597" 
d="M240 480h206q41 0 62.5 16.5t21.5 57.5v101h67v-95q0 -147 -140 -147h-60q19 -30 19 -75v-207q0 -141 -176 -141q-76 0 -126.5 33t-50.5 108v207q0 75 50.5 108.5t126.5 33.5zM343 138v193q0 82 -103 82q-104 0 -104 -82v-193q0 -82 104 -82q103 0 103 82zM269 566
l-36 -30l-137 134l55 49z" />
    <glyph glyph-name="ohungarumlaut.end" horiz-adv-x="597" 
d="M240 480h206q41 0 62.5 16.5t21.5 57.5v101h67v-95q0 -147 -140 -147h-60q19 -30 19 -75v-207q0 -141 -176 -141q-76 0 -126.5 33t-50.5 108v207q0 75 50.5 108.5t126.5 33.5zM343 138v193q0 82 -103 82q-104 0 -104 -82v-193q0 -82 104 -82q103 0 103 82zM144 560
l86 141l57 -31l-103 -130zM281 560l86 141l56 -31l-103 -130z" />
    <glyph glyph-name="omacron.end" horiz-adv-x="597" 
d="M240 480h206q41 0 62.5 16.5t21.5 57.5v101h67v-95q0 -147 -140 -147h-60q19 -30 19 -75v-207q0 -141 -176 -141q-76 0 -126.5 33t-50.5 108v207q0 75 50.5 108.5t126.5 33.5zM343 138v193q0 82 -103 82q-104 0 -104 -82v-193q0 -82 104 -82q103 0 103 82zM384 633v-63
h-280v63h280z" />
    <glyph glyph-name="oslash.end" horiz-adv-x="597" 
d="M240 480h206q41 0 62.5 16.5t21.5 57.5v101h67v-95q0 -147 -140 -147h-60q19 -30 19 -75v-207q0 -141 -176 -141q-76 0 -126.5 33t-50.5 108v207q0 75 50.5 108.5t126.5 33.5zM240 56q103 0 103 82v68h-207v-68q0 -82 104 -82zM343 269v62q0 82 -103 82q-104 0 -104 -82
v-62h207z" />
    <glyph glyph-name="oslashacute.end" horiz-adv-x="597" 
d="M240 480h206q41 0 62.5 16.5t21.5 57.5v101h67v-95q0 -147 -140 -147h-60q19 -30 19 -75v-207q0 -141 -176 -141q-76 0 -126.5 33t-50.5 108v207q0 75 50.5 108.5t126.5 33.5zM240 56q103 0 103 82v68h-207v-68q0 -82 104 -82zM343 269v62q0 82 -103 82q-104 0 -104 -82
v-62h207zM231 566l118 153l55 -49l-137 -134z" />
    <glyph glyph-name="otilde.end" horiz-adv-x="597" 
d="M240 480h206q41 0 62.5 16.5t21.5 57.5v101h67v-95q0 -147 -140 -147h-60q19 -30 19 -75v-207q0 -141 -176 -141q-76 0 -126.5 33t-50.5 108v207q0 75 50.5 108.5t126.5 33.5zM343 138v193q0 82 -103 82q-104 0 -104 -82v-193q0 -82 104 -82q103 0 103 82zM245 568
q-27 15 -43 21t-29 2t-19.5 -9.5t-20.5 -21.5l-42 30q27 51 74 59.5t88 -16.5q15 -8 25.5 -12.5t19.5 -5t14 -1.5t12 4.5t9.5 7.5t10.5 11.5t11 13.5l38 -33q-52 -99 -148 -50z" />
    <glyph glyph-name="r.end" horiz-adv-x="669" 
d="M303 480h215q18 0 26 2q58 5 58 88v85h67v-85q0 -74 -33 -119t-107 -45h-233q-29 0 -46 -2t-47 -16t-57 -42v-346h-73v470h66l7 -7l-2 -53h4q-4 0 12 17.5t54.5 35t88.5 17.5z" />
    <glyph glyph-name="racute.end" horiz-adv-x="669" 
d="M303 480h215q18 0 26 2q58 5 58 88v85h67v-85q0 -74 -33 -119t-107 -45h-233q-29 0 -46 -2t-47 -16t-57 -42v-346h-73v470h66l7 -7l-2 -53h4q-4 0 12 17.5t54.5 35t88.5 17.5zM85 566l118 153l55 -49l-137 -134z" />
    <glyph glyph-name="rcaron.end" horiz-adv-x="669" 
d="M303 480h215q18 0 26 2q58 5 58 88v85h67v-85q0 -74 -33 -119t-107 -45h-233q-29 0 -46 -2t-47 -16t-57 -42v-346h-73v470h66l7 -7l-2 -53h4q-4 0 12 17.5t54.5 35t88.5 17.5zM240 530h-65l-108 136h72l69 -85l68 85h72z" />
    <glyph glyph-name="rcommaaccent.end" horiz-adv-x="669" 
d="M303 480h215q18 0 26 2q58 5 58 88v85h67v-85q0 -74 -33 -119t-107 -45h-233q-29 0 -46 -2t-47 -16t-57 -42v-346h-73v470h66l7 -7l-2 -53h4q-4 0 12 17.5t54.5 35t88.5 17.5zM151 -40v-83l-10 -130h-36v130h-37v83h83z" />
    <glyph glyph-name="s_p" horiz-adv-x="935" 
d="M609 348v-286q40 -4 105 -4q97 4 97 84v196q1 43 -19.5 59t-58.5 16q-66 0 -124 -65zM609 630v-160l-2 -60h4l5 7.5t15.5 16.5t27.5 21.5t40 17t54 7.5q63 0 97.5 -30.5t34.5 -108.5v-210q0 -73 -45 -107t-109 -34q-37 0 -122 5v-165h-73v736h-191q-39 0 -54 -19.5
t-15 -56.5v-12l100 -8v-62l-7 -7q-70 10 -133 10q-53 0 -78 -13t-25 -56q0 -20 6 -33.5t13.5 -20.5t26 -10.5t32 -4t42.5 -0.5q75 0 112.5 -30.5t37.5 -111.5q0 -45 -14 -74.5t-40.5 -43t-52 -18.5t-60.5 -5q-37 0 -79.5 2.5t-66.5 5.5l-24 2v61l7 7q73 -10 136 -10
q28 0 46.5 2t37.5 9t28.5 22.5t9.5 39.5q0 13 -1.5 23t-6.5 17.5t-8.5 13t-12.5 9.5t-13.5 6.5t-17 4t-17 2t-19 2t-18.5 1.5q-77 0 -117 28t-40 105q0 74 43.5 105.5t106.5 31.5v10q0 64 33 102t104 38h262z" />
    <glyph glyph-name="t.end" horiz-adv-x="618" 
d="M156 406v-283q0 -39 16.5 -53t45.5 -14l58 5l7 -7v-55q-34 -9 -77 -9q-123 0 -123 133v283h-50v64h50v100h73v-100h311q41 0 62.5 23.5t21.5 64.5v87h67v-95q0 -144 -140 -144h-322z" />
    <glyph glyph-name="tbar.end" horiz-adv-x="618" 
d="M156 406v-138h53v-57h-53v-88q0 -39 16.5 -53t45.5 -14l58 5l7 -7v-55q-34 -9 -77 -9q-123 0 -123 133v88h-53v57h53v138h-50v64h50v100h73v-100h311q42 0 63 18t21 67v90h67v-84q0 -73 -35 -114t-105 -41h-322z" />
    <glyph glyph-name="tcaron.end" horiz-adv-x="618" 
d="M156 406v-283q0 -39 16.5 -53t45.5 -14l58 5l7 -7v-55q-34 -9 -77 -9q-123 0 -123 133v283h-50v64h50v100h73v-100h311q41 0 62.5 23.5t21.5 64.5v87h67v-95q0 -144 -140 -144h-322zM316 760v-84l-10 -130h-36v130h-37v84h83z" />
    <glyph glyph-name="tcommaaccent.end" horiz-adv-x="618" 
d="M156 406v-283q0 -39 16.5 -53t45.5 -14l58 5l7 -7v-55q-34 -9 -77 -9q-123 0 -123 133v283h-50v64h50v100h73v-100h311q41 0 62.5 23.5t21.5 64.5v87h67v-95q0 -144 -140 -144h-322zM212 -40v-83l-10 -130h-36v130h-37v83h83z" />
    <glyph glyph-name="u.end" horiz-adv-x="770" 
d="M426 59h193q84 0 84 75v81h67v-78q0 -73 -36 -105t-104 -32h-270l-7 7l2 53h-4l-5 -7.5t-15.5 -16.5t-27 -21.5t-40 -17t-53.5 -7.5q-64 0 -100.5 30t-36.5 108v342h73v-339q0 -43 21.5 -59t62.5 -16q65 0 123 65v349h73v-411z" />
    <glyph glyph-name="uacute.end" horiz-adv-x="770" 
d="M426 59h193q84 0 84 75v81h67v-78q0 -73 -36 -105t-104 -32h-270l-7 7l2 53h-4l-5 -7.5t-15.5 -16.5t-27 -21.5t-40 -17t-53.5 -7.5q-64 0 -100.5 30t-36.5 108v342h73v-339q0 -43 21.5 -59t62.5 -16q65 0 123 65v349h73v-411zM228 566l118 153l55 -49l-137 -134z" />
    <glyph glyph-name="ubreve.end" horiz-adv-x="770" 
d="M426 59h193q84 0 84 75v81h67v-78q0 -73 -36 -105t-104 -32h-270l-7 7l2 53h-4l-5 -7.5t-15.5 -16.5t-27 -21.5t-40 -17t-53.5 -7.5q-64 0 -100.5 30t-36.5 108v342h73v-339q0 -43 21.5 -59t62.5 -16q65 0 123 65v349h73v-411zM309 663h64q0 -57 -33 -86.5t-82 -29.5h-23
q-49 0 -82 29.5t-33 86.5h64q0 -31 17 -47t42 -16h9q26 0 41.5 16t15.5 47z" />
    <glyph glyph-name="ucircumflex.end" horiz-adv-x="770" 
d="M426 59h193q84 0 84 75v81h67v-78q0 -73 -36 -105t-104 -32h-270l-7 7l2 53h-4l-5 -7.5t-15.5 -16.5t-27 -21.5t-40 -17t-53.5 -7.5q-64 0 -100.5 30t-36.5 108v342h73v-339q0 -43 21.5 -59t62.5 -16q65 0 123 65v349h73v-411zM215 676h65l108 -136h-72l-68 84l-69 -84
h-72z" />
    <glyph glyph-name="udieresis.end" horiz-adv-x="770" 
d="M426 59h193q84 0 84 75v81h67v-78q0 -73 -36 -105t-104 -32h-270l-7 7l2 53h-4l-5 -7.5t-15.5 -16.5t-27 -21.5t-40 -17t-53.5 -7.5q-64 0 -100.5 30t-36.5 108v342h73v-339q0 -43 21.5 -59t62.5 -16q65 0 123 65v349h73v-411zM199 648v-88h-88v88h88zM384 648v-88h-88
v88h88z" />
    <glyph glyph-name="ugrave.end" horiz-adv-x="770" 
d="M426 59h193q84 0 84 75v81h67v-78q0 -73 -36 -105t-104 -32h-270l-7 7l2 53h-4l-5 -7.5t-15.5 -16.5t-27 -21.5t-40 -17t-53.5 -7.5q-64 0 -100.5 30t-36.5 108v342h73v-339q0 -43 21.5 -59t62.5 -16q65 0 123 65v349h73v-411zM269 566l-36 -30l-137 134l55 49z" />
    <glyph glyph-name="uhungarumlaut.end" horiz-adv-x="770" 
d="M426 59h193q84 0 84 75v81h67v-78q0 -73 -36 -105t-104 -32h-270l-7 7l2 53h-4l-5 -7.5t-15.5 -16.5t-27 -21.5t-40 -17t-53.5 -7.5q-64 0 -100.5 30t-36.5 108v342h73v-339q0 -43 21.5 -59t62.5 -16q65 0 123 65v349h73v-411zM152 560l86 141l57 -31l-103 -130zM289 560
l86 141l56 -31l-103 -130z" />
    <glyph glyph-name="umacron.end" horiz-adv-x="770" 
d="M426 59h193q84 0 84 75v81h67v-78q0 -73 -36 -105t-104 -32h-270l-7 7l2 53h-4l-5 -7.5t-15.5 -16.5t-27 -21.5t-40 -17t-53.5 -7.5q-64 0 -100.5 30t-36.5 108v342h73v-339q0 -43 21.5 -59t62.5 -16q65 0 123 65v349h73v-411zM393 633v-63h-280v63h280z" />
    <glyph glyph-name="uogonek.end" horiz-adv-x="770" 
d="M382 0h-22l-7 7l2 53h-4l-5 -7.5t-15.5 -16.5t-27 -21.5t-40 -17t-53.5 -7.5q-64 0 -100.5 30t-36.5 108v342h73v-339q0 -75 84 -75q65 0 123 65v349h73v-411h193q84 0 84 75v81h67v-78q0 -73 -36 -105t-104 -32h-212q-17 -40 -17 -70.5t20 -37.5q15 -5 30.5 -4.5
t26.5 3.5l11 3q1 -1 2 -2.5t2 -2.5l-4 -51q-5 -1 -13.5 -3t-33 -4.5t-38.5 1.5q-30 6 -43 26t-10 47t11 51t20 44z" />
    </font>
</defs>
</svg>
