<?xml version="1.0" standalone="no"?>
<!DOCTYPE svg PUBLIC "-//W3C//DTD SVG 1.1//EN" "http://www.w3.org/Graphics/SVG/1.1/DTD/svg11.dtd" >
<svg>
<metadata>
Created by FontForge 20120731 at Thu Nov 20 11:50:05 2014
 By Orthosie Webhosting
Copyright (c) 2006 by Dino dos Santos _DSType. All rights reserved.
</metadata>
<defs>
<font id="PlexesProLightItalic" horiz-adv-x="500" >
  <font-face 
    font-family="PlexesProLightItalic"
    font-weight="300"
    font-style="italic"
    font-stretch="normal"
    units-per-em="1000"
    panose-1="2 0 5 6 0 0 0 9 0 4"
    ascent="800"
    descent="-200"
    x-height="470"
    cap-height="630"
    bbox="-80 -298 1097 965"
    underline-thickness="50"
    underline-position="-50"
    unicode-range="U+0020-FB06"
  />
<missing-glyph horiz-adv-x="590" 
d="M158 500h450l-88 -500h-450zM330 249l-164 236l-83 -469zM347 249l165 -231l82 465zM179 488l162 -229l243 229h-405zM338 240l-241 -228h401z" />
    <glyph glyph-name="ff" unicode="ff" horiz-adv-x="550" 
d="M484 420l-104 -590h-50l104 590h-220l-104 -590h-50l104 590h-50l8 50h50l13 70q11 66 48 98t90 32q15 0 30.5 -2t24.5 -4l8 -2l-7 -40l-8 -7q-19 5 -52 5q-71 0 -84 -80l-13 -70h220l13 70q11 66 48 98t90 32q15 0 30.5 -2t24.5 -4l8 -2l-7 -40l-8 -7q-19 5 -52 5
q-71 0 -84 -80l-13 -70h110l-8 -50h-110z" />
    <glyph glyph-name="fi" unicode="fi" horiz-adv-x="490" 
d="M214 420l-104 -590h-50l104 590h-50l8 50h50l13 70q22 130 180 130q37 0 72 -2.5t52 -5.5l17 -2h20l-18 -100h-50l10 53q-56 7 -102 7q-117 0 -131 -80l-13 -70h270l-82 -470h-50l74 420h-220z" />
    <glyph glyph-name="fl" unicode="fl" horiz-adv-x="490" 
d="M214 420l-104 -590h-50l104 590h-50l8 50h50l13 70q22 130 180 130q37 0 72 -2.5t52 -5.5l17 -2h20l-116 -660h-50l108 613q-56 7 -102 7q-117 0 -131 -80l-13 -70h110l-8 -50h-110z" />
    <glyph glyph-name="ffi" unicode="ffi" horiz-adv-x="760" 
d="M484 420l-104 -590h-50l104 590h-220l-104 -590h-50l104 590h-50l8 50h50l13 70q11 66 48 98t90 32q15 0 30.5 -2t24.5 -4l8 -2l-7 -40l-8 -7q-19 5 -52 5q-71 0 -84 -80l-13 -70h220l13 70q22 130 180 130q37 0 72 -2.5t52 -5.5l17 -2h20l-18 -100h-50l10 53
q-56 7 -102 7q-117 0 -131 -80l-13 -70h270l-82 -470h-50l74 420h-220z" />
    <glyph glyph-name="ffl" unicode="ffl" horiz-adv-x="760" 
d="M484 420l-104 -590h-50l104 590h-220l-104 -590h-50l104 590h-50l8 50h50l13 70q11 66 48 98t90 32q15 0 30.5 -2t24.5 -4l8 -2l-7 -40l-8 -7q-19 5 -52 5q-71 0 -84 -80l-13 -70h220l13 70q22 130 180 130q37 0 72 -2.5t52 -5.5l17 -2h20l-116 -660h-50l108 613
q-56 7 -102 7q-117 0 -131 -80l-13 -70h110l-8 -50h-110z" />
    <glyph glyph-name="T_h" unicode="Th" horiz-adv-x="850" 
d="M136 630h455l-30 -165l-11 -55h4q2 3 6 7.5t18.5 16.5t31.5 21.5t45 17t59 7.5q65 0 97.5 -29.5t18.5 -107.5l-60 -343h-50l60 343q9 50 -14 68.5t-71 18.5q-76 0 -152 -70l-63 -360h-50l102 580h-185l-102 -580h-50l102 580h-170z" />
    <glyph glyph-name="T_h.caron" unicode="&#x164;h" horiz-adv-x="850" 
d="M136 630h455l-30 -165l-11 -55h4q2 3 6 7.5t18.5 16.5t31.5 21.5t45 17t59 7.5q65 0 97.5 -29.5t18.5 -107.5l-60 -343h-50l60 343q9 50 -14 68.5t-71 18.5q-76 0 -152 -70l-63 -360h-50l102 580h-185l-102 -580h-50l102 580h-170zM461 680h-52l-85 130h56l63 -88l93 88
h56z" />
    <glyph glyph-name="T_h.commaaccent" unicode="&#x162;h" horiz-adv-x="850" 
d="M136 630h455l-30 -165l-11 -55h4q2 3 6 7.5t18.5 16.5t31.5 21.5t45 17t59 7.5q65 0 97.5 -29.5t18.5 -107.5l-60 -343h-50l60 343q9 50 -14 68.5t-71 18.5q-76 0 -152 -70l-63 -360h-50l102 580h-185l-102 -580h-50l102 580h-170zM316 -40l-12 -70l-33 -130h-30l23 130
h-30l12 70h70z" />
    <glyph glyph-name="f_f_j" unicode="ffj" horiz-adv-x="760" 
d="M484 420l-104 -590h-50l104 590h-220l-104 -590h-50l104 590h-50l8 50h50l13 70q11 66 48 98t90 32q15 0 30.5 -2t24.5 -4l8 -2l-7 -40l-8 -7q-19 5 -52 5q-71 0 -84 -80l-13 -70h220l13 70q22 130 180 130q37 0 72 -2.5t52 -5.5l17 -2h20l-18 -100h-50l10 53
q-56 7 -102 7q-117 0 -131 -80l-13 -70h270l-91 -520q-24 -130 -138 -130q-15 0 -31 2t-24 4l-9 2l7 40l8 7q20 -5 53 -5q70 0 84 80l83 470h-220z" />
    <glyph glyph-name="f_j" unicode="fj" horiz-adv-x="490" 
d="M214 420l-104 -590h-50l104 590h-50l8 50h50l13 70q22 130 180 130q37 0 72 -2.5t52 -5.5l17 -2h20l-18 -100h-50l10 53q-56 7 -102 7q-117 0 -131 -80l-13 -70h270l-91 -520q-24 -130 -138 -130q-15 0 -31 2t-24 4l-9 2l7 40l8 7q20 -5 53 -5q70 0 84 80l83 470h-220z
" />
    <glyph glyph-name=".notdef" horiz-adv-x="590" 
d="M158 500h450l-88 -500h-450zM330 249l-164 236l-83 -469zM347 249l165 -231l82 465zM179 488l162 -229l243 229h-405zM338 240l-241 -228h401z" />
    <glyph glyph-name=".notdef" horiz-adv-x="590" 
d="M158 500h450l-88 -500h-450zM330 249l-164 236l-83 -469zM347 249l165 -231l82 465zM179 488l162 -229l243 229h-405zM338 240l-241 -228h401z" />
    <glyph glyph-name=".null" horiz-adv-x="0" 
 />
    <glyph glyph-name="nonmarkingreturn" horiz-adv-x="333" 
 />
    <glyph glyph-name="space" unicode=" " horiz-adv-x="250" 
 />
    <glyph glyph-name="exclam" unicode="!" horiz-adv-x="210" 
d="M141 350l55 310h50l-55 -310l-44 -220h-40zM142 70l-12 -70h-50l12 70h50z" />
    <glyph glyph-name="quotedbl" unicode="&#x22;" horiz-adv-x="370" 
d="M266 660l-12 -70l-33 -130h-30l23 130h-30l12 70h70zM406 660l-12 -70l-33 -130h-30l23 130h-30l12 70h70z" />
    <glyph glyph-name="numbersign" unicode="#" horiz-adv-x="630" 
d="M609 340l-8 -50h-140l-16 -90h140l-9 -50h-140l-25 -140h-50l25 140h-90l-25 -140h-50l25 140h-140l9 50h140l16 90h-140l8 50h140l25 140h50l-25 -140h90l25 140h50l-25 -140h140zM321 290l-16 -90h90l16 90h-90z" />
    <glyph glyph-name="dollar" unicode="$" horiz-adv-x="530" 
d="M263 -120h-50l20 111l-143 9l7 43l8 7q112 -10 175 -10q126 0 142 87l15 85q5 30 -3.5 48.5t-31.5 26.5t-44.5 10.5t-55.5 2.5q-32 0 -58 5t-50 18.5t-34.5 41.5t-3.5 68l13 75q23 128 178 132l20 110h50l-20 -111l134 -9l-8 -43l-8 -7q-91 10 -154 10q-127 0 -142 -82
l-13 -75q-4 -24 2 -40.5t16.5 -24.5t33.5 -12.5t38 -5t45 -0.5q31 0 57.5 -6t50.5 -20t34.5 -43t3.5 -69l-15 -85q-14 -75 -67 -105.5t-122 -31.5z" />
    <glyph glyph-name="percent" unicode="%" horiz-adv-x="728" 
d="M197 0h-50l506 630h50zM373 490l9 50q6 34 -15 47t-58 13q-82 0 -93 -60l-9 -50q-6 -34 14.5 -47t57.5 -13q83 0 94 60zM423 541l-9 -52q-18 -99 -142 -99q-55 0 -85.5 23.5t-20.5 75.5l9 52q17 99 141 99q57 0 87 -21.5t20 -77.5zM622 90l9 50q6 34 -14.5 47t-57.5 13
q-83 0 -94 -60l-9 -50q-5 -34 15.5 -47t57.5 -13q83 0 93 60zM672 141l-9 -52q-17 -99 -141 -99q-55 0 -85.5 23.5t-21.5 75.5l9 52q10 52 49 75.5t93 23.5q57 0 86.5 -21.5t19.5 -77.5z" />
    <glyph glyph-name="ampersand" unicode="&#x26;" horiz-adv-x="669" 
d="M460 177l30 173h170l-9 -50h-120l-30 -172l108 -128h-70l-58 68q-43 -78 -169 -78h-67q-32 0 -58 5t-49.5 18.5t-33.5 41t-3 67.5l10 58q8 43 24.5 70.5t47.5 54.5l58 50l-16 20q-22 27 -28.5 52.5t0.5 72.5l6 38q24 132 191 132q37 0 79.5 -2.5t66.5 -5.5l25 -2l-8 -43
l-8 -7q-91 10 -154 10q-127 0 -142 -82l-8 -48q-8 -44 37 -100zM163 190l-12 -68q-5 -26 3.5 -43t27.5 -25t38 -11t44 -3h47q115 0 136 69l-177 211l-34 -30q-65 -54 -73 -100z" />
    <glyph glyph-name="quotesingle" unicode="'" horiz-adv-x="230" 
d="M266 660l-12 -70l-33 -130h-30l23 130h-30l12 70h70z" />
    <glyph glyph-name="parenleft" unicode="(" horiz-adv-x="342" 
d="M83 22l104 586q23 132 198 132l6 -7l-8 -43q-132 0 -146 -82l-104 -586q-4 -26 5 -43t29 -25t39.5 -11t44.5 -3l-8 -43l-8 -7q-34 0 -59.5 4.5t-51.5 17t-37 40.5t-4 70z" />
    <glyph glyph-name="parenright" unicode=")" horiz-adv-x="342" 
d="M369 608l-104 -586q-23 -132 -198 -132l-6 7l8 43q132 0 146 82l104 586q4 26 -5 43t-29 25t-39.5 11t-44.5 3l8 43l8 7q34 0 59.5 -4.5t51.5 -17t37 -40.5t4 -70z" />
    <glyph glyph-name="asterisk" unicode="*" horiz-adv-x="408" 
d="M340 640l-30 -104l98 56l16 -44l-106 -38l72 -67l-41 -38l-58 92l-90 -92l-27 38l93 67l-91 38l32 44l75 -55l7 103h50z" />
    <glyph glyph-name="plus" unicode="+" horiz-adv-x="480" 
d="M279 85h-50l24 135h-135l9 50h135l24 135h50l-24 -135h135l-9 -50h-135z" />
    <glyph glyph-name="comma" unicode="," horiz-adv-x="230" 
d="M162 70l-12 -70l-33 -130h-30l23 130h-30l12 70h70z" />
    <glyph glyph-name="hyphen" unicode="-" horiz-adv-x="480" 
d="M127 270h320l-9 -50h-320z" />
    <glyph glyph-name="period" unicode="." horiz-adv-x="230" 
d="M162 70l-12 -70h-70l12 70h70z" />
    <glyph glyph-name="slash" unicode="/" horiz-adv-x="285" 
d="M70 0h-50l306 630h50z" />
    <glyph glyph-name="zero" unicode="0" horiz-adv-x="540" 
d="M232 40h90q41 0 72.5 25t39.5 75l62 350q9 50 -13.5 75t-63.5 25h-90q-41 0 -73 -25.5t-40 -74.5l-62 -350q-8 -50 14.5 -75t63.5 -25zM233 -10q-67 0 -105 34t-24 116l62 350q26 150 181 150h70q67 0 105 -34t24 -116l-62 -350q-26 -150 -181 -150h-70z" />
    <glyph glyph-name="one" unicode="1" horiz-adv-x="390" 
d="M338 50l-8 -50h-270l8 50h110l94 530h-110l9 50h160l-103 -580h110z" />
    <glyph glyph-name="two" unicode="2" horiz-adv-x="530" 
d="M117 210q22 132 193 132q34 0 56.5 2.5t48 10.5t40.5 26.5t20 48.5l13 73q6 34 -11.5 54.5t-42 26.5t-57.5 6q-28 0 -72.5 -2.5t-74.5 -5.5l-31 -2l-6 7l8 43q111 10 194 10q32 0 58 -6t49 -20t33 -42.5t3 -68.5l-13 -73q-14 -76 -69 -107t-125 -31q-31 0 -45.5 -0.5
t-39.5 -4.5t-38 -12t-25 -24.5t-16 -40.5l-29 -160h310l-8 -50h-360q17 98 37 210z" />
    <glyph glyph-name="three" unicode="3" 
d="M137 300l9 50h135q34 0 56.5 2.5t48 11t41 27.5t20.5 49l11 63q6 34 -11.5 54.5t-42 26.5t-57.5 6q-28 0 -72.5 -2.5t-74.5 -5.5l-31 -2l-6 7l8 43q111 10 194 10q32 0 58 -6t49 -20t33 -42.5t3 -68.5l-11 -63q-15 -87 -93 -115q67 -30 53 -115l-15 -83
q-14 -76 -67.5 -106.5t-123.5 -30.5q-37 0 -84.5 2.5t-76.5 5.5l-30 2l7 43l8 7q112 -10 175 -10q126 0 142 87l15 83q5 30 -4 49t-31 27.5t-44 11t-56 2.5h-135z" />
    <glyph glyph-name="four" unicode="4" horiz-adv-x="550" 
d="M384 170h-315l9 50l373 415h65l-73 -415h75l-9 -50h-75l-29 -170h-50zM134 220h259l63 357z" />
    <glyph glyph-name="five" unicode="5" horiz-adv-x="520" 
d="M294 310h-150l57 320h340l-9 -50h-290l-39 -220h130q32 0 58 -5.5t50 -19t34.5 -42t3.5 -68.5l-17 -98q-14 -76 -67.5 -106.5t-123.5 -30.5q-37 0 -84.5 2.5t-76.5 5.5l-30 2l7 43l8 7q112 -10 175 -10q126 0 142 87l17 98q4 24 -2 40.5t-16.5 25t-33 13t-38.5 5.5t-45 1
z" />
    <glyph glyph-name="six" unicode="6" horiz-adv-x="530" 
d="M104 140l64 363q14 76 67.5 106.5t123.5 30.5q37 0 85 -2.5t78 -5.5l29 -2l-8 -43l-8 -7q-111 10 -174 10q-127 0 -143 -87l-30 -169q45 36 112 36h60q67 0 104.5 -34t23.5 -116l-14 -80q-26 -150 -181 -150h-60q-67 0 -105 34t-24 116zM361 320h-80q-41 0 -72.5 -25
t-40.5 -75l-14 -80q-8 -50 14.5 -75t63.5 -25h80q41 0 72.5 25t39.5 75l14 80q9 50 -13.5 75t-63.5 25z" />
    <glyph glyph-name="seven" unicode="7" horiz-adv-x="475" 
d="M526 575l-356 -575h-60l359 580h-317l9 50h375z" />
    <glyph glyph-name="eight" unicode="8" horiz-adv-x="530" 
d="M367 590h-6q-127 0 -143 -87l-11 -63q-5 -30 1 -49t25 -27.5t38 -11t50 -2.5t51 2.5t41.5 11t35 27.5t18.5 49l11 63q6 34 -11.5 54.5t-42 26.5t-57.5 6zM281 -10h-46q-32 0 -58 6t-49 20t-33 42.5t-3 68.5l15 83q14 85 93 115q-58 25 -43 115l11 63q14 76 67.5 106.5
t123.5 30.5h26q32 0 58 -6t49 -20t33 -42.5t3 -68.5l-11 -63q-15 -90 -83 -115q67 -30 53 -115l-15 -83q-14 -76 -67.5 -106.5t-123.5 -30.5zM254 40h26q126 0 142 87l15 83q4 24 -1.5 41t-16 26.5t-29.5 14.5t-36 6.5t-42 1.5q-31 0 -52.5 -2.5t-45 -11t-38 -27.5
t-19.5 -49l-15 -83q-6 -34 11.5 -54.5t42.5 -26.5t58 -6z" />
    <glyph glyph-name="nine" unicode="9" horiz-adv-x="530" 
d="M536 490l-64 -363q-14 -76 -67.5 -106.5t-123.5 -30.5q-37 0 -84.5 2.5t-76.5 5.5l-30 2l7 43l8 7q112 -10 175 -10q126 0 142 87l30 169q-45 -36 -112 -36h-60q-67 0 -104.5 34t-23.5 116l14 80q26 150 181 150h60q67 0 105 -34t24 -116zM279 310h80q41 0 72.5 25
t40.5 75l14 80q9 50 -13.5 75t-63.5 25h-80q-41 0 -73 -25.5t-40 -74.5l-14 -80q-9 -50 13.5 -75t63.5 -25z" />
    <glyph glyph-name="colon" unicode=":" horiz-adv-x="230" 
d="M162 70l-12 -70h-70l12 70h70zM215 370l-13 -70h-70l13 70h70z" />
    <glyph glyph-name="semicolon" unicode=";" horiz-adv-x="230" 
d="M162 70l-12 -70l-33 -130h-30l23 130h-30l12 70h70zM215 370l-13 -70h-70l13 70h70z" />
    <glyph glyph-name="less" unicode="&#x3c;" horiz-adv-x="513" 
d="M117 211l11 64l377 135l-10 -55l-315 -112l276 -112l-10 -55z" />
    <glyph glyph-name="equal" unicode="=" horiz-adv-x="480" 
d="M435 200l-9 -50h-320l9 50h320zM459 340l-8 -50h-320l8 50h320z" />
    <glyph glyph-name="greater" unicode="&#x3e;" horiz-adv-x="513" 
d="M481 275l-11 -64l-377 -135l10 55l314 112l-275 112l10 55z" />
    <glyph glyph-name="question" unicode="?" 
d="M217 212l-15 -82h-50l15 82q24 138 154 138q22 0 33.5 0.5t29.5 5t28 12.5t20 24.5t14 40.5l18 105q5 26 -3.5 43t-27.5 25t-37.5 11t-43.5 3q-28 0 -67.5 -2.5t-64.5 -5.5l-26 -2l-6 7l8 43q92 10 175 10q32 0 57.5 -5t49.5 -18.5t33.5 -41t2.5 -67.5l-18 -105
q-24 -133 -154 -133q-39 0 -59.5 -4t-39.5 -24t-26 -60zM192 70l-12 -70h-50l12 70h50z" />
    <glyph glyph-name="at" unicode="@" horiz-adv-x="880" 
d="M71 -48l100 568q26 150 182 150h410q67 0 104.5 -34t23.5 -116l-56 -320q-26 -150 -182 -150h-88l-5 7l12 53h-4q-2 -3 -6 -7.5t-19 -16.5t-32 -21.5t-45 -17t-59 -7.5q-64 0 -94.5 29.5t-16.5 107.5l25 146q24 137 182 137q32 0 74.5 -2.5t68.5 -5.5l26 -2l6 -7
l-61 -343h55q41 0 72.5 25t40.5 75l56 320q9 50 -13.5 75t-63.5 25h-430q-41 0 -72.5 -25t-40.5 -75l-100 -568q-5 -26 4.5 -43t29.5 -25t39.5 -11t44.5 -3q28 0 68.5 2.5t66.5 5.5l27 2l6 -7l-7 -43q-97 -10 -180 -10q-32 0 -58.5 5t-51.5 18.5t-35.5 41t-3.5 67.5z
M578 160l43 244q-64 6 -117 6q-117 0 -133 -87l-25 -146q-9 -50 11.5 -68.5t67.5 -18.5q77 0 153 70z" />
    <glyph glyph-name="A" unicode="A" horiz-adv-x="510" 
d="M334 635h64l82 -635h-53l-32 244h-194l-118 -244h-53zM353 560l-129 -266h163z" />
    <glyph glyph-name="B" unicode="B" horiz-adv-x="530" 
d="M494 198l-8 -46q-26 -152 -183 -152h-223l111 630h213q67 0 105.5 -34t24.5 -118l-5 -26q-8 -49 -27.5 -74.5t-53.5 -46.5q29 -13 42 -47t4 -86zM138 50h182q41 0 74.5 26t41.5 76l8 46q18 102 -80 102h-182zM191 350h174q41 0 73 25.5t41 76.5l5 26q8 51 -15.5 76.5
t-64.5 25.5h-172z" />
    <glyph glyph-name="C" unicode="C" horiz-adv-x="480" 
d="M533 587l-8 -7q-96 10 -159 10q-132 0 -147 -82l-68 -386q-5 -26 4.5 -43t29.5 -25t39.5 -11t44.5 -3q28 0 68.5 2.5t66.5 5.5l27 2l6 -7l-7 -43q-97 -10 -180 -10q-32 0 -58.5 5t-51.5 18.5t-35.5 41t-3.5 67.5l68 386q24 132 195 132q37 0 81 -2.5t70 -5.5l26 -2z" />
    <glyph glyph-name="D" unicode="D" horiz-adv-x="540" 
d="M439 170l52 290q11 63 -20 91.5t-89 28.5h-150l-94 -530h150q58 0 99 28.5t52 91.5zM541 460l-52 -290q-29 -170 -209 -170h-200l111 630h200q180 0 150 -170z" />
    <glyph glyph-name="E" unicode="E" horiz-adv-x="510" 
d="M232 580l-41 -230h250l-9 -50h-250l-44 -250h310l-8 -50h-360l111 630h360l-9 -50h-310z" />
    <glyph glyph-name="F" unicode="F" horiz-adv-x="490" 
d="M232 580l-41 -230h250l-9 -50h-250l-52 -300h-50l111 630h360l-9 -50h-310z" />
    <glyph glyph-name="G" unicode="G" horiz-adv-x="520" 
d="M375 315h130l-55 -315q-102 -10 -185 -10q-33 0 -61 5.5t-56 18.5t-41 40.5t-6 67.5l68 386q24 132 200 132q37 0 80 -2.5t67 -5.5l25 -2l-8 -43l-8 -7q-91 10 -154 10q-137 0 -152 -82l-68 -386q-5 -25 6.5 -42.5t34.5 -25.5t45 -11t47 -3q50 0 124 6l38 219h-73l-6 7z
" />
    <glyph glyph-name="H" unicode="H" horiz-adv-x="540" 
d="M241 630l-50 -280h280l50 280h50l-111 -630h-50l52 300h-280l-52 -300h-50l111 630h50z" />
    <glyph glyph-name="I" unicode="I" horiz-adv-x="210" 
d="M191 630h50l-111 -630h-50z" />
    <glyph glyph-name="J" unicode="J" horiz-adv-x="320" 
d="M211 122l90 508h50l-90 -508q-11 -65 -53.5 -98.5t-96.5 -33.5l-92 8l7 40l8 7q48 -5 81 -5q81 0 96 82z" />
    <glyph glyph-name="K" unicode="K" horiz-adv-x="533" 
d="M241 630l-65 -365l345 365h63l-264 -285l173 -345h-63l-152 305l-115 -115l-33 -190h-50l111 630h50z" />
    <glyph glyph-name="L" unicode="L" horiz-adv-x="430" 
d="M418 50l-8 -50h-330l111 630h50l-103 -580h280z" />
    <glyph glyph-name="M" unicode="M" horiz-adv-x="650" 
d="M191 630h70l108 -380l242 380h70l-111 -630h-50l97 555l-231 -365h-56l-103 365l-97 -555h-50z" />
    <glyph glyph-name="N" unicode="N" horiz-adv-x="550" 
d="M531 630h50l-111 -630h-70l-173 555l-97 -555h-50l111 630h70l172 -555z" />
    <glyph glyph-name="O" unicode="O" horiz-adv-x="540" 
d="M232 40h90q41 0 72.5 25t39.5 75l62 350q9 50 -13.5 75t-63.5 25h-90q-41 0 -73 -25.5t-40 -74.5l-62 -350q-8 -50 14.5 -75t63.5 -25zM233 -10q-67 0 -105 34t-24 116l62 350q26 150 181 150h70q67 0 105 -34t24 -116l-62 -350q-26 -150 -181 -150h-70z" />
    <glyph glyph-name="P" unicode="P" horiz-adv-x="520" 
d="M350 260h-175l-45 -260h-50l111 630h225q67 0 104.5 -34t23.5 -116l-12 -70q-26 -150 -182 -150zM184 310h185q41 0 72.5 25t40.5 75l12 70q9 50 -13.5 75t-63.5 25h-185z" />
    <glyph glyph-name="Q" unicode="Q" horiz-adv-x="540" 
d="M241 -10h-8q-67 0 -105 34t-24 116l62 350q26 150 181 150h70q67 0 105 -34t24 -116l-62 -350q-26 -150 -181 -150h-19q-14 -36 -7 -64t35 -28h92l5 -7l-7 -43h-119q-28 0 -43 13t-16.5 35t3 45t14.5 49zM232 40h90q41 0 72.5 25t39.5 75l62 350q9 50 -13.5 75t-63.5 25
h-90q-41 0 -73 -25.5t-40 -74.5l-62 -350q-8 -50 14.5 -75t63.5 -25z" />
    <glyph glyph-name="R" unicode="R" horiz-adv-x="555" 
d="M376 271l109 -271h-63l-107 270h-138l-47 -270h-50l111 630h225q67 0 104.5 -34t23.5 -116l-10 -60q-23 -131 -158 -149zM186 320h185q41 0 72.5 25t40.5 75l10 60q9 50 -13.5 75t-63.5 25h-185z" />
    <glyph glyph-name="S" unicode="S" horiz-adv-x="510" 
d="M412 127l15 85q5 30 -3.5 48.5t-31.5 26.5t-44.5 10.5t-55.5 2.5q-32 0 -58 5t-50 18.5t-34.5 41.5t-3.5 68l13 75q24 132 190 132q37 0 80 -2.5t67 -5.5l25 -2l-8 -43l-8 -7q-91 10 -154 10q-127 0 -142 -82l-13 -75q-4 -24 2 -40.5t16.5 -24.5t33.5 -12.5t38 -5
t45 -0.5q31 0 57.5 -6t50.5 -20t34.5 -43t3.5 -69l-15 -85q-14 -76 -67.5 -106.5t-123.5 -30.5q-37 0 -84.5 2.5t-76.5 5.5l-30 2l7 43l8 7q112 -10 175 -10q126 0 142 87z" />
    <glyph glyph-name="T" unicode="T" horiz-adv-x="440" 
d="M517 580h-170l-102 -580h-50l102 580h-170l9 50h390z" />
    <glyph glyph-name="U" unicode="U" horiz-adv-x="540" 
d="M521 630h50l-87 -490q-26 -150 -181 -150h-70q-67 0 -105 34t-24 116l87 490h50l-87 -490q-8 -50 14.5 -75t63.5 -25h90q41 0 72.5 25t39.5 75z" />
    <glyph glyph-name="V" unicode="V" horiz-adv-x="510" 
d="M286 -5h-64l-81 635h53l73 -560l271 560h53z" />
    <glyph glyph-name="W" unicode="W" horiz-adv-x="740" 
d="M267 70l234 560h50l-78 -187l24 -373l271 560h53l-305 -635h-64l-23 344l-143 -344h-64l-81 635h53z" />
    <glyph glyph-name="X" unicode="X" horiz-adv-x="540" 
d="M360 315l135 -315h-62l-116 270l-212 -270h-60l245 315l-134 315h62l115 -270l213 270h60z" />
    <glyph glyph-name="Y" unicode="Y" horiz-adv-x="490" 
d="M131 630h58l108 -330l226 330h58l-269 -388l-42 -242h-50l42 242z" />
    <glyph glyph-name="Z" unicode="Z" horiz-adv-x="490" 
d="M546 630l-10 -55l-421 -526l334 3l-9 -52h-390l9 55l420 526l-318 -3l10 52h375z" />
    <glyph glyph-name="bracketleft" unicode="[" horiz-adv-x="310" 
d="M251 690l-132 -750h100l-9 -50h-150l150 850h150l-9 -50h-100z" />
    <glyph glyph-name="backslash" unicode="\" horiz-adv-x="285" 
d="M265 0h-50l-84 630h50z" />
    <glyph glyph-name="bracketright" unicode="]" horiz-adv-x="310" 
d="M169 -60l132 750h-100l9 50h150l-150 -850h-150l9 50h100z" />
    <glyph glyph-name="asciicircum" unicode="^" horiz-adv-x="488" 
d="M336 670h52l102 -200h-56l-80 158l-136 -158h-56z" />
    <glyph glyph-name="underscore" unicode="_" horiz-adv-x="580" 
d="M74 -30h420l-9 -50h-420z" />
    <glyph glyph-name="grave" unicode="`" horiz-adv-x="320" 
d="M338 560l-29 -20l-111 130l52 40z" />
    <glyph glyph-name="a" unicode="a" horiz-adv-x="485" 
d="M374 110l55 314q-62 6 -117 6q-116 0 -132 -87l-38 -216q-9 -50 12 -68.5t68 -18.5q76 0 152 70zM405 0h-43l-6 7l12 53h-4q-2 -3 -6 -7.5t-19 -16.5t-32 -21.5t-45 -17t-59 -7.5q-64 0 -94.5 29.5t-16.5 107.5l38 216q24 137 181 137q32 0 74.5 -2.5t68.5 -5.5l26 -2
l6 -7z" />
    <glyph glyph-name="b" unicode="b" horiz-adv-x="485" 
d="M193 360l-55 -314q62 -6 117 -6q116 0 132 87l38 216q9 50 -12 68.5t-68 18.5q-76 0 -152 -70zM196 660h50l-32 -180l-15 -70h4q2 3 6 7.5t19 16.5t32 21.5t45 17t59 7.5q64 0 94.5 -29.5t16.5 -107.5l-38 -216q-24 -137 -181 -137q-32 0 -74 2.5t-68 5.5l-27 2l-6 7z
" />
    <glyph glyph-name="c" unicode="c" horiz-adv-x="420" 
d="M445 427l-8 -7q-62 10 -125 10q-52 0 -87 -16.5t-44 -65.5l-40 -226q-5 -26 2 -43t24 -25t35 -11t42 -3q28 0 60 2.5t50 5.5l17 2l6 -7l-7 -43q-62 -10 -145 -10q-32 0 -56.5 5t-46 18.5t-30 41t-1.5 67.5l40 226q24 132 180 132q37 0 72 -2.5t52 -5.5l17 -2z" />
    <glyph glyph-name="d" unicode="d" horiz-adv-x="485" 
d="M374 110l55 314q-62 6 -117 6q-116 0 -132 -87l-38 -216q-9 -50 12 -68.5t68 -18.5q76 0 152 70zM521 660l-116 -660h-43l-6 7l11 53h-4q-2 -3 -6 -7.5t-18.5 -16.5t-31.5 -21.5t-45 -17t-59 -7.5q-64 0 -94.5 29.5t-16.5 107.5l38 216q24 137 181 137q47 0 127 -5
l33 185h50z" />
    <glyph glyph-name="e" unicode="e" horiz-adv-x="470" 
d="M159 219l-18 -97q-5 -26 2 -43t24 -25t35 -11t42 -3q28 0 60 2.5t50 5.5l17 2l6 -7l-7 -43q-62 -10 -145 -10q-32 0 -56.5 5t-46 18.5t-30 41t-1.5 67.5l39 221q13 71 66.5 104t127.5 33q77 0 118.5 -30t28.5 -107q-24 -132 -181 -132q-80 0 -131 8zM181 343l-13 -73
q81 -9 121 -9q117 0 132 82q8 49 -23 69t-83 20q-119 0 -134 -89z" />
    <glyph glyph-name="f" unicode="f" horiz-adv-x="280" 
d="M324 420h-110l-104 -590h-50l104 590h-50l8 50h50l13 70q11 66 48 98t90 32q15 0 30.5 -2t24.5 -4l8 -2l-7 -40l-8 -7q-19 5 -52 5q-71 0 -84 -80l-13 -70h110z" />
    <glyph glyph-name="g" unicode="g" horiz-adv-x="485" 
d="M374 110l55 314q-62 6 -117 6q-116 0 -132 -87l-38 -216q-9 -50 12 -68.5t68 -18.5q76 0 152 70zM347 -43l9 50l12 53h-4q-2 -3 -6 -7.5t-19 -16.5t-32 -21.5t-45 -17t-59 -7.5q-64 0 -94.5 29.5t-16.5 107.5l38 216q24 137 181 137q32 0 74.5 -2.5t68.5 -5.5l26 -2l6 -7
l-89 -506q-24 -137 -181 -137q-37 0 -77 2.5t-62 5.5l-22 2l7 43l8 7q82 -10 145 -10q116 0 132 87z" />
    <glyph glyph-name="h" unicode="h" 
d="M196 660h50q-33 -185 -35 -195l-11 -55h4q2 3 6 7.5t18.5 16.5t31.5 21.5t45 17t59 7.5q65 0 97.5 -29.5t18.5 -107.5l-60 -343h-50l60 343q9 50 -14 68.5t-71 18.5q-76 0 -152 -70l-63 -360h-50z" />
    <glyph glyph-name="i" unicode="i" horiz-adv-x="210" 
d="M241 630l-13 -70h-50l13 70h50zM162 470h50l-82 -470h-50z" />
    <glyph glyph-name="j" unicode="j" horiz-adv-x="210" 
d="M241 630l-13 -70h-50l13 70h50zM71 -50l91 520h50l-91 -520q-12 -66 -48.5 -98t-88.5 -32q-15 0 -31 2t-25 4l-8 2l7 40l8 7q20 -5 53 -5q69 0 83 80z" />
    <glyph glyph-name="k" unicode="k" horiz-adv-x="493" 
d="M167 215l-37 -215h-50l116 660h50l-70 -395h140q48 0 77.5 18.5t38.5 68.5l20 118h50l-20 -118q-14 -78 -57 -107.5t-108 -29.5h-5l121 -215h-63l-120 215h-83z" />
    <glyph glyph-name="l" unicode="l" horiz-adv-x="210" 
d="M196 660h50l-116 -660h-50z" />
    <glyph glyph-name="m" unicode="m" horiz-adv-x="790" 
d="M483 360l-63 -360h-50l60 343q9 50 -14 68.5t-71 18.5q-76 0 -152 -70l-63 -360h-50l82 470h43l6 -7l-11 -53h4q2 3 6 7.5t18.5 16.5t31.5 21.5t45 17t59 7.5q108 0 118 -79q10 13 24 27t56.5 33t91.5 19q65 0 97.5 -29.5t18.5 -107.5l-60 -343h-50l60 343q9 50 -14 68.5
t-71 18.5q-76 0 -152 -70z" />
    <glyph glyph-name="n" unicode="n" 
d="M480 343l-60 -343h-50l60 343q9 50 -14 68.5t-71 18.5q-76 0 -152 -70l-63 -360h-50l82 470h43l6 -7l-11 -53h4q2 3 6 7.5t18.5 16.5t31.5 21.5t45 17t59 7.5q65 0 97.5 -29.5t18.5 -107.5z" />
    <glyph glyph-name="o" unicode="o" horiz-adv-x="480" 
d="M382 125l38 220q9 49 -21 67t-84 18q-120 0 -135 -85l-38 -220q-9 -49 21 -67t84 -18q120 0 135 85zM470 345l-38 -220q-14 -77 -65 -106t-129 -29q-75 0 -117 32t-29 103l38 220q13 71 66 103t128 32q37 0 64 -5.5t49.5 -19.5t31 -42t1.5 -68z" />
    <glyph glyph-name="p" unicode="p" horiz-adv-x="485" 
d="M193 360l-55 -314q62 -6 117 -6q116 0 132 87l38 216q9 50 -12 68.5t-68 18.5q-76 0 -152 -70zM50 -170l112 640h43l6 -7l-11 -53h4q2 3 6 7.5t18.5 16.5t31.5 21.5t45 17t59 7.5q64 0 94.5 -29.5t16.5 -107.5l-38 -216q-24 -137 -181 -137q-47 0 -127 5l-29 -165h-50z
" />
    <glyph glyph-name="q" unicode="q" horiz-adv-x="485" 
d="M374 110l55 314q-62 6 -117 6q-116 0 -132 -87l-38 -216q-9 -50 12 -68.5t68 -18.5q76 0 152 70zM375 -170h-50q29 165 30 175l13 55h-4q-2 -3 -6 -7.5t-19 -16.5t-32 -21.5t-45 -17t-59 -7.5q-64 0 -94.5 29.5t-16.5 107.5l38 216q24 137 181 137q32 0 74.5 -2.5
t68.5 -5.5l26 -2l6 -7z" />
    <glyph glyph-name="r" unicode="r" horiz-adv-x="325" 
d="M367 437l-9 -7q-29 0 -46.5 -2.5t-51 -18.5t-67.5 -49l-63 -360h-50l82 470h43l6 -7l-11 -53h4q3 3 7.5 8.5t21 18.5t35 23t47.5 16.5t59 3.5z" />
    <glyph glyph-name="s" unicode="s" horiz-adv-x="450" 
d="M77 43l8 7q82 -10 145 -10q26 0 43 2.5t37.5 10t33.5 26.5t18 48q2 14 2 26t-1.5 20.5t-7 15.5t-10 11t-15 7t-17 4.5t-20.5 2.5t-22 1h-24q-73 0 -106.5 27.5t-19.5 105.5q14 77 58.5 104.5t111.5 27.5q37 0 74.5 -2.5t56.5 -5.5l20 -2l-7 -43l-8 -7q-72 10 -135 10
q-56 0 -84 -16t-37 -66q-3 -15 -3.5 -27t3.5 -21t7 -15t13 -9.5t17 -6t22.5 -3.5t25 -1h30.5q17 0 28 -0.5t26 -2.5t25 -6t20.5 -10.5t16.5 -16.5t10.5 -24t4 -34t-4.5 -44q-8 -44 -26 -72.5t-45 -42t-52 -18t-58 -4.5q-37 0 -77 2.5t-62 5.5l-22 2z" />
    <glyph glyph-name="t" unicode="t" horiz-adv-x="310" 
d="M111 120l53 300h-50l8 50h50l18 100h50l-18 -100h120l-8 -50h-120l-53 -300q-3 -27 -1.5 -43t12.5 -24t21 -10.5t24 -2.5l53 5l6 -7l-7 -40q-33 -8 -66 -8q-53 0 -78.5 32t-13.5 98z" />
    <glyph glyph-name="u" unicode="u" 
d="M102 127l60 343h50l-60 -343q-9 -50 14 -68.5t71 -18.5q76 0 152 70l63 360h50l-82 -470h-43l-6 7l11 53h-4q-2 -3 -6 -7.5t-18.5 -16.5t-31.5 -21.5t-45 -17t-59 -7.5q-65 0 -97.5 29.5t-18.5 107.5z" />
    <glyph glyph-name="v" unicode="v" horiz-adv-x="450" 
d="M256 -5h-64l-80 475h58l63 -420l211 420h58z" />
    <glyph glyph-name="w" unicode="w" horiz-adv-x="680" 
d="M256 -5h-64l-80 475h58l63 -420l211 420h58l-78 -152l39 -268l211 420h58l-246 -475h-64l-39 251z" />
    <glyph glyph-name="x" unicode="x" horiz-adv-x="480" 
d="M313 235l122 -235h-63l-99 191l-165 -191h-63l204 235l-122 235h63l99 -192l165 192h63z" />
    <glyph glyph-name="y" unicode="y" 
d="M502 470l-90 -513q-24 -137 -181 -137q-37 0 -77 2.5t-62 5.5l-22 2l7 43l8 7q82 -10 145 -10q116 0 132 87l9 50l11 53h-4q-2 -3 -6 -7.5t-18.5 -16.5t-31.5 -21.5t-45 -17t-59 -7.5q-65 0 -97.5 29.5t-18.5 107.5l60 343h50l-60 -343q-9 -50 14 -68.5t71 -18.5
q76 0 152 70l63 360h50z" />
    <glyph glyph-name="z" unicode="z" horiz-adv-x="440" 
d="M457 470l-9 -55l-335 -365h285l-8 -50h-340l9 55l335 365h-260l8 50h315z" />
    <glyph glyph-name="braceleft" unicode="{" horiz-adv-x="386" 
d="M321 608l-42 -234q-10 -60 -61 -78q45 -18 34 -77l-35 -197q-8 -49 13 -65.5t65 -16.5l-8 -43l-8 -7q-60 0 -92.5 26.5t-19.5 105.5l35 197q5 31 -17 41.5t-58 10.5l9 51q84 0 93 52l42 234q7 42 23.5 70t40 40.5t45 17t49.5 4.5l6 -7l-8 -43q-44 0 -71 -16.5t-35 -65.5z
" />
    <glyph glyph-name="bar" unicode="|" horiz-adv-x="210" 
d="M217 780h50l-164 -930h-50z" />
    <glyph glyph-name="braceright" unicode="}" horiz-adv-x="386" 
d="M237 374l42 234q8 49 -13 65.5t-65 16.5l8 43l8 7q60 0 92.5 -26.5t19.5 -105.5l-42 -234q-5 -31 17 -41.5t58 -10.5l-9 -51q-84 0 -93 -52l-35 -197q-7 -42 -23.5 -70t-40 -40.5t-45 -17t-49.5 -4.5l-6 7l8 43q44 0 71 16.5t35 65.5l35 197q11 59 62 77q-45 17 -35 78z
" />
    <glyph glyph-name="asciitilde" unicode="~" horiz-adv-x="508" 
d="M293 218q-39 19 -65.5 22.5t-42 -3.5t-39.5 -27l-25 24q75 92 192 40q38 -19 64.5 -19t38 7.5t34.5 29.5l25 -24q-79 -97 -182 -50z" />
    <glyph glyph-name="exclamdown" unicode="&#xa1;" horiz-adv-x="210" 
d="M50 -170l51 290l43 220h40l-33 -220l-51 -290h-50zM212 470l-12 -70h-50l12 70h50z" />
    <glyph glyph-name="cent" unicode="&#xa2;" 
d="M102 127l39 221q23 128 178 132l20 110h50l-20 -111l133 -9l-7 -43l-8 -7q-92 10 -155 10q-126 0 -141 -82l-39 -221q-6 -34 11.5 -54.5t42.5 -26.5t58 -6q28 0 67 2.5t65 5.5l25 2l6 -7l-7 -43q-55 -6 -127 -9l-20 -111h-50l20 110q-31 0 -57 6.5t-49 20.5t-32.5 42
t-2.5 68z" />
    <glyph glyph-name="sterling" unicode="&#xa3;" horiz-adv-x="570" 
d="M249 340h210l-8 -50h-210l-27 -153q-12 -59 -40 -87h324l-8 -50h-410l8 50h10q51 0 64 75l29 165h-60l8 50h60l30 168q24 132 195 132q37 0 81 -2.5t70 -5.5l26 -2l-8 -43l-8 -7q-96 10 -159 10q-132 0 -147 -82z" />
    <glyph glyph-name="currency" unicode="&#xa4;" horiz-adv-x="513" 
d="M143 249q12 68 69 114l-63 90l10 8l63 -90q51 36 106 36t93 -36l94 90l7 -8l-93 -89q41 -46 29 -115t-69 -114l61 -86l-10 -9l-62 87q-49 -35 -105 -35q-57 0 -94 35l-91 -87l-8 9l91 86q-40 46 -28 114zM155 249q-10 -59 25.5 -102t94.5 -43t110 43t61 102
q11 59 -25 102.5t-95 43.5t-109.5 -43.5t-61.5 -102.5z" />
    <glyph glyph-name="yen" unicode="&#xa5;" horiz-adv-x="490" 
d="M324 260h131l-8 -50h-140l-37 -210h-50l37 210h-140l8 50h130l-124 370h58l108 -330l226 330h58z" />
    <glyph glyph-name="brokenbar" unicode="&#xa6;" horiz-adv-x="210" 
d="M217 780h50l-70 -400h-50zM124 250h50l-71 -400h-50z" />
    <glyph glyph-name="section" unicode="&#xa7;" horiz-adv-x="530" 
d="M503 302l-42 -235q-7 -40 -26.5 -68.5t-48 -42.5t-56.5 -20t-60 -6q-37 0 -84.5 2.5t-77.5 5.5l-29 2l8 43l8 7q111 -10 174 -10q127 0 142 87l15 85q4 24 -1.5 41t-17 26t-32.5 14t-38.5 6t-44.5 1q-32 0 -58 5.5t-50.5 18.5t-35 41t-3.5 68l40 225q24 132 190 132
q37 0 79.5 -2.5t67.5 -5.5l24 -2l-7 -43l-8 -7q-92 10 -155 10q-126 0 -141 -82l-13 -75q-4 -24 2 -40.5t16.5 -24.5t33.5 -12.5t38 -5t45 -0.5q31 0 57.5 -6t50.5 -20t34.5 -43t3.5 -69zM318 390q-77 0 -115 28l-8 -45q-4 -24 2.5 -40.5t17 -24.5t33.5 -12.5t38 -5t45 -0.5
q75 0 114 -31l8 43q4 24 -2 41t-17.5 26t-32.5 14t-38.5 6t-44.5 1z" />
    <glyph glyph-name="dieresis" unicode="&#xa8;" horiz-adv-x="420" 
d="M266 635l-13 -75h-75l13 75h75zM451 635l-13 -75h-75l13 75h75z" />
    <glyph glyph-name="copyright" unicode="&#xa9;" horiz-adv-x="800" 
d="M222 36h368q42 0 75.5 26.5t42.5 78.5l63 358q9 52 -15 78.5t-66 26.5h-368q-42 0 -76 -26.5t-43 -78.5l-63 -358q-9 -52 15.5 -78.5t66.5 -26.5zM235 0q-67 0 -105 34t-24 116l60 340q26 150 181 150h330q67 0 105 -34t24 -116l-60 -340q-26 -150 -181 -150h-330z
M609 468l-6 -5q-72 7 -120 7q-99 0 -109 -61l-30 -170q-5 -25 10 -39.5t33.5 -18t44.5 -3.5l122 7l4 -5l-5 -32q-73 -8 -135 -8q-24 0 -44 4t-38.5 14t-26 30.5t-2.5 50.5l30 170q17 99 146 99q28 0 61 -2t52 -4l19 -2z" />
    <glyph glyph-name="ordfeminine" unicode="&#xaa;" horiz-adv-x="375" 
d="M413 559l-46 -261h-32l-4 5l8 40h-3q-2 -2 -4.5 -5.5t-13.5 -13t-24 -16.5t-34 -12.5t-44 -5.5q-49 0 -73 22.5t-14 80.5q18 103 138 103h98l11 63q7 36 -15 48.5t-62 12.5q-21 0 -45 -2t-38 -4l-13 -1l-5 5l6 32q47 8 109 8q52 0 81 -21t19 -78zM345 380l13 79h-75
q-35 0 -54.5 -3t-38 -18.5t-23.5 -44.5q-7 -37 10 -51t53 -14q58 0 115 52z" />
    <glyph glyph-name="guillemotleft" unicode="&#xab;" horiz-adv-x="503" 
d="M117 211l11 64l284 175l-12 -65l-225 -142l175 -142l-11 -65zM297 211l11 64l182 105l-12 -65l-128 -72l103 -72l-12 -65z" />
    <glyph glyph-name="logicalnot" unicode="&#xac;" horiz-adv-x="595" 
d="M562 270l-33 -185h-50l24 135h-385l9 50h435z" />
    <glyph glyph-name="uni00AD" unicode="&#xad;" horiz-adv-x="480" 
d="M127 270h320l-9 -50h-320z" />
    <glyph glyph-name="registered" unicode="&#xae;" horiz-adv-x="800" 
d="M222 36h368q42 0 75.5 26.5t42.5 78.5l63 358q9 52 -15 78.5t-66 26.5h-368q-42 0 -76 -26.5t-43 -78.5l-63 -358q-9 -52 15.5 -78.5t66.5 -26.5zM235 0q-67 0 -105 34t-24 116l60 340q26 150 181 150h330q67 0 105 -34t24 -116l-60 -340q-26 -150 -181 -150h-330z
M452 283h-101l-23 -135h-37l62 352h165q52 0 82 -21t20 -78l-3 -19q-16 -91 -117 -99l95 -135h-49zM358 320h130q38 0 61 12.5t30 49.5l3 19q7 37 -12 49.5t-57 12.5h-130z" />
    <glyph glyph-name="macron" unicode="&#xaf;" horiz-adv-x="440" 
d="M469 620l-9 -50h-280l9 50h280z" />
    <glyph glyph-name="degree" unicode="&#xb0;" horiz-adv-x="357" 
d="M184 591q7 41 40.5 70t74.5 29t65 -29t17 -70t-41.5 -69.5t-75.5 -28.5t-64.5 28.5t-15.5 69.5zM206 591q-6 -32 12 -54t50 -22t58.5 22t32.5 54q5 32 -13.5 54.5t-50.5 22.5t-58 -22.5t-31 -54.5z" />
    <glyph glyph-name="plusminus" unicode="&#xb1;" horiz-adv-x="480" 
d="M95 90h135l23 130h-135l9 50h135l24 135h50l-24 -135h135l-9 -50h-135l-23 -130h135l-8 -50h-320z" />
    <glyph glyph-name="twosuperior" unicode="&#xb2;" horiz-adv-x="377" 
d="M144 538q18 99 145 99q26 0 42.5 1.5t36 7.5t30.5 20t15 37l5 24q6 37 -19.5 51.5t-64.5 14.5l-133 -8l-5 5l6 33q84 7 146 7q52 0 84.5 -23t22.5 -80l-5 -24q-10 -57 -51.5 -80.5t-93.5 -23.5q-29 0 -43 -1t-34.5 -6t-31.5 -18.5t-15 -35.5l-16 -90h233l-6 -38h-270
q8 44 22 128z" />
    <glyph glyph-name="threesuperior" unicode="&#xb3;" horiz-adv-x="370" 
d="M174 605l7 38h102q25 0 42 2t36 8t30.5 20.5t15.5 36.5l3 17q6 37 -19.5 51.5t-64.5 14.5l-133 -8l-4 5l6 33q83 7 145 7q52 0 85 -23t23 -80l-3 -17q-12 -65 -70 -86q51 -24 39 -86l-5 -33q-7 -39 -32 -63.5t-52.5 -32t-60.5 -7.5q-28 0 -63.5 2t-56.5 4l-22 2l5 32l6 6
q84 -8 131 -8q95 0 107 65l5 33q7 42 -20 54.5t-80 12.5h-102z" />
    <glyph glyph-name="acute" unicode="&#xb4;" horiz-adv-x="320" 
d="M201 540l-23 20l142 150l38 -40z" />
    <glyph glyph-name="mu" unicode="&#xb5;" 
d="M71 -50l91 520h50l-60 -343q-9 -50 14 -68.5t71 -18.5q76 0 152 70l63 360h50l-82 -470h-43l-6 7l11 53h-4q-2 -3 -6 -7.5t-18.5 -16.5t-31.5 -21.5t-45 -17t-59 -7.5q-58 0 -87 20l-10 -60q-12 -66 -48.5 -98t-88.5 -32q-15 0 -31 2t-25 4l-8 2l7 40l8 7q20 -5 53 -5
q69 0 83 80z" />
    <glyph glyph-name="paragraph" unicode="&#xb6;" horiz-adv-x="570" 
d="M355 260h-75q-67 0 -104.5 34t-23.5 116l12 70q26 150 182 150h125l-111 -630h-50zM551 630h50l-111 -630h-50z" />
    <glyph glyph-name="periodcentered" unicode="&#xb7;" horiz-adv-x="260" 
d="M231 290l-18 -100h-100l18 100h100z" />
    <glyph glyph-name="cedilla" unicode="&#xb8;" horiz-adv-x="320" 
d="M106 -135l7 6q37 -5 53 -3q17 1 22.5 8.5t7.5 20.5q1 7 0 12t-11 10.5t-29 5.5l14 75h45l-8 -45q52 -9 44 -60q-13 -75 -93 -75l-59 5z" />
    <glyph glyph-name="onesuperior" unicode="&#xb9;" horiz-adv-x="377" 
d="M405 448l-6 -38h-277l6 38h120l60 337h-105l7 38h142l-67 -375h120z" />
    <glyph glyph-name="ordmasculine" unicode="&#xba;" horiz-adv-x="375" 
d="M346 391l30 165q11 64 -79 64t-101 -64l-30 -165q-6 -37 16 -50t63 -13q91 0 101 63zM413 556l-30 -165q-17 -101 -144 -101q-56 0 -88 24t-23 77l30 165q9 54 49.5 78t96.5 24q58 0 88.5 -22t20.5 -80z" />
    <glyph glyph-name="guillemotright" unicode="&#xbb;" horiz-adv-x="503" 
d="M471 275l-11 -64l-284 -175l11 65l225 142l-175 142l12 65zM291 275l-11 -64l-182 -105l12 65l127 72l-102 72l12 65z" />
    <glyph glyph-name="onequarter" unicode="&#xbc;" horiz-adv-x="1000" 
d="M400 248l-6 -38h-277l6 38h120l60 337h-105l6 38h142l-66 -375h120zM414 0h-40l406 630h40zM843 98h-236l6 37l275 281h48l-50 -281h57l-6 -37h-57l-17 -98h-37zM655 135h194l42 238z" />
    <glyph glyph-name="onehalf" unicode="&#xbd;" horiz-adv-x="1000" 
d="M400 248l-6 -38h-277l6 38h120l60 337h-105l6 38h142l-66 -375h120zM384 0h-40l406 630h40zM665 128q18 99 145 99q26 0 42.5 1.5t36 7.5t30.5 20t15 37l4 24q7 37 -18.5 51.5t-64.5 14.5l-133 -8l-5 5l5 33q85 7 147 7q52 0 84 -23t22 -80l-4 -24q-10 -57 -51.5 -80.5
t-93.5 -23.5q-29 0 -43 -1t-34.5 -6t-31.5 -18.5t-15 -35.5l-16 -90h233l-6 -38h-270q7 44 22 128z" />
    <glyph glyph-name="threequarters" unicode="&#xbe;" horiz-adv-x="1000" 
d="M394 0h-40l406 630h40zM843 98h-236l6 37l275 281h48l-50 -281h57l-6 -37h-57l-17 -98h-37zM655 135h194l42 238zM169 405l7 38h102q25 0 42 2t35.5 8t30 20.5t15.5 36.5l3 17q7 37 -18.5 51.5t-64.5 14.5l-133 -8l-4 5l5 33q84 7 146 7q52 0 84.5 -23t22.5 -80l-3 -17
q-11 -64 -70 -86q52 -23 40 -86l-6 -33q-10 -57 -51 -80t-93 -23q-28 0 -63.5 2t-57.5 4l-21 2l5 32l6 6q84 -8 131 -8q95 0 106 65l6 33q7 42 -20 54.5t-80 12.5h-102z" />
    <glyph glyph-name="questiondown" unicode="&#xbf;" 
d="M365 258l14 82h50l-14 -82q-24 -138 -154 -138q-22 0 -33.5 -0.5t-29.5 -5t-28 -12.5t-20 -24.5t-14 -40.5l-15 -85q-5 -26 3.5 -43t27.5 -25t38 -11t44 -3q28 0 67 2.5t65 5.5l25 2l6 -7l-7 -43q-92 -10 -175 -10q-32 0 -58 5t-49.5 18.5t-33.5 41t-3 67.5l15 85
q24 133 153 133q39 0 60 4t40 24.5t26 59.5zM390 400l12 70h50l-12 -70h-50z" />
    <glyph glyph-name="Agrave" unicode="&#xc0;" horiz-adv-x="510" 
d="M393 710l-30 -20l-111 130l52 40zM334 635h64l82 -635h-53l-32 244h-194l-118 -244h-53zM353 560l-129 -266h163z" />
    <glyph glyph-name="Aacute" unicode="&#xc1;" horiz-adv-x="510" 
d="M386 690l-22 20l141 150l38 -40zM334 635h64l82 -635h-53l-32 244h-194l-118 -244h-53zM353 560l-129 -266h163z" />
    <glyph glyph-name="Acircumflex" unicode="&#xc2;" horiz-adv-x="510" 
d="M372 820h52l85 -130h-56l-62 88l-94 -88h-56zM334 635h64l82 -635h-53l-32 244h-194l-118 -244h-53zM353 560l-129 -266h163z" />
    <glyph glyph-name="Atilde" unicode="&#xc3;" horiz-adv-x="510" 
d="M381 718q-24 15 -39 21t-29 2t-21 -9.5t-24 -21.5l-28 24q65 93 159 40q16 -10 28 -14.5t19.5 -6t16 2.5t12 7t14 13.5l15.5 15.5l28 -24q-67 -97 -151 -50zM334 635h64l82 -635h-53l-32 244h-194l-118 -244h-53zM353 560l-129 -266h163z" />
    <glyph glyph-name="Adieresis" unicode="&#xc4;" horiz-adv-x="510" 
d="M336 785l-13 -75h-75l13 75h75zM521 785l-13 -75h-75l13 75h75zM334 635h64l82 -635h-53l-32 244h-194l-118 -244h-53zM353 560l-129 -266h163z" />
    <glyph glyph-name="Aring" unicode="&#xc5;" horiz-adv-x="510" 
d="M369 690q-37 0 -58 15t-14 56l7 42q13 71 98 71h14q37 0 58 -15t14 -56l-7 -42q-13 -71 -98 -71h-14zM337 801l-7 -38q-6 -40 40 -40h24q48 0 54 40l7 38q3 21 -8.5 30t-32.5 9h-23q-48 0 -54 -39zM334 635h64l82 -635h-53l-32 244h-194l-118 -244h-53zM353 560
l-129 -266h163z" />
    <glyph glyph-name="AE" unicode="&#xc6;" horiz-adv-x="800" 
d="M334 630h507l-9 -50h-310l-41 -230h250l-9 -50h-250l-44 -250h310l-8 -50h-360l52 300h-195l-144 -300h-53zM362 580l-111 -230h180l41 230h-110z" />
    <glyph glyph-name="Ccedilla" unicode="&#xc7;" horiz-adv-x="480" 
d="M176 -135l7 6q37 -5 53 -3q17 1 22.5 8.5t7.5 20.5q1 7 0 12t-11 10.5t-29 5.5l12 65q-31 1 -56 7t-47 19.5t-31.5 40.5t-2.5 65l68 386q24 132 195 132q37 0 81 -2.5t70 -5.5l26 -2l-8 -43l-8 -7q-96 10 -159 10q-132 0 -147 -82l-68 -386q-5 -26 4.5 -43t29.5 -25
t39.5 -11t44.5 -3q28 0 68.5 2.5t66.5 5.5l27 2l6 -7l-7 -43q-74 -7 -147 -9l-6 -36q52 -9 44 -60q-13 -75 -93 -75l-59 5z" />
    <glyph glyph-name="Egrave" unicode="&#xc8;" horiz-adv-x="510" 
d="M415 710l-30 -20l-111 130l52 40zM232 580l-41 -230h250l-9 -50h-250l-44 -250h310l-8 -50h-360l111 630h360l-9 -50h-310z" />
    <glyph glyph-name="Eacute" unicode="&#xc9;" horiz-adv-x="510" 
d="M368 690l-22 20l141 150l38 -40zM232 580l-41 -230h250l-9 -50h-250l-44 -250h310l-8 -50h-360l111 630h360l-9 -50h-310z" />
    <glyph glyph-name="Ecircumflex" unicode="&#xca;" horiz-adv-x="510" 
d="M382 820h52l85 -130h-56l-62 88l-94 -88h-56zM232 580l-41 -230h250l-9 -50h-250l-44 -250h310l-8 -50h-360l111 630h360l-9 -50h-310z" />
    <glyph glyph-name="Edieresis" unicode="&#xcb;" horiz-adv-x="510" 
d="M342 785l-13 -75h-75l13 75h75zM527 785l-13 -75h-75l13 75h75zM232 580l-41 -230h250l-9 -50h-250l-44 -250h310l-8 -50h-360l111 630h360l-9 -50h-310z" />
    <glyph glyph-name="Igrave" unicode="&#xcc;" horiz-adv-x="213" 
d="M255 710l-30 -20l-111 130l52 40zM194 630h50l-111 -630h-50z" />
    <glyph glyph-name="Iacute" unicode="&#xcd;" horiz-adv-x="216" 
d="M233 690l-22 20l141 150l38 -40zM191 630h50l-111 -630h-50z" />
    <glyph glyph-name="Icircumflex" unicode="&#xce;" horiz-adv-x="228" 
d="M232 820h52l85 -130h-56l-62 88l-94 -88h-56zM202 630h50l-111 -630h-50z" />
    <glyph glyph-name="Idieresis" unicode="&#xcf;" horiz-adv-x="226" 
d="M196 785l-13 -75h-75l13 75h75zM381 785l-13 -75h-75l13 75h75zM201 630h50l-111 -630h-50z" />
    <glyph glyph-name="Eth" unicode="&#xd0;" horiz-adv-x="540" 
d="M541 460l-52 -290q-29 -170 -209 -170h-200l52 300h-60l9 50h60l50 280h200q180 0 150 -170zM191 350h130l-9 -50h-130l-44 -250h150q58 0 99 28.5t52 91.5l52 290q11 63 -20 91.5t-89 28.5h-150z" />
    <glyph glyph-name="Ntilde" unicode="&#xd1;" horiz-adv-x="550" 
d="M400 718q-24 15 -39 21t-29 2t-21 -9.5t-24 -21.5l-28 24q65 93 159 40q16 -10 28 -14.5t19.5 -6t16 2.5t12 7t14 13.5l15.5 15.5l28 -24q-67 -97 -151 -50zM531 630h50l-111 -630h-70l-173 555l-97 -555h-50l111 630h70l172 -555z" />
    <glyph glyph-name="Ograve" unicode="&#xd2;" horiz-adv-x="540" 
d="M415 710l-30 -20l-111 130l52 40zM232 40h90q41 0 72.5 25t39.5 75l62 350q9 50 -13.5 75t-63.5 25h-90q-41 0 -73 -25.5t-40 -74.5l-62 -350q-8 -50 14.5 -75t63.5 -25zM233 -10q-67 0 -105 34t-24 116l62 350q26 150 181 150h70q67 0 105 -34t24 -116l-62 -350
q-26 -150 -181 -150h-70z" />
    <glyph glyph-name="Oacute" unicode="&#xd3;" horiz-adv-x="540" 
d="M400 690l-22 20l141 150l38 -40zM232 40h90q41 0 72.5 25t39.5 75l62 350q9 50 -13.5 75t-63.5 25h-90q-41 0 -73 -25.5t-40 -74.5l-62 -350q-8 -50 14.5 -75t63.5 -25zM233 -10q-67 0 -105 34t-24 116l62 350q26 150 181 150h70q67 0 105 -34t24 -116l-62 -350
q-26 -150 -181 -150h-70z" />
    <glyph glyph-name="Ocircumflex" unicode="&#xd4;" horiz-adv-x="540" 
d="M384 820h52l85 -130h-56l-62 88l-94 -88h-56zM232 40h90q41 0 72.5 25t39.5 75l62 350q9 50 -13.5 75t-63.5 25h-90q-41 0 -73 -25.5t-40 -74.5l-62 -350q-8 -50 14.5 -75t63.5 -25zM233 -10q-67 0 -105 34t-24 116l62 350q26 150 181 150h70q67 0 105 -34t24 -116
l-62 -350q-26 -150 -181 -150h-70z" />
    <glyph glyph-name="Otilde" unicode="&#xd5;" horiz-adv-x="540" 
d="M396 718q-24 15 -39 21t-29 2t-21 -9.5t-24 -21.5l-28 24q65 93 159 40q16 -10 28 -14.5t19.5 -6t16 2.5t12 7t14 13.5l15.5 15.5l28 -24q-67 -97 -151 -50zM232 40h90q41 0 72.5 25t39.5 75l62 350q9 50 -13.5 75t-63.5 25h-90q-41 0 -73 -25.5t-40 -74.5l-62 -350
q-8 -50 14.5 -75t63.5 -25zM233 -10q-67 0 -105 34t-24 116l62 350q26 150 181 150h70q67 0 105 -34t24 -116l-62 -350q-26 -150 -181 -150h-70z" />
    <glyph glyph-name="Odieresis" unicode="&#xd6;" horiz-adv-x="540" 
d="M351 785l-13 -75h-75l13 75h75zM536 785l-13 -75h-75l13 75h75zM232 40h90q41 0 72.5 25t39.5 75l62 350q9 50 -13.5 75t-63.5 25h-90q-41 0 -73 -25.5t-40 -74.5l-62 -350q-8 -50 14.5 -75t63.5 -25zM233 -10q-67 0 -105 34t-24 116l62 350q26 150 181 150h70
q67 0 105 -34t24 -116l-62 -350q-26 -150 -181 -150h-70z" />
    <glyph glyph-name="multiply" unicode="&#xd7;" horiz-adv-x="506" 
d="M127 72l-29 35l163 138l-114 138l41 35l114 -138l162 138l29 -35l-162 -138l113 -138l-41 -35l-113 138z" />
    <glyph glyph-name="Oslash" unicode="&#xd8;" horiz-adv-x="540" 
d="M303 -10h-70q-67 0 -105 34t-24 116l62 350q26 150 181 150h70q67 0 105 -34t24 -116l-62 -350q-26 -150 -181 -150zM232 40h90q41 0 72.5 25t39.5 75l28 160h-280l-28 -160q-8 -50 14.5 -75t63.5 -25zM471 350l25 140q9 50 -13.5 75t-63.5 25h-90q-41 0 -73 -25.5
t-40 -74.5l-25 -140h280z" />
    <glyph glyph-name="Ugrave" unicode="&#xd9;" horiz-adv-x="540" 
d="M440 710l-30 -20l-111 130l52 40zM521 630h50l-87 -490q-26 -150 -181 -150h-70q-67 0 -105 34t-24 116l87 490h50l-87 -490q-8 -50 14.5 -75t63.5 -25h90q41 0 72.5 25t39.5 75z" />
    <glyph glyph-name="Uacute" unicode="&#xda;" horiz-adv-x="540" 
d="M402 690l-22 20l141 150l38 -40zM521 630h50l-87 -490q-26 -150 -181 -150h-70q-67 0 -105 34t-24 116l87 490h50l-87 -490q-8 -50 14.5 -75t63.5 -25h90q41 0 72.5 25t39.5 75z" />
    <glyph glyph-name="Ucircumflex" unicode="&#xdb;" horiz-adv-x="540" 
d="M396 820h52l85 -130h-56l-62 88l-94 -88h-56zM521 630h50l-87 -490q-26 -150 -181 -150h-70q-67 0 -105 34t-24 116l87 490h50l-87 -490q-8 -50 14.5 -75t63.5 -25h90q41 0 72.5 25t39.5 75z" />
    <glyph glyph-name="Udieresis" unicode="&#xdc;" horiz-adv-x="540" 
d="M355 785l-13 -75h-75l13 75h75zM540 785l-13 -75h-75l13 75h75zM521 630h50l-87 -490q-26 -150 -181 -150h-70q-67 0 -105 34t-24 116l87 490h50l-87 -490q-8 -50 14.5 -75t63.5 -25h90q41 0 72.5 25t39.5 75z" />
    <glyph glyph-name="Yacute" unicode="&#xdd;" horiz-adv-x="490" 
d="M378 690l-22 20l141 150l38 -40zM131 630h58l108 -330l226 330h58l-269 -388l-42 -242h-50l42 242z" />
    <glyph glyph-name="Thorn" unicode="&#xde;" horiz-adv-x="520" 
d="M191 630h50l-23 -130h175q67 0 104.5 -34t23.5 -116l-12 -70q-26 -150 -182 -150h-175l-22 -130h-50zM161 180h185q41 0 73 25.5t40 74.5l12 70q9 50 -13.5 75t-63.5 25h-185z" />
    <glyph glyph-name="germandbls" unicode="&#xdf;" horiz-adv-x="510" 
d="M100 -170h-50l119 675q13 71 65.5 103t127.5 32q78 0 119 -29t28 -106l-12 -63q-8 -49 -27.5 -74.5t-53.5 -46.5q29 -13 42.5 -47t4.5 -86l-12 -68q-24 -130 -138 -130q-15 0 -31 2t-24 4l-9 2l7 40l8 7q20 -5 53 -5q70 0 84 80l12 68q17 102 -80 102h-152zM219 505
l-30 -165h144q41 0 73.5 25.5t40.5 76.5l12 63q8 49 -22 67t-83 18q-121 0 -135 -85z" />
    <glyph glyph-name="agrave" unicode="&#xe0;" horiz-adv-x="485" 
d="M374 110l55 314q-62 6 -117 6q-116 0 -132 -87l-38 -216q-9 -50 12 -68.5t68 -18.5q76 0 152 70zM405 0h-43l-6 7l12 53h-4q-2 -3 -6 -7.5t-19 -16.5t-32 -21.5t-45 -17t-59 -7.5q-64 0 -94.5 29.5t-16.5 107.5l38 216q24 137 181 137q32 0 74.5 -2.5t68.5 -5.5l26 -2
l6 -7zM377 560l-29 -20l-111 130l52 40z" />
    <glyph glyph-name="aacute" unicode="&#xe1;" horiz-adv-x="485" 
d="M374 110l55 314q-62 6 -117 6q-116 0 -132 -87l-38 -216q-9 -50 12 -68.5t68 -18.5q76 0 152 70zM405 0h-43l-6 7l12 53h-4q-2 -3 -6 -7.5t-19 -16.5t-32 -21.5t-45 -17t-59 -7.5q-64 0 -94.5 29.5t-16.5 107.5l38 216q24 137 181 137q32 0 74.5 -2.5t68.5 -5.5l26 -2
l6 -7zM345 540l-23 20l142 150l38 -40z" />
    <glyph glyph-name="acircumflex" unicode="&#xe2;" horiz-adv-x="485" 
d="M374 110l55 314q-62 6 -117 6q-116 0 -132 -87l-38 -216q-9 -50 12 -68.5t68 -18.5q76 0 152 70zM405 0h-43l-6 7l12 53h-4q-2 -3 -6 -7.5t-19 -16.5t-32 -21.5t-45 -17t-59 -7.5q-64 0 -94.5 29.5t-16.5 107.5l38 216q24 137 181 137q32 0 74.5 -2.5t68.5 -5.5l26 -2
l6 -7zM344 670h52l85 -130h-56l-63 88l-93 -88h-56z" />
    <glyph glyph-name="atilde" unicode="&#xe3;" horiz-adv-x="485" 
d="M374 110l55 314q-62 6 -117 6q-116 0 -132 -87l-38 -216q-9 -50 12 -68.5t68 -18.5q76 0 152 70zM405 0h-43l-6 7l12 53h-4q-2 -3 -6 -7.5t-19 -16.5t-32 -21.5t-45 -17t-59 -7.5q-64 0 -94.5 29.5t-16.5 107.5l38 216q24 137 181 137q32 0 74.5 -2.5t68.5 -5.5l26 -2
l6 -7zM353 568q-24 15 -39.5 21t-29 2t-21 -9.5t-24.5 -21.5l-28 24q65 93 160 40q16 -10 28 -14.5t19.5 -6t16 2.5t12 7t14 13.5l15.5 15.5l27 -24q-66 -97 -150 -50z" />
    <glyph glyph-name="adieresis" unicode="&#xe4;" horiz-adv-x="485" 
d="M374 110l55 314q-62 6 -117 6q-116 0 -132 -87l-38 -216q-9 -50 12 -68.5t68 -18.5q76 0 152 70zM405 0h-43l-6 7l12 53h-4q-2 -3 -6 -7.5t-19 -16.5t-32 -21.5t-45 -17t-59 -7.5q-64 0 -94.5 29.5t-16.5 107.5l38 216q24 137 181 137q32 0 74.5 -2.5t68.5 -5.5l26 -2
l6 -7zM310 635l-13 -75h-75l13 75h75zM495 635l-13 -75h-75l13 75h75z" />
    <glyph glyph-name="aring" unicode="&#xe5;" horiz-adv-x="485" 
d="M374 110l55 314q-62 6 -117 6q-116 0 -132 -87l-38 -216q-9 -50 12 -68.5t68 -18.5q76 0 152 70zM405 0h-43l-6 7l12 53h-4q-2 -3 -6 -7.5t-19 -16.5t-32 -21.5t-45 -17t-59 -7.5q-64 0 -94.5 29.5t-16.5 107.5l38 216q24 137 181 137q32 0 74.5 -2.5t68.5 -5.5l26 -2
l6 -7zM342 540q-37 0 -58.5 15t-14.5 56l8 42q12 71 97 71h14q37 0 58.5 -15t14.5 -56l-8 -42q-12 -71 -97 -71h-14zM309 651l-6 -38q-8 -40 40 -40h24q46 0 54 40l6 38q4 21 -8 30t-33 9h-23q-46 0 -54 -39z" />
    <glyph glyph-name="ae" unicode="&#xe6;" horiz-adv-x="750" 
d="M720 225l-12 -10h-271l-16 -93q-5 -26 2 -43t24 -25t35 -11t42 -3q28 0 60 2.5t50 5.5l17 2l6 -7l-7 -43q-62 -10 -145 -10q-121 0 -134 77q-12 -14 -31 -29t-59 -31.5t-83 -16.5q-65 0 -97.5 29.5t-18.5 107.5q24 138 184 138h130l15 83q5 26 -2 43t-24 25t-35 11t-42 3
q-28 0 -60 -2.5t-50 -5.5l-17 -2l-6 7l7 43q62 10 145 10q100 0 126 -53q50 53 151 53q77 0 118.5 -30t27.5 -107q-13 -72 -30 -118zM369 110l18 105h-100q-34 0 -55 -2.5t-44 -10.5t-37 -26.5t-19 -48.5q-9 -50 14 -68.5t71 -18.5q76 0 152 70zM595 430q-119 0 -135 -87
l-14 -78h235q11 35 19 78q9 49 -21.5 68t-83.5 19z" />
    <glyph glyph-name="ccedilla" unicode="&#xe7;" horiz-adv-x="420" 
d="M136 -135l7 6q37 -5 53 -3q17 1 22.5 8.5t7.5 20.5q1 7 0 12t-11 10.5t-29 5.5l12 66q-128 10 -107 131l40 226q24 132 180 132q37 0 72 -2.5t52 -5.5l17 -2l-7 -43l-8 -7q-62 10 -125 10q-52 0 -87 -16.5t-44 -65.5l-40 -226q-5 -26 2 -43t24 -25t35 -11t42 -3
q28 0 60 2.5t50 5.5l17 2l6 -7l-7 -43q-54 -8 -127 -10l-6 -35q52 -9 44 -60q-13 -75 -93 -75l-59 5z" />
    <glyph glyph-name="egrave" unicode="&#xe8;" horiz-adv-x="470" 
d="M159 219l-18 -97q-5 -26 2 -43t24 -25t35 -11t42 -3q28 0 60 2.5t50 5.5l17 2l6 -7l-7 -43q-62 -10 -145 -10q-32 0 -56.5 5t-46 18.5t-30 41t-1.5 67.5l39 221q13 71 66.5 104t127.5 33q77 0 118.5 -30t28.5 -107q-24 -132 -181 -132q-80 0 -131 8zM181 343l-13 -73
q81 -9 121 -9q117 0 132 82q8 49 -23 69t-83 20q-119 0 -134 -89zM367 560l-29 -20l-111 130l52 40z" />
    <glyph glyph-name="eacute" unicode="&#xe9;" horiz-adv-x="470" 
d="M159 219l-18 -97q-5 -26 2 -43t24 -25t35 -11t42 -3q28 0 60 2.5t50 5.5l17 2l6 -7l-7 -43q-62 -10 -145 -10q-32 0 -56.5 5t-46 18.5t-30 41t-1.5 67.5l39 221q13 71 66.5 104t127.5 33q77 0 118.5 -30t28.5 -107q-24 -132 -181 -132q-80 0 -131 8zM181 343l-13 -73
q81 -9 121 -9q117 0 132 82q8 49 -23 69t-83 20q-119 0 -134 -89zM335 540l-23 20l142 150l38 -40z" />
    <glyph glyph-name="ecircumflex" unicode="&#xea;" horiz-adv-x="470" 
d="M159 219l-18 -97q-5 -26 2 -43t24 -25t35 -11t42 -3q28 0 60 2.5t50 5.5l17 2l6 -7l-7 -43q-62 -10 -145 -10q-32 0 -56.5 5t-46 18.5t-30 41t-1.5 67.5l39 221q13 71 66.5 104t127.5 33q77 0 118.5 -30t28.5 -107q-24 -132 -181 -132q-80 0 -131 8zM181 343l-13 -73
q81 -9 121 -9q117 0 132 82q8 49 -23 69t-83 20q-119 0 -134 -89zM339 670h52l85 -130h-56l-63 88l-93 -88h-56z" />
    <glyph glyph-name="edieresis" unicode="&#xeb;" horiz-adv-x="470" 
d="M159 219l-18 -97q-5 -26 2 -43t24 -25t35 -11t42 -3q28 0 60 2.5t50 5.5l17 2l6 -7l-7 -43q-62 -10 -145 -10q-32 0 -56.5 5t-46 18.5t-30 41t-1.5 67.5l39 221q13 71 66.5 104t127.5 33q77 0 118.5 -30t28.5 -107q-24 -132 -181 -132q-80 0 -131 8zM181 343l-13 -73
q81 -9 121 -9q117 0 132 82q8 49 -23 69t-83 20q-119 0 -134 -89zM303 635l-13 -75h-75l13 75h75zM488 635l-13 -75h-75l13 75h75z" />
    <glyph glyph-name="igrave" unicode="&#xec;" horiz-adv-x="221" 
d="M173 470h50l-82 -470h-50zM233 560l-29 -20l-111 130l52 40z" />
    <glyph glyph-name="iacute" unicode="&#xed;" horiz-adv-x="221" 
d="M162 470h50l-82 -470h-50zM212 540l-23 20l142 150l38 -40z" />
    <glyph glyph-name="icircumflex" unicode="&#xee;" horiz-adv-x="218" 
d="M201 670h52l85 -130h-56l-63 88l-93 -88h-56zM167 470h50l-82 -470h-50z" />
    <glyph glyph-name="idieresis" unicode="&#xef;" horiz-adv-x="230" 
d="M169 470h50l-82 -470h-50zM171 635l-13 -75h-75l13 75h75zM356 635l-13 -75h-75l13 75h75z" />
    <glyph glyph-name="eth" unicode="&#xf0;" 
d="M311 530l16 89l-133 -9l-6 7l8 43q68 7 139 9l18 101h50l-18 -101q30 -1 53.5 -8t44 -21.5t29 -41.5t1.5 -65l-69 -393q-26 -150 -181 -150h-40q-67 0 -105 34t-24 116l25 140q26 150 181 150h40q67 0 99 -36l24 139q14 76 -86 86l-16 -89h-50zM342 380h-60
q-41 0 -73 -25.5t-40 -74.5l-25 -140q-8 -50 14.5 -75t63.5 -25h60q41 0 72.5 25t39.5 75l25 140q9 50 -13.5 75t-63.5 25z" />
    <glyph glyph-name="ntilde" unicode="&#xf1;" 
d="M480 343l-60 -343h-50l60 343q9 50 -14 68.5t-71 18.5q-76 0 -152 -70l-63 -360h-50l82 470h43l6 -7l-11 -53h4q2 3 6 7.5t18.5 16.5t31.5 21.5t45 17t59 7.5q65 0 97.5 -29.5t18.5 -107.5zM357 568q-24 15 -39.5 21t-29 2t-21 -9.5t-24.5 -21.5l-28 24q65 93 160 40
q16 -10 28 -14.5t19.5 -6t16 2.5t12 7t14 13.5l15.5 15.5l27 -24q-66 -97 -150 -50z" />
    <glyph glyph-name="ograve" unicode="&#xf2;" horiz-adv-x="480" 
d="M382 125l38 220q9 49 -21 67t-84 18q-120 0 -135 -85l-38 -220q-9 -49 21 -67t84 -18q120 0 135 85zM470 345l-38 -220q-14 -77 -65 -106t-129 -29q-75 0 -117 32t-29 103l38 220q13 71 66 103t128 32q37 0 64 -5.5t49.5 -19.5t31 -42t1.5 -68zM366 560l-29 -20l-111 130
l52 40z" />
    <glyph glyph-name="oacute" unicode="&#xf3;" horiz-adv-x="480" 
d="M382 125l38 220q9 49 -21 67t-84 18q-120 0 -135 -85l-38 -220q-9 -49 21 -67t84 -18q120 0 135 85zM470 345l-38 -220q-14 -77 -65 -106t-129 -29q-75 0 -117 32t-29 103l38 220q13 71 66 103t128 32q37 0 64 -5.5t49.5 -19.5t31 -42t1.5 -68zM335 540l-23 20l142 150
l38 -40z" />
    <glyph glyph-name="ocircumflex" unicode="&#xf4;" horiz-adv-x="480" 
d="M382 125l38 220q9 49 -21 67t-84 18q-120 0 -135 -85l-38 -220q-9 -49 21 -67t84 -18q120 0 135 85zM470 345l-38 -220q-14 -77 -65 -106t-129 -29q-75 0 -117 32t-29 103l38 220q13 71 66 103t128 32q37 0 64 -5.5t49.5 -19.5t31 -42t1.5 -68zM337 670h52l85 -130h-56
l-63 88l-93 -88h-56z" />
    <glyph glyph-name="otilde" unicode="&#xf5;" horiz-adv-x="480" 
d="M382 125l38 220q9 49 -21 67t-84 18q-120 0 -135 -85l-38 -220q-9 -49 21 -67t84 -18q120 0 135 85zM470 345l-38 -220q-14 -77 -65 -106t-129 -29q-75 0 -117 32t-29 103l38 220q13 71 66 103t128 32q37 0 64 -5.5t49.5 -19.5t31 -42t1.5 -68zM352 568q-24 15 -39.5 21
t-29 2t-21 -9.5t-24.5 -21.5l-28 24q65 93 160 40q16 -10 28 -14.5t19.5 -6t16 2.5t12 7t14 13.5l15.5 15.5l27 -24q-66 -97 -150 -50z" />
    <glyph glyph-name="odieresis" unicode="&#xf6;" horiz-adv-x="480" 
d="M382 125l38 220q9 49 -21 67t-84 18q-120 0 -135 -85l-38 -220q-9 -49 21 -67t84 -18q120 0 135 85zM470 345l-38 -220q-14 -77 -65 -106t-129 -29q-75 0 -117 32t-29 103l38 220q13 71 66 103t128 32q37 0 64 -5.5t49.5 -19.5t31 -42t1.5 -68zM299 635l-13 -75h-75
l13 75h75zM484 635l-13 -75h-75l13 75h75z" />
    <glyph glyph-name="divide" unicode="&#xf7;" horiz-adv-x="480" 
d="M127 270h320l-9 -50h-320zM297 130l-12 -70h-70l12 70h70zM350 430l-12 -70h-70l12 70h70z" />
    <glyph glyph-name="oslash" unicode="&#xf8;" horiz-adv-x="480" 
d="M470 345l-38 -220q-14 -77 -65 -106t-129 -29q-75 0 -117 32t-29 103l38 220q13 71 66 103t128 32q37 0 64 -5.5t49.5 -19.5t31 -42t1.5 -68zM247 40q120 0 135 85l15 90h-240l-15 -90q-9 -49 21 -67t84 -18zM406 265l14 80q9 49 -21 67t-84 18q-120 0 -135 -85l-14 -80
h240z" />
    <glyph glyph-name="ugrave" unicode="&#xf9;" 
d="M102 127l60 343h50l-60 -343q-9 -50 14 -68.5t71 -18.5q76 0 152 70l63 360h50l-82 -470h-43l-6 7l11 53h-4q-2 -3 -6 -7.5t-18.5 -16.5t-31.5 -21.5t-45 -17t-59 -7.5q-65 0 -97.5 29.5t-18.5 107.5zM366 560l-29 -20l-111 130l52 40z" />
    <glyph glyph-name="uacute" unicode="&#xfa;" 
d="M102 127l60 343h50l-60 -343q-9 -50 14 -68.5t71 -18.5q76 0 152 70l63 360h50l-82 -470h-43l-6 7l11 53h-4q-2 -3 -6 -7.5t-18.5 -16.5t-31.5 -21.5t-45 -17t-59 -7.5q-65 0 -97.5 29.5t-18.5 107.5zM345 540l-23 20l142 150l38 -40z" />
    <glyph glyph-name="ucircumflex" unicode="&#xfb;" 
d="M102 127l60 343h50l-60 -343q-9 -50 14 -68.5t71 -18.5q76 0 152 70l63 360h50l-82 -470h-43l-6 7l11 53h-4q-2 -3 -6 -7.5t-18.5 -16.5t-31.5 -21.5t-45 -17t-59 -7.5q-65 0 -97.5 29.5t-18.5 107.5zM339 670h52l85 -130h-56l-63 88l-93 -88h-56z" />
    <glyph glyph-name="udieresis" unicode="&#xfc;" 
d="M102 127l60 343h50l-60 -343q-9 -50 14 -68.5t71 -18.5q76 0 152 70l63 360h50l-82 -470h-43l-6 7l11 53h-4q-2 -3 -6 -7.5t-18.5 -16.5t-31.5 -21.5t-45 -17t-59 -7.5q-65 0 -97.5 29.5t-18.5 107.5zM305 635l-13 -75h-75l13 75h75zM490 635l-13 -75h-75l13 75h75z" />
    <glyph glyph-name="yacute" unicode="&#xfd;" 
d="M502 470l-90 -513q-24 -137 -181 -137q-37 0 -77 2.5t-62 5.5l-22 2l7 43l8 7q82 -10 145 -10q116 0 132 87l9 50l11 53h-4q-2 -3 -6 -7.5t-18.5 -16.5t-31.5 -21.5t-45 -17t-59 -7.5q-65 0 -97.5 29.5t-18.5 107.5l60 343h50l-60 -343q-9 -50 14 -68.5t71 -18.5
q76 0 152 70l63 360h50zM342 540l-23 20l142 150l38 -40z" />
    <glyph glyph-name="thorn" unicode="&#xfe;" horiz-adv-x="485" 
d="M193 360l-55 -314q62 -6 117 -6q116 0 132 87l38 216q9 50 -12 68.5t-68 18.5q-76 0 -152 -70zM50 -170l146 830h50l-35 -197l-11 -53h4q2 3 6 7.5t18.5 16.5t31.5 21.5t45 17t59 7.5q64 0 94.5 -29.5t16.5 -107.5l-38 -216q-24 -137 -181 -137q-47 0 -127 5l-29 -165
h-50z" />
    <glyph glyph-name="ydieresis" unicode="&#xff;" 
d="M502 470l-90 -513q-24 -137 -181 -137q-37 0 -77 2.5t-62 5.5l-22 2l7 43l8 7q82 -10 145 -10q116 0 132 87l9 50l11 53h-4q-2 -3 -6 -7.5t-18.5 -16.5t-31.5 -21.5t-45 -17t-59 -7.5q-65 0 -97.5 29.5t-18.5 107.5l60 343h50l-60 -343q-9 -50 14 -68.5t71 -18.5
q76 0 152 70l63 360h50zM302 635l-13 -75h-75l13 75h75zM487 635l-13 -75h-75l13 75h75z" />
    <glyph glyph-name="Amacron" unicode="&#x100;" horiz-adv-x="510" 
d="M529 770l-9 -50h-280l9 50h280zM334 635h64l82 -635h-53l-32 244h-194l-118 -244h-53zM353 560l-129 -266h163z" />
    <glyph glyph-name="amacron" unicode="&#x101;" horiz-adv-x="485" 
d="M374 110l55 314q-62 6 -117 6q-116 0 -132 -87l-38 -216q-9 -50 12 -68.5t68 -18.5q76 0 152 70zM405 0h-43l-6 7l12 53h-4q-2 -3 -6 -7.5t-19 -16.5t-32 -21.5t-45 -17t-59 -7.5q-64 0 -94.5 29.5t-16.5 107.5l38 216q24 137 181 137q32 0 74.5 -2.5t68.5 -5.5l26 -2
l6 -7zM506 620l-9 -50h-280l9 50h280z" />
    <glyph glyph-name="Abreve" unicode="&#x102;" horiz-adv-x="510" 
d="M467 810h49q-10 -56 -48 -84.5t-84 -28.5h-16q-46 0 -74 28.5t-18 84.5h49q-6 -34 11 -51t44 -17h9q27 0 49.5 17t28.5 51zM334 635h64l82 -635h-53l-32 244h-194l-118 -244h-53zM353 560l-129 -266h163z" />
    <glyph glyph-name="abreve" unicode="&#x103;" horiz-adv-x="485" 
d="M374 110l55 314q-62 6 -117 6q-116 0 -132 -87l-38 -216q-9 -50 12 -68.5t68 -18.5q76 0 152 70zM405 0h-43l-6 7l12 53h-4q-2 -3 -6 -7.5t-19 -16.5t-32 -21.5t-45 -17t-59 -7.5q-64 0 -94.5 29.5t-16.5 107.5l38 216q24 137 181 137q32 0 74.5 -2.5t68.5 -5.5l26 -2
l6 -7zM438 660h49q-10 -56 -48 -84.5t-84 -28.5h-16q-46 0 -74 28.5t-18 84.5h49q-6 -34 10.5 -51t44.5 -17h9q27 0 49.5 17t28.5 51z" />
    <glyph glyph-name="Aogonek" unicode="&#x104;" horiz-adv-x="510" 
d="M437 0h-10l-32 244h-194l-118 -244h-53l304 635h64l82 -635h-10q-27 -41 -34 -73t12 -42q15 -5 30 -4.5t27 3.5l12 3l3 -5l-12 -41q-5 -1 -12.5 -3t-30 -4.5t-36.5 1.5q-29 6 -38 26t-1.5 46t20 49.5t27.5 43.5zM353 560l-129 -266h163z" />
    <glyph glyph-name="aogonek" unicode="&#x105;" horiz-adv-x="481" 
d="M405 0h-5q-27 -41 -34 -73t12 -42q15 -5 30 -4.5t27 3.5l12 3l3 -5l-12 -41q-5 -1 -12.5 -3t-30 -4.5t-36.5 1.5q-29 6 -38 26t-1.5 46t20 49.5t27.5 43.5h-5l-6 7l12 53h-4q-2 -3 -6 -7.5t-19 -16.5t-32 -21.5t-45 -17t-59 -7.5q-64 0 -94.5 29.5t-16.5 107.5l38 216
q24 137 181 137q32 0 74.5 -2.5t68.5 -5.5l26 -2l6 -7zM374 110l55 314q-62 6 -117 6q-116 0 -132 -87l-38 -216q-9 -50 12 -68.5t68 -18.5q76 0 152 70z" />
    <glyph glyph-name="Cacute" unicode="&#x106;" horiz-adv-x="480" 
d="M385 690l-22 20l141 150l38 -40zM533 587l-8 -7q-96 10 -159 10q-132 0 -147 -82l-68 -386q-5 -26 4.5 -43t29.5 -25t39.5 -11t44.5 -3q28 0 68.5 2.5t66.5 5.5l27 2l6 -7l-7 -43q-97 -10 -180 -10q-32 0 -58.5 5t-51.5 18.5t-35.5 41t-3.5 67.5l68 386q24 132 195 132
q37 0 81 -2.5t70 -5.5l26 -2z" />
    <glyph glyph-name="cacute" unicode="&#x107;" horiz-adv-x="420" 
d="M445 427l-8 -7q-62 10 -125 10q-52 0 -87 -16.5t-44 -65.5l-40 -226q-5 -26 2 -43t24 -25t35 -11t42 -3q28 0 60 2.5t50 5.5l17 2l6 -7l-7 -43q-62 -10 -145 -10q-32 0 -56.5 5t-46 18.5t-30 41t-1.5 67.5l40 226q24 132 180 132q37 0 72 -2.5t52 -5.5l17 -2zM324 540
l-23 20l142 150l38 -40z" />
    <glyph glyph-name="Ccircumflex" unicode="&#x108;" horiz-adv-x="480" 
d="M393 820h52l85 -130h-56l-62 88l-94 -88h-56zM533 587l-8 -7q-96 10 -159 10q-132 0 -147 -82l-68 -386q-5 -26 4.5 -43t29.5 -25t39.5 -11t44.5 -3q28 0 68.5 2.5t66.5 5.5l27 2l6 -7l-7 -43q-97 -10 -180 -10q-32 0 -58.5 5t-51.5 18.5t-35.5 41t-3.5 67.5l68 386
q24 132 195 132q37 0 81 -2.5t70 -5.5l26 -2z" />
    <glyph glyph-name="ccircumflex" unicode="&#x109;" horiz-adv-x="420" 
d="M445 427l-8 -7q-62 10 -125 10q-52 0 -87 -16.5t-44 -65.5l-40 -226q-5 -26 2 -43t24 -25t35 -11t42 -3q28 0 60 2.5t50 5.5l17 2l6 -7l-7 -43q-62 -10 -145 -10q-32 0 -56.5 5t-46 18.5t-30 41t-1.5 67.5l40 226q24 132 180 132q37 0 72 -2.5t52 -5.5l17 -2zM322 670h52
l85 -130h-56l-63 88l-93 -88h-56z" />
    <glyph glyph-name="Cdotaccent" unicode="&#x10a;" horiz-adv-x="480" 
d="M455 790l-14 -80h-80l14 80h80zM533 587l-8 -7q-96 10 -159 10q-132 0 -147 -82l-68 -386q-5 -26 4.5 -43t29.5 -25t39.5 -11t44.5 -3q28 0 68.5 2.5t66.5 5.5l27 2l6 -7l-7 -43q-97 -10 -180 -10q-32 0 -58.5 5t-51.5 18.5t-35.5 41t-3.5 67.5l68 386q24 132 195 132
q37 0 81 -2.5t70 -5.5l26 -2z" />
    <glyph glyph-name="cdotaccent" unicode="&#x10b;" horiz-adv-x="420" 
d="M445 427l-8 -7q-62 10 -125 10q-52 0 -87 -16.5t-44 -65.5l-40 -226q-5 -26 2 -43t24 -25t35 -11t42 -3q28 0 60 2.5t50 5.5l17 2l6 -7l-7 -43q-62 -10 -145 -10q-32 0 -56.5 5t-46 18.5t-30 41t-1.5 67.5l40 226q24 132 180 132q37 0 72 -2.5t52 -5.5l17 -2zM395 640
l-14 -80h-80l14 80h80z" />
    <glyph glyph-name="Ccaron" unicode="&#x10c;" horiz-adv-x="480" 
d="M417 680h-52l-85 130h56l63 -88l93 88h56zM533 587l-8 -7q-96 10 -159 10q-132 0 -147 -82l-68 -386q-5 -26 4.5 -43t29.5 -25t39.5 -11t44.5 -3q28 0 68.5 2.5t66.5 5.5l27 2l6 -7l-7 -43q-97 -10 -180 -10q-32 0 -58.5 5t-51.5 18.5t-35.5 41t-3.5 67.5l68 386
q24 132 195 132q37 0 81 -2.5t70 -5.5l26 -2z" />
    <glyph glyph-name="ccaron" unicode="&#x10d;" horiz-adv-x="427" 
d="M445 427l-8 -7q-62 10 -125 10q-52 0 -87 -16.5t-44 -65.5l-40 -226q-5 -26 2 -43t24 -25t35 -11t42 -3q28 0 60 2.5t50 5.5l17 2l6 -7l-7 -43q-62 -10 -145 -10q-32 0 -56.5 5t-46 18.5t-30 41t-1.5 67.5l40 226q24 132 180 132q37 0 72 -2.5t52 -5.5l17 -2zM362 530
h-52l-85 130h56l62 -88l94 88h56z" />
    <glyph glyph-name="Dcaron" unicode="&#x10e;" horiz-adv-x="540" 
d="M412 680h-52l-85 130h56l63 -88l93 88h56zM439 170l52 290q11 63 -20 91.5t-89 28.5h-150l-94 -530h150q58 0 99 28.5t52 91.5zM541 460l-52 -290q-29 -170 -209 -170h-200l111 630h200q180 0 150 -170z" />
    <glyph glyph-name="dcaron" unicode="&#x10f;" 
d="M374 110l55 314q-62 6 -117 6q-116 0 -132 -87l-38 -216q-9 -50 12 -68.5t68 -18.5q76 0 152 70zM521 660l-116 -660h-43l-6 7l11 53h-4q-2 -3 -6 -7.5t-18.5 -16.5t-31.5 -21.5t-45 -17t-59 -7.5q-64 0 -94.5 29.5t-16.5 107.5l38 216q24 137 181 137q47 0 127 -5
l33 185h50zM642 660l-12 -70l-33 -130h-30l23 130h-30l12 70h70z" />
    <glyph glyph-name="Dcroat" unicode="&#x110;" horiz-adv-x="540" 
d="M541 460l-52 -290q-29 -170 -209 -170h-200l52 300h-60l9 50h60l50 280h200q180 0 150 -170zM191 350h130l-9 -50h-130l-44 -250h150q58 0 99 28.5t52 91.5l52 290q11 63 -20 91.5t-89 28.5h-150z" />
    <glyph glyph-name="dcroat" unicode="&#x111;" horiz-adv-x="485" 
d="M450 540h-60l9 50h60l12 70h50l-12 -70h60l-9 -50h-60l-95 -540h-43l-6 7l11 53h-4q-2 -3 -6 -7.5t-18.5 -16.5t-31.5 -21.5t-45 -17t-59 -7.5q-64 0 -94.5 29.5t-16.5 107.5l38 216q24 137 181 137q47 0 127 -5zM374 110l55 314q-62 6 -117 6q-116 0 -132 -87l-38 -216
q-9 -50 12 -68.5t68 -18.5q76 0 152 70z" />
    <glyph glyph-name="Emacron" unicode="&#x112;" horiz-adv-x="510" 
d="M536 770l-9 -50h-280l9 50h280zM232 580l-41 -230h250l-9 -50h-250l-44 -250h310l-8 -50h-360l111 630h360l-9 -50h-310z" />
    <glyph glyph-name="emacron" unicode="&#x113;" horiz-adv-x="470" 
d="M159 219l-18 -97q-5 -26 2 -43t24 -25t35 -11t42 -3q28 0 60 2.5t50 5.5l17 2l6 -7l-7 -43q-62 -10 -145 -10q-32 0 -56.5 5t-46 18.5t-30 41t-1.5 67.5l39 221q13 71 66.5 104t127.5 33q77 0 118.5 -30t28.5 -107q-24 -132 -181 -132q-80 0 -131 8zM181 343l-13 -73
q81 -9 121 -9q117 0 132 82q8 49 -23 69t-83 20q-119 0 -134 -89zM493 620l-9 -50h-280l9 50h280z" />
    <glyph glyph-name="Ebreve" unicode="&#x114;" horiz-adv-x="510" 
d="M471 810h49q-10 -56 -48 -84.5t-84 -28.5h-16q-46 0 -74 28.5t-18 84.5h49q-6 -34 11 -51t44 -17h9q27 0 49.5 17t28.5 51zM232 580l-41 -230h250l-9 -50h-250l-44 -250h310l-8 -50h-360l111 630h360l-9 -50h-310z" />
    <glyph glyph-name="ebreve" unicode="&#x115;" horiz-adv-x="470" 
d="M159 219l-18 -97q-5 -26 2 -43t24 -25t35 -11t42 -3q28 0 60 2.5t50 5.5l17 2l6 -7l-7 -43q-62 -10 -145 -10q-32 0 -56.5 5t-46 18.5t-30 41t-1.5 67.5l39 221q13 71 66.5 104t127.5 33q77 0 118.5 -30t28.5 -107q-24 -132 -181 -132q-80 0 -131 8zM181 343l-13 -73
q81 -9 121 -9q117 0 132 82q8 49 -23 69t-83 20q-119 0 -134 -89zM428 660h49q-10 -56 -48 -84.5t-84 -28.5h-16q-46 0 -74 28.5t-18 84.5h49q-6 -34 10.5 -51t44.5 -17h9q27 0 49.5 17t28.5 51z" />
    <glyph glyph-name="Edotaccent" unicode="&#x116;" horiz-adv-x="510" 
d="M441 790l-14 -80h-80l14 80h80zM232 580l-41 -230h250l-9 -50h-250l-44 -250h310l-8 -50h-360l111 630h360l-9 -50h-310z" />
    <glyph glyph-name="edotaccent" unicode="&#x117;" horiz-adv-x="470" 
d="M159 219l-18 -97q-5 -26 2 -43t24 -25t35 -11t42 -3q28 0 60 2.5t50 5.5l17 2l6 -7l-7 -43q-62 -10 -145 -10q-32 0 -56.5 5t-46 18.5t-30 41t-1.5 67.5l39 221q13 71 66.5 104t127.5 33q77 0 118.5 -30t28.5 -107q-24 -132 -181 -132q-80 0 -131 8zM181 343l-13 -73
q81 -9 121 -9q117 0 132 82q8 49 -23 69t-83 20q-119 0 -134 -89zM392 640l-14 -80h-80l14 80h80z" />
    <glyph glyph-name="Eogonek" unicode="&#x118;" horiz-adv-x="510" 
d="M440 0h-170q-27 -41 -34 -73t12 -42q15 -5 30 -4.5t27 3.5l12 3l3 -5l-12 -41q-5 -1 -12.5 -3t-30 -4.5t-36.5 1.5q-29 6 -38 26t-1.5 46t20 49.5t27.5 43.5h-157l111 630h360l-9 -50h-310l-41 -230h250l-9 -50h-250l-44 -250h310z" />
    <glyph glyph-name="eogonek" unicode="&#x119;" horiz-adv-x="470" 
d="M159 219l-18 -97q-5 -26 2 -43t24 -25t35 -11t42 -3q28 0 60 2.5t50 5.5l17 2l6 -7l-7 -43q-53 -8 -125 -10q-23 -37 -28 -66t13 -39q15 -5 30 -4.5t27 3.5l12 3l3 -5l-12 -41q-5 -1 -12.5 -3t-30 -4.5t-36.5 1.5q-27 5 -37 23t-4.5 42t16 46.5t25.5 43.5
q-64 3 -98.5 31.5t-21.5 100.5l39 221q13 71 66.5 104t127.5 33q77 0 118.5 -30t28.5 -107q-24 -132 -181 -132q-80 0 -131 8zM181 343l-13 -73q81 -9 121 -9q117 0 132 82q8 49 -23 69t-83 20q-119 0 -134 -89z" />
    <glyph glyph-name="Ecaron" unicode="&#x11a;" horiz-adv-x="510" 
d="M415 680h-52l-85 130h56l63 -88l93 88h56zM232 580l-41 -230h250l-9 -50h-250l-44 -250h310l-8 -50h-360l111 630h360l-9 -50h-310z" />
    <glyph glyph-name="ecaron" unicode="&#x11b;" horiz-adv-x="470" 
d="M159 219l-18 -97q-5 -26 2 -43t24 -25t35 -11t42 -3q28 0 60 2.5t50 5.5l17 2l6 -7l-7 -43q-62 -10 -145 -10q-32 0 -56.5 5t-46 18.5t-30 41t-1.5 67.5l39 221q13 71 66.5 104t127.5 33q77 0 118.5 -30t28.5 -107q-24 -132 -181 -132q-80 0 -131 8zM181 343l-13 -73
q81 -9 121 -9q117 0 132 82q8 49 -23 69t-83 20q-119 0 -134 -89zM360 530h-52l-85 130h56l62 -88l94 88h56z" />
    <glyph glyph-name="Gcircumflex" unicode="&#x11c;" horiz-adv-x="520" 
d="M394 820h52l85 -130h-56l-62 88l-94 -88h-56zM375 315h130l-55 -315q-102 -10 -185 -10q-33 0 -61 5.5t-56 18.5t-41 40.5t-6 67.5l68 386q24 132 200 132q37 0 80 -2.5t67 -5.5l25 -2l-8 -43l-8 -7q-91 10 -154 10q-137 0 -152 -82l-68 -386q-5 -25 6.5 -42.5
t34.5 -25.5t45 -11t47 -3q50 0 124 6l38 219h-73l-6 7z" />
    <glyph glyph-name="gcircumflex" unicode="&#x11d;" horiz-adv-x="485" 
d="M374 110l55 314q-62 6 -117 6q-116 0 -132 -87l-38 -216q-9 -50 12 -68.5t68 -18.5q76 0 152 70zM347 -43l9 50l12 53h-4q-2 -3 -6 -7.5t-19 -16.5t-32 -21.5t-45 -17t-59 -7.5q-64 0 -94.5 29.5t-16.5 107.5l38 216q24 137 181 137q32 0 74.5 -2.5t68.5 -5.5l26 -2l6 -7
l-89 -506q-24 -137 -181 -137q-37 0 -77 2.5t-62 5.5l-22 2l7 43l8 7q82 -10 145 -10q116 0 132 87zM326 670h52l85 -130h-56l-63 88l-93 -88h-56z" />
    <glyph glyph-name="Gbreve" unicode="&#x11e;" horiz-adv-x="520" 
d="M484 810h49q-10 -56 -48 -84.5t-84 -28.5h-16q-46 0 -74 28.5t-18 84.5h49q-6 -34 11 -51t44 -17h9q27 0 49.5 17t28.5 51zM375 315h130l-55 -315q-102 -10 -185 -10q-33 0 -61 5.5t-56 18.5t-41 40.5t-6 67.5l68 386q24 132 200 132q37 0 80 -2.5t67 -5.5l25 -2l-8 -43
l-8 -7q-91 10 -154 10q-137 0 -152 -82l-68 -386q-5 -25 6.5 -42.5t34.5 -25.5t45 -11t47 -3q50 0 124 6l38 219h-73l-6 7z" />
    <glyph glyph-name="gbreve" unicode="&#x11f;" horiz-adv-x="485" 
d="M374 110l55 314q-62 6 -117 6q-116 0 -132 -87l-38 -216q-9 -50 12 -68.5t68 -18.5q76 0 152 70zM347 -43l9 50l12 53h-4q-2 -3 -6 -7.5t-19 -16.5t-32 -21.5t-45 -17t-59 -7.5q-64 0 -94.5 29.5t-16.5 107.5l38 216q24 137 181 137q32 0 74.5 -2.5t68.5 -5.5l26 -2l6 -7
l-89 -506q-24 -137 -181 -137q-37 0 -77 2.5t-62 5.5l-22 2l7 43l8 7q82 -10 145 -10q116 0 132 87zM426 660h49q-10 -56 -48 -84.5t-84 -28.5h-16q-46 0 -74 28.5t-18 84.5h49q-6 -34 10.5 -51t44.5 -17h9q27 0 49.5 17t28.5 51z" />
    <glyph glyph-name="Gdotaccent" unicode="&#x120;" horiz-adv-x="520" 
d="M450 790l-14 -80h-80l14 80h80zM375 315h130l-55 -315q-102 -10 -185 -10q-33 0 -61 5.5t-56 18.5t-41 40.5t-6 67.5l68 386q24 132 200 132q37 0 80 -2.5t67 -5.5l25 -2l-8 -43l-8 -7q-91 10 -154 10q-137 0 -152 -82l-68 -386q-5 -25 6.5 -42.5t34.5 -25.5t45 -11
t47 -3q50 0 124 6l38 219h-73l-6 7z" />
    <glyph glyph-name="gdotaccent" unicode="&#x121;" horiz-adv-x="485" 
d="M374 110l55 314q-62 6 -117 6q-116 0 -132 -87l-38 -216q-9 -50 12 -68.5t68 -18.5q76 0 152 70zM347 -43l9 50l12 53h-4q-2 -3 -6 -7.5t-19 -16.5t-32 -21.5t-45 -17t-59 -7.5q-64 0 -94.5 29.5t-16.5 107.5l38 216q24 137 181 137q32 0 74.5 -2.5t68.5 -5.5l26 -2l6 -7
l-89 -506q-24 -137 -181 -137q-37 0 -77 2.5t-62 5.5l-22 2l7 43l8 7q82 -10 145 -10q116 0 132 87zM380 640l-14 -80h-80l14 80h80z" />
    <glyph glyph-name="Gcommaaccent" unicode="&#x122;" horiz-adv-x="520" 
d="M294 -40l-12 -70l-33 -130h-30l23 130h-30l12 70h70zM375 315h130l-55 -315q-102 -10 -185 -10q-33 0 -61 5.5t-56 18.5t-41 40.5t-6 67.5l68 386q24 132 200 132q37 0 80 -2.5t67 -5.5l25 -2l-8 -43l-8 -7q-91 10 -154 10q-137 0 -152 -82l-68 -386q-5 -25 6.5 -42.5
t34.5 -25.5t45 -11t47 -3q50 0 124 6l38 219h-73l-6 7z" />
    <glyph glyph-name="gcommaaccent" unicode="&#x123;" horiz-adv-x="485" 
d="M374 110l55 314q-62 6 -117 6q-116 0 -132 -87l-38 -216q-9 -50 12 -68.5t68 -18.5q76 0 152 70zM347 -43l9 50l12 53h-4q-2 -3 -6 -7.5t-19 -16.5t-32 -21.5t-45 -17t-59 -7.5q-64 0 -94.5 29.5t-16.5 107.5l38 216q24 137 181 137q32 0 74.5 -2.5t68.5 -5.5l26 -2l6 -7
l-89 -506q-24 -137 -181 -137q-37 0 -77 2.5t-62 5.5l-22 2l7 43l8 7q82 -10 145 -10q116 0 132 87zM397 700l-12 -70l-33 -130h-30l23 130h-30l12 70h70z" />
    <glyph glyph-name="Hcircumflex" unicode="&#x124;" horiz-adv-x="540" 
d="M385 820h52l85 -130h-56l-62 88l-94 -88h-56zM241 630l-50 -280h280l50 280h50l-111 -630h-50l52 300h-280l-52 -300h-50l111 630h50z" />
    <glyph glyph-name="hcircumflex" unicode="&#x125;" horiz-adv-x="496" 
d="M192 660h50q-33 -185 -35 -195l-11 -55h4q2 3 6 7.5t18.5 16.5t31.5 21.5t45 17t59 7.5q65 0 97.5 -29.5t18.5 -107.5l-60 -343h-50l60 343q9 50 -14 68.5t-71 18.5q-76 0 -152 -70l-63 -360h-50zM194 850h52l85 -130h-56l-63 88l-93 -88h-56z" />
    <glyph glyph-name="Hbar" unicode="&#x126;" horiz-adv-x="540" 
d="M108 500h60l23 130h50l-23 -130h280l23 130h50l-23 -130h60l-9 -50h-60l-79 -450h-50l52 300h-280l-52 -300h-50l79 450h-60zM191 350h280l18 100h-280z" />
    <glyph glyph-name="hbar" unicode="&#x127;" 
d="M285 540h-60l-14 -75l-11 -55h4q2 3 6 7.5t18.5 16.5t31.5 21.5t45 17t59 7.5q65 0 97.5 -29.5t18.5 -107.5l-60 -343h-50l60 343q9 50 -14 68.5t-71 18.5q-76 0 -152 -70l-63 -360h-50l95 540h-60l9 50h60l12 70h50l-12 -70h60z" />
    <glyph glyph-name="Itilde" unicode="&#x128;" horiz-adv-x="236" 
d="M245 718q-24 15 -39 21t-29 2t-21 -9.5t-24 -21.5l-28 24q65 93 159 40q16 -10 28 -14.5t19.5 -6t16 2.5t12 7t14 13.5l15.5 15.5l28 -24q-67 -97 -151 -50zM204 630h50l-111 -630h-50z" />
    <glyph glyph-name="itilde" unicode="&#x129;" horiz-adv-x="210" 
d="M163 470h50l-82 -470h-50zM206 568q-24 15 -39.5 21t-29 2t-21 -9.5t-24.5 -21.5l-28 24q65 93 160 40q16 -10 28 -14.5t19.5 -6t16 2.5t12 7t14 13.5l15.5 15.5l27 -24q-66 -97 -150 -50z" />
    <glyph glyph-name="Imacron" unicode="&#x12a;" horiz-adv-x="230" 
d="M390 770l-9 -50h-280l9 50h280zM201 630h50l-111 -630h-50z" />
    <glyph glyph-name="imacron" unicode="&#x12b;" horiz-adv-x="206" 
d="M161 470h50l-82 -470h-50zM352 620l-9 -50h-280l9 50h280z" />
    <glyph glyph-name="Ibreve" unicode="&#x12c;" horiz-adv-x="220" 
d="M323 810h49q-10 -56 -48 -84.5t-84 -28.5h-16q-46 0 -74 28.5t-18 84.5h49q-6 -34 11 -51t44 -17h9q27 0 49.5 17t28.5 51zM196 630h50l-111 -630h-50z" />
    <glyph glyph-name="ibreve" unicode="&#x12d;" horiz-adv-x="212" 
d="M162 470h50l-82 -470h-50zM293 660h49q-10 -56 -48 -84.5t-84 -28.5h-16q-46 0 -74 28.5t-18 84.5h49q-6 -34 10.5 -51t44.5 -17h9q27 0 49.5 17t28.5 51z" />
    <glyph glyph-name="Iogonek" unicode="&#x12e;" horiz-adv-x="210" 
d="M89 0h-9l111 630h50l-111 -630h-8q-27 -41 -34 -73t12 -42q15 -5 30 -4.5t27 3.5l12 3l3 -5l-12 -41q-5 -1 -12.5 -3t-30 -4.5t-36.5 1.5q-29 6 -38 26t-1.5 46t20 49.5t27.5 43.5z" />
    <glyph glyph-name="iogonek" unicode="&#x12f;" horiz-adv-x="210" 
d="M88 0h-8l82 470h50l-82 -470h-9q-27 -41 -34 -73t12 -42q15 -5 30 -4.5t27 3.5l12 3l3 -5l-12 -41q-5 -1 -12.5 -3t-30 -4.5t-36.5 1.5q-28 6 -37.5 26t-2 46t20 50t27.5 43zM241 630l-13 -70h-50l13 70h50z" />
    <glyph glyph-name="Idotaccent" unicode="&#x130;" horiz-adv-x="220" 
d="M289 790l-14 -80h-80l14 80h80zM196 630h50l-111 -630h-50z" />
    <glyph glyph-name="dotlessi" unicode="&#x131;" horiz-adv-x="210" 
d="M162 470h50l-82 -470h-50z" />
    <glyph glyph-name="IJ" unicode="&#x132;" horiz-adv-x="510" 
d="M191 630h50l-111 -630h-50zM401 122l90 508h50l-90 -508q-11 -65 -53.5 -98.5t-96.5 -33.5l-92 8l7 40l8 7q48 -5 81 -5q81 0 96 82z" />
    <glyph glyph-name="ij" unicode="&#x133;" horiz-adv-x="420" 
d="M241 630l-13 -70h-50l13 70h50zM162 470h50l-82 -470h-50zM451 630l-13 -70h-50l13 70h50zM281 -50l91 520h50l-91 -520q-24 -130 -138 -130q-15 0 -31 2t-24 4l-9 2l7 40l8 7q20 -5 53 -5q70 0 84 80z" />
    <glyph glyph-name="Jcircumflex" unicode="&#x134;" horiz-adv-x="329" 
d="M333 820h52l85 -130h-56l-62 88l-94 -88h-56zM211 122l90 508h50l-90 -508q-11 -65 -53.5 -98.5t-96.5 -33.5l-92 8l7 40l8 7q48 -5 81 -5q81 0 96 82z" />
    <glyph glyph-name="jcircumflex" unicode="&#x135;" horiz-adv-x="209" 
d="M71 -50l91 520h50l-91 -520q-12 -66 -48.5 -98t-88.5 -32q-15 0 -31 2t-25 4l-8 2l7 40l8 7q20 -5 53 -5q69 0 83 80zM197 670h52l85 -130h-56l-63 88l-93 -88h-56z" />
    <glyph glyph-name="Kcommaaccent" unicode="&#x136;" horiz-adv-x="533" 
d="M286 -33l-12 -70l-33 -130h-30l23 130h-30l12 70h70zM241 630l-65 -365l345 365h63l-264 -285l173 -345h-63l-152 305l-115 -115l-33 -190h-50l111 630h50z" />
    <glyph glyph-name="kcommaaccent" unicode="&#x137;" horiz-adv-x="493" 
d="M167 215l-37 -215h-50l116 660h50l-70 -395h140q48 0 77.5 18.5t38.5 68.5l20 118h50l-20 -118q-14 -78 -57 -107.5t-108 -29.5h-5l121 -215h-63l-120 215h-83zM255 -40l-12 -70l-33 -130h-30l23 130h-30l12 70h70z" />
    <glyph glyph-name="kgreenlandic" unicode="&#x138;" horiz-adv-x="493" 
d="M167 215l-37 -215h-50l82 470h50l-36 -205h140q48 0 77.5 18.5t38.5 68.5l20 118h50l-20 -118q-14 -78 -57 -107.5t-108 -29.5h-5l121 -215h-63l-120 215h-83z" />
    <glyph glyph-name="Lacute" unicode="&#x139;" horiz-adv-x="430" 
d="M235 690l-22 20l141 150l38 -40zM418 50l-8 -50h-330l111 630h50l-103 -580h280z" />
    <glyph glyph-name="lacute" unicode="&#x13a;" horiz-adv-x="214" 
d="M196 660h50l-116 -660h-50zM205 730l-23 20l142 150l38 -40z" />
    <glyph glyph-name="Lcommaaccent" unicode="&#x13b;" horiz-adv-x="430" 
d="M258 -32l-12 -70l-33 -130h-30l23 130h-30l12 70h70zM418 50l-8 -50h-330l111 630h50l-103 -580h280z" />
    <glyph glyph-name="lcommaaccent" unicode="&#x13c;" horiz-adv-x="230" 
d="M206 660h50l-116 -660h-50zM142 -40l-12 -70l-33 -130h-30l23 130h-30l12 70h70z" />
    <glyph glyph-name="Lcaron" unicode="&#x13d;" horiz-adv-x="430" 
d="M359 631l-12 -70l-33 -130h-30l23 130h-30l12 70h70zM418 50l-8 -50h-330l111 630h50l-103 -580h280z" />
    <glyph glyph-name="lcaron" unicode="&#x13e;" horiz-adv-x="211" 
d="M196 660h50l-116 -660h-50zM363 659l-12 -70l-33 -130h-30l23 130h-30l12 70h70z" />
    <glyph glyph-name="Ldot" unicode="&#x13f;" horiz-adv-x="430" 
d="M346 380l-14 -80h-80l14 80h80zM418 50l-8 -50h-330l111 630h50l-103 -580h280z" />
    <glyph glyph-name="ldot" unicode="&#x140;" horiz-adv-x="290" 
d="M196 660h50l-116 -660h-50zM329 375l-14 -80h-80l14 80h80z" />
    <glyph glyph-name="Lslash" unicode="&#x141;" horiz-adv-x="430" 
d="M81 350h60l50 280h50l-50 -280h130l-9 -50h-130l-44 -250h280l-8 -50h-330l52 300h-60z" />
    <glyph glyph-name="lslash" unicode="&#x142;" horiz-adv-x="210" 
d="M81 350h60l55 310h50l-55 -310h60l-9 -50h-60l-52 -300h-50l52 300h-60z" />
    <glyph glyph-name="Nacute" unicode="&#x143;" horiz-adv-x="550" 
d="M389 690l-22 20l141 150l38 -40zM531 630h50l-111 -630h-70l-173 555l-97 -555h-50l111 630h70l172 -555z" />
    <glyph glyph-name="nacute" unicode="&#x144;" 
d="M480 343l-60 -343h-50l60 343q9 50 -14 68.5t-71 18.5q-76 0 -152 -70l-63 -360h-50l82 470h43l6 -7l-11 -53h4q2 3 6 7.5t18.5 16.5t31.5 21.5t45 17t59 7.5q65 0 97.5 -29.5t18.5 -107.5zM339 540l-23 20l142 150l38 -40z" />
    <glyph glyph-name="Ncommaaccent" unicode="&#x145;" horiz-adv-x="550" 
d="M298 -40l-12 -70l-33 -130h-30l23 130h-30l12 70h70zM531 630h50l-111 -630h-70l-173 555l-97 -555h-50l111 630h70l172 -555z" />
    <glyph glyph-name="ncommaaccent" unicode="&#x146;" 
d="M480 343l-60 -343h-50l60 343q9 50 -14 68.5t-71 18.5q-76 0 -152 -70l-63 -360h-50l82 470h43l6 -7l-11 -53h4q2 3 6 7.5t18.5 16.5t31.5 21.5t45 17t59 7.5q65 0 97.5 -29.5t18.5 -107.5zM283 -40l-12 -70l-33 -130h-30l23 130h-30l12 70h70z" />
    <glyph glyph-name="Ncaron" unicode="&#x147;" horiz-adv-x="550" 
d="M421 680h-52l-85 130h56l63 -88l93 88h56zM531 630h50l-111 -630h-70l-173 555l-97 -555h-50l111 630h70l172 -555z" />
    <glyph glyph-name="ncaron" unicode="&#x148;" 
d="M480 343l-60 -343h-50l60 343q9 50 -14 68.5t-71 18.5q-76 0 -152 -70l-63 -360h-50l82 470h43l6 -7l-11 -53h4q2 3 6 7.5t18.5 16.5t31.5 21.5t45 17t59 7.5q65 0 97.5 -29.5t18.5 -107.5zM374 530h-52l-85 130h56l62 -88l94 88h56z" />
    <glyph glyph-name="napostrophe" unicode="&#x149;" 
d="M480 343l-60 -343h-50l60 343q9 50 -14 68.5t-71 18.5q-76 0 -152 -70l-63 -360h-50l82 470h43l6 -7l-11 -53h4q2 3 6 7.5t18.5 16.5t31.5 21.5t45 17t59 7.5q65 0 97.5 -29.5t18.5 -107.5zM257 720l-12 -70l-33 -130h-30l23 130h-30l12 70h70z" />
    <glyph glyph-name="Eng" unicode="&#x14a;" horiz-adv-x="550" 
d="M413 -35l-186 590l-97 -555h-50l111 630h70l172 -555l98 555h50l-121 -685q-11 -66 -48 -98t-90 -32q-15 0 -31 2t-25 4l-8 2l7 40l9 7q19 -5 52 -5q70 0 84 80z" />
    <glyph glyph-name="eng" unicode="&#x14b;" 
d="M411 -50q-24 -130 -138 -130q-15 0 -31 2t-24 4l-9 2l7 40l8 7q20 -5 53 -5q70 0 84 80l69 393q9 50 -14 68.5t-71 18.5q-76 0 -152 -70l-63 -360h-50l82 470h43l6 -7l-11 -53h4q2 3 6 7.5t18.5 16.5t31.5 21.5t45 17t59 7.5q65 0 97.5 -29.5t18.5 -107.5z" />
    <glyph glyph-name="Omacron" unicode="&#x14c;" horiz-adv-x="540" 
d="M544 770l-9 -50h-280l9 50h280zM232 40h90q41 0 72.5 25t39.5 75l62 350q9 50 -13.5 75t-63.5 25h-90q-41 0 -73 -25.5t-40 -74.5l-62 -350q-8 -50 14.5 -75t63.5 -25zM233 -10q-67 0 -105 34t-24 116l62 350q26 150 181 150h70q67 0 105 -34t24 -116l-62 -350
q-26 -150 -181 -150h-70z" />
    <glyph glyph-name="omacron" unicode="&#x14d;" horiz-adv-x="480" 
d="M382 125l38 220q9 49 -21 67t-84 18q-120 0 -135 -85l-38 -220q-9 -49 21 -67t84 -18q120 0 135 85zM470 345l-38 -220q-14 -77 -65 -106t-129 -29q-75 0 -117 32t-29 103l38 220q13 71 66 103t128 32q37 0 64 -5.5t49.5 -19.5t31 -42t1.5 -68zM488 620l-9 -50h-280l9 50
h280z" />
    <glyph glyph-name="Obreve" unicode="&#x14e;" horiz-adv-x="540" 
d="M485 810h49q-10 -56 -48 -84.5t-84 -28.5h-16q-46 0 -74 28.5t-18 84.5h49q-6 -34 11 -51t44 -17h9q27 0 49.5 17t28.5 51zM232 40h90q41 0 72.5 25t39.5 75l62 350q9 50 -13.5 75t-63.5 25h-90q-41 0 -73 -25.5t-40 -74.5l-62 -350q-8 -50 14.5 -75t63.5 -25zM233 -10
q-67 0 -105 34t-24 116l62 350q26 150 181 150h70q67 0 105 -34t24 -116l-62 -350q-26 -150 -181 -150h-70z" />
    <glyph glyph-name="obreve" unicode="&#x14f;" horiz-adv-x="480" 
d="M382 125l38 220q9 49 -21 67t-84 18q-120 0 -135 -85l-38 -220q-9 -49 21 -67t84 -18q120 0 135 85zM470 345l-38 -220q-14 -77 -65 -106t-129 -29q-75 0 -117 32t-29 103l38 220q13 71 66 103t128 32q37 0 64 -5.5t49.5 -19.5t31 -42t1.5 -68zM428 660h49
q-10 -56 -48 -84.5t-84 -28.5h-16q-46 0 -74 28.5t-18 84.5h49q-6 -34 10.5 -51t44.5 -17h9q27 0 49.5 17t28.5 51z" />
    <glyph glyph-name="Ohungarumlaut" unicode="&#x150;" horiz-adv-x="540" 
d="M338 690l-30 14l110 141l46 -25zM468 690l-30 14l110 141l46 -25zM232 40h90q41 0 72.5 25t39.5 75l62 350q9 50 -13.5 75t-63.5 25h-90q-41 0 -73 -25.5t-40 -74.5l-62 -350q-8 -50 14.5 -75t63.5 -25zM233 -10q-67 0 -105 34t-24 116l62 350q26 150 181 150h70
q67 0 105 -34t24 -116l-62 -350q-26 -150 -181 -150h-70z" />
    <glyph glyph-name="ohungarumlaut" unicode="&#x151;" horiz-adv-x="480" 
d="M382 125l38 220q9 49 -21 67t-84 18q-120 0 -135 -85l-38 -220q-9 -49 21 -67t84 -18q120 0 135 85zM470 345l-38 -220q-14 -77 -65 -106t-129 -29q-75 0 -117 32t-29 103l38 220q13 71 66 103t128 32q37 0 64 -5.5t49.5 -19.5t31 -42t1.5 -68zM263 540l-31 14l111 141
l46 -25zM393 540l-31 14l111 141l46 -25z" />
    <glyph glyph-name="OE" unicode="&#x152;" horiz-adv-x="840" 
d="M562 580l-41 -230h250l-9 -50h-250l-44 -250h310l-8 -50h-360l3 19q-43 -29 -110 -29h-70q-67 0 -105 34t-24 116l62 350q26 150 181 150h70q67 0 100 -29l4 19h360l-9 -50h-310zM232 40h90q41 0 72.5 25t39.5 75l62 350q9 50 -13.5 75t-63.5 25h-90q-41 0 -73 -25.5
t-40 -74.5l-62 -350q-8 -50 14.5 -75t63.5 -25z" />
    <glyph glyph-name="oe" unicode="&#x153;" horiz-adv-x="760" 
d="M730 225l-12 -10h-271l-16 -93q-5 -26 2 -43t24 -25t35 -11t42 -3q28 0 60 2.5t50 5.5l17 2l6 -7l-7 -43q-62 -10 -145 -10q-94 0 -124 53q-53 -53 -153 -53q-75 0 -117 32t-29 103l38 220q13 71 66 103t128 32q105 0 137 -57q59 57 153 57q77 0 118.5 -30t27.5 -107
q-13 -72 -30 -118zM381 122l39 223q9 49 -21.5 67t-83.5 18q-120 0 -135 -85l-38 -220q-9 -49 21 -67t84 -18q120 0 134 82zM605 430q-119 0 -135 -85l-14 -80h235q11 35 19 78q9 49 -21.5 68t-83.5 19z" />
    <glyph glyph-name="Racute" unicode="&#x154;" horiz-adv-x="555" 
d="M370 690l-22 20l141 150l38 -40zM376 271l109 -271h-63l-107 270h-138l-47 -270h-50l111 630h225q67 0 104.5 -34t23.5 -116l-10 -60q-23 -131 -158 -149zM186 320h185q41 0 72.5 25t40.5 75l10 60q9 50 -13.5 75t-63.5 25h-185z" />
    <glyph glyph-name="racute" unicode="&#x155;" horiz-adv-x="325" 
d="M367 437l-9 -7q-29 0 -46.5 -2.5t-51 -18.5t-67.5 -49l-63 -360h-50l82 470h43l6 -7l-11 -53h4q3 3 7.5 8.5t21 18.5t35 23t47.5 16.5t59 3.5zM214 540l-23 20l142 150l38 -40z" />
    <glyph glyph-name="Rcommaaccent" unicode="&#x156;" horiz-adv-x="555" 
d="M293 -34l-12 -70l-33 -130h-30l23 130h-30l12 70h70zM376 271l109 -271h-63l-107 270h-138l-47 -270h-50l111 630h225q67 0 104.5 -34t23.5 -116l-10 -60q-23 -131 -158 -149zM186 320h185q41 0 72.5 25t40.5 75l10 60q9 50 -13.5 75t-63.5 25h-185z" />
    <glyph glyph-name="rcommaaccent" unicode="&#x157;" horiz-adv-x="327" 
d="M369 437l-9 -7q-29 0 -46.5 -2.5t-51 -18.5t-67.5 -49l-63 -360h-50l82 470h43l6 -7l-11 -53h4q3 3 7.5 8.5t21 18.5t35 23t47.5 16.5t59 3.5zM132 -40l-12 -70l-33 -130h-30l23 130h-30l12 70h70z" />
    <glyph glyph-name="Rcaron" unicode="&#x158;" horiz-adv-x="555" 
d="M408 680h-52l-85 130h56l63 -88l93 88h56zM376 271l109 -271h-63l-107 270h-138l-47 -270h-50l111 630h225q67 0 104.5 -34t23.5 -116l-10 -60q-23 -131 -158 -149zM186 320h185q41 0 72.5 25t40.5 75l10 60q9 50 -13.5 75t-63.5 25h-185z" />
    <glyph glyph-name="rcaron" unicode="&#x159;" horiz-adv-x="328" 
d="M365 437l-9 -7q-29 0 -46.5 -2.5t-51 -18.5t-67.5 -49l-63 -360h-50l82 470h43l6 -7l-11 -53h4q3 3 7.5 8.5t21 18.5t35 23t47.5 16.5t59 3.5zM298 530h-52l-85 130h56l62 -88l94 88h56z" />
    <glyph glyph-name="Sacute" unicode="&#x15a;" horiz-adv-x="510" 
d="M370 690l-22 20l141 150l38 -40zM412 127l15 85q5 30 -3.5 48.5t-31.5 26.5t-44.5 10.5t-55.5 2.5q-32 0 -58 5t-50 18.5t-34.5 41.5t-3.5 68l13 75q24 132 190 132q37 0 80 -2.5t67 -5.5l25 -2l-8 -43l-8 -7q-91 10 -154 10q-127 0 -142 -82l-13 -75q-4 -24 2 -40.5
t16.5 -24.5t33.5 -12.5t38 -5t45 -0.5q31 0 57.5 -6t50.5 -20t34.5 -43t3.5 -69l-15 -85q-14 -76 -67.5 -106.5t-123.5 -30.5q-37 0 -84.5 2.5t-76.5 5.5l-30 2l7 43l8 7q112 -10 175 -10q126 0 142 87z" />
    <glyph glyph-name="sacute" unicode="&#x15b;" horiz-adv-x="450" 
d="M77 43l8 7q82 -10 145 -10q26 0 43 2.5t37.5 10t33.5 26.5t18 48q2 14 2 26t-1.5 20.5t-7 15.5t-10 11t-15 7t-17 4.5t-20.5 2.5t-22 1h-24q-73 0 -106.5 27.5t-19.5 105.5q14 77 58.5 104.5t111.5 27.5q37 0 74.5 -2.5t56.5 -5.5l20 -2l-7 -43l-8 -7q-72 10 -135 10
q-56 0 -84 -16t-37 -66q-3 -15 -3.5 -27t3.5 -21t7 -15t13 -9.5t17 -6t22.5 -3.5t25 -1h30.5q17 0 28 -0.5t26 -2.5t25 -6t20.5 -10.5t16.5 -16.5t10.5 -24t4 -34t-4.5 -44q-8 -44 -26 -72.5t-45 -42t-52 -18t-58 -4.5q-37 0 -77 2.5t-62 5.5l-22 2zM315 540l-23 20l142 150
l38 -40z" />
    <glyph glyph-name="Scircumflex" unicode="&#x15c;" horiz-adv-x="510" 
d="M378 820h52l85 -130h-56l-62 88l-94 -88h-56zM412 127l15 85q5 30 -3.5 48.5t-31.5 26.5t-44.5 10.5t-55.5 2.5q-32 0 -58 5t-50 18.5t-34.5 41.5t-3.5 68l13 75q24 132 190 132q37 0 80 -2.5t67 -5.5l25 -2l-8 -43l-8 -7q-91 10 -154 10q-127 0 -142 -82l-13 -75
q-4 -24 2 -40.5t16.5 -24.5t33.5 -12.5t38 -5t45 -0.5q31 0 57.5 -6t50.5 -20t34.5 -43t3.5 -69l-15 -85q-14 -76 -67.5 -106.5t-123.5 -30.5q-37 0 -84.5 2.5t-76.5 5.5l-30 2l7 43l8 7q112 -10 175 -10q126 0 142 87z" />
    <glyph glyph-name="scircumflex" unicode="&#x15d;" horiz-adv-x="450" 
d="M77 43l8 7q82 -10 145 -10q26 0 43 2.5t37.5 10t33.5 26.5t18 48q2 14 2 26t-1.5 20.5t-7 15.5t-10 11t-15 7t-17 4.5t-20.5 2.5t-22 1h-24q-73 0 -106.5 27.5t-19.5 105.5q14 77 58.5 104.5t111.5 27.5q37 0 74.5 -2.5t56.5 -5.5l20 -2l-7 -43l-8 -7q-72 10 -135 10
q-56 0 -84 -16t-37 -66q-3 -15 -3.5 -27t3.5 -21t7 -15t13 -9.5t17 -6t22.5 -3.5t25 -1h30.5q17 0 28 -0.5t26 -2.5t25 -6t20.5 -10.5t16.5 -16.5t10.5 -24t4 -34t-4.5 -44q-8 -44 -26 -72.5t-45 -42t-52 -18t-58 -4.5q-37 0 -77 2.5t-62 5.5l-22 2zM318 670h52l85 -130h-56
l-63 88l-93 -88h-56z" />
    <glyph glyph-name="Scedilla" unicode="&#x15e;" horiz-adv-x="510" 
d="M156 -135l7 6q37 -5 53 -3q17 1 22.5 8.5t7.5 20.5q1 7 0 12t-11 10.5t-29 5.5l12 66l-138 9l7 43l8 7q112 -10 175 -10q126 0 142 87l15 85q5 30 -3.5 48.5t-31.5 26.5t-44.5 10.5t-55.5 2.5q-32 0 -58 5t-50 18.5t-34.5 41.5t-3.5 68l13 75q24 132 190 132
q37 0 80 -2.5t67 -5.5l25 -2l-8 -43l-8 -7q-91 10 -154 10q-127 0 -142 -82l-13 -75q-4 -24 2 -40.5t16.5 -24.5t33.5 -12.5t38 -5t45 -0.5q31 0 57.5 -6t50.5 -20t34.5 -43t3.5 -69l-15 -85q-14 -76 -67.5 -106.5t-123.5 -30.5h-8l-6 -35q52 -9 44 -60q-13 -75 -93 -75
l-59 5z" />
    <glyph glyph-name="scedilla" unicode="&#x15f;" horiz-adv-x="450" 
d="M126 -135l7 6q37 -5 53 -3q17 1 22.5 8.5t7.5 20.5q1 7 0 12t-11 10.5t-29 5.5l12 66l-118 9l7 43l8 7q82 -10 145 -10q26 0 43 2.5t37.5 10t33.5 26.5t18 48q2 14 2 26t-1.5 20.5t-7 15.5t-10 11t-15 7t-17 4.5t-20.5 2.5t-22 1h-24q-73 0 -106.5 27.5t-19.5 105.5
q14 77 58.5 104.5t111.5 27.5q37 0 74.5 -2.5t56.5 -5.5l20 -2l-7 -43l-8 -7q-72 10 -135 10q-56 0 -84 -16t-37 -66q-3 -15 -3.5 -27t3.5 -21t7 -15t13 -9.5t17 -6t22.5 -3.5t25 -1h30.5q17 0 28 -0.5t26 -2.5t25 -6t20.5 -10.5t16.5 -16.5t10.5 -24t4 -34t-4.5 -44
q-8 -43 -25.5 -72t-44.5 -42t-51.5 -18t-57.5 -5l-6 -35q52 -9 44 -60q-13 -75 -93 -75l-59 5z" />
    <glyph glyph-name="Scaron" unicode="&#x160;" horiz-adv-x="510" 
d="M404 680h-52l-85 130h56l63 -88l93 88h56zM412 127l15 85q5 30 -3.5 48.5t-31.5 26.5t-44.5 10.5t-55.5 2.5q-32 0 -58 5t-50 18.5t-34.5 41.5t-3.5 68l13 75q24 132 190 132q37 0 80 -2.5t67 -5.5l25 -2l-8 -43l-8 -7q-91 10 -154 10q-127 0 -142 -82l-13 -75
q-4 -24 2 -40.5t16.5 -24.5t33.5 -12.5t38 -5t45 -0.5q31 0 57.5 -6t50.5 -20t34.5 -43t3.5 -69l-15 -85q-14 -76 -67.5 -106.5t-123.5 -30.5q-37 0 -84.5 2.5t-76.5 5.5l-30 2l7 43l8 7q112 -10 175 -10q126 0 142 87z" />
    <glyph glyph-name="scaron" unicode="&#x161;" horiz-adv-x="470" 
d="M87 43l8 7q82 -10 145 -10q26 0 43 2.5t37.5 10t33.5 26.5t18 48q2 14 2 26t-1.5 20.5t-7 15.5t-10 11t-15 7t-17 4.5t-20.5 2.5t-22 1h-24q-73 0 -106.5 27.5t-19.5 105.5q14 77 58.5 104.5t111.5 27.5q37 0 74.5 -2.5t56.5 -5.5l20 -2l-7 -43l-8 -7q-72 10 -135 10
q-56 0 -84 -16t-37 -66q-3 -15 -3.5 -27t3.5 -21t7 -15t13 -9.5t17 -6t22.5 -3.5t25 -1h30.5q17 0 28 -0.5t26 -2.5t25 -6t20.5 -10.5t16.5 -16.5t10.5 -24t4 -34t-4.5 -44q-8 -44 -26 -72.5t-45 -42t-52 -18t-58 -4.5q-37 0 -77 2.5t-62 5.5l-22 2zM356 530h-52l-85 130h56
l62 -88l94 88h56z" />
    <glyph glyph-name="Tcommaaccent" unicode="&#x162;" horiz-adv-x="440" 
d="M247 -40l-12 -70l-33 -130h-30l23 130h-30l12 70h70zM517 580h-170l-102 -580h-50l102 580h-170l9 50h390z" />
    <glyph glyph-name="tcommaaccent" unicode="&#x163;" horiz-adv-x="310" 
d="M111 120l53 300h-50l8 50h50l18 100h50l-18 -100h120l-8 -50h-120l-53 -300q-3 -27 -1.5 -43t12.5 -24t21 -10.5t24 -2.5l53 5l6 -7l-7 -40q-33 -8 -66 -8q-53 0 -78.5 32t-13.5 98zM199 -40l-12 -70l-33 -130h-30l23 130h-30l12 70h70z" />
    <glyph glyph-name="Tcaron" unicode="&#x164;" horiz-adv-x="440" 
d="M365 680h-52l-85 130h56l63 -88l93 88h56zM517 580h-170l-102 -580h-50l102 580h-170l9 50h390z" />
    <glyph glyph-name="tcaron" unicode="&#x165;" horiz-adv-x="310" 
d="M111 120l53 300h-50l8 50h50l18 100h50l-18 -100h120l-8 -50h-120l-53 -300q-3 -27 -1.5 -43t12.5 -24t21 -10.5t24 -2.5l53 5l6 -7l-7 -40q-33 -8 -66 -8q-53 0 -78.5 32t-13.5 98zM361 720l-12 -70l-33 -130h-30l23 130h-30l12 70h70z" />
    <glyph glyph-name="Tbar" unicode="&#x166;" horiz-adv-x="440" 
d="M156 350h100l41 230h-170l9 50h390l-9 -50h-170l-41 -230h100l-9 -50h-100l-52 -300h-50l52 300h-100z" />
    <glyph glyph-name="tbar" unicode="&#x167;" horiz-adv-x="310" 
d="M127 215h-60l9 50h60l28 155h-50l8 50h50l18 100h50l-18 -100h120l-8 -50h-120l-28 -155h60l-9 -50h-60l-16 -95q-3 -27 -1.5 -43t12.5 -24t21 -10.5t24 -2.5l53 5l6 -7l-7 -40q-33 -8 -66 -8q-53 0 -78.5 32t-13.5 98z" />
    <glyph glyph-name="Utilde" unicode="&#x168;" horiz-adv-x="540" 
d="M400 718q-24 15 -39 21t-29 2t-21 -9.5t-24 -21.5l-28 24q65 93 159 40q16 -10 28 -14.5t19.5 -6t16 2.5t12 7t14 13.5l15.5 15.5l28 -24q-67 -97 -151 -50zM521 630h50l-87 -490q-26 -150 -181 -150h-70q-67 0 -105 34t-24 116l87 490h50l-87 -490q-8 -50 14.5 -75
t63.5 -25h90q41 0 72.5 25t39.5 75z" />
    <glyph glyph-name="utilde" unicode="&#x169;" 
d="M102 127l60 343h50l-60 -343q-9 -50 14 -68.5t71 -18.5q76 0 152 70l63 360h50l-82 -470h-43l-6 7l11 53h-4q-2 -3 -6 -7.5t-18.5 -16.5t-31.5 -21.5t-45 -17t-59 -7.5q-65 0 -97.5 29.5t-18.5 107.5zM350 568q-24 15 -39.5 21t-29 2t-21 -9.5t-24.5 -21.5l-28 24
q65 93 160 40q16 -10 28 -14.5t19.5 -6t16 2.5t12 7t14 13.5l15.5 15.5l27 -24q-66 -97 -150 -50z" />
    <glyph glyph-name="Umacron" unicode="&#x16a;" horiz-adv-x="540" 
d="M546 770l-9 -50h-280l9 50h280zM521 630h50l-87 -490q-26 -150 -181 -150h-70q-67 0 -105 34t-24 116l87 490h50l-87 -490q-8 -50 14.5 -75t63.5 -25h90q41 0 72.5 25t39.5 75z" />
    <glyph glyph-name="umacron" unicode="&#x16b;" 
d="M102 127l60 343h50l-60 -343q-9 -50 14 -68.5t71 -18.5q76 0 152 70l63 360h50l-82 -470h-43l-6 7l11 53h-4q-2 -3 -6 -7.5t-18.5 -16.5t-31.5 -21.5t-45 -17t-59 -7.5q-65 0 -97.5 29.5t-18.5 107.5zM495 620l-9 -50h-280l9 50h280z" />
    <glyph glyph-name="Ubreve" unicode="&#x16c;" horiz-adv-x="540" 
d="M481 810h49q-10 -56 -48 -84.5t-84 -28.5h-16q-46 0 -74 28.5t-18 84.5h49q-6 -34 11 -51t44 -17h9q27 0 49.5 17t28.5 51zM521 630h50l-87 -490q-26 -150 -181 -150h-70q-67 0 -105 34t-24 116l87 490h50l-87 -490q-8 -50 14.5 -75t63.5 -25h90q41 0 72.5 25t39.5 75z
" />
    <glyph glyph-name="ubreve" unicode="&#x16d;" 
d="M102 127l60 343h50l-60 -343q-9 -50 14 -68.5t71 -18.5q76 0 152 70l63 360h50l-82 -470h-43l-6 7l11 53h-4q-2 -3 -6 -7.5t-18.5 -16.5t-31.5 -21.5t-45 -17t-59 -7.5q-65 0 -97.5 29.5t-18.5 107.5zM438 660h49q-10 -56 -48 -84.5t-84 -28.5h-16q-46 0 -74 28.5
t-18 84.5h49q-6 -34 10.5 -51t44.5 -17h9q27 0 49.5 17t28.5 51z" />
    <glyph glyph-name="Uring" unicode="&#x16e;" horiz-adv-x="540" 
d="M385 690q-37 0 -58 15t-14 56l7 42q13 71 98 71h14q37 0 58 -15t14 -56l-7 -42q-13 -71 -98 -71h-14zM353 801l-7 -38q-6 -40 40 -40h24q48 0 54 40l7 38q3 21 -8.5 30t-32.5 9h-23q-48 0 -54 -39zM521 630h50l-87 -490q-26 -150 -181 -150h-70q-67 0 -105 34t-24 116
l87 490h50l-87 -490q-8 -50 14.5 -75t63.5 -25h90q41 0 72.5 25t39.5 75z" />
    <glyph glyph-name="uring" unicode="&#x16f;" 
d="M102 127l60 343h50l-60 -343q-9 -50 14 -68.5t71 -18.5q76 0 152 70l63 360h50l-82 -470h-43l-6 7l11 53h-4q-2 -3 -6 -7.5t-18.5 -16.5t-31.5 -21.5t-45 -17t-59 -7.5q-65 0 -97.5 29.5t-18.5 107.5zM342 540q-37 0 -58.5 15t-14.5 56l8 42q12 71 97 71h14
q37 0 58.5 -15t14.5 -56l-8 -42q-12 -71 -97 -71h-14zM309 651l-6 -38q-8 -40 40 -40h24q46 0 54 40l6 38q4 21 -8 30t-33 9h-23q-46 0 -54 -39z" />
    <glyph glyph-name="Uhungarumlaut" unicode="&#x170;" horiz-adv-x="540" 
d="M338 690l-30 14l110 141l46 -25zM468 690l-30 14l110 141l46 -25zM521 630h50l-87 -490q-26 -150 -181 -150h-70q-67 0 -105 34t-24 116l87 490h50l-87 -490q-8 -50 14.5 -75t63.5 -25h90q41 0 72.5 25t39.5 75z" />
    <glyph glyph-name="uhungarumlaut" unicode="&#x171;" 
d="M102 127l60 343h50l-60 -343q-9 -50 14 -68.5t71 -18.5q76 0 152 70l63 360h50l-82 -470h-43l-6 7l11 53h-4q-2 -3 -6 -7.5t-18.5 -16.5t-31.5 -21.5t-45 -17t-59 -7.5q-65 0 -97.5 29.5t-18.5 107.5zM274 540l-31 14l111 141l46 -25zM404 540l-31 14l111 141l46 -25z
" />
    <glyph glyph-name="Uogonek" unicode="&#x172;" horiz-adv-x="540" 
d="M521 630h50l-87 -490q-26 -150 -181 -150h-18q-23 -37 -28 -66t13 -39q15 -5 30 -4.5t27 3.5l12 3l3 -5l-12 -41q-5 -1 -12.5 -3t-30 -4.5t-36.5 1.5q-27 5 -37 23t-4.5 42t16 46.5t25.5 43.5h-18q-67 0 -105 34t-24 116l87 490h50l-87 -490q-8 -50 14.5 -75t63.5 -25h90
q41 0 72.5 25t39.5 75z" />
    <glyph glyph-name="uogonek" unicode="&#x173;" 
d="M382 0h-5l-6 7l11 53h-4q-2 -3 -6 -7.5t-18.5 -16.5t-31.5 -21.5t-45 -17t-59 -7.5q-65 0 -97.5 29.5t-18.5 107.5l60 343h50l-60 -343q-9 -50 14 -68.5t71 -18.5q76 0 152 70l63 360h50l-82 -470h-5q-27 -41 -34 -73t12 -42q15 -5 30 -4.5t27 3.5l12 3l3 -5l-12 -41
q-5 -1 -12.5 -3t-30 -4.5t-36.5 1.5q-29 6 -38 26t-1.5 46t20 49.5t27.5 43.5z" />
    <glyph glyph-name="Wcircumflex" unicode="&#x174;" horiz-adv-x="740" 
d="M496 820h52l85 -130h-56l-62 88l-94 -88h-56zM267 70l234 560h50l-78 -187l24 -373l271 560h53l-305 -635h-64l-23 344l-143 -344h-64l-81 635h53z" />
    <glyph glyph-name="wcircumflex" unicode="&#x175;" horiz-adv-x="680" 
d="M256 -5h-64l-80 475h58l63 -420l211 420h58l-78 -152l39 -268l211 420h58l-246 -475h-64l-39 251zM432 670h52l85 -130h-56l-63 88l-93 -88h-56z" />
    <glyph glyph-name="Ycircumflex" unicode="&#x176;" horiz-adv-x="490" 
d="M363 820h52l85 -130h-56l-62 88l-94 -88h-56zM131 630h58l108 -330l226 330h58l-269 -388l-42 -242h-50l42 242z" />
    <glyph glyph-name="ycircumflex" unicode="&#x177;" 
d="M502 470l-90 -513q-24 -137 -181 -137q-37 0 -77 2.5t-62 5.5l-22 2l7 43l8 7q82 -10 145 -10q116 0 132 87l9 50l11 53h-4q-2 -3 -6 -7.5t-18.5 -16.5t-31.5 -21.5t-45 -17t-59 -7.5q-65 0 -97.5 29.5t-18.5 107.5l60 343h50l-60 -343q-9 -50 14 -68.5t71 -18.5
q76 0 152 70l63 360h50zM344 670h52l85 -130h-56l-63 88l-93 -88h-56z" />
    <glyph glyph-name="Ydieresis" unicode="&#x178;" horiz-adv-x="490" 
d="M328 785l-13 -75h-75l13 75h75zM513 785l-13 -75h-75l13 75h75zM131 630h58l108 -330l226 330h58l-269 -388l-42 -242h-50l42 242z" />
    <glyph glyph-name="Zacute" unicode="&#x179;" horiz-adv-x="490" 
d="M366 690l-22 20l141 150l38 -40zM546 630l-10 -55l-421 -526l334 3l-9 -52h-390l9 55l420 526l-318 -3l10 52h375z" />
    <glyph glyph-name="zacute" unicode="&#x17a;" horiz-adv-x="440" 
d="M457 470l-9 -55l-335 -365h285l-8 -50h-340l9 55l335 365h-260l8 50h315zM304 540l-23 20l142 150l38 -40z" />
    <glyph glyph-name="Zdotaccent" unicode="&#x17b;" horiz-adv-x="490" 
d="M423 790l-14 -80h-80l14 80h80zM546 630l-10 -55l-421 -526l334 3l-9 -52h-390l9 55l420 526l-318 -3l10 52h375z" />
    <glyph glyph-name="zdotaccent" unicode="&#x17c;" horiz-adv-x="440" 
d="M457 470l-9 -55l-335 -365h285l-8 -50h-340l9 55l335 365h-260l8 50h315zM384 640l-14 -80h-80l14 80h80z" />
    <glyph glyph-name="Zcaron" unicode="&#x17d;" horiz-adv-x="490" 
d="M400 680h-52l-85 130h56l63 -88l93 88h56zM546 630l-10 -55l-421 -526l334 3l-9 -52h-390l9 55l420 526l-318 -3l10 52h375z" />
    <glyph glyph-name="zcaron" unicode="&#x17e;" horiz-adv-x="440" 
d="M457 470l-9 -55l-335 -365h285l-8 -50h-340l9 55l335 365h-260l8 50h315zM339 530h-52l-85 130h56l62 -88l94 88h56z" />
    <glyph glyph-name="longs" unicode="&#x17f;" horiz-adv-x="270" 
d="M225 540l-104 -590q-12 -66 -48.5 -98t-88.5 -32q-15 0 -31 2t-25 4l-8 2l7 40l8 7q20 -5 53 -5q69 0 83 80l104 590q11 66 48 98t90 32q15 0 30.5 -2t24.5 -4l8 -2l-7 -40l-8 -7q-19 5 -52 5q-71 0 -84 -80z" />
    <glyph glyph-name="florin" unicode="&#x192;" horiz-adv-x="300" 
d="M102 -50l82 470h-50l8 50h50l13 70q11 66 48 98t90 32q15 0 30.5 -2t24.5 -4l8 -2l-7 -40l-8 -7q-19 5 -52 5q-71 0 -84 -80l-13 -70h110l-8 -50h-110l-82 -470q-24 -130 -138 -130q-14 0 -30 2t-24 4l-9 2l7 40l8 7q20 -5 52 -5q70 0 84 80z" />
    <glyph glyph-name="AEacute" unicode="&#x1fc;" horiz-adv-x="800" 
d="M549 690l-22 20l141 150l38 -40zM334 630h507l-9 -50h-310l-41 -230h250l-9 -50h-250l-44 -250h310l-8 -50h-360l52 300h-195l-144 -300h-53zM362 580l-111 -230h180l41 230h-110z" />
    <glyph glyph-name="aeacute" unicode="&#x1fd;" horiz-adv-x="750" 
d="M477 540l-23 20l142 150l38 -40zM720 225l-12 -10h-271l-16 -93q-5 -26 2 -43t24 -25t35 -11t42 -3q28 0 60 2.5t50 5.5l17 2l6 -7l-7 -43q-62 -10 -145 -10q-121 0 -134 77q-12 -14 -31 -29t-59 -31.5t-83 -16.5q-65 0 -97.5 29.5t-18.5 107.5q24 138 184 138h130l15 83
q5 26 -2 43t-24 25t-35 11t-42 3q-28 0 -60 -2.5t-50 -5.5l-17 -2l-6 7l7 43q62 10 145 10q100 0 126 -53q50 53 151 53q77 0 118.5 -30t27.5 -107q-13 -72 -30 -118zM369 110l18 105h-100q-34 0 -55 -2.5t-44 -10.5t-37 -26.5t-19 -48.5q-9 -50 14 -68.5t71 -18.5
q76 0 152 70zM595 430q-119 0 -135 -87l-14 -78h235q11 35 19 78q9 49 -21.5 68t-83.5 19z" />
    <glyph glyph-name="Oslashacute" unicode="&#x1fe;" horiz-adv-x="540" 
d="M381 690l-22 20l141 150l38 -40zM303 -10h-70q-67 0 -105 34t-24 116l62 350q26 150 181 150h70q67 0 105 -34t24 -116l-62 -350q-26 -150 -181 -150zM232 40h90q41 0 72.5 25t39.5 75l28 160h-280l-28 -160q-8 -50 14.5 -75t63.5 -25zM471 350l25 140q9 50 -13.5 75
t-63.5 25h-90q-41 0 -73 -25.5t-40 -74.5l-25 -140h280z" />
    <glyph glyph-name="oslashacute" unicode="&#x1ff;" horiz-adv-x="480" 
d="M339 540l-23 20l142 150l38 -40zM470 345l-38 -220q-14 -77 -65 -106t-129 -29q-75 0 -117 32t-29 103l38 220q13 71 66 103t128 32q37 0 64 -5.5t49.5 -19.5t31 -42t1.5 -68zM247 40q120 0 135 85l15 90h-240l-15 -90q-9 -49 21 -67t84 -18zM406 265l14 80q9 49 -21 67
t-84 18q-120 0 -135 -85l-14 -80h240z" />
    <glyph glyph-name="Scommaaccent" unicode="&#x218;" horiz-adv-x="510" 
d="M282 -40l-12 -70l-33 -130h-30l23 130h-30l12 70h70zM412 127l15 85q5 30 -3.5 48.5t-31.5 26.5t-44.5 10.5t-55.5 2.5q-32 0 -58 5t-50 18.5t-34.5 41.5t-3.5 68l13 75q24 132 190 132q37 0 80 -2.5t67 -5.5l25 -2l-8 -43l-8 -7q-91 10 -154 10q-127 0 -142 -82l-13 -75
q-4 -24 2 -40.5t16.5 -24.5t33.5 -12.5t38 -5t45 -0.5q31 0 57.5 -6t50.5 -20t34.5 -43t3.5 -69l-15 -85q-14 -76 -67.5 -106.5t-123.5 -30.5q-37 0 -84.5 2.5t-76.5 5.5l-30 2l7 43l8 7q112 -10 175 -10q126 0 142 87z" />
    <glyph glyph-name="scommaaccent" unicode="&#x219;" horiz-adv-x="450" 
d="M77 43l8 7q82 -10 145 -10q26 0 43 2.5t37.5 10t33.5 26.5t18 48q2 14 2 26t-1.5 20.5t-7 15.5t-10 11t-15 7t-17 4.5t-20.5 2.5t-22 1h-24q-73 0 -106.5 27.5t-19.5 105.5q14 77 58.5 104.5t111.5 27.5q37 0 74.5 -2.5t56.5 -5.5l20 -2l-7 -43l-8 -7q-72 10 -135 10
q-56 0 -84 -16t-37 -66q-3 -15 -3.5 -27t3.5 -21t7 -15t13 -9.5t17 -6t22.5 -3.5t25 -1h30.5q17 0 28 -0.5t26 -2.5t25 -6t20.5 -10.5t16.5 -16.5t10.5 -24t4 -34t-4.5 -44q-8 -44 -26 -72.5t-45 -42t-52 -18t-58 -4.5q-37 0 -77 2.5t-62 5.5l-22 2zM238 -40l-12 -70
l-33 -130h-30l23 130h-30l12 70h70z" />
    <glyph glyph-name="uni021A" unicode="&#x21a;" horiz-adv-x="440" 
d="M246 -37l-12 -70l-33 -130h-30l23 130h-30l12 70h70zM517 580h-170l-102 -580h-50l102 580h-170l9 50h390z" />
    <glyph glyph-name="uni021B" unicode="&#x21b;" horiz-adv-x="310" 
d="M111 120l53 300h-50l8 50h50l18 100h50l-18 -100h120l-8 -50h-120l-53 -300q-3 -27 -1.5 -43t12.5 -24t21 -10.5t24 -2.5l53 5l6 -7l-7 -40q-33 -8 -66 -8q-53 0 -78.5 32t-13.5 98zM199 -42l-12 -70l-33 -130h-30l23 130h-30l12 70h70z" />
    <glyph glyph-name="dotlessj" unicode="&#x237;" horiz-adv-x="210" 
d="M71 -50l91 520h50l-91 -520q-12 -66 -48.5 -98t-88.5 -32q-15 0 -31 2t-25 4l-8 2l7 40l8 7q20 -5 53 -5q69 0 83 80z" />
    <glyph glyph-name="circumflex" unicode="&#x2c6;" horiz-adv-x="428" 
d="M306 670h52l85 -130h-56l-63 88l-93 -88h-56z" />
    <glyph glyph-name="caron" unicode="&#x2c7;" horiz-adv-x="428" 
d="M333 530h-52l-85 130h56l62 -88l94 88h56z" />
    <glyph glyph-name="uni02C9" unicode="&#x2c9;" horiz-adv-x="440" 
d="M469 620l-9 -50h-280l9 50h280z" />
    <glyph glyph-name="breve" unicode="&#x2d8;" horiz-adv-x="400" 
d="M387 660h49q-10 -56 -48 -84.5t-84 -28.5h-16q-46 0 -74 28.5t-18 84.5h49q-6 -34 10.5 -51t44.5 -17h9q27 0 49.5 17t28.5 51z" />
    <glyph glyph-name="dotaccent" unicode="&#x2d9;" horiz-adv-x="230" 
d="M272 640l-14 -80h-80l14 80h80z" />
    <glyph glyph-name="ring" unicode="&#x2da;" horiz-adv-x="344" 
d="M260 540q-37 0 -58.5 15t-14.5 56l8 42q12 71 97 71h14q37 0 58.5 -15t14.5 -56l-8 -42q-12 -71 -97 -71h-14zM227 651l-6 -38q-8 -40 40 -40h24q46 0 54 40l6 38q4 21 -8 30t-33 9h-23q-46 0 -54 -39z" />
    <glyph glyph-name="ogonek" unicode="&#x2db;" horiz-adv-x="293" 
d="M109 0h33q-27 -41 -34 -73t12 -42q15 -5 30 -4.5t27 3.5l12 3l3 -5l-12 -41q-5 -1 -12.5 -3t-30 -4.5t-36.5 1.5q-29 6 -38 26t-1.5 46t20 49.5t27.5 43.5z" />
    <glyph glyph-name="tilde" unicode="&#x2dc;" horiz-adv-x="446" 
d="M324 568q-24 15 -39.5 21t-29 2t-21 -9.5t-24.5 -21.5l-28 24q65 93 160 40q16 -10 28 -14.5t19.5 -6t16 2.5t12 7t14 13.5l15.5 15.5l27 -24q-66 -97 -150 -50z" />
    <glyph glyph-name="hungarumlaut" unicode="&#x2dd;" horiz-adv-x="426" 
d="M208 540l-31 14l111 141l46 -25zM338 540l-31 14l111 141l46 -25z" />
    <glyph glyph-name="uni037E" unicode="&#x37e;" horiz-adv-x="300" 
d="M274 310l-25 -140h-140l25 140h140z" />
    <glyph glyph-name="tonos" unicode="&#x384;" horiz-adv-x="258" 
d="M190 450h-31l67 180h63z" />
    <glyph glyph-name="dieresistonos" unicode="&#x385;" horiz-adv-x="480" 
d="M266 635l-13 -75h-75l13 75h75zM511 635l-13 -75h-75l13 75h75zM327 560l-30 14l101 171l56 -20z" />
    <glyph glyph-name="Alphatonos" unicode="&#x386;" horiz-adv-x="510" 
d="M334 635h64l82 -635h-53l-32 244h-194l-118 -244h-53zM353 560l-129 -266h163zM175 455h-31l67 180h63z" />
    <glyph glyph-name="anoteleia" unicode="&#x387;" horiz-adv-x="420" 
d="M266 635l-13 -75h-75l13 75h75zM451 635l-13 -75h-75l13 75h75z" />
    <glyph glyph-name="Epsilontonos" unicode="&#x388;" horiz-adv-x="573" 
d="M295 580l-41 -230h250l-9 -50h-250l-44 -250h310l-8 -50h-360l111 630h360l-9 -50h-310zM110 450h-31l67 180h63z" />
    <glyph glyph-name="Etatonos" unicode="&#x389;" horiz-adv-x="608" 
d="M110 450h-31l67 180h63zM309 630l-50 -280h280l50 280h50l-111 -630h-50l52 300h-280l-52 -300h-50l111 630h50z" />
    <glyph glyph-name="Iotatonos" unicode="&#x38a;" horiz-adv-x="261" 
d="M242 630h50l-111 -630h-50zM110 450h-31l67 180h63z" />
    <glyph glyph-name="Omicrontonos" unicode="&#x38c;" horiz-adv-x="560" 
d="M252 40h90q41 0 72.5 25t39.5 75l62 350q9 50 -13.5 75t-63.5 25h-90q-41 0 -73 -25.5t-40 -74.5l-62 -350q-8 -50 14.5 -75t63.5 -25zM253 -10q-67 0 -105 34t-24 116l62 350q26 150 181 150h70q67 0 105 -34t24 -116l-62 -350q-26 -150 -181 -150h-70zM110 455h-31
l67 180h63z" />
    <glyph glyph-name="Upsilontonos" unicode="&#x38e;" horiz-adv-x="596" 
d="M237 630h58l108 -330l226 330h58l-269 -388l-42 -242h-50l42 242zM110 450h-31l67 180h63z" />
    <glyph glyph-name="Omegatonos" unicode="&#x38f;" horiz-adv-x="560" 
d="M110 455h-31l67 180h63zM463 190l53 300q9 50 -13.5 75t-63.5 25h-90q-41 0 -73 -25.5t-40 -74.5l-53 -300q-9 -52 13.5 -92.5t71.5 -47.5l-8 -50h-210l8 50h115l1 2q-2 2 -6 5t-13.5 15.5t-14 28t-9 42t3.5 57.5l51 290q26 150 181 150h70q67 0 105 -34t24 -116
l-51 -290q-6 -31 -17 -57.5t-23.5 -42.5t-24 -27.5t-18.5 -16.5l-8 -4l-1 -2h115l-8 -50h-210l8 50q52 7 89 47t46 93z" />
    <glyph glyph-name="iotadieresistonos" unicode="&#x390;" horiz-adv-x="204" 
d="M158 470h50l-82 -470h-50zM128 615l-13 -75h-75l13 75h75zM373 615l-13 -75h-75l13 75h75zM189 540l-30 14l101 171l56 -20z" />
    <glyph glyph-name="Alpha" unicode="&#x391;" horiz-adv-x="510" 
d="M334 635h64l82 -635h-53l-32 244h-194l-118 -244h-53zM353 560l-129 -266h163z" />
    <glyph glyph-name="Beta" unicode="&#x392;" horiz-adv-x="530" 
d="M494 198l-8 -46q-26 -152 -183 -152h-223l111 630h213q67 0 105.5 -34t24.5 -118l-5 -26q-8 -49 -27.5 -74.5t-53.5 -46.5q29 -13 42 -47t4 -86zM138 50h182q41 0 74.5 26t41.5 76l8 46q18 102 -80 102h-182zM191 350h174q41 0 73 25.5t41 76.5l5 26q8 51 -15.5 76.5
t-64.5 25.5h-172z" />
    <glyph glyph-name="Gamma" unicode="&#x393;" horiz-adv-x="470" 
d="M542 580h-310l-102 -580h-50l111 630h360z" />
    <glyph glyph-name="Epsilon" unicode="&#x395;" horiz-adv-x="510" 
d="M232 580l-41 -230h250l-9 -50h-250l-44 -250h310l-8 -50h-360l111 630h360l-9 -50h-310z" />
    <glyph glyph-name="Zeta" unicode="&#x396;" horiz-adv-x="490" 
d="M546 630l-10 -55l-421 -526l334 3l-9 -52h-390l9 55l420 526l-318 -3l10 52h375z" />
    <glyph glyph-name="Eta" unicode="&#x397;" horiz-adv-x="540" 
d="M241 630l-50 -280h280l50 280h50l-111 -630h-50l52 300h-280l-52 -300h-50l111 630h50z" />
    <glyph glyph-name="Theta" unicode="&#x398;" horiz-adv-x="540" 
d="M232 40h90q41 0 72.5 25t39.5 75l62 350q9 50 -13.5 75t-63.5 25h-90q-41 0 -73 -25.5t-40 -74.5l-62 -350q-8 -50 14.5 -75t63.5 -25zM233 -10q-67 0 -105 34t-24 116l62 350q26 150 181 150h70q67 0 105 -34t24 -116l-62 -350q-26 -150 -181 -150h-70zM239 340h180
l-8 -50h-180z" />
    <glyph glyph-name="Iota" unicode="&#x399;" horiz-adv-x="210" 
d="M191 630h50l-111 -630h-50z" />
    <glyph glyph-name="Kappa" unicode="&#x39a;" horiz-adv-x="533" 
d="M241 630l-65 -365l345 365h63l-264 -285l173 -345h-63l-152 305l-115 -115l-33 -190h-50l111 630h50z" />
    <glyph glyph-name="Lambda" unicode="&#x39b;" horiz-adv-x="510" 
d="M353 560l-270 -560h-53l304 635h64l82 -635h-53z" />
    <glyph glyph-name="Mu" unicode="&#x39c;" horiz-adv-x="650" 
d="M191 630h70l108 -380l242 380h70l-111 -630h-50l97 555l-231 -365h-56l-103 365l-97 -555h-50z" />
    <glyph glyph-name="Nu" unicode="&#x39d;" horiz-adv-x="550" 
d="M531 630h50l-111 -630h-70l-173 555l-97 -555h-50l111 630h70l172 -555z" />
    <glyph glyph-name="Xi" unicode="&#x39e;" horiz-adv-x="450" 
d="M522 580h-390l9 50h390zM420 0h-390l8 50h390zM146 350h280l-9 -50h-280z" />
    <glyph glyph-name="Omicron" unicode="&#x39f;" horiz-adv-x="540" 
d="M232 40h90q41 0 72.5 25t39.5 75l62 350q9 50 -13.5 75t-63.5 25h-90q-41 0 -73 -25.5t-40 -74.5l-62 -350q-8 -50 14.5 -75t63.5 -25zM233 -10q-67 0 -105 34t-24 116l62 350q26 150 181 150h70q67 0 105 -34t24 -116l-62 -350q-26 -150 -181 -150h-70z" />
    <glyph glyph-name="Pi" unicode="&#x3a0;" horiz-adv-x="540" 
d="M191 630h380l-111 -630h-50l102 580h-280l-102 -580h-50z" />
    <glyph glyph-name="Rho" unicode="&#x3a1;" horiz-adv-x="520" 
d="M350 260h-175l-45 -260h-50l111 630h225q67 0 104.5 -34t23.5 -116l-12 -70q-26 -150 -182 -150zM184 310h185q41 0 72.5 25t40.5 75l12 70q9 50 -13.5 75t-63.5 25h-185z" />
    <glyph glyph-name="Sigma" unicode="&#x3a3;" horiz-adv-x="490" 
d="M215 581l117 -262l-217 -270l334 3l-9 -52h-390l9 55l211 264l-114 256l10 55h375l-10 -52z" />
    <glyph glyph-name="Tau" unicode="&#x3a4;" horiz-adv-x="440" 
d="M517 580h-170l-102 -580h-50l102 580h-170l9 50h390z" />
    <glyph glyph-name="Upsilon" unicode="&#x3a5;" horiz-adv-x="490" 
d="M131 630h58l108 -330l226 330h58l-269 -388l-42 -242h-50l42 242z" />
    <glyph glyph-name="Phi" unicode="&#x3a6;" horiz-adv-x="590" 
d="M381 630h50l-16 -90h55q67 0 104.5 -34t23.5 -116l-26 -150q-26 -150 -182 -150h-55l-15 -90h-50l15 90h-55q-67 0 -104.5 34t-23.5 116l26 150q26 150 182 150h55zM344 140h65q41 0 72.5 25t40.5 75l26 150q9 50 -13.5 75t-63.5 25h-65zM178 390l-26 -150
q-9 -50 13.5 -75t63.5 -25h65l62 350h-65q-41 0 -72.5 -25t-40.5 -75z" />
    <glyph glyph-name="Chi" unicode="&#x3a7;" horiz-adv-x="540" 
d="M360 315l135 -315h-62l-116 270l-212 -270h-60l245 315l-134 315h62l115 -270l213 270h60z" />
    <glyph glyph-name="Psi" unicode="&#x3a8;" horiz-adv-x="550" 
d="M361 630h50l-55 -310h45q41 0 72.5 25t40.5 75l37 210h50l-37 -210q-28 -150 -182 -150h-35l-47 -270h-50l47 270h-35q-67 0 -105 34t-23 116l37 210h50l-37 -210q-9 -50 13.5 -75t63.5 -25h45z" />
    <glyph glyph-name="Iotadieresis" unicode="&#x3aa;" horiz-adv-x="210" 
d="M190 630h50l-111 -630h-50zM161 785l-13 -75h-75l13 75h75zM346 785l-13 -75h-75l13 75h75z" />
    <glyph glyph-name="Upsilondieresis" unicode="&#x3ab;" horiz-adv-x="490" 
d="M131 630h58l108 -330l226 330h58l-269 -388l-42 -242h-50l42 242zM300 784l-13 -75h-75l13 75h75zM485 784l-13 -75h-75l13 75h75z" />
    <glyph glyph-name="alphatonos" unicode="&#x3ac;" horiz-adv-x="485" 
d="M374 110l55 314q-62 6 -117 6q-116 0 -132 -87l-38 -216q-9 -50 12 -68.5t68 -18.5q76 0 152 70zM405 0h-43l-6 7l12 53h-4q-2 -3 -6 -7.5t-19 -16.5t-32 -21.5t-45 -17t-59 -7.5q-64 0 -94.5 29.5t-16.5 107.5l38 216q24 137 181 137q32 0 74.5 -2.5t68.5 -5.5l26 -2
l6 -7zM339 539h-31l67 180h63z" />
    <glyph glyph-name="epsilontonos" unicode="&#x3ad;" horiz-adv-x="420" 
d="M400 260l-8 -50h-128q-34 0 -54.5 -3.5t-40.5 -21.5t-26 -52l-2 -11q-5 -26 2 -43t24 -25t35 -11t42 -3q28 0 60 2.5t50 5.5l17 2l6 -7l-7 -43q-62 -10 -145 -10q-32 0 -56.5 5t-46 18.5t-30 41t-1.5 67.5l2 11q8 43 33.5 68.5t60.5 33.5q-32 8 -49 34t-9 68l2 11
q24 132 180 132q37 0 72 -2.5t52 -5.5l17 -2l-7 -43l-8 -7q-62 10 -125 10q-52 0 -87 -16.5t-44 -65.5l-2 -11q-5 -26 0.5 -42.5t21 -23.5t31 -9t40.5 -2h128zM338 540h-31l67 180h63z" />
    <glyph glyph-name="etatonos" unicode="&#x3ae;" 
d="M480 343l-90 -513h-50l90 513q9 50 -14 68.5t-71 18.5q-76 0 -152 -70l-63 -360h-50l82 470h43l6 -7l-11 -53h4q2 3 6 7.5t18.5 16.5t31.5 21.5t45 17t59 7.5q65 0 97.5 -29.5t18.5 -107.5zM342 540h-31l67 180h63z" />
    <glyph glyph-name="iotatonos" unicode="&#x3af;" horiz-adv-x="208" 
d="M162 470h50l-82 -470h-50zM200 540h-31l67 180h63z" />
    <glyph glyph-name="upsilondieresistonos" unicode="&#x3b0;" horiz-adv-x="490" 
d="M431 350q3 27 1.5 43t-12.5 24t-21 10.5t-24 2.5l-54 -5l-5 7l7 40q33 8 66 8q53 0 78.5 -32t13.5 -98l-39 -225q-14 -77 -65 -106t-129 -29q-75 0 -117 32t-29 103l60 345h50l-60 -345q-9 -49 21 -67t84 -18q120 0 135 85zM274 613l-13 -75h-75l13 75h75zM519 613
l-13 -75h-75l13 75h75zM335 538l-30 14l101 171l56 -20z" />
    <glyph glyph-name="alpha" unicode="&#x3b1;" horiz-adv-x="485" 
d="M374 110l55 314q-62 6 -117 6q-116 0 -132 -87l-38 -216q-9 -50 12 -68.5t68 -18.5q76 0 152 70zM405 0h-43l-6 7l12 53h-4q-2 -3 -6 -7.5t-19 -16.5t-32 -21.5t-45 -17t-59 -7.5q-64 0 -94.5 29.5t-16.5 107.5l38 216q24 137 181 137q32 0 74.5 -2.5t68.5 -5.5l26 -2
l6 -7z" />
    <glyph glyph-name="beta" unicode="&#x3b2;" horiz-adv-x="520" 
d="M100 -170h-50l119 675q13 71 65.5 103t127.5 32q78 0 119 -29t28 -106l-12 -63q-8 -49 -27.5 -74.5t-53.5 -46.5q29 -13 42.5 -47t4.5 -86l-12 -68q-24 -130 -138 -130q-15 0 -31 2t-24 4l-9 2l7 40l8 7q20 -5 53 -5q70 0 84 80l12 68q17 102 -80 102h-152zM219 505
l-30 -165h144q41 0 73.5 25.5t40.5 76.5l12 63q8 49 -22 67t-83 18q-121 0 -135 -85z" />
    <glyph glyph-name="gamma" unicode="&#x3b3;" horiz-adv-x="450" 
d="M112 470h58l67 -400l207 400h58l-250 -457l-32 -183h-50l32 183z" />
    <glyph glyph-name="delta" unicode="&#x3b4;" horiz-adv-x="475" 
d="M429 140q-26 -150 -181 -150h-25q-67 0 -105 34t-24 116l21 120q27 150 182 150h25q66 0 98 -36l28 159q6 34 -11.5 54.5t-42 26.5t-57.5 6q-28 0 -63.5 -2.5t-57.5 -5.5l-22 -2l-6 7l8 43q77 10 160 10q32 0 57.5 -6t49 -20t33 -42.5t2.5 -68.5zM323 360h-45
q-41 0 -72.5 -25t-40.5 -75l-21 -120q-8 -50 14.5 -75t63.5 -25h45q41 0 72.5 25t39.5 75l21 120q9 50 -13.5 75t-63.5 25z" />
    <glyph glyph-name="epsilon" unicode="&#x3b5;" horiz-adv-x="420" 
d="M400 260l-8 -50h-128q-34 0 -54.5 -3.5t-40.5 -21.5t-26 -52l-2 -11q-5 -26 2 -43t24 -25t35 -11t42 -3q28 0 60 2.5t50 5.5l17 2l6 -7l-7 -43q-62 -10 -145 -10q-32 0 -56.5 5t-46 18.5t-30 41t-1.5 67.5l2 11q8 43 33.5 68.5t60.5 33.5q-32 8 -49 34t-9 68l2 11
q24 132 180 132q37 0 72 -2.5t52 -5.5l17 -2l-7 -43l-8 -7q-62 10 -125 10q-52 0 -87 -16.5t-44 -65.5l-2 -11q-5 -26 0.5 -42.5t21 -23.5t31 -9t40.5 -2h128z" />
    <glyph glyph-name="zeta" unicode="&#x3b6;" horiz-adv-x="410" 
d="M219 165q-73 0 -107 27.5t-20 105.5q16 90 91 172.5t211 139.5h-237l9 50h295l-12 -65q-4 -2 -44 -23t-62 -34t-62 -41.5t-63.5 -54.5t-46 -64.5t-29.5 -79.5q-3 -15 -3.5 -27t3.5 -21t7 -15t13 -9.5t17 -6t22.5 -3.5t25 -1h30.5q73 0 107 -27.5t20 -105.5
q-12 -68 -67 -137.5t-149 -124.5l-20 30l2 10q74 47 122.5 99t61.5 123q3 15 3.5 27t-3.5 21t-7 15t-13 9.5t-17 6t-22.5 3.5t-25 1h-30.5z" />
    <glyph glyph-name="eta" unicode="&#x3b7;" 
d="M480 343l-90 -513h-50l90 513q9 50 -14 68.5t-71 18.5q-76 0 -152 -70l-63 -360h-50l82 470h43l6 -7l-11 -53h4q2 3 6 7.5t18.5 16.5t31.5 21.5t45 17t59 7.5q65 0 97.5 -29.5t18.5 -107.5z" />
    <glyph glyph-name="theta" unicode="&#x3b8;" 
d="M233 360h160l-9 -50h-160zM392 125l72 410q9 49 -21 67t-84 18q-120 0 -135 -85l-72 -410q-9 -49 21 -67t84 -18q120 0 135 85zM514 535l-72 -410q-14 -77 -65 -106t-129 -29q-75 0 -117 32t-29 103l72 410q13 71 66 103t128 32q37 0 64 -5.5t49.5 -19.5t31 -42t1.5 -68z
" />
    <glyph glyph-name="iota" unicode="&#x3b9;" horiz-adv-x="210" 
d="M162 470h50l-82 -470h-50z" />
    <glyph glyph-name="kappa" unicode="&#x3ba;" horiz-adv-x="493" 
d="M167 215l-37 -215h-50l82 470h50l-36 -205h140q48 0 77.5 18.5t38.5 68.5l20 118h50l-20 -118q-14 -78 -57 -107.5t-108 -29.5h-5l121 -215h-63l-120 215h-83z" />
    <glyph glyph-name="lambda" unicode="&#x3bb;" horiz-adv-x="450" 
d="M257 665h50l113 -665h-58l-63 420l-211 -420h-58l254 483z" />
    <glyph glyph-name="uni03BC" unicode="&#x3bc;" 
d="M71 -50l91 520h50l-60 -343q-9 -50 14 -68.5t71 -18.5q76 0 152 70l63 360h50l-82 -470h-43l-6 7l11 53h-4q-2 -3 -6 -7.5t-18.5 -16.5t-31.5 -21.5t-45 -17t-59 -7.5q-58 0 -87 20l-10 -60q-12 -66 -48.5 -98t-88.5 -32q-15 0 -31 2t-25 4l-8 2l7 40l8 7q20 -5 53 -5
q69 0 83 80z" />
    <glyph glyph-name="nu" unicode="&#x3bd;" horiz-adv-x="450" 
d="M256 -5h-64l-80 475h58l63 -420l211 420h58z" />
    <glyph glyph-name="xi" unicode="&#x3be;" horiz-adv-x="416" 
d="M92 297l4 21q7 42 33 68t61 34q-32 8 -49 33.5t-9 68.5l2 16q24 132 181 132q37 0 72 -2.5t52 -5.5l17 -2l-8 -43l-8 -7q-61 10 -124 10q-117 0 -132 -82l-2 -16q-5 -26 0.5 -42.5t21 -23.5t31 -9t40.5 -2h128l-9 -50h-128q-34 0 -54.5 -3.5t-40 -21.5t-25.5 -52l-4 -21
q-5 -26 2.5 -43t26 -25t37.5 -11t45 -3q91 0 121 -26t16 -107q-12 -68 -67 -137.5t-149 -124.5l-20 30l2 10q74 47 122.5 99t61.5 123q3 15 3.5 27t-3.5 21t-7 15t-13 9.5t-17 6t-22.5 3.5t-25 1h-30.5q-32 0 -56 5t-46 18.5t-30 41t-1 67.5z" />
    <glyph glyph-name="omicron" unicode="&#x3bf;" horiz-adv-x="480" 
d="M382 125l38 220q9 49 -21 67t-84 18q-120 0 -135 -85l-38 -220q-9 -49 21 -67t84 -18q120 0 135 85zM470 345l-38 -220q-14 -77 -65 -106t-129 -29q-75 0 -117 32t-29 103l38 220q13 71 66 103t128 32q37 0 64 -5.5t49.5 -19.5t31 -42t1.5 -68z" />
    <glyph glyph-name="pi" unicode="&#x3c0;" 
d="M162 470h340l-82 -470h-50l74 420h-240l-74 -420h-50z" />
    <glyph glyph-name="rho" unicode="&#x3c1;" horiz-adv-x="485" 
d="M475 345l-38 -218q-24 -137 -181 -137q-47 0 -127 5l-29 -165h-50l90 515q13 71 65.5 103t126.5 32q77 0 117 -29t26 -106zM387 127l38 218q9 49 -20 67t-82 18q-118 0 -133 -85l-52 -299q62 -6 117 -6q116 0 132 87z" />
    <glyph glyph-name="uni03C2" unicode="&#x3c2;" horiz-adv-x="410" 
d="M148 -150l2 10q74 47 122.5 99t61.5 123q3 15 3.5 27t-3.5 21t-7 15t-13 9.5t-17 6t-22.5 3.5t-25 1h-30.5q-73 0 -107 27.5t-20 105.5l9 50q14 77 58.5 104.5t111.5 27.5q37 0 74.5 -2.5t56.5 -5.5l20 -2l-7 -43l-8 -7q-72 10 -135 10q-56 0 -84 -16t-37 -66l-9 -50
q-3 -15 -3.5 -27t3.5 -21t7 -15t13 -9.5t17 -6t22.5 -3.5t25 -1h30.5q73 0 107 -27.5t20 -105.5q-12 -68 -67 -137.5t-149 -124.5z" />
    <glyph glyph-name="sigma" unicode="&#x3c3;" horiz-adv-x="525" 
d="M460 430q20 -31 10 -85l-38 -220q-14 -77 -65 -106t-129 -29q-75 0 -117 32t-29 103l38 220q13 71 66 103t128 32h140q47 0 74.5 18.5t35.5 68.5l3 13h50l-3 -13q-13 -77 -56 -107t-108 -30zM382 125l38 220q9 49 -21 67t-84 18q-120 0 -135 -85l-38 -220q-9 -49 21 -67
t84 -18q120 0 135 85z" />
    <glyph glyph-name="tau" unicode="&#x3c4;" horiz-adv-x="420" 
d="M274 420h-50q-48 0 -67.5 -19.5t-25.5 -50.5q-3 -15 -4 -28t-1 -19l1 -6l-8 -7h-40q-3 32 3 65q21 115 150 115h250l-8 -50h-150l-53 -300q-3 -27 -1.5 -43t12.5 -24t21 -10.5t24 -2.5l53 5l6 -7l-7 -40q-33 -8 -66 -8q-53 0 -78.5 32t-13.5 98z" />
    <glyph glyph-name="upsilon" unicode="&#x3c5;" horiz-adv-x="490" 
d="M431 350q3 27 1.5 43t-12.5 24t-21 10.5t-24 2.5l-54 -5l-5 7l7 40q33 8 66 8q53 0 78.5 -32t13.5 -98l-39 -225q-14 -77 -65 -106t-129 -29q-75 0 -117 32t-29 103l60 345h50l-60 -345q-9 -49 21 -67t84 -18q120 0 135 85z" />
    <glyph glyph-name="phi" unicode="&#x3c6;" horiz-adv-x="680" 
d="M285 -170l30 170h-75q-75 0 -117.5 32t-29.5 103l36 200q13 71 65.5 103t127.5 32h75l30 170h50l-30 -170h75q78 0 119 -29t28 -106l-36 -200q-13 -77 -64 -106t-129 -29h-75l-30 -170h-50zM514 420h-75l-66 -370h75q121 0 135 85l36 200q8 49 -22 67t-83 18zM248 50h75
l66 370h-75q-121 0 -135 -85l-36 -200q-8 -49 22 -67t83 -18z" />
    <glyph glyph-name="chi" unicode="&#x3c7;" horiz-adv-x="450" 
d="M112 470h58l89 -275l185 275h58l-223 -321l111 -319h-58l-90 270l-184 -270h-58l222 319z" />
    <glyph glyph-name="psi" unicode="&#x3c8;" horiz-adv-x="770" 
d="M358 -10h-110q-75 0 -117 32t-29 103l60 345h50l-60 -345q-9 -49 21 -67t84 -18h110l75 430h50l-75 -430h120q120 0 135 85l39 225q3 27 1.5 43t-12.5 24t-21 10.5t-24 2.5l-54 -5l-5 7l7 40q33 8 66 8q53 0 78.5 -32t13.5 -98l-39 -225q-14 -77 -65 -106t-129 -29h-120
l-28 -160h-50z" />
    <glyph glyph-name="omega" unicode="&#x3c9;" horiz-adv-x="770" 
d="M181 350l-39 -225q-9 -49 21 -67t84 -18q120 0 135 85l60 345h50l-60 -345q-9 -49 21 -67t84 -18q120 0 135 85l39 225q3 27 1.5 43t-12.5 24t-21 10.5t-24 2.5l-54 -5l-5 7l7 40q33 8 66 8q53 0 78.5 -32t13.5 -98l-39 -225q-14 -77 -65 -106t-129 -29q-111 0 -134 66
q-46 -66 -156 -66q-37 0 -64 5.5t-49.5 19.5t-31 42t-1.5 68l39 225q11 66 48 98t90 32q15 0 31 -2t24 -4l9 -2l-7 -40l-9 -7q-19 5 -52 5q-70 0 -84 -80z" />
    <glyph glyph-name="iotadieresis" unicode="&#x3ca;" horiz-adv-x="204" 
d="M159 470h50l-82 -470h-50zM158 615l-13 -75h-75l13 75h75zM343 615l-13 -75h-75l13 75h75z" />
    <glyph glyph-name="upsilondieresis" unicode="&#x3cb;" horiz-adv-x="490" 
d="M431 350q3 27 1.5 43t-12.5 24t-21 10.5t-24 2.5l-54 -5l-5 7l7 40q33 8 66 8q53 0 78.5 -32t13.5 -98l-39 -225q-14 -77 -65 -106t-129 -29q-75 0 -117 32t-29 103l60 345h50l-60 -345q-9 -49 21 -67t84 -18q120 0 135 85zM308 615l-13 -75h-75l13 75h75zM493 615
l-13 -75h-75l13 75h75z" />
    <glyph glyph-name="omicrontonos" unicode="&#x3cc;" horiz-adv-x="480" 
d="M382 125l38 220q9 49 -21 67t-84 18q-120 0 -135 -85l-38 -220q-9 -49 21 -67t84 -18q120 0 135 85zM470 345l-38 -220q-14 -77 -65 -106t-129 -29q-75 0 -117 32t-29 103l38 220q13 71 66 103t128 32q37 0 64 -5.5t49.5 -19.5t31 -42t1.5 -68zM328 540h-31l67 180h63z
" />
    <glyph glyph-name="upsilontonos" unicode="&#x3cd;" horiz-adv-x="490" 
d="M431 350q3 27 1.5 43t-12.5 24t-21 10.5t-24 2.5l-54 -5l-5 7l7 40q33 8 66 8q53 0 78.5 -32t13.5 -98l-39 -225q-14 -77 -65 -106t-129 -29q-75 0 -117 32t-29 103l60 345h50l-60 -345q-9 -49 21 -67t84 -18q120 0 135 85zM335 540h-31l67 180h63z" />
    <glyph glyph-name="omegatonos" unicode="&#x3ce;" horiz-adv-x="770" 
d="M181 350l-39 -225q-9 -49 21 -67t84 -18q120 0 135 85l60 345h50l-60 -345q-9 -49 21 -67t84 -18q120 0 135 85l39 225q3 27 1.5 43t-12.5 24t-21 10.5t-24 2.5l-54 -5l-5 7l7 40q33 8 66 8q53 0 78.5 -32t13.5 -98l-39 -225q-14 -77 -65 -106t-129 -29q-111 0 -134 66
q-46 -66 -156 -66q-37 0 -64 5.5t-49.5 19.5t-31 42t-1.5 68l39 225q11 66 48 98t90 32q15 0 31 -2t24 -4l9 -2l-7 -40l-9 -7q-19 5 -52 5q-70 0 -84 -80zM478 540h-31l67 180h63z" />
    <glyph glyph-name="Wgrave" unicode="&#x1e80;" horiz-adv-x="740" 
d="M532 710l-30 -20l-111 130l52 40zM267 70l234 560h50l-78 -187l24 -373l271 560h53l-305 -635h-64l-23 344l-143 -344h-64l-81 635h53z" />
    <glyph glyph-name="wgrave" unicode="&#x1e81;" horiz-adv-x="680" 
d="M256 -5h-64l-80 475h58l63 -420l211 420h58l-78 -152l39 -268l211 420h58l-246 -475h-64l-39 251zM469 560l-29 -20l-111 130l52 40z" />
    <glyph glyph-name="Wacute" unicode="&#x1e82;" horiz-adv-x="740" 
d="M507 690l-22 20l141 150l38 -40zM267 70l234 560h50l-78 -187l24 -373l271 560h53l-305 -635h-64l-23 344l-143 -344h-64l-81 635h53z" />
    <glyph glyph-name="wacute" unicode="&#x1e83;" horiz-adv-x="680" 
d="M256 -5h-64l-80 475h58l63 -420l211 420h58l-78 -152l39 -268l211 420h58l-246 -475h-64l-39 251zM444 540l-23 20l142 150l38 -40z" />
    <glyph glyph-name="Wdieresis" unicode="&#x1e84;" horiz-adv-x="740" 
d="M473 785l-13 -75h-75l13 75h75zM658 785l-13 -75h-75l13 75h75zM267 70l234 560h50l-78 -187l24 -373l271 560h53l-305 -635h-64l-23 344l-143 -344h-64l-81 635h53z" />
    <glyph glyph-name="wdieresis" unicode="&#x1e85;" horiz-adv-x="680" 
d="M256 -5h-64l-80 475h58l63 -420l211 420h58l-78 -152l39 -268l211 420h58l-246 -475h-64l-39 251zM401 635l-13 -75h-75l13 75h75zM586 635l-13 -75h-75l13 75h75z" />
    <glyph glyph-name="Ygrave" unicode="&#x1ef2;" horiz-adv-x="490" 
d="M384 710l-30 -20l-111 130l52 40zM131 630h58l108 -330l226 330h58l-269 -388l-42 -242h-50l42 242z" />
    <glyph glyph-name="ygrave" unicode="&#x1ef3;" 
d="M502 470l-90 -513q-24 -137 -181 -137q-37 0 -77 2.5t-62 5.5l-22 2l7 43l8 7q82 -10 145 -10q116 0 132 87l9 50l11 53h-4q-2 -3 -6 -7.5t-18.5 -16.5t-31.5 -21.5t-45 -17t-59 -7.5q-65 0 -97.5 29.5t-18.5 107.5l60 343h50l-60 -343q-9 -50 14 -68.5t71 -18.5
q76 0 152 70l63 360h50zM367 560l-29 -20l-111 130l52 40z" />
    <glyph glyph-name="figuredash" unicode="&#x2012;" 
d="M127 270h340l-9 -50h-340z" />
    <glyph glyph-name="endash" unicode="&#x2013;" 
d="M127 270h340l-9 -50h-340z" />
    <glyph glyph-name="emdash" unicode="&#x2014;" horiz-adv-x="790" 
d="M127 270h630l-9 -50h-630z" />
    <glyph glyph-name="quoteleft" unicode="&#x2018;" horiz-adv-x="230" 
d="M161 460l12 70l33 130h30l-23 -130h30l-12 -70h-70z" />
    <glyph glyph-name="quoteright" unicode="&#x2019;" horiz-adv-x="230" 
d="M266 660l-12 -70l-33 -130h-30l23 130h-30l12 70h70z" />
    <glyph glyph-name="quotesinglbase" unicode="&#x201a;" horiz-adv-x="230" 
d="M162 70l-12 -70l-33 -130h-30l23 130h-30l12 70h70z" />
    <glyph glyph-name="quotedblleft" unicode="&#x201c;" horiz-adv-x="370" 
d="M301 460l12 70l33 130h30l-23 -130h30l-12 -70h-70zM161 460l12 70l33 130h30l-23 -130h30l-12 -70h-70z" />
    <glyph glyph-name="quotedblright" unicode="&#x201d;" horiz-adv-x="370" 
d="M266 660l-12 -70l-33 -130h-30l23 130h-30l12 70h70zM406 660l-12 -70l-33 -130h-30l23 130h-30l12 70h70z" />
    <glyph glyph-name="quotedblbase" unicode="&#x201e;" horiz-adv-x="370" 
d="M162 70l-12 -70l-33 -130h-30l23 130h-30l12 70h70zM302 70l-12 -70l-33 -130h-30l23 130h-30l12 70h70z" />
    <glyph glyph-name="dagger" unicode="&#x2020;" horiz-adv-x="520" 
d="M368 475l-83 -475h-50l83 475h-155l9 50h155l24 135h50l-24 -135h155l-9 -50h-155z" />
    <glyph glyph-name="daggerdbl" unicode="&#x2021;" horiz-adv-x="520" 
d="M285 0h-50l23 135h-155l9 50h155l51 290h-155l9 50h155l24 135h50l-24 -135h155l-9 -50h-155l-51 -290h155l-9 -50h-155z" />
    <glyph glyph-name="bullet" unicode="&#x2022;" horiz-adv-x="300" 
d="M274 310l-25 -140h-140l25 140h140z" />
    <glyph glyph-name="onedotenleader" unicode="&#x2024;" horiz-adv-x="230" 
d="M162 70l-12 -70h-70l12 70h70z" />
    <glyph glyph-name="twodotenleader" unicode="&#x2025;" horiz-adv-x="440" 
d="M162 70l-12 -70h-70l12 70h70zM372 70l-12 -70h-70l12 70h70z" />
    <glyph glyph-name="ellipsis" unicode="&#x2026;" horiz-adv-x="650" 
d="M162 70l-12 -70h-70l12 70h70zM372 70l-12 -70h-70l12 70h70zM582 70l-12 -70h-70l12 70h70z" />
    <glyph glyph-name="perthousand" unicode="&#x2030;" horiz-adv-x="1058" 
d="M197 0h-50l506 630h50zM373 490l9 50q6 34 -15 47t-58 13q-82 0 -93 -60l-9 -50q-6 -34 14.5 -47t57.5 -13q83 0 94 60zM423 541l-9 -52q-18 -99 -142 -99q-55 0 -85.5 23.5t-20.5 75.5l9 52q17 99 141 99q57 0 87 -21.5t20 -77.5zM622 90l9 50q6 34 -14.5 47t-57.5 13
q-83 0 -94 -60l-9 -50q-5 -34 15.5 -47t57.5 -13q83 0 93 60zM672 141l-9 -52q-17 -99 -141 -99q-55 0 -85.5 23.5t-21.5 75.5l9 52q10 52 49 75.5t93 23.5q57 0 86.5 -21.5t19.5 -77.5zM952 90l9 50q6 34 -14.5 47t-57.5 13q-83 0 -94 -60l-9 -50q-5 -34 15.5 -47t57.5 -13
q83 0 93 60zM1002 141l-9 -52q-17 -99 -141 -99q-55 0 -85.5 23.5t-21.5 75.5l9 52q10 52 49 75.5t93 23.5q57 0 86.5 -21.5t19.5 -77.5z" />
    <glyph glyph-name="guilsinglleft" unicode="&#x2039;" horiz-adv-x="413" 
d="M117 211l11 64l284 175l-12 -65l-225 -142l175 -142l-11 -65z" />
    <glyph glyph-name="guilsinglright" unicode="&#x203a;" horiz-adv-x="413" 
d="M381 275l-11 -64l-284 -175l11 65l225 142l-175 142l12 65z" />
    <glyph glyph-name="exclamdbl" unicode="&#x203c;" horiz-adv-x="420" 
d="M141 350l55 310h50l-55 -310l-44 -220h-40zM142 70l-12 -70h-50l12 70h50zM351 350l55 310h50l-55 -310l-44 -220h-40zM352 70l-12 -70h-50l12 70h50z" />
    <glyph glyph-name="fraction" unicode="&#x2044;" horiz-adv-x="285" 
d="M70 0h-50l306 630h50z" />
    <glyph glyph-name="zerosuperior" unicode="&#x2070;" horiz-adv-x="385" 
d="M236 440h67q31 0 55 19t30 56l36 203q6 37 -11 56t-48 19h-67q-31 0 -54.5 -19t-29.5 -56l-36 -203q-6 -37 10.5 -56t47.5 -19zM236 402q-50 0 -78.5 25.5t-17.5 87.5l36 203q20 112 136 112h53q116 0 96 -112l-36 -203q-20 -113 -136 -113h-53z" />
    <glyph glyph-name="foursuperior" unicode="&#x2074;" horiz-adv-x="430" 
d="M375 508h-236l7 37l274 281h48l-49 -281h57l-7 -37h-57l-17 -98h-37zM188 545h194l42 238z" />
    <glyph glyph-name="fivesuperior" unicode="&#x2075;" horiz-adv-x="370" 
d="M278 613h-113l37 210h255l-7 -38h-217l-24 -135h97q53 0 86.5 -22t23.5 -79l-8 -49l1 5q-7 -39 -32 -63.5t-52.5 -32t-60.5 -7.5q-28 0 -63.5 2t-56.5 4l-22 2l5 32l6 6q84 -8 131 -8q95 0 107 65l7 44q3 18 -1.5 30.5t-12.5 19t-24 10t-28.5 4t-33.5 0.5z" />
    <glyph glyph-name="sixsuperior" unicode="&#x2076;" horiz-adv-x="377" 
d="M140 515l38 212q18 103 143 103l144 -7l-6 -33l-6 -5q-84 8 -131 8q-96 0 -107 -66l-17 -96q34 27 84 27h45q115 0 96 -113l-6 -30q-20 -113 -136 -113h-45q-50 0 -78.5 25.5t-17.5 87.5zM328 620h-60q-31 0 -55 -19t-30 -56l-6 -30q-6 -37 11 -56t48 -19h60q30 0 54 19
t30 56l6 30q6 37 -11 56t-47 19z" />
    <glyph glyph-name="sevensuperior" unicode="&#x2077;" horiz-adv-x="381" 
d="M468 781l-256 -371h-45l258 375h-237l7 38h281z" />
    <glyph glyph-name="eightsuperior" unicode="&#x2078;" horiz-adv-x="385" 
d="M334 793h-5q-95 0 -106 -66l-3 -17q-7 -42 15.5 -54.5t70.5 -12.5q31 0 50 3.5t36.5 19t22.5 44.5l3 17q6 37 -19.5 51.5t-64.5 14.5zM280 402h-35q-52 0 -84 23t-22 80l5 33q12 63 71 86q-44 18 -32 86l3 17q18 103 143 103h19q52 0 85 -23t23 -80l-3 -17
q-12 -68 -63 -86q51 -24 39 -86l-5 -33q-10 -57 -51 -80t-93 -23zM260 440h19q96 0 108 65l5 33q7 42 -18.5 54.5t-74.5 12.5q-24 0 -40 -2t-33.5 -8t-28.5 -20.5t-15 -36.5l-5 -33q-7 -36 18.5 -50.5t64.5 -14.5z" />
    <glyph glyph-name="ninesuperior" unicode="&#x2079;" horiz-adv-x="377" 
d="M453 718l-37 -213q-10 -57 -51 -80t-93 -23q-28 0 -63.5 2t-57.5 4l-22 2l5 32l7 6q83 -8 131 -8q95 0 107 65l17 97q-35 -27 -84 -27h-45q-50 0 -78.5 25.5t-17.5 87.5l5 30q20 112 136 112h45q116 0 96 -112zM267 613h60q30 0 53.5 19t30.5 56l5 30q6 37 -11 56t-47 19
h-60q-31 0 -55 -19t-30 -56l-5 -30q-7 -37 10.5 -56t48.5 -19z" />
    <glyph glyph-name="parenleftsuperior" unicode="&#x207d;" horiz-adv-x="237" 
d="M125 427l77 439q18 99 149 99l5 -5l-6 -32q-99 0 -110 -62l-77 -439q-5 -26 10 -40.5t33.5 -18t44.5 -3.5l-6 -32l-7 -6q-25 0 -44.5 3.5t-39 13t-27.5 31t-2 52.5z" />
    <glyph glyph-name="parenrightsuperior" unicode="&#x207e;" horiz-adv-x="237" 
d="M339 866l-77 -439q-18 -100 -150 -100l-4 6l6 32q99 0 110 62l77 439q7 36 -20 49t-68 13l6 32l6 5q25 0 44.5 -3.5t39 -13t28 -30.5t2.5 -52z" />
    <glyph glyph-name="nsuperior" unicode="&#x207f;" horiz-adv-x="375" 
d="M413 557l-46 -257h-37l46 257q6 38 -11 52t-53 14q-57 0 -114 -53l-48 -270h-38l63 353h32l5 -6l-9 -39h3q4 6 12.5 14.5t40 23t67.5 14.5q49 0 73 -22.5t14 -80.5z" />
    <glyph glyph-name="zeroinferior" unicode="&#x2080;" horiz-adv-x="385" 
d="M129 -170h67q31 0 55 19t30 56l36 203q6 37 -11 56t-48 19h-67q-31 0 -54.5 -19t-29.5 -56l-36 -203q-6 -37 10.5 -56t47.5 -19zM129 -208q-50 0 -78.5 25.5t-17.5 87.5l36 203q19 112 135 112h53q116 0 97 -112l-36 -203q-20 -113 -136 -113h-53z" />
    <glyph glyph-name="oneinferior" unicode="&#x2081;" horiz-adv-x="377" 
d="M298 -162l-7 -38h-277l7 38h120l59 337h-105l7 38h142l-66 -375h120z" />
    <glyph glyph-name="twoinferior" unicode="&#x2082;" horiz-adv-x="377" 
d="M37 -72q18 99 144 99q26 0 42.5 1.5t36 7.5t31 20t15.5 37l4 24q7 37 -18.5 51.5t-64.5 14.5l-134 -8l-5 5l6 33q84 7 146 7q52 0 84.5 -23t22.5 -80l-4 -24q-10 -57 -51.5 -80.5t-93.5 -23.5q-29 0 -43 -1t-34.5 -6t-31.5 -18.5t-15 -35.5l-16 -90h233l-7 -38h-270
q8 44 23 128z" />
    <glyph glyph-name="threeinferior" unicode="&#x2083;" horiz-adv-x="370" 
d="M67 -5l6 38h102q25 0 42 2t36 8t30.5 20.5t15.5 36.5l3 17q7 37 -18.5 51.5t-64.5 14.5l-134 -8l-4 5l6 33q83 7 145 7q52 0 85 -23t23 -80l-3 -17q-12 -65 -70 -86q51 -23 40 -86l-6 -33q-10 -57 -51 -80t-93 -23q-28 0 -63.5 2t-57.5 4l-22 2l6 32l6 6q84 -8 131 -8
q94 0 106 65l6 33q7 42 -20 54.5t-80 12.5h-102z" />
    <glyph glyph-name="fourinferior" unicode="&#x2084;" horiz-adv-x="430" 
d="M268 -102h-236l6 37l275 281h48l-50 -281h57l-6 -37h-57l-18 -98h-37zM80 -65h194l42 238z" />
    <glyph glyph-name="fiveinferior" unicode="&#x2085;" horiz-adv-x="370" 
d="M170 3h-113l37 210h255l-7 -38h-217l-23 -135h97q53 0 86.5 -22t23.5 -79l-9 -49l1 5q-10 -57 -51 -80t-93 -23q-28 0 -63.5 2t-57.5 4l-22 2l6 32l6 6q84 -8 131 -8q94 0 106 65l8 44q4 22 -2.5 36t-24 19.5t-32.5 7t-42 1.5z" />
    <glyph glyph-name="sixinferior" unicode="&#x2086;" horiz-adv-x="377" 
d="M33 -95l37 212q18 103 143 103l144 -7l-6 -33l-6 -5q-83 8 -130 8q-96 0 -108 -66l-17 -96q35 27 84 27h45q50 0 78.5 -25.5t17.5 -87.5l-5 -30q-20 -113 -136 -113h-45q-50 0 -78.5 25.5t-17.5 87.5zM220 10h-60q-31 0 -55 -19t-30 -56l-5 -30q-6 -37 11 -56t48 -19h60
q30 0 54 19t30 56l5 30q6 37 -11 56t-47 19z" />
    <glyph glyph-name="seveninferior" unicode="&#x2087;" horiz-adv-x="381" 
d="M361 171l-257 -371h-45l258 375h-237l7 38h281z" />
    <glyph glyph-name="eightinferior" unicode="&#x2088;" horiz-adv-x="385" 
d="M227 183h-5q-95 0 -107 -66l-3 -17q-7 -42 15.5 -54.5t70.5 -12.5q31 0 50 3.5t36.5 19t22.5 44.5l3 17q7 37 -18.5 51.5t-64.5 14.5zM173 -208h-35q-52 0 -84.5 23t-22.5 80l6 33q10 63 70 86q-44 18 -32 86l3 17q18 103 143 103h19q52 0 85 -23t23 -80l-3 -17
q-12 -68 -63 -86q51 -23 40 -86l-6 -33q-18 -103 -143 -103zM153 -170h19q95 0 107 65l6 33q7 42 -18.5 54.5t-74.5 12.5q-24 0 -40 -2t-33.5 -8t-28.5 -20.5t-15 -36.5l-6 -33q-7 -36 18.5 -50.5t65.5 -14.5z" />
    <glyph glyph-name="nineinferior" unicode="&#x2089;" horiz-adv-x="377" 
d="M346 108l-38 -213q-18 -103 -143 -103q-28 0 -64 2t-58 4l-22 2l6 32l7 6q83 -8 131 -8q94 0 106 65l17 97q-34 -27 -84 -27h-45q-50 0 -78.5 25.5t-17.5 87.5l6 30q19 112 135 112h45q116 0 97 -112zM159 3h60q30 0 54 19t30 56l6 30q6 37 -11 56t-47 19h-60
q-31 0 -55 -19t-30 -56l-6 -30q-6 -37 11 -56t48 -19z" />
    <glyph glyph-name="parenleftinferior" unicode="&#x208d;" horiz-adv-x="237" 
d="M17 -183l78 439q17 99 148 99l5 -5l-5 -32q-100 0 -110 -62l-78 -439q-4 -26 10.5 -40.5t33 -18t44.5 -3.5l-5 -32l-7 -6q-25 0 -44.5 3.5t-39 13t-27.5 31t-3 52.5z" />
    <glyph glyph-name="parenrightinferior" unicode="&#x208e;" horiz-adv-x="237" 
d="M232 256l-78 -439q-17 -100 -149 -100l-4 6l5 32q100 0 110 62l78 439q6 36 -20.5 49t-67.5 13l5 32l6 5q25 0 44.5 -3.5t39.5 -13t28 -30.5t3 -52z" />
    <glyph glyph-name="colonmonetary" unicode="&#x20a1;" horiz-adv-x="510" 
d="M310 740h50l-18 -101q7 1 22 1q25 0 38 -1l18 101h50l-18 -103l89 -7l-8 -43l-8 -7q-96 10 -159 10q-132 0 -147 -82l-68 -386q-5 -26 4.5 -43t29.5 -25t39.5 -11t44.5 -3q28 0 68.5 2.5t66.5 5.5l27 2l6 -7l-7 -43q-41 -4 -92 -7l-18 -103h-50l18 101q-13 -1 -38 -1
q-15 0 -22 1l-18 -101h-50l19 108q-96 24 -78 124l68 386q18 100 122 124z" />
    <glyph glyph-name="franc" unicode="&#x20a3;" horiz-adv-x="580" 
d="M219 170h130l-8 -50h-130l-21 -120h-50l21 120h-60l8 50h60l82 460h360l-9 -50h-310l-41 -230h250l-9 -50h-250z" />
    <glyph glyph-name="lira" unicode="&#x20a4;" horiz-adv-x="570" 
d="M260 400h210l-9 -50h-210l-12 -70h210l-9 -50h-210l-16 -93q-12 -59 -40 -87h324l-8 -50h-410l8 50h10q51 0 64 75l18 105h-60l9 50h60l12 70h-60l9 50h60l19 108q24 132 195 132q37 0 81 -2.5t70 -5.5l26 -2l-8 -43l-8 -7q-96 10 -159 10q-132 0 -147 -82z" />
    <glyph glyph-name="peseta" unicode="&#x20a7;" horiz-adv-x="660" 
d="M602 470h60l-8 -50h-60l-2 -10q-26 -150 -182 -150h-175l-45 -260h-50l74 420h-60l8 50h60l29 160h225q67 0 104.5 -34t23.5 -116zM552 470l2 10q9 50 -13.5 75t-63.5 25h-185l-20 -110h280zM244 310h185q41 0 72.5 25t40.5 75l2 10h-280z" />
    <glyph glyph-name="Euro" unicode="&#x20ac;" horiz-adv-x="570" 
d="M470 400l-9 -50h-210l-12 -70h210l-9 -50h-210l-19 -108q-5 -26 4.5 -43t29.5 -25t39.5 -11t44.5 -3q28 0 68.5 2.5t66.5 5.5l27 2l6 -7l-7 -43q-97 -10 -180 -10q-32 0 -58.5 5t-51.5 18.5t-35.5 41t-3.5 67.5l19 108h-60l9 50h60l12 70h-60l9 50h60l19 108
q24 132 195 132q37 0 81 -2.5t70 -5.5l26 -2l-8 -43l-8 -7q-96 10 -159 10q-132 0 -147 -82l-19 -108h210z" />
    <glyph glyph-name="litre" unicode="&#x2113;" horiz-adv-x="489" 
d="M89 156l-10 11l111 99l43 243q18 102 67 151q52 50 109 50q44 0 65 -27t13 -72q-9 -53 -51 -112q-42 -64 -160 -176l-29 -168q-13 -75 4 -106q17 -29 55 -29q36 0 69 29q36 29 72 103h18q-34 -82 -90 -127q-43 -35 -95 -35q-43 0 -73 24.5t-38 65.5q-6 32 7 107l10 52z
M315 543l-34 -193q161 155 177 242q7 41 -7.5 65t-43.5 24t-53 -28q-24 -27 -39 -110z" />
    <glyph glyph-name="afii61352" unicode="&#x2116;" horiz-adv-x="915" 
d="M531 630h50l-111 -630h-70l-173 555l-97 -555h-50l111 630h70l172 -555zM724 373h67q31 0 55 19t30 56l13 70q6 37 -11 56t-48 19h-67q-31 0 -54.5 -19t-29.5 -56l-13 -70q-6 -37 10.5 -56t47.5 -19zM725 335q-50 0 -78.5 25.5t-18.5 87.5l13 70q20 112 136 112h53
q116 0 96 -112l-13 -70q-19 -113 -135 -113h-53z" />
    <glyph glyph-name="trademark" unicode="&#x2122;" horiz-adv-x="899" 
d="M482 622h-128l-63 -357h-37l63 357h-128l7 38h293zM567 660h53l81 -285l181 285h53l-70 -395h-38l60 338l-173 -273h-42l-77 273l-60 -338h-38z" />
    <glyph glyph-name="Omega" unicode="&#x2126;" horiz-adv-x="540" 
d="M443 190l53 300q9 50 -13.5 75t-63.5 25h-90q-41 0 -73 -25.5t-40 -74.5l-53 -300q-9 -52 13.5 -92.5t71.5 -47.5l-8 -50h-210l8 50h115l1 2q-2 2 -6 5t-13.5 15.5t-14 28t-9 42t3.5 57.5l51 290q26 150 181 150h70q67 0 105 -34t24 -116l-51 -290q-6 -31 -17 -57.5
t-23.5 -42.5t-24 -27.5t-18.5 -16.5l-8 -4l-1 -2h115l-8 -50h-210l8 50q52 7 89 47t46 93z" />
    <glyph glyph-name="estimated" unicode="&#x212e;" horiz-adv-x="776" 
d="M787 349h-528l-41 -235q66 -78 176 -78q162 0 280 157l41 -26q-81 -91 -154 -134q-74 -43 -175 -43q-153 0 -226 103q-76 100 -49 256q28 158 140 259q113 102 262 102q135 0 218 -91q81 -93 56 -270zM268 397h380l33 189q-68 77 -178 77t-202 -77z" />
    <glyph glyph-name="onethird" unicode="&#x2153;" horiz-adv-x="1000" 
d="M400 248l-6 -38h-277l6 38h120l60 337h-105l6 38h142l-66 -375h120zM702 195l7 38h102q25 0 42 2t35.5 8t30 20.5t15.5 36.5l3 17q7 37 -18.5 51.5t-64.5 14.5l-133 -8l-4 5l5 33q84 7 146 7q52 0 84.5 -23t22.5 -80l-3 -17q-11 -64 -70 -86q52 -23 40 -86l-6 -33
q-10 -57 -51 -80t-93 -23q-28 0 -63.5 2t-56.5 4l-22 2l5 32l6 6q84 -8 131 -8q95 0 106 65l6 33q7 42 -20 54.5t-80 12.5h-102zM384 0h-40l406 630h40z" />
    <glyph glyph-name="twothirds" unicode="&#x2154;" horiz-adv-x="1000" 
d="M702 195l7 38h102q25 0 42 2t35.5 8t30 20.5t15.5 36.5l3 17q7 37 -18.5 51.5t-64.5 14.5l-133 -8l-4 5l5 33q84 7 146 7q52 0 84.5 -23t22.5 -80l-3 -17q-11 -64 -70 -86q52 -23 40 -86l-6 -33q-10 -57 -51 -80t-93 -23q-28 0 -63.5 2t-56.5 4l-22 2l5 32l6 6
q84 -8 131 -8q95 0 106 65l6 33q7 42 -20 54.5t-80 12.5h-102zM384 0h-40l406 630h40zM139 338q18 99 145 99q26 0 42.5 1.5t36 7.5t30.5 20t15 37l4 24q7 37 -18.5 51.5t-64.5 14.5l-133 -8l-5 5l5 33q85 7 147 7q52 0 84 -23t22 -80l-4 -24q-10 -57 -51.5 -80.5
t-93.5 -23.5q-29 0 -43 -1t-34.5 -6t-31.5 -18.5t-15 -35.5l-16 -90h233l-6 -38h-270q7 44 22 128z" />
    <glyph glyph-name="oneeighth" unicode="&#x215b;" horiz-adv-x="1000" 
d="M400 248l-6 -38h-277l6 38h120l60 337h-105l6 38h142l-66 -375h120zM394 0h-40l406 630h40zM847 383h-5q-95 0 -107 -66l-3 -17q-7 -42 15.5 -54.5t71.5 -12.5q23 0 38 2t31 8t25.5 20.5t13.5 36.5l3 17q7 37 -18.5 51.5t-64.5 14.5zM793 -8h-35q-52 0 -84.5 23t-22.5 80
l6 33q12 63 70 86q-43 18 -32 86l3 17q10 57 51 80t93 23h19q52 0 84.5 -23t22.5 -80l-3 -17q-11 -67 -63 -86q52 -23 40 -86l-6 -33q-18 -103 -143 -103zM773 30h19q96 0 107 65l6 33q7 42 -18.5 54.5t-74.5 12.5q-24 0 -40 -2t-33.5 -8t-28.5 -20.5t-15 -36.5l-6 -33
q-6 -36 19.5 -50.5t64.5 -14.5z" />
    <glyph glyph-name="threeeighths" unicode="&#x215c;" horiz-adv-x="1000" 
d="M374 0h-40l406 630h40zM847 383h-5q-95 0 -107 -66l-3 -17q-7 -42 15.5 -54.5t71.5 -12.5q23 0 38 2t31 8t25.5 20.5t13.5 36.5l3 17q7 37 -18.5 51.5t-64.5 14.5zM793 -8h-35q-52 0 -84.5 23t-22.5 80l6 33q12 63 70 86q-43 18 -32 86l3 17q10 57 51 80t93 23h19
q52 0 84.5 -23t22.5 -80l-3 -17q-11 -67 -63 -86q52 -23 40 -86l-6 -33q-18 -103 -143 -103zM773 30h19q96 0 107 65l6 33q7 42 -18.5 54.5t-74.5 12.5q-24 0 -40 -2t-33.5 -8t-28.5 -20.5t-15 -36.5l-6 -33q-6 -36 19.5 -50.5t64.5 -14.5zM169 405l7 38h102q25 0 42 2
t35.5 8t30 20.5t15.5 36.5l3 17q7 37 -18.5 51.5t-64.5 14.5l-133 -8l-4 5l5 33q84 7 146 7q52 0 84.5 -23t22.5 -80l-3 -17q-11 -64 -70 -86q52 -23 40 -86l-6 -33q-10 -57 -51 -80t-93 -23q-28 0 -63.5 2t-57.5 4l-21 2l5 32l6 6q84 -8 131 -8q95 0 106 65l6 33
q7 42 -20 54.5t-80 12.5h-102z" />
    <glyph glyph-name="fiveeighths" unicode="&#x215d;" horiz-adv-x="1000" 
d="M374 0h-40l406 630h40zM847 383h-5q-95 0 -107 -66l-3 -17q-7 -42 15.5 -54.5t71.5 -12.5q23 0 38 2t31 8t25.5 20.5t13.5 36.5l3 17q7 37 -18.5 51.5t-64.5 14.5zM793 -8h-35q-52 0 -84.5 23t-22.5 80l6 33q12 63 70 86q-43 18 -32 86l3 17q10 57 51 80t93 23h19
q52 0 84.5 -23t22.5 -80l-3 -17q-11 -67 -63 -86q52 -23 40 -86l-6 -33q-18 -103 -143 -103zM773 30h19q96 0 107 65l6 33q7 42 -18.5 54.5t-74.5 12.5q-24 0 -40 -2t-33.5 -8t-28.5 -20.5t-15 -36.5l-6 -33q-6 -36 19.5 -50.5t64.5 -14.5zM272 413h-113l37 210h255l-6 -38
h-217l-24 -135h97q53 0 86.5 -22t23.5 -79l-9 -49l1 5q-10 -57 -51 -80t-93 -23q-28 0 -63.5 2t-57.5 4l-21 2l5 32l6 6q84 -8 131 -8q95 0 106 65l8 44q4 22 -2.5 36t-24 19.5t-32.5 7t-42 1.5z" />
    <glyph glyph-name="seveneighths" unicode="&#x215e;" horiz-adv-x="1000" 
d="M314 0h-40l406 630h40zM847 383h-5q-95 0 -107 -66l-3 -17q-7 -42 15.5 -54.5t71.5 -12.5q23 0 38 2t31 8t25.5 20.5t13.5 36.5l3 17q7 37 -18.5 51.5t-64.5 14.5zM793 -8h-35q-52 0 -84.5 23t-22.5 80l6 33q12 63 70 86q-43 18 -32 86l3 17q10 57 51 80t93 23h19
q52 0 84.5 -23t22.5 -80l-3 -17q-11 -67 -63 -86q52 -23 40 -86l-6 -33q-18 -103 -143 -103zM773 30h19q96 0 107 65l6 33q7 42 -18.5 54.5t-74.5 12.5q-24 0 -40 -2t-33.5 -8t-28.5 -20.5t-15 -36.5l-6 -33q-6 -36 19.5 -50.5t64.5 -14.5zM463 581l-256 -371h-45l258 375
h-237l6 38h281z" />
    <glyph glyph-name="partialdiff" unicode="&#x2202;" horiz-adv-x="510" 
d="M473 140q-48 -150 -202 -150h-40q-67 0 -100.5 34t-7.5 116l45 140q47 150 202 150h40q67 0 94 -36l43 139q16 49 -15 68t-83 19q-28 0 -68 -2.5t-66 -5.5l-26 -2l-5 7l14 43q94 10 177 10q70 0 108 -30.5t14 -106.5zM405 380h-60q-41 0 -76 -25t-51 -75l-45 -140
q-16 -50 3.5 -75t60.5 -25h60q41 0 75.5 25t50.5 75l45 140q16 50 -3 75t-60 25z" />
    <glyph glyph-name="Delta" unicode="&#x2206;" horiz-adv-x="570" 
d="M60 0l304 635h64l82 -635h-450zM383 560l-247 -510h313z" />
    <glyph glyph-name="product" unicode="&#x220f;" horiz-adv-x="540" 
d="M191 630h380l-111 -630h-50l102 580h-280l-102 -580h-50z" />
    <glyph glyph-name="summation" unicode="&#x2211;" horiz-adv-x="490" 
d="M215 581l117 -262l-217 -270l334 3l-9 -52h-390l9 55l211 264l-114 256l10 55h375l-10 -52z" />
    <glyph glyph-name="minus" unicode="&#x2212;" horiz-adv-x="480" 
d="M127 270h320l-9 -50h-320z" />
    <glyph glyph-name="uni2215" unicode="&#x2215;" horiz-adv-x="285" 
d="M70 0h-50l306 630h50z" />
    <glyph glyph-name="uni2219" unicode="&#x2219;" horiz-adv-x="260" 
d="M245 370l-18 -100h-100l18 100h100z" />
    <glyph glyph-name="radical" unicode="&#x221a;" horiz-adv-x="730" 
d="M778 670h30l-384 -675h-35l-91 395h-190l6 30h264l71 -330z" />
    <glyph glyph-name="infinity" unicode="&#x221e;" horiz-adv-x="949" 
d="M290 130q62 0 122 41t88 84q-12 47 -60 81t-105 34q-79 0 -125.5 -33t-55.5 -82q-9 -50 24 -87.5t112 -37.5zM746 370q-62 0 -122 -41t-88 -84q12 -47 60 -81t105 -34q79 0 125.5 33t55.5 82q9 50 -24 87.5t-112 37.5zM340 400q69 0 118 -37t67 -88q106 125 234 125
q81 0 122.5 -44t30.5 -111q-11 -65 -69.5 -105t-146.5 -40q-69 0 -118.5 37t-67.5 86q-105 -123 -233 -123q-81 0 -122.5 44t-30.5 111q11 65 69.5 105t146.5 40z" />
    <glyph glyph-name="integral" unicode="&#x222b;" horiz-adv-x="300" 
d="M102 -50l103 590q11 66 48 98t90 32q15 0 30.5 -2t24.5 -4l8 -2l-7 -40l-8 -7q-19 5 -52 5q-71 0 -84 -80l-103 -590q-24 -130 -138 -130q-14 0 -30 2t-24 4l-9 2l7 40l8 7q20 -5 52 -5q70 0 84 80z" />
    <glyph glyph-name="approxequal" unicode="&#x2248;" horiz-adv-x="508" 
d="M281 148q-39 19 -65.5 22.5t-42.5 -3.5t-40 -27l-25 24q75 93 192 40q29 -14 49.5 -19t37.5 1.5t25 12.5t26 23l24 -24q-79 -97 -181 -50zM305 288q-39 19 -65.5 22.5t-42 -3.5t-39.5 -27l-25 24q75 92 192 40q38 -19 64.5 -19t38 7.5t34.5 29.5l25 -24q-79 -97 -182 -50
z" />
    <glyph glyph-name="notequal" unicode="&#x2260;" horiz-adv-x="540" 
d="M519 340l-8 -50h-152l-44 -90h180l-9 -50h-195l-102 -210h-50l102 210h-135l9 50h150l44 90h-178l8 50h194l112 230h50l-112 -230h136z" />
    <glyph glyph-name="lessequal" unicode="&#x2264;" horiz-adv-x="520" 
d="M124 211l11 64l377 135l-10 -55l-315 -112l276 -112l-16 -91h-360l8 50h323z" />
    <glyph glyph-name="greaterequal" unicode="&#x2265;" horiz-adv-x="520" 
d="M481 275l-11 -64l-338 -121h323l-8 -50h-360l16 91l314 112l-275 112l10 55z" />
    <glyph glyph-name="lozenge" unicode="&#x25ca;" horiz-adv-x="572" 
d="M552 344l-275 -394l-137 394l277 396zM173 344l114 -333l231 333l-113 333z" />
    <glyph glyph-name="undercommaaccent" unicode="&#xf005;" horiz-adv-x="230" 
d="M142 -40l-12 -70l-33 -130h-30l23 130h-30l12 70h70z" />
    <glyph glyph-name="Abreve.small" unicode="&#xf66d;" horiz-adv-x="490" 
d="M432 660h49q-10 -56 -48 -84.5t-84 -28.5h-16q-46 0 -74 28.5t-18 84.5h49q-6 -34 10.5 -51t44.5 -17h9q27 0 49.5 17t28.5 51zM296 475h64l100 -475h-58l-29 140h-209l-76 -140h-58zM319 420l-127 -230h172z" />
    <glyph glyph-name="Amacron.small" unicode="&#xf66e;" horiz-adv-x="490" 
d="M493 620l-9 -50h-280l9 50h280zM296 475h64l100 -475h-58l-29 140h-209l-76 -140h-58zM319 420l-127 -230h172z" />
    <glyph glyph-name="AEacute.small" unicode="&#xf670;" horiz-adv-x="790" 
d="M484 420l-27 -150h250l-9 -50h-250l-30 -170h310l-8 -50h-360l38 220h-190l-120 -220h-58l262 470h510l-8 -50h-310zM319 420l-83 -150h171l27 150h-115zM515 540l-23 20l142 150l38 -40z" />
    <glyph glyph-name="Cacute.small" unicode="&#xf671;" horiz-adv-x="480" 
d="M505 427l-8 -7q-97 10 -160 10q-131 0 -146 -82l-40 -226q-5 -26 4.5 -43t29.5 -25t39.5 -11t44.5 -3q28 0 68.5 2.5t66.5 5.5l27 2l6 -7l-7 -43q-97 -10 -180 -10q-32 0 -58.5 5t-51.5 18.5t-35.5 41t-3.5 67.5l40 226q24 132 195 132q37 0 81 -2.5t69 -5.5l26 -2z
M383 540l-23 20l142 150l38 -40z" />
    <glyph glyph-name="Ccaron.small" unicode="&#xf672;" horiz-adv-x="480" 
d="M505 427l-8 -7q-97 10 -160 10q-131 0 -146 -82l-40 -226q-5 -26 4.5 -43t29.5 -25t39.5 -11t44.5 -3q28 0 68.5 2.5t66.5 5.5l27 2l6 -7l-7 -43q-97 -10 -180 -10q-32 0 -58.5 5t-51.5 18.5t-35.5 41t-3.5 67.5l40 226q24 132 195 132q37 0 81 -2.5t69 -5.5l26 -2z
M404 530h-52l-85 130h56l62 -88l94 88h56z" />
    <glyph glyph-name="Ccircumflex.small" unicode="&#xf673;" horiz-adv-x="480" 
d="M505 427l-8 -7q-97 10 -160 10q-131 0 -146 -82l-40 -226q-5 -26 4.5 -43t29.5 -25t39.5 -11t44.5 -3q28 0 68.5 2.5t66.5 5.5l27 2l6 -7l-7 -43q-97 -10 -180 -10q-32 0 -58.5 5t-51.5 18.5t-35.5 41t-3.5 67.5l40 226q24 132 195 132q37 0 81 -2.5t69 -5.5l26 -2z
M368 670h52l85 -130h-56l-63 88l-93 -88h-56z" />
    <glyph glyph-name="Cdotaccent.small" unicode="&#xf674;" horiz-adv-x="480" 
d="M505 427l-8 -7q-97 10 -160 10q-131 0 -146 -82l-40 -226q-5 -26 4.5 -43t29.5 -25t39.5 -11t44.5 -3q28 0 68.5 2.5t66.5 5.5l27 2l6 -7l-7 -43q-97 -10 -180 -10q-32 0 -58.5 5t-51.5 18.5t-35.5 41t-3.5 67.5l40 226q24 132 195 132q37 0 81 -2.5t69 -5.5l26 -2z
M436 640l-14 -80h-80l14 80h80z" />
    <glyph glyph-name="Dcaron.small" unicode="&#xf675;" horiz-adv-x="540" 
d="M439 170l23 130q11 63 -19.5 91.5t-88.5 28.5h-150l-66 -370h150q58 0 99 28.5t52 91.5zM512 300l-23 -130q-29 -170 -209 -170h-200l82 470h200q180 0 150 -170zM372 530h-52l-85 130h56l62 -88l94 88h56z" />
    <glyph glyph-name="Ebreve.small" unicode="&#xf677;" horiz-adv-x="510" 
d="M204 420l-27 -150h250l-9 -50h-250l-30 -170h310l-8 -50h-360l82 470h360l-8 -50h-310zM443 660h49q-10 -56 -48 -84.5t-84 -28.5h-16q-46 0 -74 28.5t-18 84.5h49q-6 -34 10.5 -51t44.5 -17h9q27 0 49.5 17t28.5 51z" />
    <glyph glyph-name="Ecaron.small" unicode="&#xf678;" horiz-adv-x="510" 
d="M204 420l-27 -150h250l-9 -50h-250l-30 -170h310l-8 -50h-360l82 470h360l-8 -50h-310zM380 530h-52l-85 130h56l62 -88l94 88h56z" />
    <glyph glyph-name="Edotaccent.small" unicode="&#xf679;" horiz-adv-x="510" 
d="M204 420l-27 -150h250l-9 -50h-250l-30 -170h310l-8 -50h-360l82 470h360l-8 -50h-310zM415 640l-14 -80h-80l14 80h80z" />
    <glyph glyph-name="Emacron.small" unicode="&#xf67a;" horiz-adv-x="510" 
d="M204 420l-27 -150h250l-9 -50h-250l-30 -170h310l-8 -50h-360l82 470h360l-8 -50h-310zM508 620l-9 -50h-280l9 50h280z" />
    <glyph glyph-name="Gbreve.small" unicode="&#xf67d;" horiz-adv-x="520" 
d="M346 265h150l-46 -265q-102 -10 -185 -10q-33 0 -61 5.5t-56 18.5t-41 40.5t-6 67.5l40 226q24 132 200 132q37 0 79.5 -2.5t67.5 -5.5l24 -2l-7 -43l-8 -7q-92 10 -155 10q-136 0 -151 -82l-40 -226q-5 -25 6.5 -42.5t34.5 -25.5t45 -11t47 -3q50 0 124 6l29 169h-93
l-5 7zM462 660h49q-10 -56 -48 -84.5t-84 -28.5h-16q-46 0 -74 28.5t-18 84.5h49q-6 -34 10.5 -51t44.5 -17h9q27 0 49.5 17t28.5 51z" />
    <glyph glyph-name="Gcircumflex.small" unicode="&#xf67e;" horiz-adv-x="520" 
d="M346 265h150l-46 -265q-102 -10 -185 -10q-33 0 -61 5.5t-56 18.5t-41 40.5t-6 67.5l40 226q24 132 200 132q37 0 79.5 -2.5t67.5 -5.5l24 -2l-7 -43l-8 -7q-92 10 -155 10q-136 0 -151 -82l-40 -226q-5 -25 6.5 -42.5t34.5 -25.5t45 -11t47 -3q50 0 124 6l29 169h-93
l-5 7zM360 670h52l85 -130h-56l-63 88l-93 -88h-56z" />
    <glyph glyph-name="Gcommaaccent.small" unicode="&#xf67f;" horiz-adv-x="520" 
d="M346 265h150l-46 -265q-102 -10 -185 -10q-33 0 -61 5.5t-56 18.5t-41 40.5t-6 67.5l40 226q24 132 200 132q37 0 79.5 -2.5t67.5 -5.5l24 -2l-7 -43l-8 -7q-92 10 -155 10q-136 0 -151 -82l-40 -226q-5 -25 6.5 -42.5t34.5 -25.5t45 -11t47 -3q50 0 124 6l29 169h-93
l-5 7zM300 -40l-12 -70l-33 -130h-30l23 130h-30l12 70h70z" />
    <glyph glyph-name="Gdotaccent.small" unicode="&#xf680;" horiz-adv-x="520" 
d="M346 265h150l-46 -265q-102 -10 -185 -10q-33 0 -61 5.5t-56 18.5t-41 40.5t-6 67.5l40 226q24 132 200 132q37 0 79.5 -2.5t67.5 -5.5l24 -2l-7 -43l-8 -7q-92 10 -155 10q-136 0 -151 -82l-40 -226q-5 -25 6.5 -42.5t34.5 -25.5t45 -11t47 -3q50 0 124 6l29 169h-93
l-5 7zM428 640l-14 -80h-80l14 80h80z" />
    <glyph glyph-name="Hcircumflex.small" unicode="&#xf682;" horiz-adv-x="540" 
d="M212 470l-35 -200h280l35 200h50l-82 -470h-50l38 220h-280l-38 -220h-50l82 470h50zM359 670h52l85 -130h-56l-63 88l-93 -88h-56z" />
    <glyph glyph-name="Ibreve.small" unicode="&#xf683;" horiz-adv-x="210" 
d="M162 470h50l-82 -470h-50zM292 660h49q-10 -56 -48 -84.5t-84 -28.5h-16q-46 0 -74 28.5t-18 84.5h49q-6 -34 10.5 -51t44.5 -17h9q27 0 49.5 17t28.5 51z" />
    <glyph glyph-name="Imacron.small" unicode="&#xf685;" horiz-adv-x="224" 
d="M169 470h50l-82 -470h-50zM361 620l-9 -50h-280l9 50h280z" />
    <glyph glyph-name="Itilde.small" unicode="&#xf687;" horiz-adv-x="212" 
d="M162 470h50l-82 -470h-50zM207 568q-24 15 -39.5 21t-29 2t-21 -9.5t-24.5 -21.5l-28 24q65 93 160 40q16 -10 28 -14.5t19.5 -6t16 2.5t12 7t14 13.5l15.5 15.5l27 -24q-66 -97 -150 -50z" />
    <glyph glyph-name="Jcircumflex.small" unicode="&#xf688;" horiz-adv-x="320" 
d="M211 122l61 348h50l-61 -348q-11 -65 -53.5 -98.5t-96.5 -33.5l-92 8l7 40l8 7q48 -5 81 -5q81 0 96 82zM307 670h52l85 -130h-56l-63 88l-93 -88h-56z" />
    <glyph glyph-name="Kcommaaccent.small" unicode="&#xf689;" horiz-adv-x="533" 
d="M212 470l-45 -260l325 260h63l-243 -200l181 -270h-68l-158 238l-111 -88l-26 -150h-50l82 470h50zM293 -40l-12 -70l-33 -130h-30l23 130h-30l12 70h70z" />
    <glyph glyph-name="Lacute.small" unicode="&#xf68a;" horiz-adv-x="430" 
d="M418 50l-8 -50h-330l82 470h50l-74 -420h280zM212 540l-23 20l142 150l38 -40z" />
    <glyph glyph-name="Lcaron.small" unicode="&#xf68b;" horiz-adv-x="430" 
d="M418 50l-8 -50h-330l82 470h50l-74 -420h280zM358 470l-12 -70l-33 -130h-30l23 130h-30l12 70h70z" />
    <glyph glyph-name="Lcommaaccent.small" unicode="&#xf68c;" horiz-adv-x="430" 
d="M418 50l-8 -50h-330l82 470h50l-74 -420h280zM262 -40l-12 -70l-33 -130h-30l23 130h-30l12 70h70z" />
    <glyph glyph-name="Ldot.small" unicode="&#xf68d;" horiz-adv-x="430" 
d="M418 50l-8 -50h-330l82 470h50l-74 -420h280zM426 302l-14 -80h-80l14 80h80z" />
    <glyph glyph-name="Nacute.small" unicode="&#xf68e;" horiz-adv-x="550" 
d="M502 470h50l-82 -470h-70l-198 410l-72 -410h-50l82 470h70l198 -410zM368 540l-23 20l142 150l38 -40z" />
    <glyph glyph-name="Ncaron.small" unicode="&#xf68f;" horiz-adv-x="550" 
d="M502 470h50l-82 -470h-70l-198 410l-72 -410h-50l82 470h70l198 -410zM398 530h-52l-85 130h56l62 -88l94 88h56z" />
    <glyph glyph-name="Ncommaaccent.small" unicode="&#xf690;" horiz-adv-x="550" 
d="M502 470h50l-82 -470h-70l-198 410l-72 -410h-50l82 470h70l198 -410zM297 -40l-12 -70l-33 -130h-30l23 130h-30l12 70h70z" />
    <glyph glyph-name="Obreve.small" unicode="&#xf691;" horiz-adv-x="540" 
d="M232 40h90q41 0 72.5 25t39.5 75l34 190q8 50 -14.5 75t-63.5 25h-90q-41 0 -72.5 -25t-39.5 -75l-34 -190q-8 -50 14.5 -75t63.5 -25zM233 -10q-67 0 -105 34t-24 116l34 190q26 150 181 150h70q67 0 105 -34t24 -116l-34 -190q-26 -150 -181 -150h-70zM460 660h49
q-10 -56 -48 -84.5t-84 -28.5h-16q-46 0 -74 28.5t-18 84.5h49q-6 -34 10.5 -51t44.5 -17h9q27 0 49.5 17t28.5 51z" />
    <glyph glyph-name="Ohungarumlaut.small" unicode="&#xf692;" horiz-adv-x="540" 
d="M232 40h90q41 0 72.5 25t39.5 75l34 190q8 50 -14.5 75t-63.5 25h-90q-41 0 -72.5 -25t-39.5 -75l-34 -190q-8 -50 14.5 -75t63.5 -25zM233 -10q-67 0 -105 34t-24 116l34 190q26 150 181 150h70q67 0 105 -34t24 -116l-34 -190q-26 -150 -181 -150h-70zM303 540l-31 14
l111 141l46 -25zM433 540l-31 14l111 141l46 -25z" />
    <glyph glyph-name="Omacron.small" unicode="&#xf693;" horiz-adv-x="540" 
d="M232 40h90q41 0 72.5 25t39.5 75l34 190q8 50 -14.5 75t-63.5 25h-90q-41 0 -72.5 -25t-39.5 -75l-34 -190q-8 -50 14.5 -75t63.5 -25zM233 -10q-67 0 -105 34t-24 116l34 190q26 150 181 150h70q67 0 105 -34t24 -116l-34 -190q-26 -150 -181 -150h-70zM528 620l-9 -50
h-280l9 50h280z" />
    <glyph glyph-name="Oslashacute.small" unicode="&#xf694;" horiz-adv-x="540" 
d="M374 540l-23 20l142 150l38 -40zM303 -10h-70q-67 0 -105 34t-24 116l34 190q26 150 181 150h70q67 0 105 -34t24 -116l-34 -190q-26 -150 -181 -150zM232 40h90q41 0 72.5 25t39.5 75l14 80h-280l-14 -80q-8 -50 14.5 -75t63.5 -25zM457 270l11 60q8 50 -14.5 75
t-63.5 25h-90q-41 0 -72.5 -25t-39.5 -75l-11 -60h280z" />
    <glyph glyph-name="Racute.small" unicode="&#xf695;" horiz-adv-x="555" 
d="M352 540l-23 20l142 150l38 -40zM296 180h-135l-31 -180h-50l82 470h220q32 0 57 -5t47 -18.5t31 -41t2 -67.5l-4 -26q-22 -121 -156 -131l126 -181h-65zM170 230h173q50 0 81.5 16.5t40.5 65.5l4 26q9 49 -16.5 65.5t-75.5 16.5h-173z" />
    <glyph glyph-name="Rcaron.small" unicode="&#xf696;" horiz-adv-x="555" 
d="M380 530h-52l-85 130h56l62 -88l94 88h56zM296 180h-135l-31 -180h-50l82 470h220q32 0 57 -5t47 -18.5t31 -41t2 -67.5l-4 -26q-22 -121 -156 -131l126 -181h-65zM170 230h173q50 0 81.5 16.5t40.5 65.5l4 26q9 49 -16.5 65.5t-75.5 16.5h-173z" />
    <glyph glyph-name="Rcommaaccent.small" unicode="&#xf697;" horiz-adv-x="555" 
d="M278 -40l-12 -70l-33 -130h-30l23 130h-30l12 70h70zM296 180h-135l-31 -180h-50l82 470h220q32 0 57 -5t47 -18.5t31 -41t2 -67.5l-4 -26q-22 -121 -156 -131l126 -181h-65zM170 230h173q50 0 81.5 16.5t40.5 65.5l4 26q9 49 -16.5 65.5t-75.5 16.5h-173z" />
    <glyph glyph-name="Sacute.small" unicode="&#xf698;" horiz-adv-x="510" 
d="M87 43l8 7q102 -10 165 -10q27 0 46.5 2.5t44 10t40.5 26.5t21 48q4 25 -2 42.5t-16.5 26.5t-33.5 13.5t-38 5t-45 0.5q-36 0 -62 5t-49.5 18.5t-32.5 41t-2 68.5q24 132 190 132q37 0 79.5 -2.5t67.5 -5.5l24 -2l-7 -43l-8 -7q-92 10 -155 10q-59 0 -95.5 -16.5
t-45.5 -65.5q-4 -24 1.5 -40.5t14.5 -25t31.5 -12.5t38.5 -4.5t49 -0.5q36 0 59 -3.5t49.5 -15.5t36 -42t1.5 -77q-25 -137 -201 -137q-37 0 -82 2.5t-72 5.5l-27 2zM340 540l-23 20l142 150l38 -40z" />
    <glyph glyph-name="Scircumflex.small" unicode="&#xf69a;" horiz-adv-x="510" 
d="M87 43l8 7q102 -10 165 -10q27 0 46.5 2.5t44 10t40.5 26.5t21 48q4 25 -2 42.5t-16.5 26.5t-33.5 13.5t-38 5t-45 0.5q-36 0 -62 5t-49.5 18.5t-32.5 41t-2 68.5q24 132 190 132q37 0 79.5 -2.5t67.5 -5.5l24 -2l-7 -43l-8 -7q-92 10 -155 10q-59 0 -95.5 -16.5
t-45.5 -65.5q-4 -24 1.5 -40.5t14.5 -25t31.5 -12.5t38.5 -4.5t49 -0.5q36 0 59 -3.5t49.5 -15.5t36 -42t1.5 -77q-25 -137 -201 -137q-37 0 -82 2.5t-72 5.5l-27 2zM347 670h52l85 -130h-56l-63 88l-93 -88h-56z" />
    <glyph glyph-name="Scommaaccent.small" unicode="&#xf69b;" horiz-adv-x="510" 
d="M87 43l8 7q102 -10 165 -10q27 0 46.5 2.5t44 10t40.5 26.5t21 48q4 25 -2 42.5t-16.5 26.5t-33.5 13.5t-38 5t-45 0.5q-36 0 -62 5t-49.5 18.5t-32.5 41t-2 68.5q24 132 190 132q37 0 79.5 -2.5t67.5 -5.5l24 -2l-7 -43l-8 -7q-92 10 -155 10q-59 0 -95.5 -16.5
t-45.5 -65.5q-4 -24 1.5 -40.5t14.5 -25t31.5 -12.5t38.5 -4.5t49 -0.5q36 0 59 -3.5t49.5 -15.5t36 -42t1.5 -77q-25 -137 -201 -137q-37 0 -82 2.5t-72 5.5l-27 2zM279 -40l-12 -70l-33 -130h-30l23 130h-30l12 70h70z" />
    <glyph glyph-name="Tcaron.small" unicode="&#xf69d;" horiz-adv-x="440" 
d="M489 420h-170l-74 -420h-50l74 420h-170l8 50h390zM337 530h-52l-85 130h56l62 -88l94 88h56z" />
    <glyph glyph-name="Tcommaaccent.small" unicode="&#xf69e;" horiz-adv-x="440" 
d="M489 420h-170l-74 -420h-50l74 420h-170l8 50h390zM246 -40l-12 -70l-33 -130h-30l23 130h-30l12 70h70z" />
    <glyph glyph-name="Ubreve.small" unicode="&#xf69f;" horiz-adv-x="540" 
d="M492 470h50l-58 -330q-26 -150 -181 -150h-70q-67 0 -105 34t-24 116l58 330h50l-58 -330q-8 -50 14.5 -75t63.5 -25h90q41 0 72.5 25t39.5 75zM458 660h49q-10 -56 -48 -84.5t-84 -28.5h-16q-46 0 -74 28.5t-18 84.5h49q-6 -34 10.5 -51t44.5 -17h9q27 0 49.5 17
t28.5 51z" />
    <glyph glyph-name="Uhungarumlaut.small" unicode="&#xf6a0;" horiz-adv-x="540" 
d="M492 470h50l-58 -330q-26 -150 -181 -150h-70q-67 0 -105 34t-24 116l58 330h50l-58 -330q-8 -50 14.5 -75t63.5 -25h90q41 0 72.5 25t39.5 75zM298 540l-31 14l111 141l46 -25zM428 540l-31 14l111 141l46 -25z" />
    <glyph glyph-name="Umacron.small" unicode="&#xf6a1;" horiz-adv-x="540" 
d="M492 470h50l-58 -330q-26 -150 -181 -150h-70q-67 0 -105 34t-24 116l58 330h50l-58 -330q-8 -50 14.5 -75t63.5 -25h90q41 0 72.5 25t39.5 75zM517 620l-9 -50h-280l9 50h280z" />
    <glyph glyph-name="Uring.small" unicode="&#xf6a3;" horiz-adv-x="540" 
d="M492 470h50l-58 -330q-26 -150 -181 -150h-70q-67 0 -105 34t-24 116l58 330h50l-58 -330q-8 -50 14.5 -75t63.5 -25h90q41 0 72.5 25t39.5 75zM355 540q-37 0 -58.5 15t-14.5 56l8 42q12 71 97 71h14q37 0 58.5 -15t14.5 -56l-8 -42q-12 -71 -97 -71h-14zM322 651
l-6 -38q-8 -40 40 -40h24q46 0 54 40l6 38q4 21 -8 30t-33 9h-23q-46 0 -54 -39z" />
    <glyph glyph-name="Utilde.small" unicode="&#xf6a4;" horiz-adv-x="540" 
d="M492 470h50l-58 -330q-26 -150 -181 -150h-70q-67 0 -105 34t-24 116l58 330h50l-58 -330q-8 -50 14.5 -75t63.5 -25h90q41 0 72.5 25t39.5 75zM371 568q-24 15 -39.5 21t-29 2t-21 -9.5t-24.5 -21.5l-28 24q65 93 160 40q16 -10 28 -14.5t19.5 -6t16 2.5t12 7t14 13.5
l15.5 15.5l27 -24q-66 -97 -150 -50z" />
    <glyph glyph-name="Wacute.small" unicode="&#xf6a5;" horiz-adv-x="720" 
d="M256 -5h-64l-80 475h58l63 -420l229 420h55l-80 -145l66 -275l211 420h58l-246 -475h-64l-63 260zM481 540l-23 20l142 150l38 -40z" />
    <glyph glyph-name="Wcircumflex.small" unicode="&#xf6a6;" horiz-adv-x="720" 
d="M256 -5h-64l-80 475h58l63 -420l229 420h55l-80 -145l66 -275l211 420h58l-246 -475h-64l-63 260zM452 670h52l85 -130h-56l-63 88l-93 -88h-56z" />
    <glyph glyph-name="Wdieresis.small" unicode="&#xf6a7;" horiz-adv-x="720" 
d="M256 -5h-64l-80 475h58l63 -420l229 420h55l-80 -145l66 -275l211 420h58l-246 -475h-64l-63 260zM416 635l-13 -75h-75l13 75h75zM601 635l-13 -75h-75l13 75h75z" />
    <glyph glyph-name="Wgrave.small" unicode="&#xf6a8;" horiz-adv-x="720" 
d="M256 -5h-64l-80 475h58l63 -420l229 420h55l-80 -145l66 -275l211 420h58l-246 -475h-64l-63 260zM492 560l-29 -20l-111 130l52 40z" />
    <glyph glyph-name="Ycircumflex.small" unicode="&#xf6a9;" horiz-adv-x="470" 
d="M102 470h58l113 -250l201 250h58l-242 -298l-30 -172h-50l30 172zM325 670h52l85 -130h-56l-63 88l-93 -88h-56z" />
    <glyph glyph-name="Ygrave.small" unicode="&#xf6aa;" horiz-adv-x="470" 
d="M102 470h58l113 -250l201 250h58l-242 -298l-30 -172h-50l30 172zM362 560l-29 -20l-111 130l52 40z" />
    <glyph glyph-name="Zacute.small" unicode="&#xf6ab;" horiz-adv-x="490" 
d="M507 470l-9 -55l-380 -365h330l-8 -50h-390l9 55l380 365h-305l8 50h365zM334 540l-23 20l142 150l38 -40z" />
    <glyph glyph-name="Zdotaccent.small" unicode="&#xf6ac;" horiz-adv-x="490" 
d="M507 470l-9 -55l-380 -365h330l-8 -50h-390l9 55l380 365h-305l8 50h365zM410 640l-14 -80h-80l14 80h80z" />
    <glyph glyph-name="Idotaccent.small" unicode="&#xf6ad;" horiz-adv-x="212" 
d="M162 470h50l-82 -470h-50zM258 640l-14 -80h-80l14 80h80z" />
    <glyph glyph-name="commaaccent" unicode="&#xf6c3;" horiz-adv-x="230" 
d="M142 -40l-12 -70l-33 -130h-30l23 130h-30l12 70h70z" />
    <glyph glyph-name="Acute" unicode="&#xf6c9;" horiz-adv-x="320" 
d="M227 690l-22 20l141 150l38 -40z" />
    <glyph glyph-name="Caron" unicode="&#xf6ca;" horiz-adv-x="428" 
d="M359 680h-52l-85 130h56l63 -88l93 88h56z" />
    <glyph glyph-name="Dieresis" unicode="&#xf6cb;" horiz-adv-x="420" 
d="M293 785l-13 -75h-75l13 75h75zM478 785l-13 -75h-75l13 75h75z" />
    <glyph glyph-name="DieresisAcute" unicode="&#xf6cc;" horiz-adv-x="480" 
d="M293 785l-13 -75h-75l13 75h75zM538 785l-13 -75h-75l13 75h75zM354 710l-31 14l101 171l57 -20z" />
    <glyph glyph-name="DieresisGrave" unicode="&#xf6cd;" horiz-adv-x="480" 
d="M450 710l13 75h75l-13 -75h-75zM205 710l13 75h75l-13 -75h-75zM411 724l-35 -14l-69 165l63 20z" />
    <glyph glyph-name="Grave" unicode="&#xf6ce;" horiz-adv-x="320" 
d="M365 710l-30 -20l-111 130l52 40z" />
    <glyph glyph-name="Hungarumlaut" unicode="&#xf6cf;" horiz-adv-x="426" 
d="M234 690l-30 14l110 141l46 -25zM364 690l-30 14l110 141l46 -25z" />
    <glyph glyph-name="Macron" unicode="&#xf6d0;" horiz-adv-x="440" 
d="M495 770l-9 -50h-280l9 50h280z" />
    <glyph glyph-name="cyrBreve" unicode="&#xf6d1;" horiz-adv-x="400" 
d="M413 810h49q-10 -56 -48 -84.5t-84 -28.5h-16q-46 0 -74 28.5t-18 84.5h49q-6 -34 11 -51t44 -17h9q27 0 49.5 17t28.5 51z" />
    <glyph glyph-name="cyrFlex" unicode="&#xf6d2;" horiz-adv-x="428" 
d="M332 820h52l85 -130h-56l-62 88l-94 -88h-56z" />
    <glyph glyph-name="dblGrave" unicode="&#xf6d3;" horiz-adv-x="426" 
d="M470 704l-36 -14l-80 130l54 25zM340 704l-36 -14l-80 130l54 25z" />
    <glyph glyph-name="cyrbreve" unicode="&#xf6d4;" horiz-adv-x="400" 
d="M387 660h49q-10 -56 -48 -84.5t-84 -28.5h-16q-46 0 -74 28.5t-18 84.5h49q-6 -34 10.5 -51t44.5 -17h9q27 0 49.5 17t28.5 51z" />
    <glyph glyph-name="cyrflex" unicode="&#xf6d5;" horiz-adv-x="428" 
d="M306 670h52l85 -130h-56l-63 88l-93 -88h-56z" />
    <glyph glyph-name="dblgrave" unicode="&#xf6d6;" horiz-adv-x="426" 
d="M443 554l-35 -14l-80 130l54 25zM313 554l-35 -14l-80 130l54 25z" />
    <glyph glyph-name="dieresisacute" unicode="&#xf6d7;" horiz-adv-x="480" 
d="M266 635l-13 -75h-75l13 75h75zM511 635l-13 -75h-75l13 75h75zM327 560l-30 14l101 171l56 -20z" />
    <glyph glyph-name="dieresisgrave" unicode="&#xf6d8;" horiz-adv-x="480" 
d="M423 560l13 75h75l-13 -75h-75zM178 560l13 75h75l-13 -75h-75zM385 574l-36 -14l-69 165l64 20z" />
    <glyph glyph-name="rupiah" unicode="&#xf6dd;" horiz-adv-x="975" 
d="M567 45l75 425h43l6 -7l-11 -53h4q2 3 6 7.5t18.5 16.5t31.5 21.5t45 17t59 7.5q64 0 94.5 -29.5t16.5 -107.5l-38 -216q-7 -40 -25 -66.5t-44.5 -39t-51.5 -17t-58 -4.5h-128l-30 -170h-50l30 170h-138l-107 270h-138l-47 -270h-50l111 630h225q67 0 104.5 -34
t23.5 -116l-10 -60q-23 -131 -158 -149l90 -226h101zM673 360l-56 -315h118q117 0 132 82l38 216q9 50 -12 68.5t-68 18.5q-76 0 -152 -70zM186 320h185q41 0 72.5 25t40.5 75l10 60q9 50 -13.5 75t-63.5 25h-185z" />
    <glyph glyph-name="threequartersemdash" unicode="&#xf6de;" horiz-adv-x="790" 
d="M127 270h630l-9 -50h-630z" />
    <glyph glyph-name="centinferior" unicode="&#xf6df;" horiz-adv-x="355" 
d="M31 -105l40 226q17 97 133 99l15 83h38l-15 -84l100 -6l-6 -33l-6 -5q-68 8 -115 8q-96 0 -106 -62l-40 -226q-7 -36 18.5 -50.5t65.5 -14.5l118 8l4 -6l-6 -32q-41 -5 -95 -7l-15 -83h-37l15 82q-52 1 -84 24t-22 79z" />
    <glyph glyph-name="centsuperior" unicode="&#xf6e0;" horiz-adv-x="355" 
d="M139 505l39 226q18 97 134 99l14 83h38l-14 -84l100 -6l-6 -33l-6 -5q-69 8 -116 8q-95 0 -106 -62l-39 -226q-7 -36 18.5 -50.5t64.5 -14.5l118 8l4 -6l-5 -32q-41 -5 -95 -7l-15 -83h-37l14 82q-51 1 -83 24t-22 79z" />
    <glyph glyph-name="commainferior" unicode="&#xf6e1;" horiz-adv-x="153" 
d="M77 -147l-10 -53l-25 -98h-22l17 98h-23l10 53h53z" />
    <glyph glyph-name="commasuperior" unicode="&#xf6e2;" horiz-adv-x="153" 
d="M184 463l-9 -53l-25 -98h-22l17 98h-23l9 53h53z" />
    <glyph glyph-name="dollarinferior" unicode="&#xf6e3;" horiz-adv-x="378" 
d="M152 -290h-38l15 83l-107 7l6 32l6 6q84 -8 131 -8q94 0 106 65l6 34q4 22 -2.5 36t-23 20t-32.5 8t-42 2q-54 0 -87.5 21.5t-23.5 78.5l5 26q17 97 133 99l15 83h38l-15 -84l100 -6l-6 -33l-6 -5q-68 8 -115 8q-96 0 -106 -62l-5 -26q-3 -18 1.5 -30t12.5 -18.5t25 -9.5
t28.5 -3.5t33.5 -0.5q52 0 86 -23.5t24 -80.5l-6 -34q-18 -101 -142 -103z" />
    <glyph glyph-name="dollarsuperior" unicode="&#xf6e4;" horiz-adv-x="378" 
d="M260 320h-38l15 83l-107 7l5 32l6 6q84 -8 131 -8q95 0 107 65l6 34q5 29 -10.5 44.5t-35.5 18.5t-55 3q-54 0 -87 21.5t-23 78.5l4 26q18 97 134 99l14 83h38l-14 -84l100 -6l-6 -33l-6 -5q-69 8 -116 8q-95 0 -106 -62l-4 -26q-3 -18 1.5 -30t12.5 -18.5t25 -9.5
t28.5 -3.5t33.5 -0.5q52 0 86 -23.5t24 -80.5l-6 -34q-18 -101 -143 -103z" />
    <glyph glyph-name="hypheninferior" unicode="&#xf6e5;" horiz-adv-x="340" 
d="M50 3h240l-7 -38h-240z" />
    <glyph glyph-name="hyphensuperior" unicode="&#xf6e6;" horiz-adv-x="340" 
d="M158 613h240l-7 -38h-240z" />
    <glyph glyph-name="periodinferior" unicode="&#xf6e7;" horiz-adv-x="153" 
d="M77 -147l-10 -53h-53l10 53h53z" />
    <glyph glyph-name="periodsuperior" unicode="&#xf6e8;" horiz-adv-x="153" 
d="M184 463l-9 -53h-53l9 53h53z" />
    <glyph glyph-name="asuperior" unicode="&#xf6e9;" horiz-adv-x="375" 
d="M413 559l-46 -261h-32l-4 5l8 40h-3q-2 -2 -4.5 -5.5t-13.5 -13t-24 -16.5t-34 -12.5t-44 -5.5q-49 0 -73 22.5t-14 80.5q18 103 138 103h98l11 63q7 36 -15 48.5t-62 12.5q-21 0 -45 -2t-38 -4l-13 -1l-5 5l6 32q47 8 109 8q52 0 81 -21t19 -78zM345 380l13 79h-75
q-35 0 -54.5 -3t-38 -18.5t-23.5 -44.5q-7 -37 10 -51t53 -14q58 0 115 52z" />
    <glyph glyph-name="bsuperior" unicode="&#xf6ea;" horiz-adv-x="371" 
d="M198 568l-42 -236q48 -4 87 -4q88 0 100 65l28 162q7 38 -8.5 51.5t-50.5 13.5q-58 0 -114 -52zM199 793h38l-23 -135l-13 -53h3q2 2 5 5.5t14.5 13t24.5 16.5t34 12.5t44 5.5q48 0 70 -22t12 -81l-28 -162q-18 -103 -135 -103l-128 8l-4 5z" />
    <glyph glyph-name="dsuperior" unicode="&#xf6eb;" horiz-adv-x="371" 
d="M341 380l41 236q-48 4 -88 4q-87 0 -99 -65l-28 -162q-7 -38 8.5 -51.5t50.5 -13.5q58 0 115 52zM450 793l-87 -495h-32l-4 5l8 40h-3q-2 -2 -4.5 -5.5t-13.5 -13t-24 -16.5t-34 -12.5t-44 -5.5q-48 0 -70.5 22.5t-12.5 80.5l28 162q18 103 137 103q15 0 32.5 -0.5t36 -2
t26.5 -1.5l24 139h37z" />
    <glyph glyph-name="esuperior" unicode="&#xf6ec;" horiz-adv-x="375" 
d="M297 620q-90 0 -102 -65l-10 -59h176q9 27 14 59q7 37 -15.5 51t-62.5 14zM390 466l-9 -7h-203l-12 -70q-6 -36 15.5 -48.5t60.5 -12.5q21 0 45.5 2t38.5 4l13 1l4 -5l-6 -32q-46 -8 -108 -8q-52 0 -81.5 21t-19.5 78l29 166q10 53 50.5 78t96.5 25q57 0 87.5 -22.5
t20.5 -80.5q-8 -47 -22 -89z" />
    <glyph glyph-name="isuperior" unicode="&#xf6ed;" horiz-adv-x="158" 
d="M234 773l-10 -53h-38l10 53h38zM175 653h38l-63 -353h-38z" />
    <glyph glyph-name="lsuperior" unicode="&#xf6ee;" horiz-adv-x="158" 
d="M200 795h38l-88 -495h-38z" />
    <glyph glyph-name="msuperior" unicode="&#xf6ef;" horiz-adv-x="593" 
d="M415 570l-48 -270h-37l46 257q6 38 -11 52t-53 14q-57 0 -114 -53l-48 -270h-38l63 353h32l5 -6l-9 -39h3q4 6 12.5 14.5t40 23t67.5 14.5q82 0 88 -59q46 59 130 59q49 0 73 -22.5t14 -80.5l-46 -257h-38l46 257q6 38 -11 52t-53 14q-57 0 -114 -53z" />
    <glyph glyph-name="osuperior" unicode="&#xf6f0;" horiz-adv-x="375" 
d="M346 391l30 165q11 64 -79 64t-101 -64l-30 -165q-6 -37 16 -50t63 -13q91 0 101 63zM413 556l-30 -165q-17 -101 -144 -101q-56 0 -88 24t-23 77l30 165q9 54 49.5 78t96.5 24q58 0 88.5 -22t20.5 -80z" />
    <glyph glyph-name="rsuperior" unicode="&#xf6f1;" horiz-adv-x="278" 
d="M328 628l-7 -5q-22 0 -35 -1.5t-37.5 -14t-50.5 -37.5l-48 -270h-38l63 353h32l5 -6l-9 -39h3q5 7 15 16.5t43.5 24.5t69.5 11z" />
    <glyph glyph-name="ssuperior" unicode="&#xf6f2;" horiz-adv-x="368" 
d="M126 330l6 5q60 -7 107 -7q27 0 43.5 3t34 18t22.5 44q4 24 0 38t-19 20t-27.5 7t-39.5 1q-55 0 -80 20.5t-15 79.5q10 57 43.5 78t84.5 21q28 0 56.5 -2t42.5 -4l14 -2l-6 -32l-5 -5q-54 7 -101 7q-42 0 -63 -11.5t-28 -49.5q-2 -12 -2.5 -21t2.5 -15.5t5.5 -11
t9.5 -7.5t12.5 -4.5t17 -2.5t18.5 -1h23q15 0 24 -0.5t22.5 -2.5t20 -6t16 -11.5t11 -18.5t4.5 -27t-3 -37q-11 -62 -46.5 -82.5t-89.5 -20.5q-28 0 -58 2t-47 4l-16 2z" />
    <glyph glyph-name="tsuperior" unicode="&#xf6f3;" horiz-adv-x="293" 
d="M166 388l40 225h-38l6 37h38l13 75h37l-13 -75h90l-6 -37h-90l-40 -225q-7 -36 6 -48t36 -12l40 3l5 -5l-5 -30q-25 -6 -50 -6q-40 0 -59 24t-10 74z" />
    <glyph glyph-name="Brevesmall" unicode="&#xf6f4;" horiz-adv-x="400" 
d="M387 660h49q-10 -56 -48 -84.5t-84 -28.5h-16q-46 0 -74 28.5t-18 84.5h49q-6 -34 10.5 -51t44.5 -17h9q27 0 49.5 17t28.5 51z" />
    <glyph glyph-name="Caronsmall" unicode="&#xf6f5;" horiz-adv-x="428" 
d="M333 530h-52l-85 130h56l62 -88l94 88h56z" />
    <glyph glyph-name="Circumflexsmall" unicode="&#xf6f6;" horiz-adv-x="428" 
d="M306 670h52l85 -130h-56l-63 88l-93 -88h-56z" />
    <glyph glyph-name="Dotaccentsmall" unicode="&#xf6f7;" horiz-adv-x="230" 
d="M272 640l-14 -80h-80l14 80h80z" />
    <glyph glyph-name="Hungarumlautsmall" unicode="&#xf6f8;" horiz-adv-x="426" 
d="M208 540l-31 14l111 141l46 -25zM338 540l-31 14l111 141l46 -25z" />
    <glyph glyph-name="Lslashsmall" unicode="&#xf6f9;" horiz-adv-x="430" 
d="M67 270h60l35 200h50l-35 -200h130l-9 -50h-130l-30 -170h280l-8 -50h-330l38 220h-60z" />
    <glyph glyph-name="OEsmall" unicode="&#xf6fa;" horiz-adv-x="840" 
d="M534 420l-27 -150h250l-9 -50h-250l-30 -170h310l-8 -50h-360l3 19q-43 -29 -110 -29h-70q-67 0 -105 34t-24 116l34 190q26 150 181 150h70q67 0 100 -29l3 19h360l-8 -50h-310zM232 40h90q41 0 72.5 25t39.5 75l34 190q8 50 -14.5 75t-63.5 25h-90q-41 0 -72.5 -25
t-39.5 -75l-34 -190q-8 -50 14.5 -75t63.5 -25z" />
    <glyph glyph-name="Ogoneksmall" unicode="&#xf6fb;" horiz-adv-x="293" 
d="M109 0h33q-27 -41 -34 -73t12 -42q15 -5 30 -4.5t27 3.5l12 3l3 -5l-12 -41q-5 -1 -12.5 -3t-30 -4.5t-36.5 1.5q-29 6 -38 26t-1.5 46t20 49.5t27.5 43.5z" />
    <glyph glyph-name="Ringsmall" unicode="&#xf6fc;" horiz-adv-x="344" 
d="M260 540q-37 0 -58.5 15t-14.5 56l8 42q12 71 97 71h14q37 0 58.5 -15t14.5 -56l-8 -42q-12 -71 -97 -71h-14zM227 651l-6 -38q-8 -40 40 -40h24q46 0 54 40l6 38q4 21 -8 30t-33 9h-23q-46 0 -54 -39z" />
    <glyph glyph-name="Scaronsmall" unicode="&#xf6fd;" horiz-adv-x="510" 
d="M87 43l8 7q102 -10 165 -10q27 0 46.5 2.5t44 10t40.5 26.5t21 48q4 25 -2 42.5t-16.5 26.5t-33.5 13.5t-38 5t-45 0.5q-36 0 -62 5t-49.5 18.5t-32.5 41t-2 68.5q24 132 190 132q37 0 79.5 -2.5t67.5 -5.5l24 -2l-7 -43l-8 -7q-92 10 -155 10q-59 0 -95.5 -16.5
t-45.5 -65.5q-4 -24 1.5 -40.5t14.5 -25t31.5 -12.5t38.5 -4.5t49 -0.5q36 0 59 -3.5t49.5 -15.5t36 -42t1.5 -77q-25 -137 -201 -137q-37 0 -82 2.5t-72 5.5l-27 2zM380 530h-52l-85 130h56l62 -88l94 88h56z" />
    <glyph glyph-name="Tildesmall" unicode="&#xf6fe;" horiz-adv-x="446" 
d="M324 568q-24 15 -39.5 21t-29 2t-21 -9.5t-24.5 -21.5l-28 24q65 93 160 40q16 -10 28 -14.5t19.5 -6t16 2.5t12 7t14 13.5l15.5 15.5l27 -24q-66 -97 -150 -50z" />
    <glyph glyph-name="Zcaronsmall" unicode="&#xf6ff;" horiz-adv-x="490" 
d="M507 470l-9 -55l-380 -365h330l-8 -50h-390l9 55l380 365h-305l8 50h365zM370 530h-52l-85 130h56l62 -88l94 88h56z" />
    <glyph glyph-name="exclamsmall" unicode="&#xf721;" horiz-adv-x="210" 
d="M127 270l35 200h50l-35 -200l-34 -165h-40zM142 70l-12 -70h-50l12 70h50z" />
    <glyph glyph-name="dollaroldstyle" unicode="&#xf724;" horiz-adv-x="530" 
d="M97 43l8 7q102 -10 165 -10q27 0 46.5 2.5t44 10t40.5 26.5t21 48q4 25 -2 42.5t-16.5 26.5t-33.5 13.5t-38 5t-45 0.5q-36 0 -62 5t-49.5 18.5t-32.5 41t-2 68.5q23 128 178 132l20 110h50l-20 -111l133 -9l-7 -43l-8 -7q-92 10 -155 10q-59 0 -95.5 -16.5t-45.5 -65.5
q-4 -24 1.5 -40.5t14.5 -25t31.5 -12.5t38.5 -4.5t49 -0.5q36 0 59 -3.5t49.5 -15.5t36 -42t1.5 -77q-23 -130 -179 -136l-20 -111h-50l20 110l-153 10z" />
    <glyph glyph-name="ampersandsmall" unicode="&#xf726;" horiz-adv-x="730" 
d="M507 210h-233q-34 0 -54.5 -3.5t-40.5 -21.5t-26 -52l-2 -11q-5 -26 4.5 -43t29.5 -25t39.5 -11t44.5 -3q28 0 68.5 2.5t66.5 5.5l27 2l6 -7l-7 -43q-97 -10 -180 -10q-32 0 -58.5 5t-51.5 18.5t-35.5 41t-3.5 67.5l2 11q14 79 94 104q-61 27 -48 100l2 11
q24 132 195 132q37 0 81 -2.5t69 -5.5l26 -2l-7 -43l-8 -7q-97 10 -160 10q-131 0 -146 -82l-2 -11q-5 -26 0.5 -42.5t21 -23.5t31 -9t40.5 -2h223l18 100h50l-18 -100h120l-8 -50h-120l-16 -90q-3 -27 -1.5 -43t12.5 -24t21 -10.5t24 -2.5l53 5l6 -7l-7 -40q-33 -8 -66 -8
q-53 0 -78.5 32t-13.5 98z" />
    <glyph glyph-name="zerooldstyle" unicode="&#xf730;" horiz-adv-x="540" 
d="M232 40h90q41 0 72.5 25t39.5 75l34 190q8 50 -14.5 75t-63.5 25h-90q-41 0 -72.5 -25t-39.5 -75l-34 -190q-8 -50 14.5 -75t63.5 -25zM233 -10q-67 0 -105 34t-24 116l34 190q26 150 181 150h70q67 0 105 -34t24 -116l-34 -190q-26 -150 -181 -150h-70z" />
    <glyph glyph-name="oneoldstyle" unicode="&#xf731;" horiz-adv-x="390" 
d="M338 50l-8 -50h-270l8 50h110l66 370h-110l8 50h160l-74 -420h110z" />
    <glyph glyph-name="twooldstyle" unicode="&#xf732;" horiz-adv-x="530" 
d="M100 118q23 132 194 132q24 0 38 0.5t34.5 3t33 8t26 14.5t21.5 24t12 35l1 8q6 34 -11.5 54.5t-42.5 26.5t-58 6q-28 0 -72 -2.5t-74 -5.5l-31 -2l-6 7l7 43q112 10 195 10q32 0 58 -6t49 -20t33 -42.5t3 -68.5l-1 -8q-24 -135 -194 -135q-31 0 -45.5 -0.5t-39.5 -4.5
t-38 -12t-25.5 -24.5t-16.5 -40.5l-12 -68h310l-8 -50h-360q1 6 20 118z" />
    <glyph glyph-name="threeoldstyle" unicode="&#xf733;" 
d="M109 140l9 50h135q34 0 56.5 2.5t48 11t41 27.5t20.5 49l11 63q6 34 -11.5 54.5t-42.5 26.5t-58 6q-28 0 -72 -2.5t-74 -5.5l-31 -2l-6 7l7 43q112 10 195 10q32 0 58 -6t49 -20t33 -42.5t3 -68.5l-11 -63q-16 -86 -93 -115q68 -30 52 -115l-16 -93q-14 -76 -67.5 -106.5
t-123.5 -30.5q-37 0 -84.5 2.5t-76.5 5.5l-30 2l7 43l8 7q112 -10 175 -10q126 0 142 87l16 93q5 30 -3.5 49t-30.5 27.5t-44 11t-56 2.5h-135z" />
    <glyph glyph-name="fouroldstyle" unicode="&#xf734;" horiz-adv-x="550" 
d="M355 0h-315l8 50l375 425h65l-75 -425h75l-8 -50h-75l-30 -170h-50zM104 50h259l65 367z" />
    <glyph glyph-name="fiveoldstyle" unicode="&#xf735;" horiz-adv-x="520" 
d="M266 150h-150l56 320h340l-8 -50h-290l-39 -220h130q32 0 58 -5.5t50 -19t34.5 -42t3.5 -68.5l-19 -108q-14 -76 -67.5 -106.5t-123.5 -30.5q-37 0 -84.5 2.5t-76.5 5.5l-30 2l7 43l8 7q112 -10 175 -10q126 0 142 87l19 108q4 24 -2 40.5t-16.5 25t-33 13t-38.5 5.5
t-45 1z" />
    <glyph glyph-name="sixoldstyle" unicode="&#xf736;" horiz-adv-x="530" 
d="M104 140l69 393q14 76 68 106.5t124 30.5q37 0 84.5 -2.5t76.5 -5.5l30 -2l-8 -43l-8 -7q-111 10 -174 10q-127 0 -143 -87l-29 -169q44 36 111 36h60q67 0 105 -34t24 -116l-20 -110q-26 -150 -181 -150h-60q-67 0 -105 34t-24 116zM366 350h-80q-41 0 -72.5 -25
t-39.5 -75l-20 -110q-8 -50 14.5 -75t63.5 -25h80q41 0 72.5 25t39.5 75l20 110q8 50 -14.5 75t-63.5 25z" />
    <glyph glyph-name="sevenoldstyle" unicode="&#xf737;" horiz-adv-x="475" 
d="M498 415l-358 -585h-60l361 590h-317l8 50h375z" />
    <glyph glyph-name="eightoldstyle" unicode="&#xf738;" horiz-adv-x="530" 
d="M372 620h-6q-127 0 -143 -87l-12 -73q-5 -30 1 -49t25 -27.5t38 -11t50 -2.5t51 2.5t41.5 11t35 27.5t18.5 49l12 73q6 34 -11.5 54.5t-42 26.5t-57.5 6zM281 -10h-46q-32 0 -58 6t-49 20t-33 42.5t-3 68.5l18 103q16 85 93 115q-59 25 -42 115l12 73q14 76 68 106.5
t124 30.5h26q32 0 57.5 -6t49 -20t33 -42.5t2.5 -68.5l-12 -73q-17 -91 -84 -115q69 -31 53 -115l-18 -103q-14 -76 -67.5 -106.5t-123.5 -30.5zM254 40h26q126 0 142 87l18 103q5 30 -2.5 49t-28.5 27.5t-41.5 11t-51.5 2.5t-52.5 -2.5t-45 -11t-38.5 -27.5t-20 -49
l-18 -103q-6 -34 11.5 -54.5t42.5 -26.5t58 -6z" />
    <glyph glyph-name="nineoldstyle" unicode="&#xf739;" horiz-adv-x="530" 
d="M508 330l-66 -373q-14 -76 -67.5 -106.5t-123.5 -30.5q-37 0 -84.5 2.5t-76.5 5.5l-30 2l7 43l8 7q112 -10 175 -10q126 0 142 87l30 169q-45 -36 -112 -36h-60q-67 0 -104.5 34t-23.5 116l16 90q26 150 181 150h60q67 0 105 -34t24 -116zM249 140h80q41 0 72.5 25
t40.5 75l16 90q8 50 -14.5 75t-63.5 25h-80q-41 0 -72.5 -25t-39.5 -75l-16 -90q-9 -50 13.5 -75t63.5 -25z" />
    <glyph glyph-name="questionsmall" unicode="&#xf73f;" 
d="M200 117l-2 -12h-50l2 12q24 138 154 138q22 0 33.5 0.5t29.5 5t28 12.5t20 24.5t14 40.5l2 10q5 26 -3.5 43t-27.5 25t-38 11t-44 3q-28 0 -67 -2.5t-65 -5.5l-25 -2l-6 7l7 43q92 10 175 10q32 0 58 -5t49.5 -18.5t33.5 -41t3 -67.5l-2 -10q-24 -133 -153 -133
q-39 0 -60 -4t-40 -24.5t-26 -59.5zM192 70l-12 -70h-50l12 70h50z" />
    <glyph glyph-name="Gravesmall" unicode="&#xf760;" horiz-adv-x="320" 
d="M338 560l-29 -20l-111 130l52 40z" />
    <glyph glyph-name="Asmall" unicode="&#xf761;" horiz-adv-x="490" 
d="M296 475h64l100 -475h-58l-29 140h-209l-76 -140h-58zM319 420l-127 -230h172z" />
    <glyph glyph-name="Bsmall" unicode="&#xf762;" horiz-adv-x="530" 
d="M483 133l-1 -6q-7 -40 -25.5 -67t-45.5 -39t-52.5 -16.5t-58.5 -4.5h-220l82 470h210q72 0 111.5 -26t26.5 -101l-1 -6q-13 -73 -84 -100q72 -25 58 -104zM340 210h-173l-29 -160h173q34 0 54.5 3.5t40.5 21.5t26 52l1 6q5 26 -0.5 42.5t-21 23.5t-31 9t-40.5 2zM175 260
h163q34 0 54.5 3.5t40.5 21.5t26 52l1 6q5 26 -0.5 42.5t-21 23.5t-31 9t-40.5 2h-163z" />
    <glyph glyph-name="Csmall" unicode="&#xf763;" horiz-adv-x="480" 
d="M505 427l-8 -7q-97 10 -160 10q-131 0 -146 -82l-40 -226q-5 -26 4.5 -43t29.5 -25t39.5 -11t44.5 -3q28 0 68.5 2.5t66.5 5.5l27 2l6 -7l-7 -43q-97 -10 -180 -10q-32 0 -58.5 5t-51.5 18.5t-35.5 41t-3.5 67.5l40 226q24 132 195 132q37 0 81 -2.5t69 -5.5l26 -2z" />
    <glyph glyph-name="Dsmall" unicode="&#xf764;" horiz-adv-x="540" 
d="M439 170l23 130q11 63 -19.5 91.5t-88.5 28.5h-150l-66 -370h150q58 0 99 28.5t52 91.5zM512 300l-23 -130q-29 -170 -209 -170h-200l82 470h200q180 0 150 -170z" />
    <glyph glyph-name="Esmall" unicode="&#xf765;" horiz-adv-x="510" 
d="M204 420l-27 -150h250l-9 -50h-250l-30 -170h310l-8 -50h-360l82 470h360l-8 -50h-310z" />
    <glyph glyph-name="Fsmall" unicode="&#xf766;" horiz-adv-x="470" 
d="M204 420l-27 -150h250l-9 -50h-250l-38 -220h-50l82 470h360l-8 -50h-310z" />
    <glyph glyph-name="Gsmall" unicode="&#xf767;" horiz-adv-x="520" 
d="M346 265h150l-46 -265q-102 -10 -185 -10q-33 0 -61 5.5t-56 18.5t-41 40.5t-6 67.5l40 226q24 132 200 132q37 0 79.5 -2.5t67.5 -5.5l24 -2l-7 -43l-8 -7q-92 10 -155 10q-136 0 -151 -82l-40 -226q-5 -25 6.5 -42.5t34.5 -25.5t45 -11t47 -3q50 0 124 6l29 169h-93
l-5 7z" />
    <glyph glyph-name="Hsmall" unicode="&#xf768;" horiz-adv-x="540" 
d="M212 470l-35 -200h280l35 200h50l-82 -470h-50l38 220h-280l-38 -220h-50l82 470h50z" />
    <glyph glyph-name="Ismall" unicode="&#xf769;" horiz-adv-x="210" 
d="M162 470h50l-82 -470h-50z" />
    <glyph glyph-name="Jsmall" unicode="&#xf76a;" horiz-adv-x="320" 
d="M211 122l61 348h50l-61 -348q-11 -65 -53.5 -98.5t-96.5 -33.5l-92 8l7 40l8 7q48 -5 81 -5q81 0 96 82z" />
    <glyph glyph-name="Ksmall" unicode="&#xf76b;" horiz-adv-x="533" 
d="M212 470l-45 -260l325 260h63l-243 -200l181 -270h-68l-158 238l-111 -88l-26 -150h-50l82 470h50z" />
    <glyph glyph-name="Lsmall" unicode="&#xf76c;" horiz-adv-x="430" 
d="M418 50l-8 -50h-330l82 470h50l-74 -420h280z" />
    <glyph glyph-name="Msmall" unicode="&#xf76d;" horiz-adv-x="650" 
d="M162 470h70l108 -380l242 380h70l-82 -470h-50l69 395l-231 -365h-56l-103 365l-69 -395h-50z" />
    <glyph glyph-name="Nsmall" unicode="&#xf76e;" horiz-adv-x="550" 
d="M502 470h50l-82 -470h-70l-198 410l-72 -410h-50l82 470h70l198 -410z" />
    <glyph glyph-name="Osmall" unicode="&#xf76f;" horiz-adv-x="540" 
d="M232 40h90q41 0 72.5 25t39.5 75l34 190q8 50 -14.5 75t-63.5 25h-90q-41 0 -72.5 -25t-39.5 -75l-34 -190q-8 -50 14.5 -75t63.5 -25zM233 -10q-67 0 -105 34t-24 116l34 190q26 150 181 150h70q67 0 105 -34t24 -116l-34 -190q-26 -150 -181 -150h-70z" />
    <glyph glyph-name="Psmall" unicode="&#xf770;" horiz-adv-x="520" 
d="M331 180h-170l-31 -180h-50l82 470h220q32 0 57 -5t47 -18.5t31 -41t2 -67.5l-4 -26q-24 -132 -184 -132zM170 230h173q50 0 81.5 16.5t40.5 65.5l4 26q9 49 -16.5 65.5t-75.5 16.5h-173z" />
    <glyph glyph-name="Qsmall" unicode="&#xf771;" horiz-adv-x="540" 
d="M241 -10h-8q-67 0 -105 34t-24 116l34 190q26 150 181 150h70q67 0 105 -34t24 -116l-34 -190q-26 -150 -181 -150h-19q-14 -36 -7 -64t35 -28h92l5 -7l-7 -43h-119q-28 0 -43 13t-16.5 35t3 45t14.5 49zM232 40h90q41 0 72.5 25t39.5 75l34 190q8 50 -14.5 75t-63.5 25
h-90q-41 0 -72.5 -25t-39.5 -75l-34 -190q-8 -50 14.5 -75t63.5 -25z" />
    <glyph glyph-name="Rsmall" unicode="&#xf772;" horiz-adv-x="555" 
d="M296 180h-135l-31 -180h-50l82 470h220q32 0 57 -5t47 -18.5t31 -41t2 -67.5l-4 -26q-22 -121 -156 -131l126 -181h-65zM170 230h173q50 0 81.5 16.5t40.5 65.5l4 26q9 49 -16.5 65.5t-75.5 16.5h-173z" />
    <glyph glyph-name="Ssmall" unicode="&#xf773;" horiz-adv-x="510" 
d="M87 43l8 7q102 -10 165 -10q27 0 46.5 2.5t44 10t40.5 26.5t21 48q4 25 -2 42.5t-16.5 26.5t-33.5 13.5t-38 5t-45 0.5q-36 0 -62 5t-49.5 18.5t-32.5 41t-2 68.5q24 132 190 132q37 0 79.5 -2.5t67.5 -5.5l24 -2l-7 -43l-8 -7q-92 10 -155 10q-59 0 -95.5 -16.5
t-45.5 -65.5q-4 -24 1.5 -40.5t14.5 -25t31.5 -12.5t38.5 -4.5t49 -0.5q36 0 59 -3.5t49.5 -15.5t36 -42t1.5 -77q-25 -137 -201 -137q-37 0 -82 2.5t-72 5.5l-27 2z" />
    <glyph glyph-name="Tsmall" unicode="&#xf774;" horiz-adv-x="440" 
d="M489 420h-170l-74 -420h-50l74 420h-170l8 50h390z" />
    <glyph glyph-name="Usmall" unicode="&#xf775;" horiz-adv-x="540" 
d="M492 470h50l-58 -330q-26 -150 -181 -150h-70q-67 0 -105 34t-24 116l58 330h50l-58 -330q-8 -50 14.5 -75t63.5 -25h90q41 0 72.5 25t39.5 75z" />
    <glyph glyph-name="Vsmall" unicode="&#xf776;" horiz-adv-x="490" 
d="M276 -5h-64l-100 475h58l83 -420l231 420h58z" />
    <glyph glyph-name="Wsmall" unicode="&#xf777;" horiz-adv-x="720" 
d="M256 -5h-64l-80 475h58l63 -420l229 420h55l-80 -145l66 -275l211 420h58l-246 -475h-64l-63 260z" />
    <glyph glyph-name="Xsmall" unicode="&#xf778;" horiz-adv-x="520" 
d="M333 235l142 -235h-63l-119 191l-185 -191h-63l224 235l-142 235h63l119 -192l185 192h63z" />
    <glyph glyph-name="Ysmall" unicode="&#xf779;" horiz-adv-x="470" 
d="M102 470h58l113 -250l201 250h58l-242 -298l-30 -172h-50l30 172z" />
    <glyph glyph-name="Zsmall" unicode="&#xf77a;" horiz-adv-x="490" 
d="M507 470l-9 -55l-380 -365h330l-8 -50h-390l9 55l380 365h-305l8 50h365z" />
    <glyph glyph-name="exclamdownsmall" unicode="&#xf7a1;" horiz-adv-x="210" 
d="M80 0l35 200l34 165h40l-24 -165l-35 -200h-50zM212 470l-12 -70h-50l12 70h50z" />
    <glyph glyph-name="centoldstyle" unicode="&#xf7a2;" 
d="M102 127l39 221q23 128 178 132l20 110h50l-20 -111l133 -9l-7 -43l-8 -7q-92 10 -155 10q-126 0 -141 -82l-39 -221q-6 -34 11.5 -54.5t42.5 -26.5t58 -6q28 0 67 2.5t65 5.5l25 2l6 -7l-7 -43q-55 -6 -127 -9l-20 -111h-50l20 110q-31 0 -57 6.5t-49 20.5t-32.5 42
t-2.5 68z" />
    <glyph glyph-name="Dieresissmall" unicode="&#xf7a8;" horiz-adv-x="420" 
d="M266 635l-13 -75h-75l13 75h75zM451 635l-13 -75h-75l13 75h75z" />
    <glyph glyph-name="Macronsmall" unicode="&#xf7af;" horiz-adv-x="440" 
d="M469 620l-9 -50h-280l9 50h280z" />
    <glyph glyph-name="Acutesmall" unicode="&#xf7b4;" horiz-adv-x="320" 
d="M201 540l-23 20l142 150l38 -40z" />
    <glyph glyph-name="Cedillasmall" unicode="&#xf7b8;" horiz-adv-x="320" 
d="M106 -135l7 6q37 -5 53 -3q17 1 22.5 8.5t7.5 20.5q1 7 0 12t-11 10.5t-29 5.5l14 75h45l-8 -45q52 -9 44 -60q-13 -75 -93 -75l-59 5z" />
    <glyph glyph-name="questiondownsmall" unicode="&#xf7bf;" 
d="M382 353l2 12h50l-2 -12q-24 -138 -155 -138q-22 0 -33.5 -0.5t-29.5 -5t-28 -12.5t-19.5 -24.5t-13.5 -40.5l-2 -10q-5 -26 3.5 -43t27.5 -25t38 -11t44 -3q28 0 67 2.5t65 5.5l25 2l6 -7l-7 -43q-92 -10 -175 -10q-32 0 -58 5t-49.5 18.5t-33.5 41t-3 67.5l2 10
q24 133 153 133q39 0 60 4t40 24.5t26 59.5zM390 400l12 70h50l-12 -70h-50z" />
    <glyph glyph-name="Agravesmall" unicode="&#xf7e0;" horiz-adv-x="490" 
d="M362 560l-29 -20l-111 130l52 40zM296 475h64l100 -475h-58l-29 140h-209l-76 -140h-58zM319 420l-127 -230h172z" />
    <glyph glyph-name="Aacutesmall" unicode="&#xf7e1;" horiz-adv-x="490" 
d="M354 540l-23 20l142 150l38 -40zM296 475h64l100 -475h-58l-29 140h-209l-76 -140h-58zM319 420l-127 -230h172z" />
    <glyph glyph-name="Acircumflexsmall" unicode="&#xf7e2;" horiz-adv-x="490" 
d="M336 670h52l85 -130h-56l-63 88l-93 -88h-56zM296 475h64l100 -475h-58l-29 140h-209l-76 -140h-58zM319 420l-127 -230h172z" />
    <glyph glyph-name="Atildesmall" unicode="&#xf7e3;" horiz-adv-x="490" 
d="M345 568q-24 15 -39.5 21t-29 2t-21 -9.5t-24.5 -21.5l-28 24q65 93 160 40q16 -10 28 -14.5t19.5 -6t16 2.5t12 7t14 13.5l15.5 15.5l27 -24q-66 -97 -150 -50zM296 475h64l100 -475h-58l-29 140h-209l-76 -140h-58zM319 420l-127 -230h172z" />
    <glyph glyph-name="Adieresissmall" unicode="&#xf7e4;" horiz-adv-x="490" 
d="M300 635l-13 -75h-75l13 75h75zM485 635l-13 -75h-75l13 75h75zM296 475h64l100 -475h-58l-29 140h-209l-76 -140h-58zM319 420l-127 -230h172z" />
    <glyph glyph-name="Aringsmall" unicode="&#xf7e5;" horiz-adv-x="490" 
d="M333 540q-37 0 -58.5 15t-14.5 56l8 42q12 71 97 71h14q37 0 58.5 -15t14.5 -56l-8 -42q-12 -71 -97 -71h-14zM300 651l-6 -38q-8 -40 40 -40h24q46 0 54 40l6 38q4 21 -8 30t-33 9h-23q-46 0 -54 -39zM296 475h64l100 -475h-58l-29 140h-209l-76 -140h-58zM319 420
l-127 -230h172z" />
    <glyph glyph-name="AEsmall" unicode="&#xf7e6;" horiz-adv-x="790" 
d="M484 420l-27 -150h250l-9 -50h-250l-30 -170h310l-8 -50h-360l38 220h-190l-120 -220h-58l262 470h510l-8 -50h-310zM319 420l-83 -150h171l27 150h-115z" />
    <glyph glyph-name="Ccedillasmall" unicode="&#xf7e7;" horiz-adv-x="480" 
d="M176 -135l7 6q37 -5 53 -3q17 1 22.5 8.5t7.5 20.5q1 7 0 12t-11 10.5t-29 5.5l12 65q-31 1 -56 7t-47 19.5t-31.5 40.5t-2.5 65l40 226q24 132 195 132q37 0 81 -2.5t69 -5.5l26 -2l-7 -43l-8 -7q-97 10 -160 10q-131 0 -146 -82l-40 -226q-5 -26 4.5 -43t29.5 -25
t39.5 -11t44.5 -3q28 0 68.5 2.5t66.5 5.5l27 2l6 -7l-7 -43q-74 -7 -147 -9l-6 -36q52 -9 44 -60q-13 -75 -93 -75l-59 5z" />
    <glyph glyph-name="Egravesmall" unicode="&#xf7e8;" horiz-adv-x="510" 
d="M204 420l-27 -150h250l-9 -50h-250l-30 -170h310l-8 -50h-360l82 470h360l-8 -50h-310zM384 560l-29 -20l-111 130l52 40z" />
    <glyph glyph-name="Eacutesmall" unicode="&#xf7e9;" horiz-adv-x="510" 
d="M204 420l-27 -150h250l-9 -50h-250l-30 -170h310l-8 -50h-360l82 470h360l-8 -50h-310zM345 540l-23 20l142 150l38 -40z" />
    <glyph glyph-name="Ecircumflexsmall" unicode="&#xf7ea;" horiz-adv-x="510" 
d="M204 420l-27 -150h250l-9 -50h-250l-30 -170h310l-8 -50h-360l82 470h360l-8 -50h-310zM358 670h52l85 -130h-56l-63 88l-93 -88h-56z" />
    <glyph glyph-name="Edieresissmall" unicode="&#xf7eb;" horiz-adv-x="510" 
d="M204 420l-27 -150h250l-9 -50h-250l-30 -170h310l-8 -50h-360l82 470h360l-8 -50h-310zM320 635l-13 -75h-75l13 75h75zM505 635l-13 -75h-75l13 75h75z" />
    <glyph glyph-name="Igravesmall" unicode="&#xf7ec;" horiz-adv-x="209" 
d="M161 470h50l-82 -470h-50zM219 560l-29 -20l-111 130l52 40z" />
    <glyph glyph-name="Iacutesmall" unicode="&#xf7ed;" horiz-adv-x="209" 
d="M162 470h50l-82 -470h-50zM210 540l-23 20l142 150l38 -40z" />
    <glyph glyph-name="Icircumflexsmall" unicode="&#xf7ee;" horiz-adv-x="212" 
d="M160 470h50l-82 -470h-50zM198 670h52l85 -130h-56l-63 88l-93 -88h-56z" />
    <glyph glyph-name="Idieresissmall" unicode="&#xf7ef;" horiz-adv-x="204" 
d="M158 470h50l-82 -470h-50zM158 635l-13 -75h-75l13 75h75zM343 635l-13 -75h-75l13 75h75z" />
    <glyph glyph-name="Ethsmall" unicode="&#xf7f0;" horiz-adv-x="540" 
d="M512 300l-23 -130q-29 -170 -209 -170h-200l38 220h-60l9 50h60l35 200h200q180 0 150 -170zM177 270h130l-9 -50h-130l-30 -170h150q58 0 99 28.5t52 91.5l23 130q11 63 -19.5 91.5t-88.5 28.5h-150z" />
    <glyph glyph-name="Ntildesmall" unicode="&#xf7f1;" horiz-adv-x="550" 
d="M502 470h50l-82 -470h-70l-198 410l-72 -410h-50l82 470h70l198 -410zM378 568q-24 15 -39.5 21t-29 2t-21 -9.5t-24.5 -21.5l-28 24q65 93 160 40q16 -10 28 -14.5t19.5 -6t16 2.5t12 7t14 13.5l15.5 15.5l27 -24q-66 -97 -150 -50z" />
    <glyph glyph-name="Ogravesmall" unicode="&#xf7f2;" horiz-adv-x="540" 
d="M232 40h90q41 0 72.5 25t39.5 75l34 190q8 50 -14.5 75t-63.5 25h-90q-41 0 -72.5 -25t-39.5 -75l-34 -190q-8 -50 14.5 -75t63.5 -25zM233 -10q-67 0 -105 34t-24 116l34 190q26 150 181 150h70q67 0 105 -34t24 -116l-34 -190q-26 -150 -181 -150h-70zM386 560l-29 -20
l-111 130l52 40z" />
    <glyph glyph-name="Oacutesmall" unicode="&#xf7f3;" horiz-adv-x="540" 
d="M232 40h90q41 0 72.5 25t39.5 75l34 190q8 50 -14.5 75t-63.5 25h-90q-41 0 -72.5 -25t-39.5 -75l-34 -190q-8 -50 14.5 -75t63.5 -25zM233 -10q-67 0 -105 34t-24 116l34 190q26 150 181 150h70q67 0 105 -34t24 -116l-34 -190q-26 -150 -181 -150h-70zM371 540l-23 20
l142 150l38 -40z" />
    <glyph glyph-name="Ocircumflexsmall" unicode="&#xf7f4;" horiz-adv-x="540" 
d="M232 40h90q41 0 72.5 25t39.5 75l34 190q8 50 -14.5 75t-63.5 25h-90q-41 0 -72.5 -25t-39.5 -75l-34 -190q-8 -50 14.5 -75t63.5 -25zM233 -10q-67 0 -105 34t-24 116l34 190q26 150 181 150h70q67 0 105 -34t24 -116l-34 -190q-26 -150 -181 -150h-70zM372 670h52
l85 -130h-56l-63 88l-93 -88h-56z" />
    <glyph glyph-name="Otildesmall" unicode="&#xf7f5;" horiz-adv-x="540" 
d="M232 40h90q41 0 72.5 25t39.5 75l34 190q8 50 -14.5 75t-63.5 25h-90q-41 0 -72.5 -25t-39.5 -75l-34 -190q-8 -50 14.5 -75t63.5 -25zM233 -10q-67 0 -105 34t-24 116l34 190q26 150 181 150h70q67 0 105 -34t24 -116l-34 -190q-26 -150 -181 -150h-70zM372 568
q-24 15 -39.5 21t-29 2t-21 -9.5t-24.5 -21.5l-28 24q65 93 160 40q16 -10 28 -14.5t19.5 -6t16 2.5t12 7t14 13.5l15.5 15.5l27 -24q-66 -97 -150 -50z" />
    <glyph glyph-name="Odieresissmall" unicode="&#xf7f6;" horiz-adv-x="540" 
d="M232 40h90q41 0 72.5 25t39.5 75l34 190q8 50 -14.5 75t-63.5 25h-90q-41 0 -72.5 -25t-39.5 -75l-34 -190q-8 -50 14.5 -75t63.5 -25zM233 -10q-67 0 -105 34t-24 116l34 190q26 150 181 150h70q67 0 105 -34t24 -116l-34 -190q-26 -150 -181 -150h-70zM334 635l-13 -75
h-75l13 75h75zM519 635l-13 -75h-75l13 75h75z" />
    <glyph glyph-name="Oslashsmall" unicode="&#xf7f8;" horiz-adv-x="540" 
d="M303 -10h-70q-67 0 -105 34t-24 116l34 190q26 150 181 150h70q67 0 105 -34t24 -116l-34 -190q-26 -150 -181 -150zM232 40h90q41 0 72.5 25t39.5 75l14 80h-280l-14 -80q-8 -50 14.5 -75t63.5 -25zM457 270l11 60q8 50 -14.5 75t-63.5 25h-90q-41 0 -72.5 -25
t-39.5 -75l-11 -60h280z" />
    <glyph glyph-name="Ugravesmall" unicode="&#xf7f9;" horiz-adv-x="540" 
d="M492 470h50l-58 -330q-26 -150 -181 -150h-70q-67 0 -105 34t-24 116l58 330h50l-58 -330q-8 -50 14.5 -75t63.5 -25h90q41 0 72.5 25t39.5 75zM389 560l-29 -20l-111 130l52 40z" />
    <glyph glyph-name="Uacutesmall" unicode="&#xf7fa;" horiz-adv-x="540" 
d="M492 470h50l-58 -330q-26 -150 -181 -150h-70q-67 0 -105 34t-24 116l58 330h50l-58 -330q-8 -50 14.5 -75t63.5 -25h90q41 0 72.5 25t39.5 75zM367 531l-23 20l142 150l38 -40z" />
    <glyph glyph-name="Ucircumflexsmall" unicode="&#xf7fb;" horiz-adv-x="540" 
d="M492 470h50l-58 -330q-26 -150 -181 -150h-70q-67 0 -105 34t-24 116l58 330h50l-58 -330q-8 -50 14.5 -75t63.5 -25h90q41 0 72.5 25t39.5 75zM362 670h52l85 -130h-56l-63 88l-93 -88h-56z" />
    <glyph glyph-name="Udieresissmall" unicode="&#xf7fc;" horiz-adv-x="540" 
d="M492 470h50l-58 -330q-26 -150 -181 -150h-70q-67 0 -105 34t-24 116l58 330h50l-58 -330q-8 -50 14.5 -75t63.5 -25h90q41 0 72.5 25t39.5 75zM324 635l-13 -75h-75l13 75h75zM509 635l-13 -75h-75l13 75h75z" />
    <glyph glyph-name="Yacutesmall" unicode="&#xf7fd;" horiz-adv-x="470" 
d="M102 470h58l113 -250l201 250h58l-242 -298l-30 -172h-50l30 172zM344 540l-23 20l142 150l38 -40z" />
    <glyph glyph-name="Thornsmall" unicode="&#xf7fe;" horiz-adv-x="520" 
d="M162 470h50l-14 -80h175q67 0 105 -34t24 -116l-2 -10q-26 -150 -181 -150h-175l-14 -80h-50zM152 130h185q41 0 73 25.5t40 74.5l2 10q8 50 -14.5 75t-63.5 25h-185z" />
    <glyph glyph-name="Ydieresissmall" unicode="&#xf7ff;" horiz-adv-x="470" 
d="M102 470h58l113 -250l201 250h58l-242 -298l-30 -172h-50l30 172zM293 635l-13 -75h-75l13 75h75zM478 635l-13 -75h-75l13 75h75z" />
    <glyph glyph-name="longs_t" unicode="&#xfb05;" horiz-adv-x="570" 
d="M432 470l26 143q-56 7 -102 7q-117 0 -131 -80l-104 -590q-12 -66 -48.5 -98t-88.5 -32q-15 0 -31 2t-25 4l-8 2l7 40l8 7q20 -5 53 -5q69 0 83 80l104 590q22 130 180 130q37 0 72 -2.5t52 -5.5l17 -2h20l-34 -190h120l-8 -50h-120l-53 -300q-3 -27 -1.5 -43t12.5 -24
t21 -10.5t24 -2.5l53 5l6 -7l-7 -40q-33 -8 -66 -8q-53 0 -78.5 32t-13.5 98l53 300h-50l8 50h50z" />
    <glyph glyph-name="s_t" unicode="&#xfb06;" horiz-adv-x="770" 
d="M87 43l8 7q82 -10 145 -10q26 0 43 2.5t37.5 10t33.5 26.5t18 48q2 14 2 26t-1.5 20.5t-7 15.5t-10 11t-15 7t-17 4.5t-20.5 2.5t-22 1h-24q-73 0 -106.5 27.5t-19.5 105.5q13 74 55 102t105 30l2 10q11 65 47.5 102.5t114.5 37.5h256l-29 -160h120l-8 -50h-120l-53 -300
q-3 -27 -1.5 -43t12.5 -24t21 -10.5t24 -2.5l53 5l6 -7l-7 -40q-33 -8 -66 -8q-53 0 -78.5 32t-13.5 98l53 300h-50l8 50h50l20 110h-206q-50 0 -73 -26t-32 -74v-1l111 -9l-7 -43l-8 -7q-72 10 -135 10q-56 0 -84 -16t-37 -66q-3 -15 -3.5 -27t3.5 -21t7 -15t13 -9.5t17 -6
t22.5 -3.5t25 -1h30.5q17 0 28 -0.5t26 -2.5t25 -6t20.5 -10.5t16.5 -16.5t10.5 -24t4 -34t-4.5 -44q-8 -44 -26 -72.5t-45 -42t-52 -18t-58 -4.5q-37 0 -77 2.5t-62 5.5l-22 2z" />
    <glyph glyph-name="Breve" horiz-adv-x="400" 
d="M413 810h49q-10 -56 -48 -84.5t-84 -28.5h-16q-46 0 -74 28.5t-18 84.5h49q-6 -34 11 -51t44 -17h9q27 0 49.5 17t28.5 51z" />
    <glyph glyph-name="Cedilla" horiz-adv-x="320" 
d="M106 -135l7 6q37 -5 53 -3q17 1 22.5 8.5t7.5 20.5q1 7 0 12t-11 10.5t-29 5.5l14 75h45l-8 -45q52 -9 44 -60q-13 -75 -93 -75l-59 5z" />
    <glyph glyph-name="Circumflex" horiz-adv-x="428" 
d="M332 820h52l85 -130h-56l-62 88l-94 -88h-56z" />
    <glyph glyph-name="commaaccent.cap" horiz-adv-x="230" 
d="M142 -40l-12 -70l-33 -130h-30l23 130h-30l12 70h70z" />
    <glyph glyph-name="Dotaccent" horiz-adv-x="230" 
d="M299 790l-14 -80h-80l14 80h80z" />
    <glyph glyph-name="Ogonek" horiz-adv-x="293" 
d="M109 0h33q-27 -41 -34 -73t12 -42q15 -5 30 -4.5t27 3.5l12 3l3 -5l-12 -41q-5 -1 -12.5 -3t-30 -4.5t-36.5 1.5q-29 6 -38 26t-1.5 46t20 49.5t27.5 43.5z" />
    <glyph glyph-name="Ring" horiz-adv-x="344" 
d="M286 690q-37 0 -58 15t-14 56l7 42q13 71 98 71h14q37 0 58 -15t14 -56l-7 -42q-13 -71 -98 -71h-14zM254 801l-7 -38q-6 -40 40 -40h24q48 0 54 40l7 38q3 21 -8.5 30t-32.5 9h-23q-48 0 -54 -39z" />
    <glyph glyph-name="Tilde" horiz-adv-x="446" 
d="M350 718q-24 15 -39 21t-29 2t-21 -9.5t-24 -21.5l-28 24q65 93 159 40q16 -10 28 -14.5t19.5 -6t16 2.5t12 7t14 13.5l15.5 15.5l28 -24q-67 -97 -151 -50z" />
    <glyph glyph-name="commaaccent.small" horiz-adv-x="230" 
d="M142 -40l-12 -70l-33 -130h-30l23 130h-30l12 70h70z" />
    <glyph glyph-name="DieresisAcute.small" horiz-adv-x="480" 
d="M266 635l-13 -75h-75l13 75h75zM511 635l-13 -75h-75l13 75h75zM327 560l-30 14l101 171l56 -20z" />
    <glyph glyph-name="DieresisGrave.small" horiz-adv-x="480" 
d="M423 560l13 75h75l-13 -75h-75zM178 560l13 75h75l-13 -75h-75zM385 574l-36 -14l-69 165l64 20z" />
    <glyph glyph-name="dblGrave.small" horiz-adv-x="426" 
d="M443 554l-35 -14l-80 130l54 25zM313 554l-35 -14l-80 130l54 25z" />
    <glyph glyph-name="middot" horiz-adv-x="230" 
d="M209 280l-14 -80h-80l14 80h80z" />
    <glyph glyph-name="Aogonek.small" horiz-adv-x="490" 
d="M415 0h-13l-29 140h-209l-76 -140h-58l266 475h64l100 -475h-12q-27 -41 -34 -73t12 -42q15 -5 30 -4.5t27 3.5l12 3l3 -5l-12 -41q-5 -1 -12.5 -3t-30 -4.5t-36.5 1.5q-29 6 -38 26t-1.5 46t20 49.5t27.5 43.5zM319 420l-127 -230h172z" />
    <glyph glyph-name="Dcroat.small" horiz-adv-x="540" 
d="M512 300l-23 -130q-29 -170 -209 -170h-200l38 220h-60l9 50h60l35 200h200q180 0 150 -170zM177 270h130l-9 -50h-130l-30 -170h150q58 0 99 28.5t52 91.5l23 130q11 63 -19.5 91.5t-88.5 28.5h-150z" />
    <glyph glyph-name="Eogonek.small" horiz-adv-x="510" 
d="M440 0h-168q-27 -41 -34 -73t12 -42q15 -5 30 -4.5t27 3.5l12 3l3 -5l-12 -41q-5 -1 -12.5 -3t-30 -4.5t-36.5 1.5q-29 6 -38 26t-1.5 46t20 49.5t27.5 43.5h-159l82 470h360l-8 -50h-310l-27 -150h250l-9 -50h-250l-30 -170h310z" />
    <glyph glyph-name="Hbar.small" horiz-adv-x="540" 
d="M88 390h60l14 80h50l-14 -80h280l14 80h50l-14 -80h60l-9 -50h-60l-59 -340h-50l38 220h-280l-38 -220h-50l59 340h-60zM177 270h280l12 70h-280z" />
    <glyph glyph-name="Iogonek.small" horiz-adv-x="210" 
d="M89 0h-9l82 470h50l-82 -470h-8q-27 -41 -34 -73t12 -42q15 -5 30 -4.5t27 3.5l12 3l3 -5l-12 -41q-5 -1 -12.5 -3t-30 -4.5t-36.5 1.5q-29 6 -38 26t-1.5 46t20 49.5t27.5 43.5z" />
    <glyph glyph-name="IJ.small" horiz-adv-x="531" 
d="M162 470h50l-82 -470h-50zM422 122l61 348h50l-61 -348q-11 -65 -53.5 -98.5t-96.5 -33.5l-92 8l7 40l8 7q48 -5 81 -5q81 0 96 82z" />
    <glyph glyph-name="Scedilla.small" horiz-adv-x="510" 
d="M156 -135l7 6q37 -5 53 -3q17 1 22.5 8.5t7.5 20.5q1 7 0 12t-11 10.5t-29 5.5l12 66l-138 9l7 43l8 7q102 -10 165 -10q27 0 46.5 2.5t44 10t40.5 26.5t21 48q4 25 -2 42.5t-16.5 26.5t-33.5 13.5t-38 5t-45 0.5q-36 0 -62 5t-49.5 18.5t-32.5 41t-2 68.5
q24 132 190 132q37 0 79.5 -2.5t67.5 -5.5l24 -2l-7 -43l-8 -7q-92 10 -155 10q-59 0 -95.5 -16.5t-45.5 -65.5q-4 -24 1.5 -40.5t14.5 -25t31.5 -12.5t38.5 -4.5t49 -0.5q36 0 59 -3.5t49.5 -15.5t36 -42t1.5 -77q-23 -135 -199 -137l-6 -35q52 -9 44 -60q-13 -75 -93 -75
l-59 5z" />
    <glyph glyph-name="Tbar.small" horiz-adv-x="440" 
d="M140 260h100l29 160h-170l8 50h390l-8 -50h-170l-29 -160h100l-8 -50h-100l-37 -210h-50l37 210h-100z" />
    <glyph glyph-name="Uogonek.small" horiz-adv-x="540" 
d="M492 470h50l-58 -330q-26 -150 -181 -150h-23q-23 -37 -28 -66t13 -39q15 -5 30 -4.5t27 3.5l12 3l3 -5l-12 -41q-5 -1 -12.5 -3t-30 -4.5t-36.5 1.5q-27 5 -37 23t-4.5 42t16 46.5t25.5 43.5h-13q-67 0 -105 34t-24 116l58 330h50l-58 -330q-8 -50 14.5 -75t63.5 -25h90
q41 0 72.5 25t39.5 75z" />
    <glyph glyph-name="a.end" horiz-adv-x="750" 
d="M374 110l55 314q-62 6 -117 6q-116 0 -132 -87l-38 -216q-9 -50 12 -68.5t68 -18.5q76 0 152 70zM412 40h200q48 0 77 18.5t38 68.5l15 88h45l-13 -78q-14 -78 -56.5 -107.5t-107.5 -29.5h-248l-6 7l12 53h-4q-2 -3 -6 -7.5t-19 -16.5t-32 -21.5t-45 -17t-59 -7.5
q-64 0 -94.5 29.5t-16.5 107.5l38 216q24 137 181 137q32 0 74.5 -2.5t68.5 -5.5l26 -2l6 -7z" />
    <glyph glyph-name="aacute.end" horiz-adv-x="750" 
d="M374 110l55 314q-62 6 -117 6q-116 0 -132 -87l-38 -216q-9 -50 12 -68.5t68 -18.5q76 0 152 70zM412 40h200q48 0 77 18.5t38 68.5l15 88h45l-13 -78q-14 -78 -56.5 -107.5t-107.5 -29.5h-248l-6 7l12 53h-4q-2 -3 -6 -7.5t-19 -16.5t-32 -21.5t-45 -17t-59 -7.5
q-64 0 -94.5 29.5t-16.5 107.5l38 216q24 137 181 137q32 0 74.5 -2.5t68.5 -5.5l26 -2l6 -7zM339 540l-23 20l142 150l38 -40z" />
    <glyph glyph-name="abreve.end" horiz-adv-x="750" 
d="M374 110l55 314q-62 6 -117 6q-116 0 -132 -87l-38 -216q-9 -50 12 -68.5t68 -18.5q76 0 152 70zM412 40h200q48 0 77 18.5t38 68.5l15 88h45l-13 -78q-14 -78 -56.5 -107.5t-107.5 -29.5h-248l-6 7l12 53h-4q-2 -3 -6 -7.5t-19 -16.5t-32 -21.5t-45 -17t-59 -7.5
q-64 0 -94.5 29.5t-16.5 107.5l38 216q24 137 181 137q32 0 74.5 -2.5t68.5 -5.5l26 -2l6 -7zM448 660h49q-10 -56 -48 -84.5t-84 -28.5h-16q-46 0 -74 28.5t-18 84.5h49q-6 -34 10.5 -51t44.5 -17h9q27 0 49.5 17t28.5 51z" />
    <glyph glyph-name="acircumflex.end" horiz-adv-x="750" 
d="M374 110l55 314q-62 6 -117 6q-116 0 -132 -87l-38 -216q-9 -50 12 -68.5t68 -18.5q76 0 152 70zM412 40h200q48 0 77 18.5t38 68.5l15 88h45l-13 -78q-14 -78 -56.5 -107.5t-107.5 -29.5h-248l-6 7l12 53h-4q-2 -3 -6 -7.5t-19 -16.5t-32 -21.5t-45 -17t-59 -7.5
q-64 0 -94.5 29.5t-16.5 107.5l38 216q24 137 181 137q32 0 74.5 -2.5t68.5 -5.5l26 -2l6 -7zM351 670h52l85 -130h-56l-63 88l-93 -88h-56z" />
    <glyph glyph-name="adieresis.end" horiz-adv-x="750" 
d="M374 110l55 314q-62 6 -117 6q-116 0 -132 -87l-38 -216q-9 -50 12 -68.5t68 -18.5q76 0 152 70zM412 40h200q48 0 77 18.5t38 68.5l15 88h45l-13 -78q-14 -78 -56.5 -107.5t-107.5 -29.5h-248l-6 7l12 53h-4q-2 -3 -6 -7.5t-19 -16.5t-32 -21.5t-45 -17t-59 -7.5
q-64 0 -94.5 29.5t-16.5 107.5l38 216q24 137 181 137q32 0 74.5 -2.5t68.5 -5.5l26 -2l6 -7zM306 635l-13 -75h-75l13 75h75zM491 635l-13 -75h-75l13 75h75z" />
    <glyph glyph-name="agrave.end" horiz-adv-x="750" 
d="M374 110l55 314q-62 6 -117 6q-116 0 -132 -87l-38 -216q-9 -50 12 -68.5t68 -18.5q76 0 152 70zM412 40h200q48 0 77 18.5t38 68.5l15 88h45l-13 -78q-14 -78 -56.5 -107.5t-107.5 -29.5h-248l-6 7l12 53h-4q-2 -3 -6 -7.5t-19 -16.5t-32 -21.5t-45 -17t-59 -7.5
q-64 0 -94.5 29.5t-16.5 107.5l38 216q24 137 181 137q32 0 74.5 -2.5t68.5 -5.5l26 -2l6 -7zM383 560l-29 -20l-111 130l52 40z" />
    <glyph glyph-name="amacron.end" horiz-adv-x="750" 
d="M374 110l55 314q-62 6 -117 6q-116 0 -132 -87l-38 -216q-9 -50 12 -68.5t68 -18.5q76 0 152 70zM412 40h200q48 0 77 18.5t38 68.5l15 88h45l-13 -78q-14 -78 -56.5 -107.5t-107.5 -29.5h-248l-6 7l12 53h-4q-2 -3 -6 -7.5t-19 -16.5t-32 -21.5t-45 -17t-59 -7.5
q-64 0 -94.5 29.5t-16.5 107.5l38 216q24 137 181 137q32 0 74.5 -2.5t68.5 -5.5l26 -2l6 -7zM499 600l-9 -50h-280l9 50h280z" />
    <glyph glyph-name="aogonek.end" horiz-adv-x="750" 
d="M412 40h200q48 0 77 18.5t38 68.5l15 88h45l-13 -78q-14 -78 -56.5 -107.5t-107.5 -29.5h-208q-27 -41 -34 -73t12 -42q15 -5 30 -4.5t27 3.5l12 3l3 -5l-12 -41q-5 -1 -12.5 -3t-30 -4.5t-36.5 1.5q-29 6 -38 26t-1.5 46t20 49.5t27.5 43.5h-7l-6 7l12 53h-4
q-2 -3 -6 -7.5t-19 -16.5t-32 -21.5t-45 -17t-59 -7.5q-64 0 -94.5 29.5t-16.5 107.5l38 216q24 137 181 137q32 0 74.5 -2.5t68.5 -5.5l26 -2l6 -7zM374 110l55 314q-62 6 -117 6q-116 0 -132 -87l-38 -216q-9 -50 12 -68.5t68 -18.5q76 0 152 70z" />
    <glyph glyph-name="aring.end" horiz-adv-x="750" 
d="M374 110l55 314q-62 6 -117 6q-116 0 -132 -87l-38 -216q-9 -50 12 -68.5t68 -18.5q76 0 152 70zM412 40h200q48 0 77 18.5t38 68.5l15 88h45l-13 -78q-14 -78 -56.5 -107.5t-107.5 -29.5h-248l-6 7l12 53h-4q-2 -3 -6 -7.5t-19 -16.5t-32 -21.5t-45 -17t-59 -7.5
q-64 0 -94.5 29.5t-16.5 107.5l38 216q24 137 181 137q32 0 74.5 -2.5t68.5 -5.5l26 -2l6 -7zM341 540q-37 0 -58.5 15t-14.5 56l8 42q12 71 97 71h14q37 0 58.5 -15t14.5 -56l-8 -42q-12 -71 -97 -71h-14zM308 651l-6 -38q-8 -40 40 -40h24q46 0 54 40l6 38q4 21 -8 30
t-33 9h-23q-46 0 -54 -39z" />
    <glyph glyph-name="atilde.end" horiz-adv-x="750" 
d="M374 110l55 314q-62 6 -117 6q-116 0 -132 -87l-38 -216q-9 -50 12 -68.5t68 -18.5q76 0 152 70zM412 40h200q48 0 77 18.5t38 68.5l15 88h45l-13 -78q-14 -78 -56.5 -107.5t-107.5 -29.5h-248l-6 7l12 53h-4q-2 -3 -6 -7.5t-19 -16.5t-32 -21.5t-45 -17t-59 -7.5
q-64 0 -94.5 29.5t-16.5 107.5l38 216q24 137 181 137q32 0 74.5 -2.5t68.5 -5.5l26 -2l6 -7zM351 568q-24 15 -39.5 21t-29 2t-21 -9.5t-24.5 -21.5l-28 24q65 93 160 40q16 -10 28 -14.5t19.5 -6t16 2.5t12 7t14 13.5l15.5 15.5l27 -24q-66 -97 -150 -50z" />
    <glyph glyph-name="c_t" horiz-adv-x="730" 
d="M445 427l-8 -7q-62 10 -125 10q-52 0 -87 -16.5t-44 -65.5l-40 -226q-5 -26 2 -43t24 -25t35 -11t42 -3q28 0 60 2.5t50 5.5l17 2l6 -7l-7 -43q-62 -10 -145 -10q-32 0 -56.5 5t-46 18.5t-30 41t-1.5 67.5l40 226q23 128 170 132l2 10q11 65 47.5 102.5t114.5 37.5h206
l-29 -160h120l-8 -50h-120l-53 -300q-3 -27 -1.5 -43t12.5 -24t21 -10.5t24 -2.5l53 5l6 -7l-7 -40q-33 -8 -66 -8q-53 0 -78.5 32t-13.5 98l53 300h-50l8 50h50l20 110h-156q-50 0 -73 -26t-32 -74v-1q27 -1 52.5 -3t36.5 -4l12 -2z" />
    <glyph glyph-name="d.end" horiz-adv-x="755" 
d="M374 110l55 314q-62 6 -117 6q-116 0 -132 -87l-38 -216q-9 -50 12 -68.5t68 -18.5q76 0 152 70zM412 40h205q48 0 77 18.5t38 68.5l15 88h45l-13 -78q-14 -78 -56.5 -107.5t-107.5 -29.5h-253l-6 7l11 53h-4q-2 -3 -6 -7.5t-18.5 -16.5t-31.5 -21.5t-45 -17t-59 -7.5
q-64 0 -94.5 29.5t-16.5 107.5l38 216q24 137 181 137q47 0 127 -5l33 185h50z" />
    <glyph glyph-name="dcaron.end" horiz-adv-x="755" 
d="M374 110l55 314q-62 6 -117 6q-116 0 -132 -87l-38 -216q-9 -50 12 -68.5t68 -18.5q76 0 152 70zM412 40h205q48 0 77 18.5t38 68.5l15 88h45l-13 -78q-14 -78 -56.5 -107.5t-107.5 -29.5h-253l-6 7l11 53h-4q-2 -3 -6 -7.5t-18.5 -16.5t-31.5 -21.5t-45 -17t-59 -7.5
q-64 0 -94.5 29.5t-16.5 107.5l38 216q24 137 181 137q47 0 127 -5l33 185h50zM657 660l-12 -70l-33 -130h-30l23 130h-30l12 70h70z" />
    <glyph glyph-name="dcroat.end" horiz-adv-x="755" 
d="M412 40h205q48 0 77 18.5t38 68.5l15 88h45l-13 -78q-14 -78 -56.5 -107.5t-107.5 -29.5h-253l-6 7l11 53h-4q-2 -3 -6 -7.5t-18.5 -16.5t-31.5 -21.5t-45 -17t-59 -7.5q-64 0 -94.5 29.5t-16.5 107.5l38 216q24 137 181 137q47 0 127 -5l12 65h-60l9 50h60l12 70h50
l-12 -70h60l-9 -50h-60zM374 110l55 314q-62 6 -117 6q-116 0 -132 -87l-38 -216q-9 -50 12 -68.5t68 -18.5q76 0 152 70z" />
    <glyph glyph-name="e.end" horiz-adv-x="620" 
d="M159 219l-18 -97q-5 -26 2 -43t24 -25t35 -11t42 -3q65 0 129 18t109 43.5t80 51.5t52 44l18 18l18 -40q-6 -8 -18.5 -20t-54 -44t-87.5 -56.5t-118 -44.5t-147 -20q-32 0 -56.5 5t-46 18.5t-30 41t-1.5 67.5l39 221q13 71 66.5 104t127.5 33q77 0 118.5 -30t28.5 -107
q-24 -132 -181 -132q-80 0 -131 8zM181 343l-13 -73q81 -9 121 -9q117 0 132 82q8 49 -23 69t-83 20q-119 0 -134 -89z" />
    <glyph glyph-name="eacute.end" horiz-adv-x="620" 
d="M159 219l-18 -97q-5 -26 2 -43t24 -25t35 -11t42 -3q65 0 129 18t109 43.5t80 51.5t52 44l18 18l18 -40q-6 -8 -18.5 -20t-54 -44t-87.5 -56.5t-118 -44.5t-147 -20q-32 0 -56.5 5t-46 18.5t-30 41t-1.5 67.5l39 221q13 71 66.5 104t127.5 33q77 0 118.5 -30t28.5 -107
q-24 -132 -181 -132q-80 0 -131 8zM181 343l-13 -73q81 -9 121 -9q117 0 132 82q8 49 -23 69t-83 20q-119 0 -134 -89zM337 540l-23 20l142 150l38 -40z" />
    <glyph glyph-name="ebreve.end" horiz-adv-x="620" 
d="M159 219l-18 -97q-5 -26 2 -43t24 -25t35 -11t42 -3q65 0 129 18t109 43.5t80 51.5t52 44l18 18l18 -40q-6 -8 -18.5 -20t-54 -44t-87.5 -56.5t-118 -44.5t-147 -20q-32 0 -56.5 5t-46 18.5t-30 41t-1.5 67.5l39 221q13 71 66.5 104t127.5 33q77 0 118.5 -30t28.5 -107
q-24 -132 -181 -132q-80 0 -131 8zM181 343l-13 -73q81 -9 121 -9q117 0 132 82q8 49 -23 69t-83 20q-119 0 -134 -89zM429 660h49q-10 -56 -48 -84.5t-84 -28.5h-16q-46 0 -74 28.5t-18 84.5h49q-6 -34 10.5 -51t44.5 -17h9q27 0 49.5 17t28.5 51z" />
    <glyph glyph-name="ecaron.end" horiz-adv-x="620" 
d="M159 219l-18 -97q-5 -26 2 -43t24 -25t35 -11t42 -3q65 0 129 18t109 43.5t80 51.5t52 44l18 18l18 -40q-6 -8 -18.5 -20t-54 -44t-87.5 -56.5t-118 -44.5t-147 -20q-32 0 -56.5 5t-46 18.5t-30 41t-1.5 67.5l39 221q13 71 66.5 104t127.5 33q77 0 118.5 -30t28.5 -107
q-24 -132 -181 -132q-80 0 -131 8zM181 343l-13 -73q81 -9 121 -9q117 0 132 82q8 49 -23 69t-83 20q-119 0 -134 -89zM358 530h-52l-85 130h56l62 -88l94 88h56z" />
    <glyph glyph-name="ecircumflex.end" horiz-adv-x="620" 
d="M159 219l-18 -97q-5 -26 2 -43t24 -25t35 -11t42 -3q65 0 129 18t109 43.5t80 51.5t52 44l18 18l18 -40q-6 -8 -18.5 -20t-54 -44t-87.5 -56.5t-118 -44.5t-147 -20q-32 0 -56.5 5t-46 18.5t-30 41t-1.5 67.5l39 221q13 71 66.5 104t127.5 33q77 0 118.5 -30t28.5 -107
q-24 -132 -181 -132q-80 0 -131 8zM181 343l-13 -73q81 -9 121 -9q117 0 132 82q8 49 -23 69t-83 20q-119 0 -134 -89zM333 670h52l85 -130h-56l-63 88l-93 -88h-56z" />
    <glyph glyph-name="edieresis.end" horiz-adv-x="620" 
d="M159 219l-18 -97q-5 -26 2 -43t24 -25t35 -11t42 -3q65 0 129 18t109 43.5t80 51.5t52 44l18 18l18 -40q-6 -8 -18.5 -20t-54 -44t-87.5 -56.5t-118 -44.5t-147 -20q-32 0 -56.5 5t-46 18.5t-30 41t-1.5 67.5l39 221q13 71 66.5 104t127.5 33q77 0 118.5 -30t28.5 -107
q-24 -132 -181 -132q-80 0 -131 8zM181 343l-13 -73q81 -9 121 -9q117 0 132 82q8 49 -23 69t-83 20q-119 0 -134 -89zM298 635l-13 -75h-75l13 75h75zM483 635l-13 -75h-75l13 75h75z" />
    </font>
</defs>
</svg>
